<svg width="162" height="171" viewBox="0 0 162 171" fill="none" xmlns="http://www.w3.org/2000/svg">
<path d="M34.4296 62.0235L34.4285 62.0211L32.8537 58.6663L48.454 51.3918L50.009 54.7551L50.0104 54.758C50.091 54.9309 50.1735 55.2195 50.2219 55.557C50.2702 55.8938 50.2724 56.1949 50.2441 56.3851C50.2441 56.3854 50.244 56.3856 50.244 56.3859L49.6887 60.0456C49.6338 60.4048 49.4338 60.8608 49.1112 61.2924C48.7885 61.7242 48.409 62.0434 48.0826 62.1956L41.369 65.3262C41.0406 65.4793 40.5511 65.565 40.0128 65.5348C39.4745 65.5046 38.9966 65.3647 38.6863 65.1759L38.6859 65.1757L35.5198 63.2515C35.5191 63.2511 35.5185 63.2507 35.5178 63.2503C35.0445 62.9591 34.6675 62.5336 34.4296 62.0235ZM30.1431 53.4867C27.2169 50.4158 22.6154 47.5987 19.912 46.4098C15.6007 44.5098 11.9408 41.1099 9.79446 36.5071C5.33763 26.9494 8.96207 14.8329 19.5201 9.87011C29.6215 5.12225 41.6391 9.48392 46.3019 19.4834C48.4972 24.1913 48.7445 29.167 47.3896 33.5848L47.3895 33.5848L47.3857 33.5979C46.5587 36.4328 45.7582 41.7693 46.2302 45.9851L30.1431 53.4867ZM20.2459 31.6348C18.2888 27.4379 20.1457 22.3014 24.4559 20.2915C25.8432 19.6446 26.6284 18.0368 25.9143 16.5054C25.2322 15.0426 23.4948 14.4097 22.0314 15.0922C14.8181 18.4558 11.6218 26.9679 14.9948 34.2014C15.6749 35.66 17.4192 36.2948 18.8778 35.6147C20.3682 34.9197 20.9561 33.1578 20.2459 31.6348Z" fill="white" stroke="#CA0C0C" stroke-width="2"/>
<path d="M59.8914 128.738V128.298L59.5665 128C50.7612 119.942 45.1895 108.256 45.1895 95.2103C45.1895 70.8425 64.5065 51.1307 88.2954 51.1307H105.317C120.714 51.1307 134.905 58.8471 143.545 71.4053C144.895 73.3707 146.319 76.3653 147.777 79.9864C149.23 83.5925 150.694 87.7578 152.137 92.0294C152.8 93.9907 153.459 95.9773 154.111 97.9417C156.285 104.495 158.377 110.8 160.245 115.096C162.122 119.425 159.028 124.263 154.24 124.263H146.893H145.893V125.263V140.501C145.893 148.067 139.934 154.316 132.398 154.316H117.698H116.698L116.698 155.316L116.699 169.343H59.8914V128.738Z" fill="white" stroke="#CA0C0C" stroke-width="2"/>
</svg>
