<svg width="173" height="134" viewBox="0 0 173 134" fill="none" xmlns="http://www.w3.org/2000/svg">
<path d="M101.156 30.8236L80.1268 57.579L69.8714 48.7883L69.8713 48.7882C66.4553 45.8606 61.2965 46.2462 58.3502 49.6704L58.35 49.6706C55.4467 53.0466 55.7644 58.2292 58.9754 60.926C58.9768 60.9272 58.9782 60.9284 58.9797 60.9296L75.7053 75.266C77.1931 76.5427 79.0652 77.2311 81.0123 77.2311C81.1369 77.2311 81.2235 77.2312 81.2973 77.2339C81.3199 77.2348 81.3386 77.2358 81.3541 77.2368L81.6187 77.4987L82.0846 77.4542C84.3096 77.2416 86.3431 76.1234 87.7162 74.3676C87.7165 74.3673 87.7167 74.367 87.7169 74.3667L114.011 40.9012C116.803 37.36 116.192 32.2165 112.626 29.4399C109.089 26.6619 103.943 27.2801 101.156 30.8233L101.156 30.8236ZM129.094 1C136.461 1 142.438 6.97424 142.438 14.3438V104.188H29.6875V14.3438C29.6875 6.97424 35.6645 1 43.0312 1H129.094ZM154 77.5H157.781C165.148 77.5 171.125 83.4771 171.125 90.8438V119.531C171.125 126.901 165.151 132.875 157.781 132.875H14.3438C6.97424 132.875 1 126.898 1 119.531V90.8438C1 83.477 6.97424 77.5 14.3438 77.5H18.125V109.969C18.125 113.149 20.7107 115.75 23.9062 115.75H148.219C151.411 115.75 154 113.161 154 109.969V77.5Z" fill="white" stroke="#CA0C0C" stroke-width="2"/>
</svg>
