<svg width="153" height="154" viewBox="0 0 153 154" fill="none" xmlns="http://www.w3.org/2000/svg">
<path d="M148.423 74.1314L148.423 74.1318C132.88 98.6859 105.756 113.752 76.5015 113.752C66.0558 113.752 55.8693 111.768 46.3579 108.152L45.5621 107.849L45.1365 108.586L24.1457 144.944L8.33022 151.698C6.01204 152.688 3.39318 151.176 3.09059 148.672L1.0327 131.597L22.1669 94.9913L22.5871 94.2635L21.9425 93.7243C15.6448 88.456 9.99964 82.3801 5.40729 75.4076L5.40708 75.4072C4.25289 73.6563 4.8777 71.1961 6.75823 70.1085L6.75872 70.1082L15.0513 65.306C15.0513 65.306 15.0513 65.3059 15.0514 65.3059C16.7716 64.3101 18.9468 64.8681 20.1103 66.5925C23.0622 70.9688 26.5238 74.9054 30.3249 78.4219L31.2441 79.2722L31.8701 78.1878L52.2804 42.8328L52.5611 42.3465L52.2921 41.8537C50.1378 37.9069 48.8134 33.4682 48.8134 28.6881C48.8134 13.3962 61.2096 1 76.5015 1C91.7934 1 104.19 13.3962 104.19 28.6881C104.19 33.4682 102.865 37.9067 100.708 41.8532L100.439 42.3462L100.72 42.8328L115.811 68.9739C109.329 75.3173 101.478 79.9716 92.8481 82.5786L77.9742 56.8134L77.6758 56.2965L77.0792 56.3138C76.919 56.3184 76.768 56.3412 76.6797 56.3545C76.6717 56.3557 76.6643 56.3568 76.6573 56.3579C76.5535 56.3733 76.5201 56.3761 76.4985 56.3761C76.4773 56.3761 76.445 56.3734 76.3413 56.3579C76.3346 56.3569 76.3275 56.3559 76.3198 56.3547C76.231 56.3413 76.0797 56.3184 75.9174 56.3138L75.3211 56.2967L75.0228 56.8134L54.8934 91.6813L54.2779 92.7475L55.4476 93.1314C62.1631 95.3356 69.2314 96.6269 76.5015 96.6269C99.6284 96.6269 121.089 84.8438 133.557 65.5758C134.687 63.8325 136.85 63.2343 138.586 64.1973L139.067 63.3307L138.586 64.1974L146.975 68.8502L146.975 68.8504C148.877 69.9045 149.548 72.3564 148.423 74.1314ZM128.854 144.941L113.345 118.078C121.616 114.666 129.278 109.998 136.287 104.434L151.967 131.594L149.909 148.669C149.909 148.67 149.909 148.67 149.909 148.67C149.607 151.173 146.988 152.685 144.67 151.695L128.854 144.941ZM87.0642 28.6881C87.0642 22.8554 82.3342 18.1254 76.5015 18.1254C70.6688 18.1254 65.9388 22.8554 65.9388 28.6881C65.9388 34.5207 70.6688 39.2507 76.5015 39.2507C82.3342 39.2507 87.0642 34.5207 87.0642 28.6881Z" fill="white" stroke="#CA0C0C" stroke-width="2"/>
</svg>
