<svg width="192" height="221" viewBox="0 0 192 221" fill="none" xmlns="http://www.w3.org/2000/svg">
<g filter="url(#filter0_d_645_4)">
<path d="M149.402 159.416V199.843H41.1628V159.416C41.1628 150.263 44.7987 141.486 51.2706 135.014C57.7425 128.542 66.5202 124.906 75.6728 124.906H114.872C124.025 124.906 132.803 128.542 139.274 135.014C145.746 141.486 149.382 150.263 149.382 159.416H149.402Z" fill="#939393"/>
<path d="M149.403 200.858H41.1629C40.8938 200.858 40.6356 200.751 40.4453 200.561C40.2549 200.371 40.1479 200.113 40.1479 199.843V159.416C40.1479 149.994 43.8908 140.958 50.553 134.296C57.2152 127.634 66.2511 123.891 75.6729 123.891H114.872C124.294 123.891 133.33 127.634 139.992 134.296C146.654 140.958 150.397 149.994 150.397 159.416V199.843C150.397 200.109 150.293 200.364 150.107 200.554C149.921 200.744 149.668 200.853 149.403 200.858ZM42.1779 198.828H148.388V159.416C148.388 150.533 144.859 142.013 138.577 135.731C132.296 129.45 123.776 125.921 114.893 125.921H75.6831C70.3041 125.902 65.0016 127.194 60.2348 129.687C54.7884 132.515 50.2239 136.786 47.0395 142.032C43.8552 147.279 42.1734 153.299 42.1779 159.436V198.828Z" fill="black"/>
<path d="M103.291 108.869H87.2744V124.886H103.291V108.869Z" fill="#FFC9B0"/>
<path d="M103.291 125.901H87.2745C87.0053 125.901 86.7472 125.794 86.5568 125.603C86.3665 125.413 86.2595 125.155 86.2595 124.886V108.869C86.2595 108.6 86.3665 108.342 86.5568 108.151C86.7472 107.961 87.0053 107.854 87.2745 107.854H103.291C103.56 107.854 103.819 107.961 104.009 108.151C104.199 108.342 104.306 108.6 104.306 108.869V124.886C104.306 125.155 104.199 125.413 104.009 125.603C103.819 125.794 103.56 125.901 103.291 125.901ZM88.2895 123.871H102.276V109.884H88.2895V123.871Z" fill="black"/>
<path d="M62.2749 94.263C68.5308 94.263 73.6023 87.3102 73.6023 78.7335C73.6023 70.1568 68.5308 63.204 62.2749 63.204C56.0189 63.204 50.9475 70.1568 50.9475 78.7335C50.9475 87.3102 56.0189 94.263 62.2749 94.263Z" fill="#FFC9B0"/>
<path d="M62.2749 95.278C55.4744 95.278 49.9426 87.8584 49.9426 78.7335C49.9426 69.6087 55.4744 62.1789 62.2749 62.1789C69.0754 62.1789 74.6173 69.6087 74.6173 78.7335C74.6173 87.8584 69.0855 95.278 62.2749 95.278ZM62.2749 64.2089C56.5909 64.2089 51.9726 70.7252 51.9726 78.7335C51.9726 86.7419 56.5909 93.248 62.2749 93.248C67.9589 93.248 72.5873 86.7419 72.5873 78.7335C72.5873 70.7252 67.9589 64.2089 62.2749 64.2089Z" fill="black"/>
<path d="M128.291 94.263C134.546 94.263 139.618 87.3102 139.618 78.7335C139.618 70.1568 134.546 63.204 128.291 63.204C122.035 63.204 116.963 70.1568 116.963 78.7335C116.963 87.3102 122.035 94.263 128.291 94.263Z" fill="#FFC9B0"/>
<path d="M128.291 95.278C121.49 95.278 115.948 87.8584 115.948 78.7335C115.948 69.6087 121.49 62.1789 128.291 62.1789C135.091 62.1789 140.633 69.6087 140.633 78.7335C140.633 87.8584 135.091 95.278 128.291 95.278ZM128.291 64.2089C122.607 64.2089 117.978 70.7252 117.978 78.7335C117.978 86.7419 122.607 93.248 128.291 93.248C133.975 93.248 138.603 86.7419 138.603 78.7335C138.603 70.7252 133.975 64.2089 128.291 64.2089Z" fill="black"/>
<path d="M117.521 36.5908C119.217 36.5894 120.897 36.9225 122.464 37.5708C124.031 38.2192 125.454 39.1701 126.654 40.3693C127.853 41.5684 128.804 42.9922 129.452 44.5592C130.1 46.1263 130.433 47.8057 130.432 49.5016V84.4074C130.433 88.8202 129.565 93.1901 127.878 97.2674C126.19 101.345 123.715 105.049 120.596 108.17C117.476 111.291 113.772 113.767 109.695 115.456C105.618 117.145 101.248 118.014 96.8356 118.014H93.7906C89.3765 118.015 85.0053 117.147 80.9268 115.459C76.8483 113.771 73.1423 111.295 70.0206 108.174C66.8988 105.054 64.4225 101.348 62.7329 97.2705C61.0434 93.1925 60.1738 88.8216 60.1738 84.4074V49.5016C60.1738 46.0774 61.5341 42.7935 63.9553 40.3722C66.3766 37.951 69.6605 36.5908 73.0846 36.5908H117.521Z" fill="#FFC9B0"/>
<path d="M96.8357 119.029H93.7907C84.6109 119.018 75.8099 115.368 69.3178 108.877C62.8257 102.387 59.1724 93.5873 59.1589 84.4074V49.5015C59.1643 45.8098 60.6332 42.2709 63.2436 39.6604C65.8541 37.05 69.393 35.5811 73.0847 35.5757H117.562C121.248 35.5892 124.778 37.0619 127.38 39.6718C129.982 42.2817 131.445 45.816 131.447 49.5015V84.4074C131.439 93.5854 127.79 102.385 121.301 108.876C114.813 115.367 106.014 119.018 96.8357 119.029ZM73.0441 37.6057C69.8908 37.6111 66.8682 38.8661 64.6385 41.0959C62.4087 43.3256 61.1537 46.3482 61.1483 49.5015V84.4074C61.1591 93.0497 64.5977 101.335 70.7097 107.445C76.8217 113.555 85.1078 116.991 93.7501 116.999H96.7951C105.435 116.988 113.717 113.551 119.825 107.441C125.934 101.331 129.369 93.047 129.377 84.4074V49.5015C129.371 46.3482 128.116 43.3256 125.886 41.0959C123.657 38.8661 120.634 37.6111 117.481 37.6057H73.0441Z" fill="black"/>
<path d="M120.15 94.4863C116.496 89.0865 106.742 85.2194 95.2828 85.2194C83.8234 85.2194 74.0693 89.0865 70.4153 94.4863C67.1592 91.3562 64.5698 87.5999 62.8029 83.4432C61.0359 79.2866 60.1279 74.8155 60.1333 70.2989V84.4074C60.1333 88.8215 61.0029 93.1924 62.6925 97.2705C64.382 101.348 66.8583 105.054 69.9801 108.174C73.1018 111.295 76.8078 113.771 80.8863 115.459C84.9648 117.147 89.336 118.015 93.7501 118.014H96.7951C101.208 118.014 105.578 117.145 109.654 115.456C113.731 113.767 117.435 111.291 120.555 108.17C123.675 105.049 126.149 101.345 127.837 97.2673C129.525 93.1901 130.393 88.8202 130.392 84.4074V70.2989C130.402 74.8126 129.501 79.2819 127.741 83.4384C125.981 87.5949 123.399 91.3527 120.15 94.4863ZM95.2828 108.27C86.432 108.27 79.1646 104.707 78.2917 100.15C78.2306 99.846 78.2 99.5365 78.2003 99.2264C78.2003 94.2224 85.8433 90.1726 95.2828 90.1726C104.722 90.1726 112.365 94.2326 112.365 99.2264C112.365 99.5432 112.334 99.8593 112.274 100.17C111.381 104.718 104.123 108.27 95.2828 108.27Z" fill="#725858"/>
<path d="M96.8357 119.029H93.7907C84.6109 119.018 75.8099 115.368 69.3178 108.877C62.8257 102.387 59.1724 93.5873 59.1589 84.4074V70.2989C59.1589 70.0297 59.2659 69.7716 59.4562 69.5812C59.6466 69.3909 59.9047 69.2839 60.1739 69.2839C60.4431 69.2839 60.7013 69.3909 60.8916 69.5812C61.082 69.7716 61.1889 70.0297 61.1889 70.2989C61.1544 78.7515 64.4339 86.881 70.3239 92.9436C74.7087 87.6757 84.5339 84.2044 95.3031 84.2044C106.072 84.2044 115.897 87.6757 120.282 92.9436C126.172 86.881 129.452 78.7515 129.417 70.2989C129.417 70.0297 129.524 69.7716 129.715 69.5812C129.905 69.3909 130.163 69.2839 130.432 69.2839C130.701 69.2839 130.96 69.3909 131.15 69.5812C131.34 69.7716 131.447 70.0297 131.447 70.2989V84.4074C131.439 93.5854 127.79 102.385 121.301 108.876C114.813 115.367 106.014 119.018 96.8357 119.029ZM61.1483 82.0526V84.4074C61.1618 93.0489 64.6012 101.332 70.7126 107.442C76.824 113.551 85.1087 116.988 93.7501 116.999H96.7951C105.435 116.988 113.717 113.551 119.825 107.441C125.934 101.331 129.369 93.047 129.377 84.4074V82.0526C127.575 87.0519 124.643 91.5675 120.81 95.2476C120.704 95.3484 120.577 95.425 120.439 95.4723C120.301 95.5196 120.154 95.5365 120.008 95.5217C119.86 95.5076 119.717 95.4612 119.589 95.3858C119.461 95.3104 119.351 95.2078 119.267 95.0852C115.694 89.8072 106.072 86.2649 95.2422 86.2649C84.4121 86.2649 74.7899 89.8072 71.2171 95.0852C71.1331 95.2078 71.0232 95.3104 70.8952 95.3858C70.7671 95.4612 70.6241 95.5076 70.4762 95.5217C70.3307 95.5365 70.1837 95.5196 70.0453 95.4723C69.9069 95.425 69.7804 95.3484 69.6743 95.2476C65.8523 91.5661 62.9341 87.0499 61.1483 82.0526ZM95.2828 109.285C86.0057 109.285 78.2714 105.438 77.297 100.343C77.2247 99.9751 77.1873 99.6013 77.1853 99.2264C77.1853 93.583 85.1328 89.1576 95.2828 89.1576C105.433 89.1576 113.38 93.583 113.38 99.2264C113.378 99.608 113.34 99.9885 113.269 100.363C112.274 105.448 104.54 109.285 95.2828 109.285ZM95.2828 91.1876C86.5741 91.1876 79.2153 94.8619 79.2153 99.2264C79.2138 99.4685 79.2376 99.71 79.2864 99.9471C80.0679 104.007 87.1019 107.255 95.2828 107.255C103.464 107.255 110.508 104.058 111.279 99.9775C111.327 99.7301 111.351 99.4785 111.35 99.2264C111.35 94.8619 103.991 91.1876 95.2828 91.1876Z" fill="black"/>
<path d="M95.6584 103.002C91.7818 103.011 87.9705 102.003 84.6051 100.079C84.3793 99.9334 84.2204 99.7042 84.1633 99.4416C84.1062 99.179 84.1556 98.9046 84.3006 98.6783C84.3719 98.5657 84.4647 98.4682 84.5737 98.3914C84.6826 98.3146 84.8057 98.2601 84.9358 98.2309C85.0658 98.2016 85.2004 98.1983 85.3317 98.2211C85.4631 98.2439 85.5887 98.2924 85.7013 98.3637C88.74 100.083 92.172 100.987 95.6635 100.987C99.155 100.987 102.587 100.083 105.626 98.3637C105.742 98.297 105.871 98.254 106.004 98.2371C106.137 98.2201 106.273 98.2296 106.402 98.2649C106.532 98.3003 106.653 98.3608 106.76 98.4431C106.866 98.5253 106.955 98.6277 107.021 98.7443C107.088 98.8609 107.131 98.9896 107.148 99.1228C107.165 99.2561 107.155 99.3913 107.12 99.5209C107.085 99.6505 107.024 99.7719 106.942 99.8781C106.86 99.9843 106.757 100.073 106.641 100.14C103.286 102.02 99.5041 103.006 95.6584 103.002Z" fill="black"/>
<path d="M95.6381 4.18176C106.39 4.18176 116.701 8.45283 124.304 16.0554C131.906 23.6579 136.177 33.9692 136.177 44.7209V46.8727H55.0889V44.7209C55.0889 39.3963 56.1378 34.124 58.1757 29.2049C60.2136 24.2858 63.2006 19.8163 66.9661 16.0518C70.7316 12.2873 75.2018 9.30139 80.1214 7.2647C85.041 5.22802 90.3136 4.18043 95.6381 4.18176Z" fill="#939393"/>
<path d="M136.177 47.8877H55.0887C54.8195 47.8877 54.5614 47.7808 54.371 47.5904C54.1807 47.4001 54.0737 47.1419 54.0737 46.8727V44.7209C54.2442 33.8112 58.6978 23.406 66.4731 15.7513C74.2484 8.09655 84.7219 3.80615 95.6329 3.80615C106.544 3.80615 117.017 8.09655 124.793 15.7513C132.568 23.406 137.022 33.8112 137.192 44.7209V46.8727C137.192 47.006 137.166 47.138 137.115 47.2611C137.064 47.3843 136.989 47.4962 136.895 47.5904C136.801 47.6847 136.689 47.7594 136.566 47.8104C136.442 47.8614 136.31 47.8877 136.177 47.8877ZM56.1037 45.8577H135.162V44.7209C134.996 34.3468 130.758 24.4539 123.363 17.1763C115.968 9.89882 106.008 5.82009 95.6329 5.82009C85.2575 5.82009 75.2979 9.89882 67.9028 17.1763C60.5078 24.4539 56.27 34.3468 56.1037 44.7209V45.8577Z" fill="black"/>
<path d="M137.192 46.8727H54.0736C49.7741 46.8727 46.2886 50.3559 46.2886 54.6527C46.2886 58.9494 49.7741 62.4326 54.0736 62.4326H137.192C141.492 62.4326 144.977 58.9494 144.977 54.6527C144.977 50.3559 141.492 46.8727 137.192 46.8727Z" fill="#939393"/>
<path d="M137.202 63.4477H54.0737C52.8936 63.4878 51.7175 63.29 50.6154 62.866C49.5134 62.4421 48.5079 61.8007 47.6589 60.9801C46.8099 60.1594 46.1347 59.1763 45.6736 58.0893C45.2125 57.0022 44.9749 55.8335 44.9749 54.6527C44.9749 53.4719 45.2125 52.3032 45.6736 51.2162C46.1347 50.1291 46.8099 49.146 47.6589 48.3254C48.5079 47.5047 49.5134 46.8633 50.6154 46.4394C51.7175 46.0155 52.8936 45.8176 54.0737 45.8577H137.202C139.483 45.9352 141.645 46.8958 143.231 48.5367C144.817 50.1776 145.703 52.3705 145.703 54.6527C145.703 56.9349 144.817 59.1278 143.231 60.7687C141.645 62.4096 139.483 63.3702 137.202 63.4477ZM54.0737 47.8877C53.1633 47.8525 52.2551 48.0013 51.4036 48.3254C50.552 48.6495 49.7747 49.1421 49.1181 49.7738C48.4615 50.4054 47.9391 51.1631 47.5823 52.0015C47.2255 52.8398 47.0416 53.7416 47.0416 54.6527C47.0416 55.5638 47.2255 56.4656 47.5823 57.3039C47.9391 58.1423 48.4615 58.9 49.1181 59.5316C49.7747 60.1633 50.552 60.6559 51.4036 60.98C52.2551 61.3041 53.1633 61.453 54.0737 61.4177H137.202C138.951 61.3499 140.606 60.6076 141.819 59.3463C143.032 58.085 143.71 56.4029 143.71 54.6527C143.71 52.9026 143.032 51.2204 141.819 49.9591C140.606 48.6979 138.951 47.9555 137.202 47.8877H54.0737Z" fill="black"/>
<path d="M90.3802 1.01502H100.886C101.758 1.01415 102.62 1.1931 103.42 1.5407C104.22 1.88829 104.94 2.39707 105.534 3.03524C106.128 3.67342 106.585 4.4273 106.875 5.24978C107.165 6.07226 107.282 6.94569 107.219 7.81551L104.357 46.8727H86.909L84.0568 7.78507C83.9969 6.91821 84.1161 6.0483 84.4068 5.22946C84.6975 4.41062 85.1536 3.66036 85.7468 3.02535C86.3399 2.39034 87.0573 1.88417 87.8544 1.53832C88.6516 1.19247 89.5113 1.01434 90.3802 1.01502Z" fill="#939393"/>
<path d="M104.357 47.8877H86.909C86.6533 47.8885 86.4067 47.7928 86.2185 47.6197C86.0304 47.4466 85.9145 47.2088 85.894 46.9539L83.0317 7.89671C82.9562 6.88744 83.09 5.87346 83.4247 4.91833C83.7594 3.96319 84.2878 3.08749 84.9768 2.34611C85.6658 1.60473 86.5004 1.01366 87.4285 0.60995C88.3566 0.206237 89.3581 -0.00141397 90.3702 7.24629e-06H100.875C101.887 -0.00141397 102.889 0.206237 103.817 0.60995C104.745 1.01366 105.58 1.60473 106.269 2.34611C106.958 3.08749 107.486 3.96319 107.821 4.91833C108.156 5.87346 108.289 6.88744 108.214 7.89671L105.352 46.9539C105.331 47.2053 105.218 47.4402 105.035 47.6129C104.851 47.7855 104.609 47.8835 104.357 47.8877ZM87.8529 45.8577H103.403L106.204 7.78506C106.259 7.05404 106.162 6.31964 105.919 5.62796C105.676 4.93627 105.293 4.30222 104.794 3.76563C104.294 3.22903 103.689 2.80148 103.017 2.50978C102.344 2.21809 101.619 2.06857 100.886 2.0706H90.3803C89.6473 2.06857 88.9217 2.21809 88.2492 2.50978C87.5767 2.80148 86.9717 3.22903 86.4723 3.76563C85.9729 4.30222 85.5898 4.93627 85.347 5.62796C85.1043 6.31964 85.0071 7.05404 85.0617 7.78506L87.8529 45.8577Z" fill="black"/>
<path d="M92.9179 199.843H59.7578V128.793C64.6704 126.229 70.1316 124.895 75.673 124.906H77.5305C90.9488 155.508 92.9179 199.843 92.9179 199.843Z" fill="#CA0C0C"/>
<path d="M92.9177 200.858H59.7577C59.4885 200.858 59.2303 200.751 59.04 200.561C58.8496 200.371 58.7427 200.113 58.7427 199.843V128.793C58.7423 128.607 58.7932 128.424 58.8899 128.265C58.9866 128.105 59.1253 127.976 59.2908 127.89C64.3455 125.246 69.9684 123.873 75.6729 123.891H77.5303C77.7284 123.89 77.9224 123.948 78.0883 124.056C78.2543 124.164 78.3849 124.318 78.4641 124.5C91.7911 154.95 93.9023 199.376 93.9226 199.813C93.9288 199.951 93.9068 200.089 93.8579 200.218C93.8091 200.347 93.7344 200.465 93.6384 200.564C93.5435 200.658 93.4311 200.733 93.3074 200.783C93.1837 200.834 93.0513 200.859 92.9177 200.858ZM60.7828 198.828H91.8418C91.4358 191.967 88.6852 153.346 76.8706 125.901H75.683C70.5083 125.883 65.4014 127.078 60.7727 129.392L60.7828 198.828Z" fill="black"/>
<path d="M130.808 128.763V199.813H97.6477C97.6477 199.813 99.6168 155.478 113.025 124.855H114.882C120.428 124.854 125.892 126.195 130.808 128.763Z" fill="#CA0C0C"/>
<path d="M130.808 200.858H97.6476C97.5109 200.858 97.3757 200.83 97.2501 200.776C97.1245 200.722 97.0112 200.643 96.9168 200.544C96.8208 200.444 96.7461 200.327 96.6973 200.197C96.6484 200.068 96.6264 199.931 96.6326 199.793C96.6326 199.356 98.7641 154.919 112.091 124.48C112.17 124.298 112.301 124.144 112.467 124.035C112.633 123.927 112.827 123.87 113.025 123.871H114.882C120.586 123.851 126.209 125.22 131.264 127.86C131.43 127.945 131.569 128.075 131.665 128.234C131.762 128.394 131.813 128.577 131.813 128.763V199.813C131.817 199.948 131.794 200.082 131.745 200.208C131.697 200.334 131.623 200.449 131.53 200.547C131.436 200.644 131.324 200.722 131.2 200.775C131.076 200.829 130.943 200.857 130.808 200.858ZM98.7337 198.828H129.793V129.382C125.166 127.074 120.063 125.882 114.892 125.901H113.705C101.88 153.356 99.1295 191.967 98.7235 198.828H98.7337Z" fill="black"/>
<path d="M86.767 155.579H60.1334C59.8642 155.579 59.606 155.472 59.4157 155.282C59.2253 155.092 59.1184 154.833 59.1184 154.564C59.1184 154.295 59.2253 154.037 59.4157 153.846C59.606 153.656 59.8642 153.549 60.1334 153.549H86.767C87.0362 153.549 87.2944 153.656 87.4847 153.846C87.6751 154.037 87.782 154.295 87.782 154.564C87.782 154.833 87.6751 155.092 87.4847 155.282C87.2944 155.472 87.0362 155.579 86.767 155.579Z" fill="black"/>
<path d="M88.7767 165.678H60.1334C59.8642 165.678 59.606 165.572 59.4157 165.381C59.2253 165.191 59.1184 164.933 59.1184 164.663C59.1184 164.394 59.2253 164.136 59.4157 163.946C59.606 163.755 59.8642 163.648 60.1334 163.648H88.7767C89.0459 163.648 89.3041 163.755 89.4944 163.946C89.6848 164.136 89.7917 164.394 89.7917 164.663C89.7917 164.933 89.6848 165.191 89.4944 165.381C89.3041 165.572 89.0459 165.678 88.7767 165.678Z" fill="black"/>
<path d="M130.057 155.579H104.225C103.956 155.579 103.698 155.472 103.507 155.282C103.317 155.092 103.21 154.833 103.21 154.564C103.21 154.295 103.317 154.037 103.507 153.846C103.698 153.656 103.956 153.549 104.225 153.549H130.057C130.326 153.549 130.584 153.656 130.774 153.846C130.965 154.037 131.072 154.295 131.072 154.564C131.072 154.833 130.965 155.092 130.774 155.282C130.584 155.472 130.326 155.579 130.057 155.579Z" fill="black"/>
<path d="M130.057 165.678H102.276C102.007 165.678 101.749 165.572 101.559 165.381C101.368 165.191 101.261 164.933 101.261 164.663C101.261 164.394 101.368 164.136 101.559 163.946C101.749 163.755 102.007 163.648 102.276 163.648H130.057C130.326 163.648 130.584 163.755 130.774 163.946C130.965 164.136 131.072 164.394 131.072 164.663C131.072 164.933 130.965 165.191 130.774 165.381C130.584 165.572 130.326 165.678 130.057 165.678Z" fill="black"/>
<path d="M77.5405 124.886C77.6826 124.886 86.4116 134.092 86.4116 134.092L95.2827 124.886H77.5405Z" fill="#CA0C0C"/>
<path d="M86.4116 135.107C86.2741 135.105 86.1385 135.075 86.0129 135.019C85.8872 134.963 85.7743 134.883 85.6808 134.782C82.6358 131.544 77.5608 126.276 76.9518 125.708C76.7785 125.582 76.6493 125.405 76.5826 125.202C76.5159 124.999 76.5151 124.78 76.5804 124.576C76.6457 124.372 76.7737 124.194 76.9461 124.068C77.1185 123.941 77.3266 123.872 77.5405 123.871H95.2827C95.4819 123.871 95.6767 123.93 95.8428 124.04C96.0088 124.15 96.1388 124.306 96.2165 124.49C96.2933 124.672 96.315 124.873 96.279 125.068C96.2429 125.263 96.1506 125.443 96.0135 125.586L87.1627 134.792C87.066 134.893 86.9493 134.974 86.8201 135.028C86.6908 135.082 86.5517 135.109 86.4116 135.107ZM80.0577 125.901C81.3061 127.169 83.2651 129.25 86.4725 132.62L92.9482 125.901H80.0577Z" fill="black"/>
<path d="M112.162 124.886C112.02 124.886 103.291 134.092 103.291 134.092L94.4199 124.886H112.162Z" fill="#CA0C0C"/>
<path d="M103.291 135.107C103.154 135.106 103.019 135.078 102.894 135.024C102.768 134.97 102.655 134.891 102.56 134.792L93.6892 125.586C93.5521 125.443 93.4598 125.263 93.4237 125.068C93.3876 124.873 93.4093 124.672 93.4862 124.49C93.5639 124.306 93.6939 124.15 93.8599 124.04C94.026 123.93 94.2207 123.871 94.42 123.871H112.162C112.431 123.871 112.69 123.978 112.88 124.168C113.07 124.358 113.177 124.616 113.177 124.886C113.176 125.047 113.137 125.205 113.063 125.348C112.989 125.491 112.882 125.614 112.751 125.708C112.132 126.276 107.107 131.544 104.032 134.782C103.939 134.883 103.826 134.963 103.7 135.019C103.574 135.075 103.439 135.105 103.301 135.107H103.291ZM96.8052 125.901L103.291 132.62C106.488 129.25 108.457 127.169 109.696 125.901H96.8052Z" fill="black"/>
<path d="M97.1605 85.0063C95.9738 85.0032 94.7892 84.9048 93.6182 84.7119C93.349 84.6648 93.1095 84.5127 92.9525 84.289C92.7955 84.0654 92.7337 83.7885 92.7808 83.5193C92.8279 83.2501 92.98 83.0107 93.2037 82.8536C93.4273 82.6966 93.7042 82.6348 93.9734 82.6819C95.8082 82.9863 97.6806 82.9863 99.5153 82.6819C99.8503 81.738 98.5003 77.7084 96.4703 73.8717C96.3452 73.6335 96.3199 73.3553 96.3998 73.0983C96.4797 72.8414 96.6584 72.6267 96.8966 72.5015C97.1349 72.3764 97.4131 72.351 97.67 72.431C97.927 72.5109 98.1417 72.6896 98.2669 72.9278C99.2819 74.836 102.418 81.2203 101.363 83.5751C101.248 83.8281 101.077 84.0513 100.862 84.2273C100.647 84.4033 100.395 84.5275 100.124 84.5901C99.1568 84.848 98.1616 84.9877 97.1605 85.0063Z" fill="black"/>
<path d="M79.7532 80.6113C81.6367 80.6113 83.1636 79.0844 83.1636 77.2009C83.1636 75.3174 81.6367 73.7905 79.7532 73.7905C77.8697 73.7905 76.3428 75.3174 76.3428 77.2009C76.3428 79.0844 77.8697 80.6113 79.7532 80.6113Z" fill="black"/>
<path d="M85.3864 68.3602H69.0246C68.4862 68.3602 67.9699 68.1464 67.5892 67.7657C67.2085 67.385 66.9946 66.8686 66.9946 66.3302C66.9946 65.7918 67.2085 65.2755 67.5892 64.8948C67.9699 64.5141 68.4862 64.3002 69.0246 64.3002H85.3864C85.9248 64.3002 86.4412 64.5141 86.8219 64.8948C87.2026 65.2755 87.4164 65.7918 87.4164 66.3302C87.4164 66.8686 87.2026 67.385 86.8219 67.7657C86.4412 68.1464 85.9248 68.3602 85.3864 68.3602Z" fill="black"/>
<path d="M111.848 80.6113C113.731 80.6113 115.258 79.0844 115.258 77.2009C115.258 75.3174 113.731 73.7905 111.848 73.7905C109.964 73.7905 108.437 75.3174 108.437 77.2009C108.437 79.0844 109.964 80.6113 111.848 80.6113Z" fill="black"/>
<path d="M122.586 68.3602H106.214C105.676 68.3602 105.16 68.1464 104.779 67.7657C104.398 67.385 104.184 66.8686 104.184 66.3302C104.184 65.7918 104.398 65.2755 104.779 64.8948C105.16 64.5141 105.676 64.3002 106.214 64.3002H122.586C123.125 64.3002 123.641 64.5141 124.022 64.8948C124.402 65.2755 124.616 65.7918 124.616 66.3302C124.616 66.8686 124.402 67.385 124.022 67.7657C123.641 68.1464 123.125 68.3602 122.586 68.3602Z" fill="black"/>
<path d="M176.99 175.971C179.215 175.44 181.469 175.04 183.74 174.773C184.294 174.654 184.871 174.693 185.405 174.885C185.853 175.154 186.189 175.578 186.347 176.077C186.506 176.576 186.478 177.115 186.267 177.595C185.804 178.537 185.064 179.316 184.146 179.828C181.125 181.909 177.439 182.792 173.803 182.304C173.105 182.234 172.441 181.97 171.885 181.543C170.87 180.69 170.037 177.209 171.286 176.305C171.844 175.899 172.626 176.417 173.225 176.427C174.494 176.443 175.761 176.289 176.99 175.971Z" fill="#FFC9B0"/>
<path d="M175.823 183.482C175.089 183.48 174.356 183.423 173.631 183.309C172.746 183.206 171.908 182.854 171.215 182.294C170.134 181.029 169.579 179.398 169.662 177.737C169.644 177.306 169.726 176.878 169.902 176.485C170.078 176.092 170.344 175.746 170.677 175.473C170.996 175.279 171.356 175.163 171.728 175.135C172.101 175.107 172.474 175.167 172.819 175.311C172.951 175.353 173.087 175.384 173.225 175.402C174.412 175.41 175.596 175.267 176.747 174.976C179.011 174.434 181.306 174.024 183.618 173.748C184.353 173.609 185.112 173.676 185.811 173.941C186.501 174.315 187.026 174.934 187.283 175.675C187.541 176.417 187.511 177.229 187.201 177.95C186.665 179.096 185.785 180.047 184.684 180.67C182.065 182.445 178.987 183.422 175.823 183.482ZM171.763 177.168C171.763 177.168 171.682 177.361 171.651 177.838C171.623 178.887 171.928 179.918 172.524 180.782C172.942 181.075 173.427 181.257 173.935 181.309C177.319 181.737 180.742 180.91 183.557 178.985C184.295 178.578 184.898 177.964 185.293 177.219C185.403 176.98 185.429 176.712 185.368 176.456C185.308 176.2 185.163 175.972 184.958 175.808C184.588 175.718 184.202 175.718 183.831 175.808C181.6 176.071 179.387 176.468 177.203 176.996C175.877 177.332 174.512 177.492 173.143 177.473C172.826 177.459 172.511 177.401 172.21 177.3C172.053 177.254 171.894 177.22 171.733 177.199L171.763 177.168Z" fill="black"/>
<path d="M160.07 152.25C162.228 152.25 163.978 150.5 163.978 148.342C163.978 146.184 162.228 144.435 160.07 144.435C157.912 144.435 156.162 146.184 156.162 148.342C156.162 150.5 157.912 152.25 160.07 152.25Z" fill="black"/>
<path d="M160.08 153.275C159.698 153.271 159.317 153.227 158.944 153.143C158.316 152.994 157.724 152.723 157.202 152.345C156.679 151.967 156.236 151.49 155.899 150.941C155.554 150.394 155.322 149.783 155.217 149.145C155.113 148.507 155.137 147.854 155.29 147.226C155.474 146.437 155.85 145.705 156.385 145.097C156.919 144.488 157.596 144.02 158.354 143.736C159.113 143.451 159.93 143.358 160.733 143.465C161.536 143.572 162.301 143.876 162.958 144.349C163.616 144.822 164.147 145.45 164.503 146.178C164.86 146.905 165.032 147.709 165.003 148.519C164.975 149.329 164.746 150.119 164.339 150.819C163.932 151.52 163.358 152.109 162.669 152.534C161.893 153.019 160.996 153.276 160.08 153.275ZM157.249 147.682C157.161 148.054 157.148 148.439 157.211 148.815C157.273 149.192 157.411 149.552 157.614 149.875C158.018 150.526 158.664 150.99 159.41 151.165C160.156 151.34 160.941 151.212 161.593 150.809C162.08 150.508 162.467 150.069 162.705 149.547C162.942 149.026 163.02 148.446 162.927 147.881C162.835 147.316 162.577 146.791 162.186 146.372C161.794 145.954 161.288 145.661 160.73 145.531C159.983 145.357 159.198 145.485 158.546 145.889C157.893 146.292 157.427 146.937 157.249 147.682Z" fill="black"/>
<path d="M147.758 154.096L168.532 158.961L170.443 150.798L149.67 145.933L147.758 154.096Z" fill="black"/>
<path d="M168.545 159.954C168.468 159.964 168.389 159.964 168.312 159.954L147.535 155.082C147.275 155.022 147.048 154.861 146.906 154.635C146.835 154.521 146.788 154.394 146.768 154.262C146.747 154.129 146.752 153.994 146.784 153.864L148.692 145.744C148.722 145.614 148.777 145.491 148.855 145.382C148.932 145.274 149.03 145.181 149.143 145.111C149.256 145.04 149.382 144.992 149.514 144.97C149.645 144.948 149.78 144.953 149.91 144.983L170.687 149.855C170.817 149.885 170.94 149.94 171.049 150.017C171.157 150.095 171.249 150.193 171.32 150.306C171.391 150.419 171.439 150.545 171.461 150.676C171.483 150.808 171.478 150.943 171.448 151.073L169.53 159.193C169.474 159.411 169.346 159.604 169.168 159.742C168.99 159.88 168.771 159.954 168.545 159.954ZM148.986 153.316L167.784 157.721L169.236 151.54L150.438 147.134L148.986 153.316Z" fill="black"/>
<path d="M126.816 202.209L165.912 211.364C167.511 211.739 169.111 210.746 169.485 209.147L181.092 159.585C181.466 157.986 180.473 156.386 178.874 156.012L139.779 146.856C138.179 146.482 136.579 147.475 136.205 149.074L124.599 198.635C124.224 200.234 125.217 201.834 126.816 202.209Z" fill="white"/>
<path d="M166.617 212.44C166.31 212.441 166.003 212.407 165.703 212.338L126.596 203.203C125.568 202.962 124.679 202.323 124.121 201.427C123.564 200.531 123.384 199.451 123.622 198.422L135.243 148.87C135.485 147.843 136.123 146.953 137.019 146.396C137.915 145.838 138.996 145.659 140.024 145.896L179.132 155.031C180.159 155.273 181.049 155.911 181.606 156.807C182.164 157.703 182.343 158.784 182.106 159.812L170.494 209.364C170.284 210.234 169.788 211.007 169.084 211.559C168.381 212.112 167.511 212.411 166.617 212.409V212.44ZM127.032 201.193L166.14 210.328C166.643 210.444 167.172 210.357 167.611 210.085C168.05 209.813 168.364 209.379 168.485 208.877L180.096 159.304C180.212 158.8 180.125 158.27 179.854 157.829C179.582 157.388 179.148 157.072 178.645 156.949L139.537 147.814C139.032 147.695 138.501 147.781 138.059 148.054C137.618 148.326 137.302 148.762 137.182 149.266L125.57 198.839C125.512 199.088 125.503 199.348 125.545 199.601C125.587 199.854 125.678 200.097 125.814 200.315C125.95 200.533 126.127 200.721 126.336 200.87C126.545 201.019 126.782 201.126 127.032 201.183V201.193Z" fill="black"/>
<path d="M169.992 180.164L180.261 185.473C181.352 186.037 182.693 185.61 183.257 184.52L183.261 184.511C183.825 183.42 183.398 182.079 182.308 181.515L172.038 176.206C170.948 175.642 169.607 176.069 169.043 177.159L169.038 177.168C168.474 178.259 168.901 179.6 169.992 180.164Z" fill="#FFC9B0"/>
<path d="M181.253 186.74C180.738 186.743 180.229 186.621 179.771 186.384L169.51 181.076C168.791 180.656 168.262 179.977 168.029 179.178C167.797 178.379 167.88 177.522 168.262 176.782C168.643 176.043 169.294 175.478 170.079 175.204C170.865 174.931 171.725 174.969 172.484 175.311L182.745 180.619C183.378 180.959 183.879 181.499 184.171 182.155C184.463 182.811 184.529 183.545 184.358 184.242C184.187 184.939 183.79 185.56 183.228 186.007C182.666 186.453 181.971 186.7 181.253 186.709V186.74ZM171.002 176.986C170.875 176.987 170.749 177.004 170.626 177.036C170.322 177.138 170.068 177.352 169.916 177.635C169.771 177.922 169.746 178.254 169.845 178.559C169.888 178.713 169.964 178.856 170.067 178.979C170.171 179.101 170.299 179.2 170.444 179.269L180.695 184.578C180.981 184.724 181.313 184.752 181.619 184.655C181.925 184.558 182.18 184.344 182.329 184.06C182.404 183.919 182.451 183.765 182.465 183.606C182.48 183.447 182.463 183.286 182.415 183.134C182.366 182.982 182.288 182.841 182.185 182.719C182.081 182.597 181.954 182.498 181.812 182.426L171.55 177.117C171.381 177.03 171.193 176.984 171.002 176.986Z" fill="black"/>
<path d="M167.938 184.121L178.208 189.431C179.298 189.994 180.639 189.568 181.203 188.477L181.208 188.468C181.772 187.377 181.345 186.036 180.254 185.473L169.985 180.163C168.894 179.599 167.553 180.026 166.989 181.117L166.985 181.126C166.421 182.216 166.848 183.557 167.938 184.121Z" fill="#FFC9B0"/>
<path d="M179.203 190.698C178.687 190.698 178.178 190.572 177.721 190.333L167.459 185.035C167.065 184.848 166.712 184.584 166.421 184.258C166.131 183.932 165.909 183.551 165.77 183.138C165.63 182.724 165.575 182.287 165.608 181.852C165.641 181.416 165.762 180.992 165.962 180.605C166.163 180.217 166.439 179.874 166.776 179.596C167.112 179.317 167.501 179.11 167.919 178.985C168.337 178.86 168.777 178.821 169.21 178.87C169.644 178.919 170.063 179.055 170.443 179.269L180.695 184.578C181.262 184.874 181.729 185.33 182.038 185.891C182.346 186.451 182.482 187.09 182.429 187.727C182.376 188.365 182.136 188.972 181.739 189.474C181.342 189.975 180.806 190.348 180.198 190.546C179.876 190.647 179.54 190.698 179.203 190.698ZM168.363 183.228L178.624 188.536C178.766 188.608 178.921 188.652 179.079 188.664C179.238 188.676 179.397 188.657 179.548 188.607C179.701 188.56 179.842 188.483 179.964 188.38C180.086 188.277 180.186 188.151 180.258 188.008C180.402 187.722 180.431 187.392 180.34 187.085C180.24 186.781 180.025 186.53 179.741 186.384L169.479 181.076C169.194 180.928 168.861 180.899 168.555 180.996C168.248 181.094 167.993 181.308 167.845 181.594C167.697 181.879 167.668 182.212 167.765 182.518C167.862 182.824 168.077 183.08 168.363 183.228Z" fill="black"/>
<path d="M165.904 188.073L176.173 193.382C177.264 193.946 178.605 193.519 179.169 192.429L179.173 192.42C179.737 191.329 179.31 189.988 178.22 189.424L167.95 184.115C166.86 183.551 165.519 183.978 164.955 185.068L164.95 185.077C164.386 186.168 164.813 187.509 165.904 188.073Z" fill="#FFC9B0"/>
<path d="M177.163 194.657C176.647 194.656 176.138 194.531 175.681 194.291L165.419 188.993C164.701 188.573 164.171 187.894 163.939 187.095C163.706 186.296 163.79 185.439 164.171 184.7C164.552 183.96 165.203 183.395 165.989 183.122C166.774 182.848 167.635 182.886 168.393 183.228L178.655 188.536C179.287 188.876 179.789 189.416 180.081 190.072C180.373 190.728 180.438 191.462 180.267 192.159C180.097 192.856 179.699 193.477 179.137 193.924C178.575 194.37 177.881 194.617 177.163 194.626V194.657ZM166.333 187.186L176.604 192.515C176.745 192.59 176.9 192.637 177.059 192.651C177.218 192.666 177.378 192.649 177.531 192.601C177.683 192.552 177.824 192.474 177.946 192.371C178.067 192.267 178.167 192.14 178.239 191.997C178.315 191.857 178.361 191.703 178.375 191.544C178.389 191.385 178.37 191.225 178.32 191.074C178.218 190.769 178.004 190.515 177.721 190.363L167.459 185.065C167.318 184.991 167.164 184.946 167.005 184.932C166.846 184.918 166.686 184.936 166.535 184.984C166.383 185.032 166.242 185.109 166.12 185.212C165.998 185.315 165.898 185.441 165.825 185.583C165.679 185.868 165.651 186.2 165.748 186.506C165.845 186.812 166.059 187.068 166.343 187.217L166.333 187.186Z" fill="black"/>
<path d="M163.85 192.03L174.119 197.34C175.21 197.903 176.551 197.476 177.115 196.386L177.12 196.377C177.683 195.286 177.256 193.945 176.166 193.382L165.896 188.072C164.806 187.508 163.465 187.935 162.901 189.026L162.896 189.035C162.333 190.125 162.759 191.466 163.85 192.03Z" fill="#FFC9B0"/>
<path d="M175.113 198.605C174.597 198.602 174.089 198.477 173.631 198.24L163.369 192.941C162.967 192.76 162.606 192.499 162.309 192.174C162.011 191.848 161.783 191.466 161.638 191.05C161.492 190.633 161.434 190.192 161.465 189.752C161.496 189.312 161.616 188.883 161.818 188.492C162.02 188.1 162.3 187.753 162.64 187.473C162.981 187.193 163.374 186.985 163.798 186.862C164.221 186.739 164.665 186.703 165.103 186.757C165.54 186.811 165.962 186.954 166.343 187.176L176.605 192.515C177.229 192.86 177.723 193.401 178.009 194.055C178.295 194.708 178.358 195.438 178.189 196.131C178.019 196.824 177.626 197.442 177.07 197.889C176.514 198.336 175.826 198.588 175.113 198.605ZM164.861 188.841C164.737 188.841 164.613 188.862 164.496 188.902C164.343 188.949 164.202 189.027 164.08 189.129C163.958 189.232 163.858 189.358 163.785 189.501C163.71 189.641 163.664 189.795 163.65 189.954C163.636 190.113 163.654 190.273 163.704 190.424C163.806 190.729 164.02 190.983 164.303 191.135L174.564 196.433C174.706 196.507 174.86 196.552 175.019 196.566C175.177 196.58 175.337 196.562 175.489 196.514C175.641 196.466 175.782 196.388 175.904 196.286C176.025 196.183 176.126 196.057 176.199 195.915C176.345 195.63 176.373 195.298 176.276 194.992C176.179 194.686 175.965 194.43 175.681 194.281L165.419 188.983C165.246 188.895 165.055 188.85 164.861 188.851V188.841Z" fill="black"/>
<path d="M47.9753 205.204L45.5567 206.234C44.8682 206.527 44.0914 206.535 43.3972 206.256C42.703 205.976 42.1482 205.432 41.855 204.744L16.6029 145.455C16.3698 144.908 16.3636 144.29 16.5858 143.738C16.808 143.186 17.2403 142.745 17.7877 142.512L21.2615 141.033C21.5325 140.917 21.8236 140.856 22.1182 140.853C22.4127 140.851 22.705 140.906 22.9783 141.016C23.2515 141.126 23.5004 141.288 23.7108 141.495C23.9211 141.701 24.0888 141.946 24.2043 142.218L49.4683 201.534C49.7615 202.223 49.7693 203 49.4898 203.694C49.2103 204.388 48.6664 204.943 47.9779 205.236L47.9753 205.204Z" fill="black"/>
<path d="M44.4616 207.466C43.7088 207.466 42.9724 207.245 42.3444 206.83C41.7163 206.415 41.2242 205.824 40.9294 205.132L15.6762 145.825C15.3407 145.028 15.3337 144.13 15.6569 143.328C15.9801 142.526 16.6073 141.884 17.4017 141.542L20.873 140.06C21.6702 139.724 22.5677 139.717 23.37 140.041C24.1723 140.364 24.8144 140.991 25.1563 141.785L50.3994 201.082C50.7951 202.017 50.8036 203.072 50.423 204.013C50.0425 204.955 49.3039 205.708 48.3694 206.106L45.9435 207.121C45.4771 207.332 44.9735 207.45 44.4616 207.466ZM22.2027 141.856C22.0361 141.857 21.871 141.888 21.7155 141.948L18.2442 143.43C18.0954 143.493 17.9605 143.585 17.8473 143.7C17.7341 143.815 17.6447 143.952 17.5844 144.102C17.524 144.252 17.4939 144.412 17.4956 144.574C17.4974 144.735 17.531 144.895 17.5946 145.044L42.8478 204.34C43.0356 204.779 43.3899 205.127 43.8332 205.305C44.2764 205.484 44.7725 205.48 45.2127 205.294L47.6284 204.279C47.8469 204.187 48.0451 204.053 48.2115 203.884C48.3778 203.715 48.5092 203.515 48.5979 203.295C48.6865 203.075 48.7309 202.84 48.7282 202.603C48.7256 202.366 48.6761 202.132 48.5825 201.914L23.3395 142.628C23.2462 142.402 23.0888 142.209 22.8867 142.072C22.6847 141.935 22.4468 141.86 22.2027 141.856Z" fill="black"/>
<path d="M5.232 150.281L9.3529 159.944C9.58555 160.489 10.0248 160.92 10.5745 161.143C11.1242 161.365 11.7396 161.361 12.2863 161.131L12.9257 160.857C13.1971 160.742 13.4431 160.575 13.6496 160.364C13.8562 160.154 14.0193 159.905 14.1296 159.632C14.2399 159.358 14.2952 159.066 14.2924 158.771C14.2896 158.476 14.2287 158.185 14.1132 157.914C17.0162 156.99 20.5078 158.848 20.5078 158.848L31.0942 154.341C31.0942 154.341 30.8405 149.266 31.8352 147.926C32.8299 146.586 39.0721 148.505 39.5289 146.982C39.9856 145.46 34.1291 142.628 28.8206 141.907C24.3546 141.288 13.4535 146.789 10.1141 148.545L10.0025 148.281C9.88747 148.01 9.71986 147.764 9.50935 147.558C9.29883 147.352 9.04957 147.189 8.77594 147.08C8.50231 146.97 8.20973 146.916 7.91505 146.92C7.62037 146.924 7.32943 146.987 7.059 147.104L6.4297 147.378C5.88988 147.609 5.46209 148.042 5.23816 148.585C5.01424 149.128 5.01202 149.737 5.232 150.281Z" fill="#939393"/>
<path d="M11.4133 162.319C10.7661 162.331 10.13 162.149 9.58718 161.796C9.0444 161.444 8.61984 160.936 8.36831 160.34L4.24741 150.677C4.08407 150.283 4 149.86 4 149.433C4 149.007 4.08407 148.584 4.24741 148.19C4.40427 147.792 4.63968 147.429 4.93962 147.124C5.23956 146.819 5.59788 146.577 5.99321 146.414L6.62251 146.14C7.28797 145.853 8.03005 145.798 8.73076 145.982C9.43147 146.166 10.0506 146.578 10.4897 147.155C15.1688 144.739 24.5677 140.253 28.9221 140.872C33.6824 141.542 38.9503 143.795 40.1886 145.713C40.3467 145.936 40.4533 146.19 40.5007 146.459C40.5481 146.728 40.5351 147.003 40.4626 147.266C39.9957 148.829 37.8642 148.677 35.6109 148.525C34.5993 148.38 33.5709 148.401 32.5659 148.586C32.1599 149.144 31.9671 151.996 32.0787 154.29C32.0961 154.502 32.0467 154.714 31.9375 154.896C31.8282 155.078 31.6646 155.221 31.4697 155.305L20.8833 159.812C20.7469 159.877 20.5978 159.91 20.4468 159.91C20.2958 159.91 20.1467 159.877 20.0104 159.812C18.5488 159.078 16.9245 158.729 15.2906 158.797C15.3092 159.218 15.2436 159.639 15.0978 160.035C14.774 160.835 14.1462 161.474 13.352 161.811L12.7125 162.085C12.2999 162.251 11.8578 162.33 11.4133 162.319ZM7.93186 147.906C7.76731 147.904 7.6044 147.939 7.45481 148.007L6.81536 148.281C6.66558 148.342 6.52981 148.433 6.41636 148.548C6.30292 148.663 6.21419 148.801 6.15561 148.951C6.03375 149.251 6.03375 149.586 6.15561 149.885L10.2156 159.548C10.3486 159.847 10.5923 160.084 10.8957 160.208C11.195 160.329 11.5301 160.329 11.8295 160.208L12.4588 159.934C12.6093 159.873 12.7462 159.782 12.8612 159.667C12.9763 159.553 13.0672 159.416 13.1287 159.266C13.1902 159.115 13.2209 158.954 13.2192 158.792C13.2174 158.629 13.1832 158.469 13.1185 158.32C13.0604 158.189 13.0304 158.048 13.0306 157.905C13.0307 157.763 13.061 157.621 13.1195 157.491C13.1779 157.361 13.2632 157.244 13.3697 157.149C13.4762 157.054 13.6016 156.983 13.7377 156.939C16.3868 156.097 19.3506 157.234 20.4671 157.741L29.9777 153.681C29.9777 151.946 29.9777 148.606 30.9927 147.317C31.8047 146.241 33.6418 146.373 35.7632 146.515C36.6067 146.592 37.4547 146.609 38.3007 146.566C37.2857 145.5 33.0227 143.521 28.648 142.892C25.3188 142.425 17.1278 145.937 10.5607 149.428C10.4362 149.492 10.2998 149.53 10.16 149.539C10.0203 149.547 9.88024 149.527 9.74871 149.479C9.6156 149.433 9.49361 149.359 9.39051 149.263C9.2874 149.167 9.20544 149.05 9.14986 148.921L9.03821 148.667C8.94362 148.446 8.78671 148.257 8.58664 148.124C8.38657 147.991 8.152 147.918 7.91156 147.916L7.93186 147.906Z" fill="black"/>
<path d="M25.7887 182.513L37.4507 178.861C39.0609 178.356 39.9574 176.642 39.4531 175.032L39.1164 173.957C38.6121 172.347 36.898 171.45 35.2878 171.955L23.6257 175.607C22.0155 176.111 21.119 177.825 21.6233 179.436L21.9601 180.511C22.4644 182.121 24.1785 183.017 25.7887 182.513Z" fill="#FFC9B0"/>
<path d="M24.8925 183.654C24.0248 183.657 23.1791 183.381 22.4795 182.868C21.7799 182.354 21.2632 181.63 21.005 180.802L20.6599 179.726C20.3424 178.699 20.4451 177.588 20.9455 176.637C21.4459 175.685 22.3032 174.971 23.3294 174.651L34.9917 170.997C36.0187 170.68 37.1297 170.782 38.0811 171.283C39.0325 171.783 39.7465 172.64 40.0667 173.666L40.4118 174.742C40.7294 175.769 40.6267 176.88 40.1262 177.832C39.6258 178.783 38.7685 179.497 37.7424 179.817L26.08 183.471C25.695 183.589 25.295 183.65 24.8925 183.654ZM36.1996 172.814C35.9957 172.814 35.7932 172.848 35.6007 172.915L23.9384 176.559C23.6816 176.638 23.4429 176.767 23.2363 176.938C23.0296 177.11 22.859 177.32 22.7344 177.558C22.6098 177.796 22.5336 178.057 22.5103 178.324C22.487 178.592 22.517 178.861 22.5986 179.117L22.9437 180.193C23.0224 180.449 23.1508 180.686 23.3216 180.892C23.4924 181.098 23.7022 181.268 23.939 181.392C24.1757 181.517 24.4348 181.593 24.7012 181.618C24.9676 181.642 25.2361 181.613 25.4913 181.533L37.1537 177.879C37.4107 177.798 37.649 177.666 37.8546 177.492C38.0603 177.317 38.2291 177.104 38.3514 176.864C38.4763 176.627 38.5531 176.368 38.5775 176.101C38.6019 175.835 38.5733 175.566 38.4935 175.311L38.1484 174.225C38.0164 173.813 37.7561 173.453 37.4055 173.2C37.0549 172.946 36.6324 172.811 36.1996 172.814Z" fill="black"/>
<path d="M27.8639 189.139L39.5259 185.486C41.1361 184.982 42.0326 183.268 41.5283 181.658L41.1916 180.583C40.6873 178.972 38.9731 178.076 37.363 178.58L25.7009 182.233C24.0907 182.737 23.1942 184.451 23.6985 186.061L24.0353 187.136C24.5396 188.747 26.2537 189.643 27.8639 189.139Z" fill="#FFC9B0"/>
<path d="M26.9631 190.282C26.0954 190.285 25.2497 190.009 24.5501 189.496C23.8505 188.982 23.3338 188.258 23.0756 187.43L22.7407 186.344C22.4227 185.318 22.524 184.208 23.0224 183.257C23.5208 182.306 24.3757 181.591 25.4 181.269L37.0623 177.615C38.0893 177.297 39.2003 177.4 40.1517 177.9C41.103 178.401 41.8171 179.258 42.1373 180.284L42.5027 181.35C42.8203 182.377 42.7176 183.488 42.2171 184.439C41.7167 185.391 40.8594 186.105 39.8333 186.425L28.1709 190.069C27.7823 190.204 27.3745 190.276 26.9631 190.282ZM38.2803 179.442C38.0739 179.442 37.8688 179.473 37.6713 179.533L26.009 183.187C25.7531 183.267 25.5155 183.396 25.31 183.568C25.1044 183.74 24.9349 183.951 24.8113 184.189C24.6877 184.427 24.6124 184.687 24.5897 184.954C24.5671 185.221 24.5975 185.49 24.6793 185.745L25.0143 186.821C25.0929 187.078 25.2217 187.316 25.3932 187.523C25.5647 187.73 25.7755 187.9 26.0134 188.025C26.2513 188.15 26.5116 188.226 26.7791 188.249C27.0467 188.272 27.3162 188.242 27.5721 188.161L39.2243 184.507C39.4811 184.428 39.7197 184.299 39.9264 184.128C40.1331 183.956 40.3036 183.746 40.4283 183.508C40.5529 183.27 40.6291 183.009 40.6524 182.742C40.6757 182.474 40.6457 182.205 40.5641 181.949L40.2291 180.873C40.1007 180.457 39.8419 180.093 39.491 179.836C39.1401 179.578 38.7157 179.44 38.2803 179.442Z" fill="black"/>
<path d="M29.9264 195.758L41.5884 192.105C43.1986 191.601 44.0951 189.887 43.5908 188.277L43.2541 187.202C42.7498 185.591 41.0357 184.695 39.4255 185.199L27.7634 188.852C26.1532 189.356 25.2567 191.07 25.761 192.68L26.0978 193.755C26.6021 195.366 28.3162 196.262 29.9264 195.758Z" fill="#FFC9B0"/>
<path d="M29.0337 196.9C28.166 196.902 27.3204 196.627 26.6208 196.113C25.9211 195.6 25.4044 194.876 25.1462 194.048L24.8113 192.972C24.4938 191.945 24.5965 190.834 25.0969 189.882C25.5973 188.931 26.4546 188.217 27.4808 187.897L39.1329 184.253C40.1599 183.935 41.2709 184.038 42.2223 184.539C43.1737 185.039 43.8877 185.896 44.2079 186.922L44.5429 187.998C44.8604 189.025 44.7577 190.136 44.2573 191.088C43.7569 192.039 42.8996 192.753 41.8735 193.073L30.2212 196.727C29.8356 196.841 29.4357 196.899 29.0337 196.9ZM40.3611 186.06C40.1504 186.058 39.941 186.092 39.742 186.161L28.0898 189.805C27.8312 189.883 27.5914 190.013 27.3854 190.188C27.1793 190.363 27.0114 190.578 26.8921 190.82C26.7672 191.057 26.6903 191.316 26.6659 191.582C26.6415 191.849 26.6701 192.118 26.75 192.373L27.0849 193.449C27.1635 193.706 27.2923 193.944 27.4638 194.151C27.6353 194.358 27.8461 194.528 28.084 194.653C28.3219 194.777 28.5822 194.854 28.8498 194.877C29.1173 194.9 29.3868 194.87 29.6427 194.789L41.3051 191.135C41.5621 191.053 41.8004 190.922 42.006 190.748C42.2116 190.573 42.3805 190.36 42.5028 190.12C42.7479 189.635 42.7952 189.075 42.6347 188.557L42.2998 187.481C42.1718 187.066 41.9146 186.704 41.5658 186.446C41.2169 186.189 40.7947 186.05 40.3611 186.05V186.06Z" fill="black"/>
<path d="M32.0016 202.383L43.6636 198.731C45.2738 198.227 46.1703 196.513 45.666 194.902L45.3293 193.827C44.825 192.217 43.1109 191.321 41.5007 191.825L29.8386 195.477C28.2284 195.982 27.3319 197.696 27.8362 199.306L28.173 200.381C28.6773 201.991 30.3914 202.888 32.0016 202.383Z" fill="#FFC9B0"/>
<path d="M31.1043 203.528C30.4468 203.525 29.7995 203.365 29.2164 203.061C28.736 202.816 28.309 202.479 27.9605 202.067C27.612 201.656 27.3488 201.18 27.1864 200.666L26.8413 199.59C26.5238 198.563 26.6265 197.452 27.1269 196.5C27.6273 195.549 28.4846 194.835 29.5108 194.515L41.1731 190.861C42.2001 190.543 43.3111 190.646 44.2625 191.146C45.2138 191.647 45.9279 192.504 46.2481 193.53L46.5831 194.606C46.9011 195.632 46.7997 196.741 46.3014 197.693C45.803 198.644 44.9481 199.359 43.9238 199.681L32.3528 203.335C31.9498 203.466 31.5282 203.532 31.1043 203.528ZM42.4216 192.688C42.2153 192.689 42.0102 192.72 41.8126 192.779L30.1604 196.433C29.9047 196.512 29.6672 196.64 29.4613 196.811C29.2554 196.982 29.0854 197.192 28.9609 197.428C28.8364 197.665 28.7599 197.924 28.7358 198.19C28.7117 198.457 28.7405 198.725 28.8206 198.981L29.1555 200.067C29.2352 200.323 29.3648 200.56 29.5367 200.766C29.7087 200.971 29.9196 201.141 30.1574 201.264C30.3952 201.388 30.6551 201.463 30.9222 201.486C31.1892 201.509 31.4581 201.478 31.7133 201.396L43.3757 197.752C43.6325 197.674 43.8711 197.545 44.0778 197.374C44.2845 197.202 44.455 196.991 44.5797 196.753C44.7043 196.515 44.7805 196.255 44.8038 195.988C44.8271 195.72 44.7971 195.451 44.7155 195.195L44.3704 194.119C44.242 193.703 43.9832 193.339 43.6323 193.081C43.2814 192.824 42.8569 192.686 42.4216 192.688Z" fill="black"/>
<path d="M50.112 194.749L50.1217 194.746C52.085 194.131 53.1781 192.041 52.5632 190.078L46.9207 172.062C46.3059 170.099 44.2159 169.006 42.2526 169.621L42.243 169.624C40.2797 170.238 39.1866 172.328 39.8015 174.292L45.4439 192.308C46.0588 194.271 48.1488 195.364 50.112 194.749Z" fill="#FFC9B0"/>
<path d="M49.0191 195.925C48.0086 195.924 47.0247 195.601 46.2106 195.002C45.3965 194.403 44.7946 193.561 44.4923 192.596L38.8488 174.58C38.4733 173.379 38.5901 172.079 39.1735 170.964C39.757 169.85 40.7592 169.013 41.9598 168.637C43.1604 168.262 44.461 168.378 45.5755 168.962C46.69 169.545 47.5271 170.548 47.9027 171.748L53.5461 189.764C53.9179 190.965 53.7987 192.264 53.2146 193.377C52.6306 194.49 51.6293 195.326 50.43 195.702C49.9744 195.85 49.4983 195.926 49.0191 195.925ZM43.3757 170.449C43.1006 170.45 42.827 170.491 42.5637 170.571C41.8785 170.788 41.307 171.267 40.9742 171.904C40.6413 172.542 40.5742 173.285 40.7875 173.971L46.4309 191.987C46.5361 192.328 46.7077 192.645 46.936 192.919C47.1642 193.193 47.4445 193.419 47.7607 193.584C48.0768 193.749 48.4226 193.85 48.778 193.881C49.1334 193.912 49.4913 193.872 49.8311 193.763C50.1712 193.657 50.487 193.485 50.7604 193.256C51.0338 193.028 51.2595 192.748 51.4244 192.432C51.5894 192.116 51.6905 191.771 51.7219 191.416C51.7533 191.061 51.7144 190.703 51.6074 190.363L45.964 172.347C45.791 171.796 45.4466 171.315 44.9811 170.974C44.5155 170.632 43.9531 170.448 43.3757 170.449Z" fill="black"/>
</g>
<defs>
<filter id="filter0_d_645_4" x="0" y="0" width="191.457" height="220.44" filterUnits="userSpaceOnUse" color-interpolation-filters="sRGB">
<feFlood flood-opacity="0" result="BackgroundImageFix"/>
<feColorMatrix in="SourceAlpha" type="matrix" values="0 0 0 0 0 0 0 0 0 0 0 0 0 0 0 0 0 0 127 0" result="hardAlpha"/>
<feOffset dy="4"/>
<feGaussianBlur stdDeviation="2"/>
<feComposite in2="hardAlpha" operator="out"/>
<feColorMatrix type="matrix" values="0 0 0 0 0 0 0 0 0 0 0 0 0 0 0 0 0 0 0.25 0"/>
<feBlend mode="normal" in2="BackgroundImageFix" result="effect1_dropShadow_645_4"/>
<feBlend mode="normal" in="SourceGraphic" in2="effect1_dropShadow_645_4" result="shape"/>
</filter>
</defs>
</svg>
