<svg width="163" height="208" viewBox="0 0 163 208" fill="none" xmlns="http://www.w3.org/2000/svg">
<path d="M129.402 154.416V194.843H21.1628V154.416C21.1628 145.263 24.7987 136.486 31.2706 130.014C37.7425 123.542 46.5202 119.906 55.6728 119.906H94.8722C104.025 119.906 112.803 123.542 119.274 130.014C125.746 136.486 129.382 145.263 129.382 154.416H129.402Z" fill="#939393"/>
<path d="M129.403 195.858H21.1629C20.8938 195.858 20.6356 195.751 20.4453 195.561C20.2549 195.371 20.1479 195.113 20.1479 194.843V154.416C20.1479 144.994 23.8908 135.958 30.553 129.296C37.2152 122.634 46.2511 118.891 55.6729 118.891H94.8723C104.294 118.891 113.33 122.634 119.992 129.296C126.654 135.958 130.397 144.994 130.397 154.416V194.843C130.397 195.109 130.293 195.364 130.107 195.554C129.921 195.744 129.668 195.853 129.403 195.858V195.858ZM22.1779 193.828H128.388V154.416C128.388 145.533 124.859 137.013 118.577 130.731C112.296 124.45 103.776 120.921 94.8926 120.921H55.6831C50.3041 120.902 45.0016 122.194 40.2348 124.687C34.7884 127.515 30.2239 131.786 27.0395 137.032C23.8552 142.279 22.1734 148.299 22.1779 154.436V193.828Z" fill="black"/>
<path d="M72.9179 194.843H39.7578V123.793C44.6704 121.229 50.1316 119.895 55.673 119.906H57.5305C70.9488 150.508 72.9179 194.843 72.9179 194.843Z" fill="#CA0C0C"/>
<path d="M72.9177 195.858H39.7577C39.4885 195.858 39.2303 195.751 39.04 195.561C38.8496 195.371 38.7427 195.113 38.7427 194.843V123.793C38.7423 123.607 38.7932 123.424 38.8899 123.265C38.9866 123.105 39.1253 122.976 39.2908 122.89C44.3455 120.246 49.9684 118.873 55.6729 118.891H57.5303C57.7284 118.89 57.9224 118.948 58.0883 119.056C58.2543 119.164 58.3849 119.318 58.4641 119.5C71.7911 149.95 73.9023 194.376 73.9226 194.813C73.9288 194.951 73.9068 195.089 73.8579 195.218C73.8091 195.347 73.7344 195.465 73.6384 195.564C73.5435 195.658 73.4311 195.733 73.3074 195.783C73.1837 195.834 73.0513 195.859 72.9177 195.858V195.858ZM40.7828 193.828H71.8418C71.4358 186.967 68.6852 148.346 56.8706 120.901H55.683C50.5083 120.883 45.4014 122.078 40.7727 124.392L40.7828 193.828Z" fill="black"/>
<path d="M110.808 123.763V194.813H77.6475C77.6475 194.813 79.6166 150.478 93.0247 119.855H94.8822C100.428 119.854 105.892 121.195 110.808 123.763V123.763Z" fill="#CA0C0C"/>
<path d="M110.808 195.858H77.6476C77.5109 195.858 77.3757 195.83 77.2501 195.776C77.1245 195.722 77.0112 195.643 76.9168 195.544C76.8208 195.444 76.7461 195.327 76.6973 195.197C76.6484 195.068 76.6264 194.931 76.6326 194.793C76.6326 194.356 78.7641 149.919 92.0911 119.48C92.1703 119.298 92.3009 119.144 92.4669 119.035C92.6328 118.927 92.8268 118.87 93.0249 118.871H94.8823C100.586 118.851 106.209 120.22 111.264 122.86C111.43 122.945 111.569 123.075 111.665 123.234C111.762 123.394 111.813 123.577 111.813 123.763V194.813C111.817 194.948 111.794 195.082 111.745 195.208C111.697 195.334 111.623 195.449 111.53 195.547C111.436 195.644 111.324 195.722 111.2 195.775C111.076 195.829 110.943 195.857 110.808 195.858V195.858ZM78.7337 193.828H109.793V124.382C105.166 122.074 100.063 120.882 94.8925 120.901H93.7049C81.8802 148.356 79.1295 186.967 78.7235 193.828H78.7337Z" fill="black"/>
<path d="M66.7668 150.579H40.1332C39.864 150.579 39.6058 150.472 39.4154 150.282C39.2251 150.092 39.1182 149.833 39.1182 149.564C39.1182 149.295 39.2251 149.037 39.4154 148.846C39.6058 148.656 39.864 148.549 40.1332 148.549H66.7668C67.036 148.549 67.2941 148.656 67.4845 148.846C67.6748 149.037 67.7818 149.295 67.7818 149.564C67.7818 149.833 67.6748 150.092 67.4845 150.282C67.2941 150.472 67.036 150.579 66.7668 150.579Z" fill="black"/>
<path d="M68.7765 160.678H40.1332C39.864 160.678 39.6058 160.572 39.4154 160.381C39.2251 160.191 39.1182 159.933 39.1182 159.663C39.1182 159.394 39.2251 159.136 39.4154 158.946C39.6058 158.755 39.864 158.648 40.1332 158.648H68.7765C69.0457 158.648 69.3038 158.755 69.4942 158.946C69.6845 159.136 69.7915 159.394 69.7915 159.663C69.7915 159.933 69.6845 160.191 69.4942 160.381C69.3038 160.572 69.0457 160.678 68.7765 160.678Z" fill="black"/>
<path d="M110.057 150.579H84.225C83.9558 150.579 83.6976 150.472 83.5072 150.282C83.3169 150.092 83.21 149.833 83.21 149.564C83.21 149.295 83.3169 149.037 83.5072 148.846C83.6976 148.656 83.9558 148.549 84.225 148.549H110.057C110.326 148.549 110.584 148.656 110.774 148.846C110.965 149.037 111.072 149.295 111.072 149.564C111.072 149.833 110.965 150.092 110.774 150.282C110.584 150.472 110.326 150.579 110.057 150.579Z" fill="black"/>
<path d="M110.057 160.678H82.276C82.0068 160.678 81.7486 160.572 81.5583 160.381C81.3679 160.191 81.261 159.933 81.261 159.663C81.261 159.394 81.3679 159.136 81.5583 158.946C81.7486 158.755 82.0068 158.648 82.276 158.648H110.057C110.326 158.648 110.584 158.755 110.774 158.946C110.965 159.136 111.072 159.394 111.072 159.663C111.072 159.933 110.965 160.191 110.774 160.381C110.584 160.572 110.326 160.678 110.057 160.678Z" fill="black"/>
<path d="M57.5405 119.886C57.6826 119.886 66.4116 129.092 66.4116 129.092L75.2827 119.886H57.5405Z" fill="#CA0C0C"/>
<path d="M66.4116 130.107C66.2741 130.105 66.1385 130.075 66.0129 130.019C65.8872 129.963 65.7743 129.883 65.6808 129.782C62.6358 126.544 57.5608 121.276 56.9518 120.708C56.7785 120.582 56.6493 120.405 56.5826 120.202C56.5159 119.999 56.5151 119.78 56.5804 119.576C56.6457 119.372 56.7737 119.194 56.9461 119.068C57.1185 118.941 57.3266 118.872 57.5405 118.871H75.2827C75.4819 118.871 75.6767 118.93 75.8428 119.04C76.0088 119.15 76.1388 119.306 76.2165 119.49C76.2933 119.672 76.315 119.873 76.279 120.068C76.2429 120.263 76.1506 120.443 76.0135 120.586L67.1627 129.792C67.066 129.893 66.9493 129.974 66.8201 130.028C66.6908 130.082 66.5517 130.109 66.4116 130.107ZM60.0577 120.901C61.3061 122.169 63.2651 124.25 66.4725 127.62L72.9482 120.901H60.0577Z" fill="black"/>
<path d="M92.1621 119.886C92.02 119.886 83.291 129.092 83.291 129.092L74.4199 119.886H92.1621Z" fill="#CA0C0C"/>
<path d="M83.2911 130.107C83.1543 130.106 83.0191 130.078 82.8936 130.024C82.768 129.97 82.6546 129.891 82.5603 129.792L73.6892 120.586C73.5521 120.443 73.4598 120.263 73.4237 120.068C73.3876 119.873 73.4093 119.672 73.4862 119.49C73.5639 119.306 73.6939 119.15 73.8599 119.04C74.026 118.93 74.2207 118.871 74.42 118.871H92.1622C92.4314 118.871 92.6895 118.978 92.8799 119.168C93.0702 119.358 93.1772 119.616 93.1772 119.886C93.1764 120.047 93.1374 120.205 93.0633 120.348C92.9891 120.491 92.8821 120.614 92.7509 120.708C92.1317 121.276 87.1075 126.544 84.032 129.782C83.9386 129.883 83.8256 129.963 83.7 130.019C83.5743 130.075 83.4387 130.105 83.3012 130.107H83.2911ZM76.8052 120.901L83.2911 127.62C86.4883 124.25 88.4574 122.169 89.6957 120.901H76.8052Z" fill="black"/>
<path d="M83.291 120.901H67.2743C67.0051 120.901 66.7469 120.794 66.5566 120.603C66.3662 120.413 66.2593 120.155 66.2593 119.886V103.869C66.2593 103.6 66.3662 103.342 66.5566 103.151C66.7469 102.961 67.0051 102.854 67.2743 102.854H83.291C83.5602 102.854 83.8183 102.961 84.0087 103.151C84.199 103.342 84.306 103.6 84.306 103.869V119.886C84.306 120.155 84.199 120.413 84.0087 120.603C83.8183 120.794 83.5602 120.901 83.291 120.901ZM68.2893 118.871H82.276V104.884H68.2893V118.871Z" fill="black"/>
<path d="M83.2911 103.869H67.2744V119.886H83.2911V103.869Z" fill="#D98F6C"/>
<path d="M42.2749 89.2631C48.5308 89.2631 53.6023 82.3103 53.6023 73.7336C53.6023 65.1569 48.5308 58.2041 42.2749 58.2041C36.0189 58.2041 30.9475 65.1569 30.9475 73.7336C30.9475 82.3103 36.0189 89.2631 42.2749 89.2631Z" fill="#D98F6C"/>
<path d="M42.2749 90.2781C35.4744 90.2781 29.9426 82.8585 29.9426 73.7336C29.9426 64.6088 35.4744 57.179 42.2749 57.179C49.0754 57.179 54.6173 64.6088 54.6173 73.7336C54.6173 82.8585 49.0855 90.2781 42.2749 90.2781ZM42.2749 59.209C36.5909 59.209 31.9726 65.7253 31.9726 73.7336C31.9726 81.742 36.5909 88.2481 42.2749 88.2481C47.9589 88.2481 52.5873 81.742 52.5873 73.7336C52.5873 65.7253 47.9589 59.209 42.2749 59.209V59.209Z" fill="black"/>
<path d="M108.291 89.2631C114.546 89.2631 119.618 82.3103 119.618 73.7336C119.618 65.1569 114.546 58.2041 108.291 58.2041C102.035 58.2041 96.9631 65.1569 96.9631 73.7336C96.9631 82.3103 102.035 89.2631 108.291 89.2631Z" fill="#D98F6C"/>
<path d="M108.29 90.2781C101.49 90.2781 95.948 82.8585 95.948 73.7336C95.948 64.6088 101.49 57.179 108.29 57.179C115.091 57.179 120.633 64.6088 120.633 73.7336C120.633 82.8585 115.091 90.2781 108.29 90.2781ZM108.29 59.209C102.606 59.209 97.978 65.7253 97.978 73.7336C97.978 81.742 102.606 88.2481 108.29 88.2481C113.974 88.2481 118.603 81.742 118.603 73.7336C118.603 65.7253 113.974 59.209 108.29 59.209V59.209Z" fill="black"/>
<path d="M97.5213 31.5908C99.2172 31.5894 100.897 31.9225 102.464 32.5708C104.031 33.2192 105.454 34.1701 106.654 35.3693C107.853 36.5684 108.804 37.9922 109.452 39.5592C110.1 41.1263 110.433 42.8057 110.432 44.5016V79.4074C110.433 83.8202 109.565 88.1901 107.878 92.2674C106.19 96.3446 103.715 100.049 100.596 103.17C97.4757 106.291 93.7716 108.767 89.6948 110.456C85.618 112.145 81.2484 113.014 76.8356 113.014H73.7906C69.3765 113.015 65.0053 112.147 60.9268 110.459C56.8483 108.771 53.1423 106.295 50.0206 103.174C46.8988 100.054 44.4225 96.3485 42.7329 92.2705C41.0434 88.1925 40.1738 83.8216 40.1738 79.4074V44.5016C40.1738 41.0774 41.5341 37.7935 43.9553 35.3722C46.3766 32.951 49.6605 31.5908 53.0846 31.5908H97.5213Z" fill="#D98F6C"/>
<path d="M76.8357 114.029H73.7907C64.6109 114.018 55.8099 110.368 49.3178 103.877C42.8257 97.3871 39.1724 88.5873 39.1589 79.4074V44.5015C39.1643 40.8098 40.6332 37.2709 43.2436 34.6604C45.8541 32.05 49.393 30.5811 53.0847 30.5757H97.562C101.248 30.5892 104.778 32.0619 107.38 34.6718C109.982 37.2817 111.445 40.816 111.447 44.5015V79.4074C111.439 88.5854 107.79 97.3853 101.301 103.876C94.8126 110.367 86.0137 114.018 76.8357 114.029ZM53.0441 32.6057C49.8908 32.6111 46.8682 33.8661 44.6385 36.0959C42.4087 38.3256 41.1537 41.3482 41.1483 44.5015V79.4074C41.1591 88.0497 44.5977 96.3348 50.7097 102.445C56.8217 108.555 65.1078 111.991 73.7501 111.999H76.7951C85.4347 111.988 93.7173 108.551 99.8254 102.441C105.934 96.3306 109.369 88.047 109.377 79.4074V44.5015C109.371 41.3482 108.116 38.3256 105.886 36.0959C103.657 33.8661 100.634 32.6111 97.4808 32.6057H53.0441Z" fill="black"/>
<path d="M75.6582 98.0022C71.7815 98.0111 67.9703 97.0032 64.6048 95.079C64.379 94.9334 64.2201 94.7042 64.1631 94.4416C64.106 94.179 64.1553 93.9046 64.3003 93.6783C64.3716 93.5657 64.4644 93.4682 64.5734 93.3914C64.6824 93.3146 64.8054 93.2601 64.9355 93.2309C65.0656 93.2016 65.2001 93.1983 65.3315 93.2211C65.4628 93.2439 65.5884 93.2924 65.701 93.3637C68.7398 95.0831 72.1718 95.9868 75.6633 95.9868C79.1547 95.9868 82.5868 95.0831 85.6255 93.3637C85.7421 93.297 85.8707 93.254 86.004 93.2371C86.1372 93.2201 86.2725 93.2296 86.4021 93.2649C86.5317 93.3003 86.6531 93.3608 86.7593 93.4431C86.8655 93.5253 86.9545 93.6277 87.0211 93.7443C87.0878 93.8609 87.1308 93.9896 87.1477 94.1228C87.1647 94.2561 87.1552 94.3913 87.1198 94.5209C87.0845 94.6505 87.024 94.7719 86.9417 94.8781C86.8595 94.9843 86.7571 95.0733 86.6405 95.1399C83.2858 97.0201 79.5038 98.0057 75.6582 98.0022V98.0022Z" fill="black"/>
<path d="M77.1603 80.0063C75.9735 80.0032 74.7889 79.9048 73.6179 79.7119C73.3487 79.6648 73.1093 79.5127 72.9522 79.289C72.7952 79.0654 72.7335 78.7885 72.7806 78.5193C72.8277 78.2501 72.9798 78.0107 73.2034 77.8536C73.4271 77.6966 73.704 77.6348 73.9732 77.6819C75.808 77.9863 77.6803 77.9863 79.5151 77.6819C79.85 76.738 78.5001 72.7084 76.4701 68.8717C76.345 68.6335 76.3196 68.3553 76.3996 68.0983C76.4795 67.8414 76.6582 67.6267 76.8964 67.5015C77.1346 67.3764 77.4128 67.351 77.6698 67.431C77.9267 67.5109 78.1414 67.6896 78.2666 67.9278C79.2816 69.836 82.418 76.2203 81.3624 78.5751C81.2479 78.8281 81.0766 79.0513 80.8618 79.2273C80.6471 79.4033 80.3946 79.5275 80.1241 79.5901C79.1566 79.848 78.1614 79.9877 77.1603 80.0063V80.0063Z" fill="black"/>
<path d="M59.7532 75.6113C61.6367 75.6113 63.1636 74.0844 63.1636 72.2009C63.1636 70.3174 61.6367 68.7905 59.7532 68.7905C57.8697 68.7905 56.3428 70.3174 56.3428 72.2009C56.3428 74.0844 57.8697 75.6113 59.7532 75.6113Z" fill="black"/>
<path d="M65.3864 63.3603H49.0246C48.4862 63.3603 47.9699 63.1464 47.5892 62.7657C47.2085 62.385 46.9946 61.8687 46.9946 61.3303C46.9946 60.7919 47.2085 60.2756 47.5892 59.8949C47.9699 59.5142 48.4862 59.3003 49.0246 59.3003H65.3864C65.9248 59.3003 66.4412 59.5142 66.8219 59.8949C67.2026 60.2756 67.4164 60.7919 67.4164 61.3303C67.4164 61.8687 67.2026 62.385 66.8219 62.7657C66.4412 63.1464 65.9248 63.3603 65.3864 63.3603Z" fill="black"/>
<path d="M91.8474 75.6113C93.7309 75.6113 95.2578 74.0844 95.2578 72.2009C95.2578 70.3174 93.7309 68.7905 91.8474 68.7905C89.9639 68.7905 88.437 70.3174 88.437 72.2009C88.437 74.0844 89.9639 75.6113 91.8474 75.6113Z" fill="black"/>
<path d="M102.586 63.3603H86.2141C85.6757 63.3603 85.1594 63.1464 84.7787 62.7657C84.398 62.385 84.1841 61.8687 84.1841 61.3303C84.1841 60.7919 84.398 60.2756 84.7787 59.8949C85.1594 59.5142 85.6757 59.3003 86.2141 59.3003H102.586C103.124 59.3003 103.641 59.5142 104.021 59.8949C104.402 60.2756 104.616 60.7919 104.616 61.3303C104.616 61.8687 104.402 62.385 104.021 62.7657C103.641 63.1464 103.124 63.3603 102.586 63.3603Z" fill="black"/>
<path d="M75.6381 3.85224C86.3898 3.85224 96.701 7.78675 104.304 14.7902C111.906 21.7937 116.177 31.2925 116.177 41.1969V43.1791H35.0889V41.1969C35.0889 36.2919 36.1378 31.435 38.1757 26.9036C40.2136 22.3721 43.2006 18.2548 46.9661 14.7869C50.7316 11.319 55.2018 8.56844 60.1214 6.69224C65.041 4.81605 70.3136 3.85101 75.6381 3.85224Z" fill="#ABA0A0"/>
<path d="M116.177 44.1142H35.0887C34.8195 44.1142 34.5614 44.0157 34.371 43.8403C34.1807 43.665 34.0737 43.4272 34.0737 43.1792V41.1969C34.2442 31.1469 38.6978 21.5617 46.4731 14.5101C54.2484 7.45855 64.7219 3.50623 75.6329 3.50623C86.5439 3.50623 97.0174 7.45855 104.793 14.5101C112.568 21.5617 117.022 31.1469 117.192 41.1969V43.1792C117.192 43.302 117.166 43.4236 117.115 43.537C117.064 43.6504 116.989 43.7535 116.895 43.8403C116.801 43.9272 116.689 43.996 116.566 44.043C116.442 44.09 116.31 44.1142 116.177 44.1142V44.1142ZM36.1037 42.2442H115.162V41.1969C114.996 31.6403 110.758 22.5269 103.363 15.8229C95.9679 9.1188 86.0083 5.36147 75.6329 5.36147C65.2575 5.36147 55.2979 9.1188 47.9028 15.8229C40.5078 22.5269 36.27 31.6403 36.1037 41.1969V42.2442Z" fill="black"/>
<path d="M117.192 43.1791H34.0736C29.7741 43.1791 26.2886 46.3879 26.2886 50.3461C26.2886 54.3042 29.7741 57.513 34.0736 57.513H117.192C121.492 57.513 124.977 54.3042 124.977 50.3461C124.977 46.3879 121.492 43.1791 117.192 43.1791Z" fill="#ABA0A0"/>
<path d="M117.202 58.4481H34.0737C32.8936 58.485 31.7175 58.3028 30.6154 57.9122C29.5134 57.5217 28.5079 56.9309 27.6589 56.1749C26.8099 55.4189 26.1347 54.5132 25.6736 53.5119C25.2125 52.5105 24.9749 51.4339 24.9749 50.3461C24.9749 49.2584 25.2125 48.1817 25.6736 47.1804C26.1347 46.179 26.8099 45.2733 27.6589 44.5174C28.5079 43.7614 29.5134 43.1705 30.6154 42.78C31.7175 42.3895 32.8936 42.2072 34.0737 42.2442H117.202C119.483 42.3156 121.645 43.2004 123.231 44.712C124.817 46.2236 125.703 48.2438 125.703 50.3461C125.703 52.4485 124.817 54.4686 123.231 55.9802C121.645 57.4918 119.483 58.3767 117.202 58.4481ZM34.0737 44.1142C33.1633 44.0817 32.2551 44.2189 31.4036 44.5174C30.552 44.8159 29.7747 45.2697 29.1181 45.8516C28.4615 46.4335 27.9391 47.1315 27.5823 47.9038C27.2255 48.6761 27.0416 49.5068 27.0416 50.3461C27.0416 51.1854 27.2255 52.0161 27.5823 52.7884C27.9391 53.5607 28.4615 54.2587 29.1181 54.8406C29.7747 55.4225 30.552 55.8763 31.4036 56.1748C32.2551 56.4734 33.1633 56.6105 34.0737 56.578H117.202C118.951 56.5156 120.606 55.8317 121.819 54.6698C123.032 53.508 123.71 51.9584 123.71 50.3461C123.71 48.7339 123.032 47.1843 121.819 46.0224C120.606 44.8605 118.951 44.1766 117.202 44.1142H34.0737Z" fill="black"/>
<path d="M70.3802 0.935061H80.8855C81.7576 0.934262 82.6205 1.09911 83.4203 1.41932C84.2201 1.73952 84.9397 2.20821 85.5341 2.7961C86.1284 3.38399 86.5848 4.07846 86.8747 4.83613C87.1647 5.5938 87.2819 6.3984 87.2191 7.19969L84.3568 43.1792H66.909L64.0568 7.17164C63.9969 6.37309 64.1161 5.57173 64.4068 4.81741C64.6975 4.06309 65.1536 3.37195 65.7468 2.78698C66.3399 2.20201 67.0573 1.73573 67.8544 1.41713C68.6516 1.09853 69.5113 0.934441 70.3802 0.935061Z" fill="#ABA0A0"/>
<path d="M84.3569 44.1142H66.909C66.6533 44.115 66.4067 44.0268 66.2185 43.8673C66.0304 43.7078 65.9145 43.4888 65.894 43.254L63.0317 7.27446C62.9562 6.34472 63.09 5.41064 63.4247 4.53077C63.7594 3.6509 64.2878 2.8442 64.9768 2.16124C65.6658 1.47828 66.5004 0.933789 67.4285 0.561887C68.3566 0.189985 69.3581 -0.00130255 70.3702 6.67529e-06H80.8754C81.8875 -0.00130255 82.889 0.189985 83.817 0.561887C84.7451 0.933789 85.5798 1.47828 86.2688 2.16124C86.9577 2.8442 87.4861 3.6509 87.8208 4.53077C88.1555 5.41064 88.2893 6.34472 88.2139 7.27446L85.3516 43.254C85.3314 43.4856 85.2184 43.702 85.0345 43.861C84.8506 44.02 84.609 44.1103 84.3569 44.1142V44.1142ZM67.8529 42.2442H83.4028L86.2042 7.1716C86.2587 6.49819 86.1616 5.82166 85.9188 5.18448C85.6761 4.5473 85.293 3.96321 84.7935 3.4689C84.2941 2.97459 83.6892 2.58072 83.0167 2.31202C82.3442 2.04331 81.6186 1.90557 80.8856 1.90744H70.3803C69.6473 1.90557 68.9217 2.04331 68.2492 2.31202C67.5767 2.58072 66.9717 2.97459 66.4723 3.4689C65.9729 3.96321 65.5898 4.5473 65.347 5.18448C65.1043 5.82166 65.0071 6.49819 65.0617 7.1716L67.8529 42.2442Z" fill="black"/>
<path d="M140.07 147.25C142.228 147.25 143.978 145.5 143.978 143.342C143.978 141.184 142.228 139.435 140.07 139.435C137.912 139.435 136.162 141.184 136.162 143.342C136.162 145.5 137.912 147.25 140.07 147.25Z" fill="black"/>
<path d="M140.08 148.275C139.698 148.271 139.317 148.227 138.943 148.143C138.316 147.994 137.724 147.723 137.201 147.345C136.679 146.967 136.236 146.49 135.898 145.941C135.553 145.394 135.322 144.783 135.217 144.145C135.113 143.507 135.137 142.854 135.289 142.226V142.226C135.474 141.437 135.85 140.705 136.384 140.097C136.919 139.488 137.596 139.02 138.354 138.736C139.113 138.451 139.93 138.358 140.733 138.465C141.536 138.572 142.3 138.876 142.958 139.349C143.616 139.822 144.146 140.45 144.503 141.178C144.86 141.905 145.032 142.709 145.003 143.519C144.974 144.329 144.746 145.119 144.339 145.819C143.932 146.52 143.358 147.109 142.668 147.534C141.892 148.019 140.995 148.276 140.08 148.275V148.275ZM137.248 142.682C137.161 143.054 137.148 143.439 137.21 143.815C137.273 144.192 137.41 144.552 137.614 144.875C138.018 145.526 138.664 145.99 139.41 146.165C140.156 146.34 140.941 146.212 141.593 145.809C142.08 145.508 142.467 145.069 142.704 144.547C142.942 144.026 143.019 143.446 142.927 142.881C142.835 142.316 142.577 141.791 142.185 141.372C141.794 140.954 141.288 140.661 140.73 140.531C139.983 140.357 139.198 140.485 138.545 140.889C137.893 141.292 137.427 141.937 137.248 142.682V142.682Z" fill="black"/>
<path d="M127.758 149.096L148.532 153.961L150.443 145.798L129.67 140.933L127.758 149.096Z" fill="black"/>
<path d="M148.545 154.954C148.468 154.964 148.389 154.964 148.312 154.954L127.535 150.082C127.275 150.022 127.048 149.861 126.906 149.635C126.835 149.521 126.788 149.394 126.768 149.262C126.747 149.129 126.752 148.994 126.784 148.864L128.692 140.744C128.722 140.614 128.777 140.491 128.855 140.382C128.932 140.274 129.03 140.181 129.143 140.111C129.256 140.04 129.382 139.992 129.514 139.97C129.645 139.948 129.78 139.953 129.91 139.983L150.687 144.855C150.817 144.885 150.94 144.94 151.049 145.017C151.157 145.095 151.249 145.193 151.32 145.306C151.391 145.419 151.439 145.545 151.461 145.676C151.483 145.808 151.478 145.943 151.448 146.073L149.53 154.193C149.474 154.411 149.346 154.604 149.168 154.742C148.99 154.88 148.771 154.954 148.545 154.954ZM128.986 148.316L147.784 152.721L149.236 146.54L130.438 142.134L128.986 148.316Z" fill="black"/>
<path d="M106.816 197.209L145.912 206.364C147.511 206.739 149.111 205.746 149.485 204.147L161.092 154.585C161.466 152.986 160.473 151.386 158.874 151.012L119.779 141.856C118.179 141.482 116.579 142.474 116.205 144.074L104.599 193.635C104.224 195.234 105.217 196.834 106.816 197.209Z" fill="#F2EAC9"/>
<path d="M146.617 207.44C146.309 207.441 146.003 207.407 145.703 207.338L106.595 198.203C105.568 197.962 104.678 197.323 104.121 196.427C103.564 195.531 103.384 194.451 103.621 193.422L115.243 143.87C115.485 142.843 116.123 141.953 117.019 141.396C117.915 140.838 118.996 140.659 120.024 140.896L159.132 150.031C160.159 150.273 161.049 150.911 161.606 151.807C162.163 152.703 162.343 153.784 162.106 154.812L150.494 204.364C150.284 205.234 149.787 206.007 149.084 206.559C148.38 207.112 147.511 207.411 146.617 207.409V207.44ZM107.032 196.193L146.14 205.328C146.643 205.444 147.172 205.357 147.611 205.085C148.05 204.813 148.364 204.379 148.484 203.877L160.096 154.304C160.212 153.8 160.125 153.27 159.853 152.829C159.582 152.388 159.147 152.072 158.644 151.949L119.537 142.814C119.032 142.695 118.501 142.781 118.059 143.054C117.618 143.326 117.302 143.762 117.182 144.266L105.57 193.839C105.511 194.088 105.503 194.348 105.545 194.601C105.586 194.854 105.678 195.097 105.814 195.315C105.949 195.532 106.127 195.721 106.336 195.87C106.545 196.019 106.781 196.126 107.032 196.183V196.193Z" fill="black"/>
<path d="M123.65 156.71C123.404 157.736 128.765 159.747 136.066 161.5C143.367 163.253 149.057 163.895 149.303 162.869C149.55 161.843 144.189 159.832 136.887 158.079C129.586 156.327 123.897 155.684 123.65 156.71Z" fill="black"/>
<path d="M122.008 164.289C121.762 165.315 127.123 167.326 134.424 169.079C141.725 170.832 147.415 171.474 147.661 170.448C147.907 169.422 142.546 167.411 135.245 165.659C127.944 163.906 122.254 163.263 122.008 164.289Z" fill="black"/>
<path d="M120.366 171.869C120.12 172.895 125.481 174.905 132.782 176.658C140.083 178.411 145.773 179.053 146.019 178.027C146.265 177.001 140.904 174.991 133.603 173.238C126.302 171.485 120.612 170.842 120.366 171.869Z" fill="black"/>
<path d="M118.724 179.448C118.477 180.474 123.838 182.484 131.139 184.237C138.441 185.99 144.13 186.633 144.377 185.606C144.623 184.58 139.262 182.57 131.961 180.817C124.659 179.064 118.97 178.422 118.724 179.448Z" fill="black"/>
<path d="M117.081 187.027C116.835 188.053 122.196 190.064 129.497 191.816C136.798 193.569 142.488 194.212 142.734 193.186C142.98 192.16 137.619 190.149 130.318 188.396C123.017 186.643 117.327 186.001 117.081 187.027Z" fill="black"/>
<path d="M5.6771 182.82L17.2395 178.863C18.836 178.317 19.6873 176.58 19.141 174.983L18.7763 173.917C18.23 172.321 16.493 171.47 14.8965 172.016L3.33412 175.972C1.73768 176.519 0.886354 178.256 1.43263 179.852L1.79738 180.918C2.34365 182.515 4.08066 183.366 5.6771 182.82Z" fill="#D98F6C"/>
<path d="M4.81102 183.984C3.94368 184.009 3.09111 183.755 2.37831 183.261C1.66551 182.766 1.12998 182.056 0.850249 181.234L0.477107 180.168C0.132797 179.149 0.20638 178.036 0.681724 177.072C1.15707 176.108 1.99537 175.372 3.01279 175.025L14.5755 171.067C15.5938 170.722 16.7071 170.796 17.6713 171.271C18.6354 171.746 19.3717 172.585 19.7186 173.602L20.0918 174.669C20.4361 175.687 20.3625 176.8 19.8872 177.764C19.4118 178.729 18.5735 179.465 17.5561 179.812L5.9934 183.77C5.61155 183.897 5.21334 183.969 4.81102 183.984ZM15.8305 172.851C15.6266 172.856 15.4251 172.896 15.2345 172.968L3.67154 176.916C3.41689 177.001 3.18169 177.136 2.97958 177.313C2.77747 177.49 2.61246 177.705 2.49411 177.946C2.37577 178.188 2.30644 178.45 2.29014 178.718C2.27384 178.986 2.31089 179.255 2.39915 179.508L2.77229 180.575C2.85764 180.828 2.99227 181.062 3.16841 181.264C3.34454 181.465 3.55872 181.629 3.79865 181.748C4.03857 181.866 4.29951 181.936 4.56646 181.953C4.8334 181.97 5.1011 181.934 5.35415 181.847L16.9168 177.889C17.1717 177.801 17.4064 177.664 17.6074 177.484C17.8084 177.304 17.9716 177.087 18.0876 176.843C18.2062 176.603 18.2763 176.342 18.2937 176.075C18.3111 175.808 18.2755 175.54 18.189 175.287L17.8156 174.21C17.6728 173.802 17.4032 173.45 17.0461 173.205C16.689 172.961 16.2631 172.837 15.8305 172.851V172.851Z" fill="black"/>
<path d="M7.9249 189.389L19.4873 185.432C21.0838 184.886 21.9351 183.149 21.3888 181.552L21.0241 180.486C20.4778 178.89 18.7408 178.039 17.1443 178.585L5.58192 182.541C3.98548 183.088 3.13416 184.825 3.68043 186.421L4.04519 187.487C4.59146 189.084 6.32846 189.935 7.9249 189.389Z" fill="#D98F6C"/>
<path d="M7.05425 190.555C6.18691 190.58 5.33434 190.327 4.62154 189.832C3.90873 189.337 3.3732 188.627 3.09347 187.806L2.7302 186.729C2.3855 185.712 2.45772 184.6 2.93104 183.636C3.40436 182.672 4.24024 181.935 5.25573 181.586L16.8184 177.628C17.8368 177.284 18.9501 177.357 19.9142 177.832C20.8783 178.308 21.6146 179.146 21.9616 180.164L22.3548 181.219C22.6991 182.238 22.6255 183.351 22.1501 184.315C21.6748 185.279 20.8365 186.016 19.8191 186.363L8.2561 190.31C7.87115 190.456 7.46537 190.538 7.05425 190.555ZM18.0838 179.422C17.8776 179.428 17.6733 179.464 17.4775 179.53L5.91475 183.488C5.66104 183.574 5.42694 183.71 5.22595 183.887C5.02496 184.064 4.86106 184.28 4.74371 184.521C4.62636 184.762 4.55789 185.023 4.54224 185.291C4.52658 185.558 4.56406 185.826 4.65251 186.079L5.01551 187.146C5.10083 187.401 5.23583 187.636 5.41268 187.838C5.58954 188.04 5.80474 188.205 6.04583 188.324C6.28691 188.442 6.54907 188.511 6.81714 188.528C7.08521 188.544 7.35385 188.507 7.6075 188.419L19.1601 184.461C19.4147 184.375 19.6499 184.24 19.852 184.064C20.0541 183.887 20.2191 183.672 20.3375 183.43C20.4558 183.189 20.5252 182.927 20.5415 182.659C20.5578 182.391 20.5207 182.122 20.4324 181.869L20.0694 180.802C19.9302 180.39 19.662 180.033 19.3045 179.784C18.9469 179.536 18.519 179.409 18.0838 179.422V179.422Z" fill="black"/>
<path d="M10.16 195.951L21.7224 191.995C23.3189 191.449 24.1702 189.712 23.6239 188.115L23.2592 187.049C22.7129 185.453 20.9759 184.601 19.3795 185.148L7.81703 189.104C6.22059 189.65 5.36927 191.387 5.91554 192.984L6.2803 194.05C6.82657 195.646 8.56357 196.498 10.16 195.951Z" fill="#D98F6C"/>
<path d="M9.29744 197.116C8.4301 197.142 7.57753 196.888 6.86473 196.393C6.15192 195.899 5.61639 195.188 5.33666 194.367L4.97367 193.3C4.62936 192.282 4.70294 191.169 5.17828 190.204C5.65362 189.24 6.49193 188.504 7.50935 188.157L19.0622 184.209C20.0805 183.865 21.1938 183.939 22.1579 184.414C23.1221 184.889 23.8584 185.728 24.2053 186.745L24.5683 187.812C24.9126 188.83 24.839 189.944 24.3637 190.908C23.8884 191.872 23.0501 192.608 22.0326 192.955L10.4801 196.913C10.0976 197.037 9.69933 197.105 9.29744 197.116V197.116ZM20.3372 185.983C20.1265 185.987 19.9181 186.027 19.7209 186.101L8.1681 190.049C7.91165 190.133 7.67539 190.27 7.47398 190.45C7.27258 190.63 7.11034 190.849 6.99737 191.095C6.87872 191.335 6.80868 191.596 6.79128 191.863C6.77388 192.13 6.80946 192.398 6.89597 192.651L7.25897 193.718C7.34428 193.972 7.47928 194.207 7.65614 194.41C7.833 194.612 8.0482 194.777 8.28928 194.895C8.53037 195.013 8.79254 195.083 9.06061 195.099C9.32868 195.115 9.59732 195.078 9.85097 194.99L21.4137 191.032C21.6685 190.944 21.9032 190.806 22.1042 190.627C22.3053 190.447 22.4685 190.229 22.5844 189.986C22.8168 189.496 22.8494 188.934 22.6754 188.42L22.3124 187.353C22.1737 186.942 21.907 186.587 21.5516 186.338C21.1961 186.09 20.7704 185.962 20.3369 185.973L20.3372 185.983Z" fill="black"/>
<path d="M12.4078 202.52L23.9702 198.564C25.5667 198.018 26.418 196.281 25.8717 194.684L25.507 193.618C24.9607 192.022 23.2237 191.17 21.6273 191.717L10.0648 195.673C8.4684 196.219 7.61707 197.956 8.16334 199.553L8.5281 200.619C9.07437 202.215 10.8114 203.067 12.4078 202.52Z" fill="#D98F6C"/>
<path d="M11.541 203.688C10.8836 203.702 10.2323 203.559 9.64148 203.271C9.15479 203.039 8.71914 202.712 8.35996 202.31C8.00078 201.908 7.72526 201.439 7.54947 200.929L7.17633 199.863C6.83202 198.844 6.90559 197.731 7.38094 196.767C7.85628 195.803 8.69458 195.066 9.71201 194.72L21.2747 190.761C22.293 190.417 23.4063 190.491 24.3705 190.966C25.3346 191.441 26.0709 192.28 26.4179 193.297L26.7809 194.364C27.1256 195.381 27.0533 196.493 26.58 197.457C26.1067 198.421 25.2708 199.158 24.2553 199.507L12.7839 203.462C12.3845 203.604 11.9647 203.68 11.541 203.688V203.688ZM22.5706 192.555C22.3643 192.562 22.1601 192.598 21.9642 192.662L10.4116 196.62C10.1581 196.706 9.92396 196.84 9.72265 197.016C9.52134 197.192 9.35681 197.407 9.23854 197.647C9.12028 197.886 9.0506 198.147 9.03351 198.414C9.01641 198.681 9.05226 198.949 9.13896 199.202L9.50222 200.279C9.58857 200.533 9.72429 200.767 9.90157 200.968C10.0789 201.169 10.2942 201.333 10.5351 201.45C10.7761 201.567 11.0379 201.636 11.3054 201.651C11.573 201.667 11.841 201.63 12.0939 201.541L23.6569 197.593C23.9116 197.508 24.1468 197.373 24.3489 197.196C24.551 197.019 24.716 196.804 24.8343 196.563C24.9527 196.322 25.022 196.06 25.0383 195.792C25.0546 195.524 25.0176 195.255 24.9293 195.001L24.5562 193.935C24.4169 193.522 24.1487 193.166 23.7912 192.917C23.4336 192.669 23.0057 192.542 22.5706 192.555V192.555Z" fill="black"/>
<path d="M30.3124 194.415L30.322 194.412C32.2685 193.746 33.3065 191.628 32.6404 189.681L26.5283 171.819C25.8623 169.872 23.7444 168.834 21.7979 169.5L21.7883 169.504C19.8418 170.17 18.8038 172.288 19.4699 174.234L25.582 192.096C26.248 194.043 28.3659 195.081 30.3124 194.415Z" fill="#D98F6C"/>
<path d="M29.2507 195.619C28.2405 195.644 27.2485 195.347 26.419 194.77C25.5895 194.192 24.9657 193.366 24.6382 192.41L18.5251 174.547C18.1183 173.357 18.201 172.054 18.7551 170.924C19.3091 169.795 20.2891 168.932 21.4795 168.525C22.6698 168.118 23.9731 168.201 25.1025 168.755C26.2318 169.309 27.0949 170.289 27.5017 171.479L33.6148 189.342C34.0179 190.532 33.9328 191.834 33.3781 192.962C32.8233 194.09 31.8442 194.952 30.6552 195.359C30.2037 195.519 29.7297 195.607 29.2507 195.619V195.619ZM22.9423 170.299C22.6673 170.307 22.3949 170.355 22.1338 170.442C21.4545 170.677 20.8957 171.171 20.5797 171.817C20.2637 172.463 20.216 173.207 20.4472 173.888L26.5603 191.75C26.6743 192.088 26.8542 192.4 27.0896 192.668C27.3249 192.936 27.611 193.155 27.9314 193.312C28.2518 193.469 28.6001 193.56 28.9561 193.582C29.3122 193.603 29.669 193.554 30.0058 193.437V193.437C30.343 193.321 30.6542 193.141 30.9215 192.905C31.1888 192.67 31.4071 192.384 31.5637 192.064C31.7204 191.744 31.8124 191.396 31.8345 191.04C31.8566 190.685 31.8083 190.328 31.6925 189.991L25.5794 172.129C25.3921 171.583 25.0352 171.111 24.5609 170.782C24.0865 170.452 23.5195 170.283 22.9423 170.299V170.299Z" fill="black"/>
</svg>
