<svg width="167" height="217" viewBox="0 0 167 217" fill="none" xmlns="http://www.w3.org/2000/svg">
<path d="M132.24 161.51V201.937H24V161.51C24 152.357 27.6359 143.58 34.1077 137.108C40.5796 130.636 49.3574 127 58.51 127H97.7093C106.862 127 115.64 130.636 122.112 137.108C128.583 143.58 132.219 152.357 132.219 161.51H132.24Z" fill="#939393"/>
<path d="M133.255 202.988H25.015C24.7458 202.988 24.4877 202.881 24.2973 202.691C24.107 202.501 24 202.242 24 201.973V161.546C24 152.124 27.7428 143.088 34.405 136.426C41.0673 129.764 50.1032 126.021 59.525 126.021H98.7243C108.146 126.021 117.182 129.764 123.844 136.426C130.507 143.088 134.249 152.124 134.249 161.546V201.973C134.249 202.239 134.145 202.494 133.959 202.684C133.773 202.874 133.52 202.983 133.255 202.988ZM26.03 200.958H132.24V161.546C132.24 152.662 128.711 144.143 122.429 137.861C116.148 131.58 107.628 128.051 98.7446 128.051H59.5352C54.1562 128.032 48.8537 129.324 44.0869 131.816C38.6405 134.645 34.0759 138.916 30.8916 144.162C27.7072 149.408 26.0255 155.429 26.03 161.566V200.958Z" fill="black"/>
<path d="M76.7699 201.973H43.6099V130.923C48.5224 128.359 53.9837 127.025 59.5251 127.036H61.3825C74.8008 157.638 76.7699 201.973 76.7699 201.973Z" fill="#CA0C0C"/>
<path d="M76.7698 202.988H43.6097C43.3405 202.988 43.0824 202.881 42.892 202.691C42.7017 202.501 42.5947 202.242 42.5947 201.973V130.923C42.5943 130.737 42.6453 130.554 42.742 130.395C42.8387 130.235 42.9773 130.106 43.1428 130.02C48.1975 127.376 53.8204 126.003 59.5249 126.021H61.3824C61.5805 126.02 61.7744 126.077 61.9404 126.186C62.1063 126.294 62.2369 126.448 62.3162 126.63C75.6431 157.08 77.7543 201.506 77.7746 201.943C77.7808 202.081 77.7588 202.218 77.71 202.348C77.6611 202.477 77.5864 202.595 77.4904 202.694C77.3956 202.788 77.2831 202.862 77.1594 202.913C77.0358 202.963 76.9034 202.989 76.7698 202.988ZM44.6349 200.958H75.6939C75.2879 194.097 72.5372 155.476 60.7226 128.03H59.5351C54.3603 128.012 49.2534 129.208 44.6247 131.522L44.6349 200.958Z" fill="black"/>
<path d="M114.16 131.908V202.958H81C81 202.958 82.9691 158.623 96.3772 128H98.2347C103.781 127.999 109.245 129.34 114.16 131.908Z" fill="#CA0C0C"/>
<path d="M114.66 202.988H81.4997C81.3629 202.988 81.2277 202.959 81.1021 202.905C80.9766 202.851 80.8632 202.772 80.7689 202.674C80.6729 202.574 80.5982 202.456 80.5493 202.327C80.5005 202.198 80.4785 202.06 80.4847 201.922C80.4847 201.486 82.6162 157.049 95.9431 126.609C96.0224 126.428 96.153 126.273 96.3189 126.165C96.4849 126.057 96.6788 126 96.8769 126H98.7344C104.438 125.98 110.061 127.35 115.116 129.989C115.282 130.075 115.421 130.205 115.517 130.364C115.614 130.523 115.665 130.706 115.665 130.893V201.943C115.669 202.078 115.646 202.212 115.597 202.338C115.549 202.464 115.475 202.579 115.382 202.677C115.288 202.774 115.176 202.852 115.052 202.905C114.928 202.959 114.795 202.987 114.66 202.988ZM82.5857 200.958H113.645V131.512C109.018 129.204 103.915 128.012 98.7445 128.03H97.557C85.7322 155.486 82.9816 194.097 82.5756 200.958H82.5857Z" fill="black"/>
<path d="M70.6188 157.709H43.9852C43.716 157.709 43.4579 157.602 43.2675 157.412C43.0772 157.221 42.9702 156.963 42.9702 156.694C42.9702 156.425 43.0772 156.167 43.2675 155.976C43.4579 155.786 43.716 155.679 43.9852 155.679H70.6188C70.888 155.679 71.1462 155.786 71.3365 155.976C71.5269 156.167 71.6338 156.425 71.6338 156.694C71.6338 156.963 71.5269 157.221 71.3365 157.412C71.1462 157.602 70.888 157.709 70.6188 157.709Z" fill="black"/>
<path d="M72.6285 167.808H43.9852C43.716 167.808 43.4579 167.701 43.2675 167.511C43.0772 167.321 42.9702 167.062 42.9702 166.793C42.9702 166.524 43.0772 166.266 43.2675 166.076C43.4579 165.885 43.716 165.778 43.9852 165.778H72.6285C72.8977 165.778 73.1559 165.885 73.3462 166.076C73.5366 166.266 73.6435 166.524 73.6435 166.793C73.6435 167.062 73.5366 167.321 73.3462 167.511C73.1559 167.701 72.8977 167.808 72.6285 167.808Z" fill="black"/>
<path d="M113.909 157.709H88.0769C87.8077 157.709 87.5495 157.602 87.3592 157.412C87.1688 157.221 87.0619 156.963 87.0619 156.694C87.0619 156.425 87.1688 156.167 87.3592 155.976C87.5495 155.786 87.8077 155.679 88.0769 155.679H113.909C114.178 155.679 114.436 155.786 114.626 155.976C114.817 156.167 114.924 156.425 114.924 156.694C114.924 156.963 114.817 157.221 114.626 157.412C114.436 157.602 114.178 157.709 113.909 157.709Z" fill="black"/>
<path d="M113.909 167.808H86.128C85.8588 167.808 85.6007 167.701 85.4103 167.511C85.22 167.321 85.113 167.062 85.113 166.793C85.113 166.524 85.22 166.266 85.4103 166.076C85.6007 165.885 85.8588 165.778 86.128 165.778H113.909C114.178 165.778 114.436 165.885 114.626 166.076C114.817 166.266 114.924 166.524 114.924 166.793C114.924 167.062 114.817 167.321 114.626 167.511C114.436 167.701 114.178 167.808 113.909 167.808Z" fill="black"/>
<path d="M61.3926 127.015C61.5347 127.015 70.2637 136.221 70.2637 136.221L79.1348 127.015H61.3926Z" fill="#CA0C0C"/>
<path d="M70.2636 137.236C70.1262 137.235 69.9905 137.205 69.8649 137.149C69.7393 137.093 69.6263 137.012 69.5328 136.912C66.4878 133.674 61.4128 128.406 60.8038 127.838C60.6305 127.712 60.5013 127.535 60.4346 127.332C60.3679 127.129 60.3672 126.909 60.4324 126.706C60.4977 126.502 60.6257 126.324 60.7981 126.197C60.9706 126.071 61.1786 126.002 61.3925 126H79.1347C79.334 126.001 79.5288 126.059 79.6948 126.169C79.8609 126.28 79.9908 126.436 80.0685 126.62C80.1454 126.802 80.1671 127.003 80.131 127.198C80.0949 127.393 80.0027 127.573 79.8655 127.716L71.0147 136.922C70.9181 137.023 70.8014 137.104 70.6721 137.158C70.5429 137.212 70.4038 137.239 70.2636 137.236ZM63.9097 128.03C65.1582 129.299 67.1171 131.38 70.3245 134.75L76.8002 128.03H63.9097Z" fill="black"/>
<path d="M96.0142 127.015C95.8721 127.015 87.1431 136.221 87.1431 136.221L78.272 127.015H96.0142Z" fill="#CA0C0C"/>
<path d="M87.1431 137.236C87.0064 137.236 86.8712 137.208 86.7456 137.154C86.62 137.1 86.5067 137.021 86.4123 136.922L77.5412 127.716C77.4041 127.573 77.3118 127.393 77.2758 127.198C77.2397 127.003 77.2614 126.802 77.3382 126.62C77.4159 126.436 77.5459 126.28 77.712 126.169C77.878 126.059 78.0728 126.001 78.272 126H96.0142C96.2834 126 96.5416 126.107 96.7319 126.298C96.9223 126.488 97.0292 126.746 97.0292 127.015C97.0285 127.176 96.9894 127.335 96.9153 127.478C96.8412 127.621 96.7341 127.744 96.6029 127.838C95.9838 128.406 90.9595 133.674 87.8841 136.912C87.7906 137.012 87.6776 137.093 87.552 137.149C87.4264 137.205 87.2907 137.235 87.1533 137.236H87.1431ZM80.6573 128.03L87.1431 134.75C90.3404 131.38 92.3095 129.299 93.5478 128.03H80.6573Z" fill="black"/>
<path d="M86.3485 127H70.3318C70.0626 127 69.8044 126.892 69.6141 126.701C69.4237 126.509 69.3168 126.249 69.3168 125.978V109.841C69.3168 109.57 69.4237 109.31 69.6141 109.118C69.8044 108.926 70.0626 108.819 70.3318 108.819H86.3485C86.6177 108.819 86.8758 108.926 87.0662 109.118C87.2565 109.31 87.3635 109.57 87.3635 109.841V125.978C87.3635 126.249 87.2565 126.509 87.0662 126.701C86.8758 126.892 86.6177 127 86.3485 127ZM71.3468 124.955H85.3335V110.864H71.3468V124.955Z" fill="black"/>
<path d="M86.3485 109.841H70.3318V125.978H86.3485V109.841Z" fill="#D98F6C"/>
<path d="M45.3324 95.1261C51.5883 95.1261 56.6598 88.1213 56.6598 79.4805C56.6598 70.8397 51.5883 63.835 45.3324 63.835C39.0764 63.835 34.005 70.8397 34.005 79.4805C34.005 88.1213 39.0764 95.1261 45.3324 95.1261Z" fill="#D98F6C"/>
<path d="M45.3324 96.1487C38.5319 96.1487 33.0001 88.6736 33.0001 79.4806C33.0001 70.2875 38.5319 62.8022 45.3324 62.8022C52.1329 62.8022 57.6748 70.2875 57.6748 79.4806C57.6748 88.6736 52.143 96.1487 45.3324 96.1487ZM45.3324 64.8474C39.6484 64.8474 35.0301 71.4124 35.0301 79.4806C35.0301 87.5488 39.6484 94.1035 45.3324 94.1035C51.0164 94.1035 55.6448 87.5488 55.6448 79.4806C55.6448 71.4124 51.0164 64.8474 45.3324 64.8474Z" fill="black"/>
<path d="M111.348 95.1261C117.604 95.1261 122.675 88.1213 122.675 79.4805C122.675 70.8397 117.604 63.835 111.348 63.835C105.092 63.835 100.021 70.8397 100.021 79.4805C100.021 88.1213 105.092 95.1261 111.348 95.1261Z" fill="#D98F6C"/>
<path d="M111.348 96.1487C104.547 96.1487 99.0055 88.6736 99.0055 79.4806C99.0055 70.2875 104.547 62.8022 111.348 62.8022C118.148 62.8022 123.69 70.2875 123.69 79.4806C123.69 88.6736 118.148 96.1487 111.348 96.1487ZM111.348 64.8474C105.664 64.8474 101.035 71.4124 101.035 79.4806C101.035 87.5488 105.664 94.1035 111.348 94.1035C117.032 94.1035 121.66 87.5488 121.66 79.4806C121.66 71.4124 117.032 64.8474 111.348 64.8474Z" fill="black"/>
<path d="M100.579 37.0227C102.275 37.0214 103.954 37.3569 105.521 38.0101C107.088 38.6633 108.512 39.6214 109.711 40.8295C110.91 42.0376 111.861 43.472 112.51 45.0507C113.158 46.6295 113.491 48.3215 113.49 50.03V85.1968C113.491 89.6425 112.623 94.0451 110.935 98.1528C109.247 102.261 106.773 105.993 103.653 109.137C100.533 112.281 96.8291 114.775 92.7523 116.477C88.6755 118.179 84.3059 119.055 79.8931 119.055H76.8481C72.434 119.056 68.0628 118.181 63.9843 116.48C59.9058 114.779 56.1998 112.286 53.0781 109.141C49.9563 105.997 47.48 102.264 45.7904 98.156C44.1009 94.0475 43.2313 89.6439 43.2313 85.1968V50.03C43.2313 46.5803 44.5916 43.2718 47.0128 40.8325C49.4341 38.3931 52.718 37.0227 56.1421 37.0227H100.579Z" fill="#D98F6C"/>
<path d="M79.8932 120.077H76.8482C67.6684 120.066 58.8674 116.388 52.3753 109.85C45.8832 103.311 42.2299 94.4452 42.2164 85.1967V50.03C42.2218 46.3107 43.6907 42.7453 46.3011 40.1154C48.9116 37.4854 52.4505 36.0055 56.1422 36.0001H100.62C104.305 36.0136 107.835 37.4974 110.437 40.1268C113.04 42.7561 114.502 46.317 114.505 50.03V85.1967C114.497 94.4433 110.848 103.309 104.359 109.848C97.8701 116.388 89.0712 120.066 79.8932 120.077ZM56.1016 38.0453C52.9483 38.0507 49.9257 39.3151 47.696 41.5615C45.4662 43.8079 44.2112 46.8531 44.2058 50.03V85.1967C44.2166 93.9036 47.6552 102.251 53.7672 108.406C59.8792 114.562 68.1653 118.024 76.8076 118.032H79.8526C88.4922 118.021 96.7748 114.558 102.883 108.402C108.991 102.246 112.426 93.9009 112.434 85.1967V50.03C112.429 46.8531 111.174 43.8079 108.944 41.5615C106.714 39.3151 103.692 38.0507 100.538 38.0453H56.1016Z" fill="black"/>
<path d="M78.7157 103.931C74.839 103.939 71.0278 102.924 67.6623 100.985C67.4365 100.839 67.2776 100.608 67.2206 100.343C67.1635 100.079 67.2128 99.8022 67.3578 99.5743C67.4291 99.4608 67.5219 99.3626 67.6309 99.2852C67.7399 99.2079 67.8629 99.1529 67.993 99.1235C68.1231 99.0941 68.2576 99.0907 68.389 99.1137C68.5203 99.1366 68.6459 99.1855 68.7585 99.2573C71.7973 100.99 75.2293 101.9 78.7208 101.9C82.2122 101.9 85.6443 100.99 88.683 99.2573C88.7996 99.1902 88.9282 99.1468 89.0615 99.1298C89.1947 99.1127 89.33 99.1222 89.4596 99.1578C89.5892 99.1935 89.7106 99.2544 89.8168 99.3373C89.923 99.4201 90.012 99.5233 90.0786 99.6408C90.1453 99.7583 90.1883 99.8879 90.2052 100.022C90.2222 100.156 90.2127 100.293 90.1773 100.423C90.142 100.554 90.0815 100.676 89.9992 100.783C89.917 100.89 89.8146 100.98 89.698 101.047C86.3433 102.941 82.5613 103.934 78.7157 103.931Z" fill="black"/>
<path d="M80.2179 85.4307C79.0312 85.4276 77.8466 85.3291 76.6756 85.1363C76.4064 85.0892 76.1669 84.9371 76.0099 84.7134C75.8528 84.4898 75.7911 84.2129 75.8382 83.9437C75.8853 83.6745 76.0374 83.435 76.2611 83.278C76.4847 83.121 76.7616 83.0592 77.0308 83.1063C78.8656 83.4107 80.7379 83.4107 82.5727 83.1063C82.9077 82.1624 81.5577 78.1328 79.5277 74.2961C79.4026 74.0579 79.3772 73.7797 79.4572 73.5227C79.5371 73.2658 79.7158 73.0511 79.954 72.9259C80.1923 72.8008 80.4704 72.7754 80.7274 72.8553C80.9843 72.9353 81.199 73.114 81.3243 73.3522C82.3393 75.2604 85.4756 81.6447 84.42 83.9995C84.3055 84.2525 84.1342 84.4756 83.9194 84.6517C83.7047 84.8277 83.4522 84.9519 83.1817 85.0145C82.2142 85.2723 81.219 85.4121 80.2179 85.4307Z" fill="black"/>
<path d="M62.8107 81.0357C64.6942 81.0357 66.2211 79.5088 66.2211 77.6253C66.2211 75.7418 64.6942 74.2149 62.8107 74.2149C60.9272 74.2149 59.4003 75.7418 59.4003 77.6253C59.4003 79.5088 60.9272 81.0357 62.8107 81.0357Z" fill="black"/>
<path d="M68.4439 68.7847H52.0821C51.5437 68.7847 51.0274 68.5708 50.6467 68.1901C50.266 67.8094 50.0521 67.2931 50.0521 66.7547C50.0521 66.2163 50.266 65.6999 50.6467 65.3192C51.0274 64.9385 51.5437 64.7247 52.0821 64.7247H68.4439C68.9823 64.7247 69.4986 64.9385 69.8793 65.3192C70.26 65.6999 70.4739 66.2163 70.4739 66.7547C70.4739 67.2931 70.26 67.8094 69.8793 68.1901C69.4986 68.5708 68.9823 68.7847 68.4439 68.7847Z" fill="black"/>
<path d="M94.9049 81.0357C96.7884 81.0357 98.3153 79.5088 98.3153 77.6253C98.3153 75.7418 96.7884 74.2149 94.9049 74.2149C93.0214 74.2149 91.4945 75.7418 91.4945 77.6253C91.4945 79.5088 93.0214 81.0357 94.9049 81.0357Z" fill="black"/>
<path d="M105.644 68.7847H89.2717C88.7333 68.7847 88.217 68.5708 87.8363 68.1901C87.4556 67.8094 87.2417 67.2931 87.2417 66.7547C87.2417 66.2163 87.4556 65.6999 87.8363 65.3192C88.217 64.9385 88.7333 64.7247 89.2717 64.7247H105.644C106.182 64.7247 106.698 64.9385 107.079 65.3192C107.46 65.6999 107.674 66.2163 107.674 66.7547C107.674 67.2931 107.46 67.8094 107.079 68.1901C106.698 68.5708 106.182 68.7847 105.644 68.7847Z" fill="black"/>
<path d="M148 177.5L139 174L128 199.5L129 203.5L136 206.5L139.5 205L148 183V177.5Z" fill="black" stroke="black"/>
<path d="M154.005 134.577C153.5 134.793 152.949 135.504 150.712 138.788C149.227 140.959 147.934 142.991 147.827 143.302C147.701 143.668 147.807 144.667 148.153 146.22L148.668 148.588L144.622 160.34L140.576 172.092L138.104 171.241C135.706 170.415 135.59 170.395 135.018 170.69C134.631 170.864 134.333 171.191 134.214 171.539C133.905 172.436 134.405 173.243 135.54 173.634C136.034 173.804 136.443 173.985 136.424 174.04C136.405 174.095 136.051 174.588 135.642 175.122C134.91 176.058 134.771 176.461 130.793 188.134L126.707 200.179L126.849 201.252C127.042 202.833 127.828 204.415 128.938 205.472C129.757 206.246 130.19 206.477 131.958 207.168C135.136 208.405 136.813 208.471 138.898 207.469C141.144 206.358 141.846 205.269 143.68 199.942C145.168 195.622 145.241 194.993 144.403 194.335C144.099 194.087 143.703 193.93 143.433 193.94C142.398 193.973 142.305 194.125 140.524 198.999L138.845 203.58L138.098 204.142C136.951 205.037 135.873 205.076 133.713 204.332C131.223 203.475 130.416 202.726 130.182 201.028C130.073 200.274 130.269 199.645 133.994 188.827C138.4 176.031 138.075 176.738 139.906 176.058C140.766 175.761 140.864 175.774 142.969 176.438C144.855 177.026 145.227 177.195 145.724 177.714C147.161 179.191 147.118 179.791 145.233 185.325L143.701 189.773L141.938 195.302C142.304 196.083 141.876 201.559 142.749 201.225L144.845 196.168L146.715 190.832L148.442 185.816C150.093 181.02 150.157 180.776 150.069 179.783C150.001 179.207 149.963 178.723 149.976 178.686C149.988 178.65 150.44 178.764 150.971 178.947C151.703 179.199 152.083 179.227 152.47 179.054C153.319 178.67 153.604 177.724 153.141 176.869C152.846 176.357 152.657 176.252 150.442 175.489L148.081 174.676L152.114 162.961L156.155 151.227L158.057 149.568C159.106 148.66 160.009 147.763 160.072 147.58C160.173 147.287 160.59 141.616 160.738 138.452C160.83 136.579 160.66 136.418 157.273 135.252C154.784 134.395 154.595 134.351 154.005 134.577ZM157.27 142.458L157.05 146.13L156.309 146.796C155.895 147.165 155.073 147.886 154.499 148.425L153.412 149.382L149.184 161.481L144.932 173.592L144.31 173.377L143.687 173.163L147.861 160.923L152.01 148.694L151.506 146.412L150.99 144.105L152.91 141.264C153.985 139.689 154.929 138.315 155.01 138.199C155.115 138.072 155.561 138.144 156.33 138.408L157.502 138.812L157.27 142.458Z" fill="black"/>
<path d="M141.995 202.257L130.347 198.56C128.738 198.05 127.021 198.94 126.51 200.548L126.17 201.622C125.659 203.23 126.549 204.948 128.157 205.458L139.805 209.155C141.413 209.666 143.131 208.776 143.641 207.168L143.982 206.094C144.493 204.485 143.603 202.768 141.995 202.257Z" fill="#D98F6C"/>
<path d="M143.383 201.837C144.095 202.333 144.63 203.043 144.909 203.865C145.187 204.687 145.195 205.576 144.932 206.403L144.597 207.482C144.268 208.506 143.547 209.357 142.591 209.849C141.636 210.341 140.524 210.435 139.5 210.108L127.85 206.412C126.827 206.083 125.976 205.362 125.484 204.406C124.991 203.451 124.898 202.339 125.224 201.315L125.559 200.235C125.888 199.212 126.609 198.361 127.565 197.868C128.52 197.376 129.632 197.283 130.656 197.609L142.305 201.305C142.688 201.43 143.051 201.609 143.383 201.837ZM127.903 204.231C128.07 204.348 128.256 204.436 128.452 204.491L140.095 208.196C140.351 208.279 140.62 208.31 140.888 208.288C141.155 208.266 141.416 208.191 141.655 208.068C141.893 207.945 142.105 207.775 142.277 207.569C142.45 207.363 142.58 207.125 142.66 206.869L142.994 205.79C143.076 205.535 143.107 205.267 143.086 205C143.064 204.734 142.989 204.474 142.867 204.236C142.744 203.999 142.576 203.787 142.372 203.615C142.167 203.442 141.931 203.312 141.676 203.231L130.027 199.535C129.77 199.454 129.499 199.425 129.231 199.45C128.962 199.475 128.701 199.553 128.463 199.679C128.225 199.802 128.014 199.97 127.841 200.174C127.668 200.378 127.537 200.615 127.456 200.87L127.116 201.958C126.988 202.371 126.995 202.815 127.137 203.224C127.278 203.633 127.547 203.986 127.903 204.231Z" fill="black"/>
<path d="M144.095 195.64L132.447 191.943C130.839 191.432 129.121 192.322 128.611 193.93L128.27 195.004C127.76 196.612 128.649 198.33 130.258 198.84L141.906 202.538C143.514 203.048 145.231 202.158 145.742 200.55L146.083 199.476C146.593 197.868 145.703 196.15 144.095 195.64Z" fill="#D98F6C"/>
<path d="M145.489 195.22C146.201 195.716 146.735 196.426 147.014 197.248C147.293 198.07 147.301 198.959 147.037 199.786L146.689 200.868C146.361 201.89 145.641 202.741 144.687 203.235C143.734 203.728 142.623 203.823 141.599 203.5L129.95 199.804C128.927 199.475 128.076 198.753 127.583 197.798C127.091 196.842 126.998 195.73 127.324 194.706L127.636 193.623C127.965 192.6 128.686 191.749 129.642 191.257C130.598 190.764 131.709 190.671 132.734 190.997L144.377 194.702C144.773 194.814 145.148 194.989 145.489 195.22ZM130 197.608C130.17 197.726 130.355 197.819 130.552 197.883L142.201 201.579C142.456 201.66 142.725 201.691 142.992 201.668C143.259 201.645 143.519 201.569 143.756 201.445C143.994 201.321 144.205 201.152 144.377 200.946C144.548 200.74 144.678 200.502 144.757 200.246L145.1 199.173C145.183 198.917 145.214 198.648 145.192 198.38C145.17 198.113 145.095 197.852 144.972 197.614C144.848 197.375 144.679 197.163 144.473 196.991C144.267 196.818 144.029 196.688 143.773 196.608L132.132 192.918C131.877 192.835 131.607 192.804 131.34 192.826C131.072 192.848 130.811 192.922 130.573 193.046C130.334 193.169 130.123 193.339 129.95 193.545C129.778 193.75 129.648 193.988 129.568 194.245L129.225 195.318C129.092 195.733 129.095 196.179 129.235 196.591C129.374 197.004 129.643 197.36 130 197.608Z" fill="black"/>
<path d="M146.202 189.035L134.554 185.338C132.946 184.827 131.228 185.717 130.718 187.325L130.377 188.399C129.866 190.007 130.756 191.725 132.365 192.235L144.013 195.933C145.621 196.443 147.338 195.553 147.849 193.945L148.19 192.871C148.7 191.263 147.81 189.545 146.202 189.035Z" fill="#D98F6C"/>
<path d="M147.588 188.611C148.3 189.107 148.835 189.818 149.114 190.639C149.392 191.461 149.401 192.351 149.137 193.177L148.794 194.251C148.465 195.274 147.744 196.125 146.788 196.618C145.833 197.11 144.721 197.203 143.696 196.877L132.062 193.178C131.038 192.849 130.187 192.128 129.695 191.172C129.202 190.217 129.109 189.105 129.435 188.081L129.778 187.007C130.107 185.984 130.829 185.133 131.784 184.64C132.74 184.148 133.852 184.055 134.876 184.381L146.517 188.071C146.898 188.199 147.259 188.381 147.588 188.611ZM132.092 190.994C132.263 191.116 132.455 191.208 132.657 191.266L144.292 194.964C144.549 195.049 144.82 195.08 145.089 195.055C145.358 195.03 145.619 194.95 145.855 194.82C146.093 194.698 146.305 194.53 146.478 194.325C146.651 194.121 146.781 193.884 146.863 193.629L147.205 192.556C147.288 192.3 147.32 192.031 147.298 191.763C147.276 191.496 147.201 191.235 147.077 190.997C146.954 190.758 146.784 190.546 146.579 190.374C146.373 190.201 146.135 190.071 145.879 189.991L134.229 186.295C133.972 186.214 133.702 186.185 133.433 186.21C133.165 186.235 132.904 186.313 132.666 186.44C132.188 186.696 131.827 187.128 131.662 187.644L131.319 188.718C131.186 189.131 131.189 189.575 131.327 189.986C131.465 190.397 131.731 190.753 132.086 191.002L132.092 190.994Z" fill="black"/>
<path d="M148.749 181.621L137.101 177.924C135.493 177.414 133.776 178.304 133.265 179.912L132.924 180.986C132.414 182.594 133.304 184.312 134.912 184.822L146.56 188.519C148.168 189.03 149.886 188.14 150.396 186.532L150.737 185.458C151.248 183.849 150.358 182.132 148.749 181.621Z" fill="#D98F6C"/>
<path d="M149.694 181.994C150.231 182.374 150.669 182.876 150.972 183.46C151.226 183.935 151.382 184.457 151.431 184.994C151.481 185.531 151.423 186.072 151.261 186.586L150.927 187.665C150.598 188.689 149.877 189.54 148.921 190.032C147.965 190.525 146.854 190.618 145.829 190.291L134.18 186.595C133.157 186.266 132.306 185.545 131.813 184.589C131.321 183.634 131.228 182.522 131.554 181.498L131.897 180.424C132.225 179.402 132.944 178.551 133.898 178.058C134.852 177.564 135.962 177.469 136.986 177.792L148.561 181.436C148.966 181.56 149.349 181.748 149.694 181.994ZM134.206 184.383C134.375 184.5 134.561 184.592 134.757 184.657L146.398 188.347C146.652 188.43 146.92 188.461 147.187 188.439C147.454 188.417 147.713 188.343 147.951 188.22C148.189 188.098 148.4 187.929 148.573 187.725C148.745 187.52 148.876 187.284 148.956 187.029L149.305 185.947C149.386 185.692 149.417 185.423 149.394 185.156C149.371 184.889 149.295 184.629 149.171 184.392C149.047 184.154 148.878 183.943 148.672 183.771C148.466 183.6 148.228 183.47 147.972 183.391L136.329 179.687C136.074 179.604 135.804 179.572 135.537 179.594C135.269 179.616 135.008 179.691 134.77 179.814C134.531 179.938 134.32 180.107 134.147 180.313C133.974 180.519 133.844 180.757 133.764 181.013L133.43 182.093C133.297 182.507 133.3 182.953 133.44 183.366C133.579 183.778 133.848 184.135 134.206 184.383Z" fill="black"/>
<path d="M129.088 178.283L129.079 178.28C127.118 177.657 125.024 178.742 124.401 180.703L118.69 198.698C118.067 200.658 119.152 202.753 121.113 203.375L121.123 203.378C123.084 204.001 125.178 202.915 125.8 200.955L131.512 182.96C132.134 180.999 131.049 178.905 129.088 178.283Z" fill="#D98F6C"/>
<path d="M130.658 177.946C131.485 178.527 132.106 179.356 132.429 180.314C132.753 181.271 132.762 182.307 132.457 183.27L126.746 201.265C126.365 202.464 125.523 203.462 124.406 204.04C123.289 204.619 121.988 204.73 120.789 204.349C119.59 203.968 118.592 203.126 118.013 202.009C117.435 200.892 117.324 199.59 117.705 198.392L123.416 180.397C123.8 179.2 124.643 178.204 125.76 177.627C126.877 177.051 128.176 176.94 129.374 177.32C129.833 177.46 130.266 177.671 130.658 177.946ZM120.668 202.052C120.894 202.21 121.142 202.333 121.403 202.418C122.089 202.633 122.832 202.569 123.47 202.238C124.109 201.907 124.59 201.336 124.809 200.652L130.52 182.657C130.629 182.317 130.67 181.959 130.64 181.604C130.61 181.248 130.511 180.902 130.346 180.586C130.182 180.269 129.957 179.988 129.683 179.759C129.41 179.53 129.094 179.358 128.753 179.251C128.414 179.144 128.056 179.104 127.701 179.134C127.346 179.164 127 179.264 126.684 179.428C126.368 179.593 126.087 179.817 125.858 180.09C125.628 180.363 125.455 180.678 125.348 181.018L119.637 199.013C119.463 199.563 119.469 200.155 119.654 200.702C119.84 201.248 120.195 201.722 120.668 202.052Z" fill="black"/>
<path d="M79.6633 3.58869C90.4149 3.58869 100.726 7.25396 108.329 13.7782C115.931 20.3024 120.202 29.1512 120.202 38.3778L120.202 40.2244L39.114 40.2244L39.114 38.3778C39.114 33.8085 40.1629 29.284 42.2008 25.0626C44.2388 20.8412 47.2258 17.0057 50.9912 13.7751C54.7567 10.5445 59.2269 7.98215 64.1465 6.23435C69.0661 4.48654 74.3388 3.58754 79.6633 3.58869Z" fill="#2E85B6"/>
<path d="M120.202 41.0955L39.1139 41.0955C38.8447 41.0955 38.5865 41.0037 38.3962 40.8404C38.2058 40.677 38.0989 40.4555 38.0989 40.2244L38.0989 38.3778C38.2694 29.0156 42.7229 20.0862 50.4982 13.5172C58.2735 6.94822 68.747 3.26636 79.6581 3.26636C90.5691 3.26636 101.043 6.94822 108.818 13.5172C116.593 20.0862 121.047 29.0156 121.217 38.3778L121.217 40.2244C121.217 40.3388 121.191 40.4521 121.14 40.5578C121.089 40.6635 121.014 40.7595 120.92 40.8404C120.826 40.9212 120.714 40.9854 120.591 41.0292C120.468 41.0729 120.336 41.0955 120.202 41.0955ZM40.1289 39.3534L119.187 39.3534L119.187 38.3778C119.021 29.4752 114.783 20.9854 107.388 14.7401C99.9931 8.49486 90.0335 4.99464 79.6581 4.99464C69.2826 4.99464 59.3231 8.49486 51.928 14.7401C44.5329 20.9854 40.2951 29.4752 40.1289 38.3778L40.1289 39.3534Z" fill="black"/>
<path d="M121.217 40.2244L38.0988 40.2244C33.7992 40.2244 30.3137 43.2135 30.3137 46.9008C30.3137 50.5882 33.7992 53.5773 38.0988 53.5773L121.217 53.5773C125.517 53.5773 129.002 50.5882 129.002 46.9008C129.002 43.2135 125.517 40.2244 121.217 40.2244Z" fill="#2E85B6"/>
<path d="M121.227 54.4484L38.0989 54.4484C36.9188 54.4828 35.7426 54.3131 34.6406 53.9493C33.5385 53.5855 32.533 53.0351 31.684 52.3308C30.835 51.6266 30.1599 50.7829 29.6988 49.85C29.2376 48.9172 29 47.9142 29 46.9009C29 45.8876 29.2376 44.8847 29.6988 43.9518C30.1599 43.019 30.835 42.1753 31.684 41.471C32.533 40.7668 33.5385 40.2164 34.6406 39.8526C35.7426 39.4888 36.9188 39.319 38.0989 39.3534L121.227 39.3534C123.508 39.4199 125.67 40.2442 127.256 41.6524C128.842 43.0606 129.729 44.9425 129.729 46.9009C129.729 48.8594 128.842 50.7413 127.256 52.1495C125.67 53.5576 123.508 54.3819 121.227 54.4484ZM38.0989 41.0955C37.1884 41.0652 36.2802 41.193 35.4287 41.4711C34.5772 41.7492 33.7998 42.1719 33.1432 42.714C32.4866 43.2561 31.9642 43.9063 31.6074 44.6258C31.2506 45.3452 31.0667 46.119 31.0667 46.9009C31.0667 47.6828 31.2506 48.4567 31.6074 49.1761C31.9642 49.8955 32.4866 50.5458 33.1432 51.0878C33.7998 51.6299 34.5772 52.0527 35.4287 52.3308C36.2802 52.6089 37.1884 52.7366 38.0989 52.7064L121.227 52.7064C122.976 52.6482 124.631 52.0111 125.844 50.9288C127.058 49.8464 127.735 48.4028 127.735 46.9009C127.735 45.399 127.058 43.9555 125.844 42.8731C124.631 41.7907 122.976 41.1536 121.227 41.0955L38.0989 41.0955Z" fill="black"/>
<path d="M74.4054 0.871157L84.9107 0.871157C85.7827 0.870413 86.6456 1.02398 87.4455 1.32228C88.2453 1.62057 88.9648 2.05718 89.5592 2.60484C90.1536 3.1525 90.61 3.79945 90.8999 4.50527C91.1898 5.2111 91.307 5.96064 91.2442 6.70709L88.382 40.2245L70.9341 40.2245L68.082 6.68096C68.0221 5.93705 68.1412 5.19053 68.4319 4.48783C68.7227 3.78513 69.1788 3.14129 69.7719 2.59635C70.365 2.05141 71.0824 1.61703 71.8796 1.32024C72.6767 1.02344 73.5365 0.87058 74.4054 0.871157Z" fill="#2E85B6"/>
<path d="M88.382 41.0955L70.9342 41.0955C70.6785 41.0962 70.4319 41.014 70.2437 40.8655C70.0555 40.7169 69.9396 40.5129 69.9192 40.2941L67.0568 6.77672C66.9814 5.9106 67.1152 5.04044 67.4499 4.22078C67.7846 3.40112 68.313 2.64963 69.0019 2.0134C69.6909 1.37718 70.5256 0.869949 71.4537 0.523497C72.3818 0.177046 73.3832 -0.00115238 74.3953 6.72492e-05L84.9005 6.72429e-05C85.9126 -0.00115239 86.9141 0.177046 87.8422 0.523497C88.7703 0.869949 89.6049 1.37718 90.2939 2.0134C90.9829 2.64963 91.5113 3.40112 91.846 4.22078C92.1807 5.04044 92.3145 5.9106 92.239 6.77672L89.3767 40.2941C89.3566 40.5099 89.2435 40.7115 89.0597 40.8596C88.8758 41.0078 88.6342 41.0918 88.382 41.0955ZM71.8781 39.3534L87.4279 39.3534L90.2293 6.6809C90.2839 6.05357 90.1867 5.42334 89.944 4.82976C89.7012 4.23618 89.3181 3.69207 88.8187 3.23158C88.3193 2.7711 87.7143 2.40418 87.0418 2.15386C86.3693 1.90355 85.6438 1.77523 84.9107 1.77698L74.4055 1.77698C73.6724 1.77523 72.9469 1.90355 72.2743 2.15386C71.6018 2.40418 70.9969 2.7711 70.4974 3.23158C69.998 3.69207 69.6149 4.23618 69.3722 4.82976C69.1294 5.42334 69.0323 6.05357 69.0868 6.6809L71.8781 39.3534Z" fill="black"/>
<path d="M7.67697 189.82L19.2394 185.864C20.8358 185.318 21.6872 183.581 21.1409 181.984L20.7761 180.918C20.2299 179.322 18.4929 178.47 16.8964 179.017L5.33399 182.973C3.73756 183.519 2.88623 185.256 3.4325 186.853L3.79726 187.919C4.34353 189.515 6.08054 190.367 7.67697 189.82Z" fill="#D98F6C"/>
<path d="M6.81102 190.984C5.94368 191.009 5.09111 190.756 4.37831 190.261C3.66551 189.766 3.12998 189.056 2.85025 188.235L2.47711 187.168C2.1328 186.15 2.20638 185.037 2.68172 184.073C3.15707 183.109 3.99537 182.372 5.01279 182.025L16.5755 178.067C17.5938 177.723 18.7071 177.797 19.6713 178.272C20.6354 178.747 21.3717 179.586 21.7186 180.603L22.0918 181.669C22.4361 182.688 22.3625 183.801 21.8872 184.765C21.4118 185.729 20.5735 186.466 19.5561 186.813L7.9934 190.771C7.61155 190.898 7.21334 190.97 6.81102 190.984ZM17.8305 179.852C17.6266 179.857 17.4251 179.897 17.2345 179.969L5.67154 183.917C5.41689 184.002 5.18169 184.137 4.97958 184.314C4.77747 184.491 4.61246 184.706 4.49411 184.947C4.37577 185.188 4.30644 185.45 4.29014 185.719C4.27384 185.987 4.31089 186.255 4.39915 186.509L4.77229 187.575C4.85764 187.829 4.99227 188.063 5.16841 188.264C5.34454 188.466 5.55872 188.63 5.79865 188.748C6.03857 188.867 6.29951 188.936 6.56646 188.953C6.8334 188.971 7.1011 188.935 7.35415 188.848L18.9168 184.89C19.1717 184.802 19.4064 184.664 19.6074 184.485C19.8084 184.305 19.9716 184.087 20.0876 183.844C20.2062 183.604 20.2763 183.343 20.2937 183.076C20.3111 182.809 20.2755 182.541 20.189 182.288L19.8156 181.211C19.6728 180.803 19.4032 180.45 19.0461 180.206C18.689 179.961 18.2631 179.837 17.8305 179.852Z" fill="black"/>
<path d="M9.9249 196.389L21.4873 192.433C23.0838 191.887 23.9351 190.15 23.3888 188.553L23.0241 187.487C22.4778 185.891 20.7408 185.039 19.1443 185.586L7.58192 189.542C5.98548 190.088 5.13416 191.825 5.68043 193.422L6.04519 194.488C6.59146 196.084 8.32846 196.936 9.9249 196.389Z" fill="#D98F6C"/>
<path d="M9.05437 197.556C8.18703 197.581 7.33446 197.328 6.62166 196.833C5.90886 196.338 5.37332 195.628 5.09359 194.806L4.73032 193.73C4.38562 192.713 4.45784 191.6 4.93116 190.637C5.40449 189.673 6.24036 188.936 7.25586 188.587L18.8186 184.629C19.8369 184.284 20.9502 184.358 21.9143 184.833C22.8785 185.309 23.6148 186.147 23.9617 187.164L24.3549 188.22C24.6992 189.238 24.6256 190.352 24.1503 191.316C23.6749 192.28 22.8366 193.016 21.8192 193.363L10.2562 197.311C9.87127 197.456 9.4655 197.539 9.05437 197.556ZM20.084 186.423C19.8777 186.429 19.6734 186.465 19.4776 186.53L7.91487 190.488C7.66116 190.575 7.42706 190.71 7.22607 190.888C7.02508 191.065 6.86118 191.28 6.74383 191.521C6.62648 191.762 6.55801 192.024 6.54236 192.292C6.52671 192.559 6.56418 192.827 6.65263 193.08L7.01564 194.147C7.10095 194.402 7.23595 194.637 7.41281 194.839C7.58966 195.041 7.80487 195.206 8.04595 195.324C8.28703 195.443 8.54919 195.512 8.81726 195.528C9.08533 195.545 9.35397 195.508 9.60762 195.419L21.1602 191.461C21.4148 191.376 21.65 191.241 21.8521 191.064C22.0543 190.887 22.2193 190.672 22.3376 190.431C22.4559 190.19 22.5253 189.928 22.5416 189.66C22.5579 189.392 22.5208 189.123 22.4326 188.869L22.0696 187.803C21.9303 187.39 21.6621 187.033 21.3046 186.785C20.9471 186.537 20.5191 186.41 20.084 186.423Z" fill="black"/>
<path d="M12.1599 202.952L23.7223 198.996C25.3188 198.449 26.1701 196.712 25.6238 195.116L25.259 194.05C24.7128 192.454 22.9758 191.602 21.3793 192.148L9.8169 196.105C8.22047 196.651 7.36915 198.388 7.91542 199.985L8.28017 201.051C8.82645 202.647 10.5634 203.498 12.1599 202.952Z" fill="#D98F6C"/>
<path d="M11.2974 204.117C10.4301 204.142 9.57753 203.889 8.86473 203.394C8.15193 202.899 7.61639 202.189 7.33666 201.368L6.97367 200.301C6.62936 199.283 6.70294 198.169 7.17828 197.205C7.65362 196.241 8.49193 195.505 9.50935 195.158L21.0622 191.21C22.0805 190.866 23.1938 190.94 24.1579 191.415C25.1221 191.89 25.8584 192.729 26.2053 193.746L26.5683 194.813C26.9126 195.831 26.839 196.944 26.3637 197.908C25.8884 198.873 25.05 199.609 24.0326 199.956L12.4801 203.914C12.0976 204.037 11.6993 204.106 11.2974 204.117ZM22.3372 192.984C22.1265 192.988 21.9181 193.028 21.7209 193.102L10.1681 197.049C9.91165 197.134 9.67539 197.271 9.47398 197.451C9.27258 197.631 9.11034 197.85 8.99737 198.095C8.87872 198.335 8.80868 198.596 8.79128 198.863C8.77388 199.13 8.80946 199.398 8.89597 199.652L9.25897 200.718C9.34428 200.973 9.47928 201.208 9.65614 201.41C9.833 201.612 10.0482 201.777 10.2893 201.896C10.5304 202.014 10.7925 202.083 11.0606 202.1C11.3287 202.116 11.5973 202.079 11.851 201.991L23.4137 198.033C23.6685 197.945 23.9032 197.807 24.1042 197.627C24.3053 197.448 24.4685 197.23 24.5844 196.987C24.8168 196.496 24.8494 195.935 24.6754 195.421L24.3124 194.354C24.1737 193.943 23.907 193.587 23.5516 193.339C23.1961 193.091 22.7704 192.963 22.3369 192.974L22.3372 192.984Z" fill="black"/>
<path d="M14.4078 209.521L25.9702 205.565C27.5667 205.018 28.418 203.281 27.8717 201.685L27.507 200.619C26.9607 199.023 25.2237 198.171 23.6273 198.717L12.0648 202.674C10.4684 203.22 9.61707 204.957 10.1633 206.554L10.5281 207.62C11.0744 209.216 12.8114 210.067 14.4078 209.521Z" fill="#D98F6C"/>
<path d="M13.5408 210.689C12.8834 210.703 12.2322 210.56 11.6414 210.271C11.1547 210.039 10.719 209.713 10.3598 209.311C10.0007 208.909 9.72514 208.44 9.54935 207.93L9.17621 206.863C8.8319 205.845 8.90547 204.732 9.38082 203.768C9.85616 202.803 10.6945 202.067 11.7119 201.72L23.2746 197.762C24.2929 197.418 25.4062 197.491 26.3704 197.967C27.3345 198.442 28.0708 199.28 28.4177 200.298L28.7807 201.365C29.1254 202.382 29.0532 203.494 28.5799 204.458C28.1066 205.421 27.2707 206.159 26.2552 206.508L14.7838 210.463C14.3844 210.605 13.9646 210.681 13.5408 210.689ZM24.5704 199.556C24.3642 199.563 24.16 199.599 23.964 199.663L12.4115 203.621C12.158 203.706 11.9238 203.841 11.7225 204.017C11.5212 204.193 11.3567 204.407 11.2384 204.647C11.1202 204.887 11.0505 205.148 11.0334 205.415C11.0163 205.682 11.0521 205.95 11.1388 206.203L11.5021 207.28C11.5884 207.533 11.7242 207.768 11.9014 207.969C12.0787 208.169 12.2941 208.333 12.535 208.451C12.776 208.568 13.0377 208.637 13.3053 208.652C13.5728 208.668 13.8408 208.63 14.0938 208.542L25.6568 204.594C25.9114 204.509 26.1466 204.374 26.3488 204.197C26.5509 204.02 26.7159 203.805 26.8342 203.564C26.9526 203.323 27.0219 203.06 27.0382 202.792C27.0545 202.524 27.0174 202.256 26.9292 202.002L26.556 200.936C26.4168 200.523 26.1486 200.166 25.791 199.918C25.4335 199.669 25.0056 199.543 24.5704 199.556Z" fill="black"/>
<path d="M32.3123 201.416L32.3219 201.412C34.2684 200.746 35.3064 198.628 34.6403 196.682L28.5282 178.82C27.8621 176.873 25.7443 175.835 23.7978 176.501L23.7882 176.505C21.8417 177.171 20.8037 179.288 21.4697 181.235L27.5819 199.097C28.2479 201.044 30.3658 202.082 32.3123 201.416Z" fill="#D98F6C"/>
<path d="M31.2506 202.62C30.2403 202.645 29.2484 202.348 28.4189 201.77C27.5893 201.193 26.9655 200.366 26.6381 199.41L20.525 181.548C20.1182 180.358 20.2009 179.054 20.7549 177.925C21.309 176.796 22.289 175.933 23.4794 175.526C24.6697 175.119 25.973 175.202 27.1023 175.756C28.2317 176.31 29.0948 177.29 29.5016 178.48L35.6147 196.342C36.0178 197.533 35.9327 198.835 35.3779 199.962C34.8232 201.09 33.8441 201.952 32.6551 202.36C32.2036 202.52 31.7295 202.608 31.2506 202.62ZM24.9422 177.3C24.6672 177.308 24.3948 177.356 24.1337 177.443C23.4543 177.678 22.8956 178.172 22.5796 178.818C22.2635 179.463 22.2159 180.208 22.4471 180.888L28.5601 198.751C28.6742 199.089 28.8541 199.401 29.0894 199.669C29.3248 199.937 29.6109 200.156 29.9313 200.312C30.2516 200.469 30.5999 200.561 30.956 200.583C31.3121 200.604 31.6688 200.555 32.0057 200.437C32.3429 200.322 32.6541 200.142 32.9214 199.906C33.1887 199.67 33.4069 199.384 33.5636 199.064C33.7203 198.744 33.8123 198.397 33.8344 198.041C33.8565 197.685 33.8082 197.329 33.6924 196.992L27.5793 179.13C27.3919 178.583 27.0351 178.111 26.5607 177.782C26.0864 177.453 25.5193 177.284 24.9422 177.3Z" fill="black"/>
<path d="M135.5 57.7754L135.501 57.7761C135.817 58.1648 135.924 58.2305 136.171 58.3111C136.592 58.4483 137.319 58.5478 138.951 58.6762C139.956 58.7554 140.879 58.8631 141.563 58.9722C141.899 59.0257 142.212 59.0848 142.458 59.1488C142.57 59.178 142.733 59.2245 142.893 59.2958C142.964 59.3273 143.123 59.4021 143.288 59.5378C143.392 59.623 143.907 60.0645 143.846 60.84C143.827 61.0759 143.754 61.2571 143.741 61.2913C143.74 61.2927 143.74 61.2939 143.739 61.2948C143.714 61.3591 143.688 61.4123 143.672 61.4447C143.638 61.5119 143.601 61.5773 143.57 61.6301C143.506 61.7402 143.422 61.8755 143.327 62.0249C143.134 62.3275 142.861 62.7384 142.532 63.2252C141.872 64.2006 140.965 65.5082 139.959 66.9201C138.999 68.281 138.113 69.628 137.466 70.6967C137.142 71.2335 136.888 71.6826 136.717 72.019C136.661 72.1299 136.618 72.2202 136.587 72.2912C136.617 72.3863 136.666 72.5124 136.737 72.6637C136.898 73.0056 137.131 73.3842 137.379 73.6987C137.909 74.2923 138.112 74.4343 138.207 74.4801C138.208 74.4805 138.208 74.481 138.21 74.4815C138.23 74.4925 138.315 74.5385 138.792 74.4852L138.803 74.4839L138.815 74.4828C139.092 74.4561 139.423 74.387 139.719 74.2975C139.864 74.2536 139.984 74.2099 140.07 74.1727C140.083 74.1674 140.093 74.1626 140.103 74.1583C140.113 74.1471 140.124 74.1345 140.137 74.1203C140.235 74.0089 140.372 73.8445 140.548 73.6263C140.898 73.1923 141.368 72.5876 141.923 71.8602C143.03 70.4078 144.45 68.4971 145.872 66.5539C147.295 64.611 148.714 62.6421 149.821 61.0741C150.374 60.2894 150.846 59.6102 151.198 59.0872C151.375 58.8252 151.518 58.6083 151.625 58.4399C151.678 58.3558 151.72 58.2883 151.751 58.2363C151.775 58.1953 151.788 58.1724 151.792 58.164C152.048 57.6238 151.987 56.7412 151.191 55.8427C151 55.6324 150.864 55.5308 150.494 55.4274C150.004 55.2903 149.221 55.19 147.725 55.0723C146.732 54.9941 145.816 54.8989 145.137 54.8029C144.804 54.7559 144.493 54.7039 144.249 54.6464C144.138 54.6202 143.974 54.5777 143.812 54.5101C143.741 54.4805 143.577 54.4084 143.406 54.2732C143.295 54.1851 142.765 53.7422 142.827 52.9539C142.842 52.7569 142.894 52.6092 142.909 52.5665C142.932 52.5028 142.954 52.4527 142.967 52.424C142.994 52.3659 143.021 52.3185 143.035 52.2925C143.067 52.2367 143.101 52.1816 143.129 52.1375C143.189 52.0447 143.267 51.9275 143.357 51.7961C143.538 51.53 143.795 51.1632 144.104 50.7261C144.725 49.8499 145.574 48.6678 146.497 47.3921L146.499 47.3897C148.47 44.6782 149.436 43.1452 149.811 42.1048C149.982 41.6299 149.994 41.3483 149.967 41.1567C149.941 40.9617 149.856 40.7234 149.617 40.3582C149.355 39.9731 148.809 39.6372 148.114 39.5396C147.423 39.4426 146.865 39.6178 146.564 39.8821C146.563 39.883 146.562 39.8841 146.561 39.8854C146.545 39.9024 146.493 39.9595 146.391 40.0804C146.271 40.2226 146.115 40.4144 145.925 40.6537C145.544 41.1314 145.046 41.7743 144.464 42.5381C143.3 44.0625 141.815 46.0474 140.286 48.1126C137.274 52.2735 135.796 54.4553 135.225 55.8379C134.96 56.4787 134.969 56.7726 134.996 56.9199C135.027 57.0841 135.126 57.3152 135.5 57.7754ZM144.9 51.7168C144.9 51.7168 144.901 51.717 144.903 51.7176C144.901 51.717 144.9 51.7168 144.9 51.7168ZM141.739 62.0624C141.739 62.0624 141.738 62.0621 141.736 62.0616C141.738 62.0621 141.739 62.0624 141.739 62.0624ZM136.526 72.4448C136.526 72.4447 136.527 72.4409 136.529 72.4338C136.526 72.4413 136.525 72.4449 136.526 72.4448ZM136.556 72.1712C136.555 72.1702 136.555 72.1697 136.555 72.1697L136.556 72.1712ZM140.043 74.223C140.036 74.2293 140.033 74.2329 140.033 74.2331C140.033 74.2334 140.036 74.2303 140.043 74.223Z" stroke="#FFBC0E" stroke-width="3"/>
<path d="M19.2622 108.276C19.7578 106.82 20.2104 105.459 20.5357 104.436C20.6979 103.926 20.8323 103.488 20.925 103.159C20.9706 102.998 21.0115 102.844 21.0408 102.714C21.0549 102.651 21.0717 102.569 21.0838 102.484C21.0839 102.484 21.084 102.483 21.0842 102.482C21.0885 102.456 21.131 102.195 21.0686 101.901C20.9128 101.168 20.3296 100.885 20.1917 100.823C19.994 100.734 19.8179 100.705 19.7397 100.694C19.564 100.668 19.3938 100.668 19.2805 100.671C19.0313 100.678 18.7245 100.707 18.4017 100.748C17.7448 100.831 16.8765 100.98 15.951 101.177C14.0994 101.546 13.2448 101.597 12.7587 101.491C12.4866 101.431 12.2572 101.325 11.8151 100.608L19.2622 108.276ZM19.2622 108.276C18.7816 109.725 18.3494 111.18 18.0433 112.36C17.8898 112.952 17.7716 113.461 17.6948 113.858C17.6563 114.056 17.6306 114.215 17.6156 114.334C17.6038 114.428 17.6019 114.474 17.6013 114.484C17.6262 114.846 17.845 115.336 18.2884 115.77C18.7373 116.21 19.2494 116.428 19.6426 116.441L19.6426 116.441L19.6545 116.441C20.0293 116.456 20.1779 116.402 20.2855 116.337C20.4262 116.253 20.6841 116.032 21.0607 115.394C21.8411 114.071 22.7726 111.6 24.2985 107L24.2985 107L24.3016 106.991C26.0319 101.884 26.8788 99.279 27.1943 97.7555C27.3485 97.0111 27.3428 96.6661 27.3144 96.4853C27.2919 96.3418 27.2455 96.2152 27.0469 95.8971L27.0469 95.8971L27.0427 95.8902C26.5997 95.1719 26.3689 95.0642 26.1004 95.0049C25.6212 94.8991 24.7785 94.9473 22.9491 95.3121C22.0152 95.5105 21.1469 95.6715 20.4943 95.7668C20.174 95.8136 19.8691 95.85 19.6228 95.8624C19.5113 95.868 19.3407 95.873 19.164 95.8516C19.0859 95.8422 18.9055 95.817 18.7018 95.7305C18.5545 95.6679 17.9569 95.3865 17.7984 94.6408C17.7493 94.4098 17.7677 94.216 17.7712 94.1784C17.7714 94.1769 17.7715 94.1756 17.7716 94.1746C17.7778 94.1053 17.7874 94.0468 17.7938 94.0112C17.807 93.9373 17.8238 93.8645 17.8381 93.8061C17.8679 93.6844 17.9095 93.5333 17.9572 93.3669C18.0541 93.0297 18.1942 92.5682 18.3638 92.0213C18.7039 90.9249 19.1747 89.4466 19.6834 87.8512L19.686 87.8432L19.6886 87.8352C20.2076 86.2688 20.6432 84.7369 20.9318 83.5378C21.0766 82.9362 21.18 82.4368 21.2392 82.0679C21.2641 81.9133 21.279 81.7953 21.2867 81.7108C21.2825 81.7027 21.2779 81.6938 21.2728 81.6843C21.2224 81.59 21.1451 81.4672 21.041 81.3262C20.8355 81.0477 20.5754 80.7651 20.3273 80.5531C19.8325 80.1713 19.7128 80.1419 19.5004 80.1218C19.0932 80.0833 18.4162 80.1562 16.782 80.4311L16.782 80.4311L16.7693 80.4332L13.2696 80.991L10.8141 81.3823L11.613 79.0277L13.5327 73.3702C13.5332 73.3688 13.5337 73.3674 13.5342 73.366C14.5988 70.1655 15.0354 68.4287 15.0362 67.3538C15.0366 66.8768 14.9471 66.6303 14.8511 66.4688C14.7453 66.291 14.5485 66.0778 14.1172 65.7928L14.0973 65.7796L14.0777 65.7658C13.3769 65.2698 12.414 65.3146 11.8125 65.7452C11.7485 65.8764 11.6617 66.0694 11.5524 66.3272C11.3293 66.8537 11.0379 67.5912 10.6989 68.492C10.0221 70.2904 9.17145 72.6973 8.32307 75.2802L8.32311 75.2802L8.31944 75.2911C6.55558 80.5255 5.73763 83.2191 5.58639 84.7981C5.51594 85.5336 5.61539 85.8306 5.69047 85.9739C5.7745 86.1344 5.94626 86.333 6.46251 86.6834L6.47692 86.6931L6.49109 86.7033C6.91939 87.0087 7.05256 87.0417 7.28407 87.0522C7.68802 87.0705 8.34337 86.9753 9.8187 86.6617C10.7252 86.469 11.5829 86.3225 12.2384 86.2474C12.5571 86.2108 12.8765 86.1853 13.1458 86.1896C13.2678 86.1916 13.4664 86.2001 13.6758 86.2508C13.7763 86.2752 13.9704 86.3301 14.1774 86.4603C14.3874 86.5925 14.7526 86.8976 14.8694 87.4473C14.9138 87.6558 14.9026 87.8283 14.8999 87.8708L14.8997 87.8735C14.8953 87.9426 14.8872 88.0008 14.8817 88.0372C14.8702 88.1115 14.8552 88.1829 14.8428 88.238C14.817 88.353 14.7811 88.4913 14.7407 88.6392C14.6586 88.9398 14.5396 89.3448 14.3948 89.82C14.1042 90.7735 13.698 92.046 13.2452 93.4071L13.2452 93.4072L13.2422 93.416C12.1986 96.4888 11.7088 98.1044 11.5586 99.1192C11.4885 99.5927 11.5081 99.8469 11.5421 100.007C11.5749 100.161 11.641 100.325 11.8149 100.607L19.2622 108.276ZM13.1142 89.1899C13.1145 89.1898 13.1114 89.1896 13.1046 89.1894C13.1106 89.1899 13.114 89.19 13.1142 89.1899ZM11.8762 65.6215C11.8757 65.6225 11.875 65.6236 11.8743 65.6249C11.8836 65.6103 11.8843 65.6076 11.8762 65.6215ZM19.4391 92.8672C19.4388 92.8673 19.4402 92.8673 19.4436 92.8672C19.441 92.8672 19.4394 92.8672 19.4391 92.8672ZM21.2931 81.6002C21.293 81.6004 21.293 81.6033 21.2932 81.6087C21.2932 81.6027 21.2931 81.6 21.2931 81.6002ZM19.3893 103.67C19.3894 103.67 19.388 103.67 19.3848 103.67C19.3876 103.67 19.3891 103.67 19.3893 103.67Z" stroke="#FFBC0E" stroke-width="3"/>
<path d="M159 137.5L154.5 136L149.5 144L150.5 148.5L142 173.5L146 175L155 150L158.5 146.5L159 137.5Z" fill="#D7D7D7"/>
</svg>
