<svg width="167" height="215" viewBox="0 0 167 215" fill="none" xmlns="http://www.w3.org/2000/svg">
<path d="M133.255 159.546V199.973H25.0149V159.546C25.0149 150.393 28.6508 141.615 35.1226 135.143C41.5945 128.672 50.3723 125.036 59.5249 125.036H98.7242C107.877 125.036 116.655 128.672 123.126 135.143C129.598 141.615 133.234 150.393 133.234 159.546H133.255Z" fill="#939393"/>
<path d="M133.255 200.988H25.015C24.7458 200.988 24.4877 200.881 24.2973 200.691C24.107 200.501 24 200.242 24 199.973V159.546C24 150.124 27.7428 141.088 34.405 134.426C41.0673 127.764 50.1032 124.021 59.525 124.021H98.7243C108.146 124.021 117.182 127.764 123.844 134.426C130.507 141.088 134.249 150.124 134.249 159.546V199.973C134.249 200.239 134.145 200.494 133.959 200.684C133.773 200.874 133.52 200.983 133.255 200.988ZM26.03 198.958H132.24V159.546C132.24 150.662 128.711 142.143 122.429 135.861C116.148 129.58 107.628 126.051 98.7446 126.051H59.5352C54.1562 126.032 48.8537 127.324 44.0869 129.816C38.6405 132.645 34.0759 136.916 30.8916 142.162C27.7072 147.408 26.0255 153.429 26.03 159.566V198.958Z" fill="black"/>
<path d="M76.7699 199.973H43.6099V128.923C48.5224 126.359 53.9837 125.025 59.5251 125.036H61.3825C74.8008 155.638 76.7699 199.973 76.7699 199.973Z" fill="#CA0C0C"/>
<path d="M76.7698 200.988H43.6097C43.3405 200.988 43.0824 200.881 42.892 200.691C42.7017 200.501 42.5947 200.242 42.5947 199.973V128.923C42.5943 128.737 42.6453 128.554 42.742 128.395C42.8387 128.235 42.9773 128.106 43.1428 128.02C48.1975 125.376 53.8204 124.003 59.5249 124.021H61.3824C61.5805 124.02 61.7744 124.077 61.9404 124.186C62.1063 124.294 62.2369 124.448 62.3162 124.63C75.6431 155.08 77.7543 199.506 77.7746 199.943C77.7808 200.081 77.7588 200.218 77.71 200.348C77.6611 200.477 77.5864 200.595 77.4904 200.694C77.3956 200.788 77.2831 200.862 77.1594 200.913C77.0358 200.963 76.9034 200.989 76.7698 200.988ZM44.6349 198.958H75.6939C75.2879 192.097 72.5372 153.476 60.7226 126.03H59.5351C54.3603 126.012 49.2534 127.208 44.6247 129.522L44.6349 198.958Z" fill="black"/>
<path d="M114.66 128.893V199.943H81.4996C81.4996 199.943 83.4687 155.608 96.8769 124.985H98.7343C104.28 124.984 109.744 126.325 114.66 128.893Z" fill="#CA0C0C"/>
<path d="M114.66 200.988H81.4997C81.3629 200.988 81.2277 200.959 81.1021 200.905C80.9766 200.851 80.8632 200.772 80.7689 200.674C80.6729 200.574 80.5982 200.456 80.5493 200.327C80.5005 200.198 80.4785 200.06 80.4847 199.922C80.4847 199.486 82.6162 155.049 95.9431 124.609C96.0224 124.428 96.153 124.273 96.3189 124.165C96.4849 124.057 96.6788 124 96.8769 124H98.7344C104.438 123.98 110.061 125.35 115.116 127.989C115.282 128.075 115.421 128.205 115.517 128.364C115.614 128.523 115.665 128.706 115.665 128.893V199.943C115.669 200.078 115.646 200.212 115.597 200.338C115.549 200.464 115.475 200.579 115.382 200.677C115.288 200.774 115.176 200.852 115.052 200.905C114.928 200.959 114.795 200.987 114.66 200.988ZM82.5857 198.958H113.645V129.512C109.018 127.204 103.915 126.012 98.7445 126.03H97.557C85.7322 153.486 82.9816 192.097 82.5756 198.958H82.5857Z" fill="black"/>
<path d="M70.6188 155.709H43.9852C43.716 155.709 43.4579 155.602 43.2675 155.412C43.0772 155.221 42.9702 154.963 42.9702 154.694C42.9702 154.425 43.0772 154.167 43.2675 153.976C43.4579 153.786 43.716 153.679 43.9852 153.679H70.6188C70.888 153.679 71.1462 153.786 71.3365 153.976C71.5269 154.167 71.6338 154.425 71.6338 154.694C71.6338 154.963 71.5269 155.221 71.3365 155.412C71.1462 155.602 70.888 155.709 70.6188 155.709Z" fill="black"/>
<path d="M72.6285 165.808H43.9852C43.716 165.808 43.4579 165.701 43.2675 165.511C43.0772 165.321 42.9702 165.062 42.9702 164.793C42.9702 164.524 43.0772 164.266 43.2675 164.076C43.4579 163.885 43.716 163.778 43.9852 163.778H72.6285C72.8977 163.778 73.1559 163.885 73.3462 164.076C73.5366 164.266 73.6435 164.524 73.6435 164.793C73.6435 165.062 73.5366 165.321 73.3462 165.511C73.1559 165.701 72.8977 165.808 72.6285 165.808Z" fill="black"/>
<path d="M113.909 155.709H88.0769C87.8077 155.709 87.5495 155.602 87.3592 155.412C87.1688 155.221 87.0619 154.963 87.0619 154.694C87.0619 154.425 87.1688 154.167 87.3592 153.976C87.5495 153.786 87.8077 153.679 88.0769 153.679H113.909C114.178 153.679 114.436 153.786 114.626 153.976C114.817 154.167 114.924 154.425 114.924 154.694C114.924 154.963 114.817 155.221 114.626 155.412C114.436 155.602 114.178 155.709 113.909 155.709Z" fill="black"/>
<path d="M113.909 165.808H86.128C85.8588 165.808 85.6007 165.701 85.4103 165.511C85.22 165.321 85.113 165.062 85.113 164.793C85.113 164.524 85.22 164.266 85.4103 164.076C85.6007 163.885 85.8588 163.778 86.128 163.778H113.909C114.178 163.778 114.436 163.885 114.626 164.076C114.817 164.266 114.924 164.524 114.924 164.793C114.924 165.062 114.817 165.321 114.626 165.511C114.436 165.701 114.178 165.808 113.909 165.808Z" fill="black"/>
<path d="M61.3926 125.015C61.5347 125.015 70.2637 134.221 70.2637 134.221L79.1348 125.015H61.3926Z" fill="#CA0C0C"/>
<path d="M70.2636 135.236C70.1262 135.235 69.9905 135.205 69.8649 135.149C69.7393 135.093 69.6263 135.012 69.5328 134.912C66.4878 131.674 61.4128 126.406 60.8038 125.838C60.6305 125.712 60.5013 125.535 60.4346 125.332C60.3679 125.129 60.3672 124.909 60.4324 124.706C60.4977 124.502 60.6257 124.324 60.7981 124.197C60.9706 124.071 61.1786 124.002 61.3925 124H79.1347C79.334 124.001 79.5288 124.059 79.6948 124.169C79.8609 124.28 79.9908 124.436 80.0685 124.62C80.1454 124.802 80.1671 125.003 80.131 125.198C80.0949 125.393 80.0027 125.573 79.8655 125.716L71.0147 134.922C70.9181 135.023 70.8014 135.104 70.6721 135.158C70.5429 135.212 70.4038 135.239 70.2636 135.236ZM63.9097 126.03C65.1582 127.299 67.1171 129.38 70.3245 132.75L76.8002 126.03H63.9097Z" fill="black"/>
<path d="M96.0142 125.015C95.8721 125.015 87.1431 134.221 87.1431 134.221L78.272 125.015H96.0142Z" fill="#CA0C0C"/>
<path d="M87.1431 135.236C87.0064 135.236 86.8712 135.208 86.7456 135.154C86.62 135.1 86.5067 135.021 86.4123 134.922L77.5412 125.716C77.4041 125.573 77.3118 125.393 77.2758 125.198C77.2397 125.003 77.2614 124.802 77.3382 124.62C77.4159 124.436 77.5459 124.28 77.712 124.169C77.878 124.059 78.0728 124.001 78.272 124H96.0142C96.2834 124 96.5416 124.107 96.7319 124.298C96.9223 124.488 97.0292 124.746 97.0292 125.015C97.0285 125.176 96.9894 125.335 96.9153 125.478C96.8412 125.621 96.7341 125.744 96.6029 125.838C95.9838 126.406 90.9595 131.674 87.8841 134.912C87.7906 135.012 87.6776 135.093 87.552 135.149C87.4264 135.205 87.2907 135.235 87.1533 135.236H87.1431ZM80.6573 126.03L87.1431 132.75C90.3404 129.38 92.3095 127.299 93.5478 126.03H80.6573Z" fill="black"/>
<path d="M86.3485 124.325H70.3318C70.0626 124.325 69.8044 124.218 69.6141 124.028C69.4237 123.837 69.3168 123.579 69.3168 123.31V107.293C69.3168 107.024 69.4237 106.766 69.6141 106.575C69.8044 106.385 70.0626 106.278 70.3318 106.278H86.3485C86.6177 106.278 86.8758 106.385 87.0662 106.575C87.2565 106.766 87.3635 107.024 87.3635 107.293V123.31C87.3635 123.579 87.2565 123.837 87.0662 124.028C86.8758 124.218 86.6177 124.325 86.3485 124.325ZM71.3468 122.295H85.3335V108.308H71.3468V122.295Z" fill="black"/>
<path d="M86.3485 107.293H70.3318V123.31H86.3485V107.293Z" fill="#D98F6C"/>
<path d="M45.3324 92.6874C51.5883 92.6874 56.6598 85.7346 56.6598 77.1579C56.6598 68.5812 51.5883 61.6284 45.3324 61.6284C39.0764 61.6284 34.005 68.5812 34.005 77.1579C34.005 85.7346 39.0764 92.6874 45.3324 92.6874Z" fill="#D98F6C"/>
<path d="M45.3324 93.7024C38.5319 93.7024 33.0001 86.2827 33.0001 77.1579C33.0001 68.033 38.5319 60.6032 45.3324 60.6032C52.1329 60.6032 57.6748 68.033 57.6748 77.1579C57.6748 86.2827 52.143 93.7024 45.3324 93.7024ZM45.3324 62.6332C39.6484 62.6332 35.0301 69.1495 35.0301 77.1579C35.0301 85.1662 39.6484 91.6724 45.3324 91.6724C51.0164 91.6724 55.6448 85.1662 55.6448 77.1579C55.6448 69.1495 51.0164 62.6332 45.3324 62.6332Z" fill="black"/>
<path d="M111.348 92.6874C117.604 92.6874 122.675 85.7346 122.675 77.1579C122.675 68.5812 117.604 61.6284 111.348 61.6284C105.092 61.6284 100.021 68.5812 100.021 77.1579C100.021 85.7346 105.092 92.6874 111.348 92.6874Z" fill="#D98F6C"/>
<path d="M111.348 93.7024C104.547 93.7024 99.0055 86.2827 99.0055 77.1579C99.0055 68.033 104.547 60.6032 111.348 60.6032C118.148 60.6032 123.69 68.033 123.69 77.1579C123.69 86.2827 118.148 93.7024 111.348 93.7024ZM111.348 62.6332C105.664 62.6332 101.035 69.1495 101.035 77.1579C101.035 85.1662 105.664 91.6724 111.348 91.6724C117.032 91.6724 121.66 85.1662 121.66 77.1579C121.66 69.1495 117.032 62.6332 111.348 62.6332Z" fill="black"/>
<path d="M100.579 35.015C102.275 35.0137 103.954 35.3467 105.521 35.9951C107.088 36.6434 108.512 37.5944 109.711 38.7935C110.91 39.9927 111.861 41.4165 112.51 42.9835C113.158 44.5505 113.491 46.23 113.49 47.9258V82.8317C113.491 87.2445 112.623 91.6143 110.935 95.6916C109.247 99.7689 106.773 103.474 103.653 106.595C100.533 109.715 96.8291 112.191 92.7523 113.88C88.6755 115.569 84.3059 116.438 79.8931 116.438H76.8481C72.434 116.44 68.0628 115.571 63.9843 113.883C59.9058 112.195 56.1998 109.72 53.0781 106.599C49.9563 103.478 47.48 99.7727 45.7904 95.6947C44.1009 91.6167 43.2313 87.2458 43.2313 82.8317V47.9258C43.2313 44.5017 44.5916 41.2177 47.0128 38.7965C49.4341 36.3753 52.718 35.015 56.1421 35.015H100.579Z" fill="#D98F6C"/>
<path d="M79.8932 117.453H76.8482C67.6684 117.443 58.8674 113.792 52.3753 107.302C45.8832 100.811 42.2299 92.0115 42.2164 82.8316V47.9258C42.2218 44.2341 43.6907 40.6951 46.3011 38.0847C48.9116 35.4743 52.4505 34.0054 56.1422 34H100.62C104.305 34.0134 107.835 35.4862 110.437 38.0961C113.04 40.7059 114.502 44.2403 114.505 47.9258V82.8316C114.497 92.0097 110.848 100.81 104.359 107.3C97.8701 113.791 89.0712 117.443 79.8932 117.453ZM56.1016 36.03C52.9483 36.0354 49.9257 37.2904 47.696 39.5201C45.4662 41.7499 44.2112 44.7725 44.2058 47.9258V82.8316C44.2166 91.4739 47.6552 99.7591 53.7672 105.869C59.8792 111.979 68.1653 115.415 76.8076 115.423H79.8526C88.4922 115.413 96.7748 111.975 102.883 105.865C108.991 99.7549 112.426 91.4713 112.434 82.8316V47.9258C112.429 44.7725 111.174 41.7499 108.944 39.5201C106.714 37.2904 103.692 36.0354 100.538 36.03H56.1016Z" fill="black"/>
<path d="M78.7157 101.426C74.839 101.435 71.0278 100.427 67.6623 98.5033C67.4365 98.3577 67.2776 98.1284 67.2206 97.8659C67.1635 97.6033 67.2128 97.3288 67.3578 97.1026C67.4291 96.9899 67.5219 96.8924 67.6309 96.8157C67.7399 96.7389 67.8629 96.6843 67.993 96.6551C68.1231 96.6259 68.2576 96.6226 68.389 96.6454C68.5203 96.6682 68.6459 96.7166 68.7585 96.7879C71.7973 98.5074 75.2293 99.4111 78.7208 99.4111C82.2122 99.4111 85.6443 98.5074 88.683 96.7879C88.7996 96.7213 88.9282 96.6783 89.0615 96.6613C89.1947 96.6444 89.33 96.6539 89.4596 96.6892C89.5892 96.7245 89.7106 96.7851 89.8168 96.8673C89.923 96.9496 90.012 97.0519 90.0786 97.1686C90.1453 97.2852 90.1883 97.4138 90.2052 97.5471C90.2222 97.6803 90.2127 97.8156 90.1773 97.9452C90.142 98.0748 90.0815 98.1962 89.9992 98.3024C89.917 98.4086 89.8146 98.4975 89.698 98.5642C86.3433 100.444 82.5613 101.43 78.7157 101.426Z" fill="black"/>
<path d="M80.2179 83.4305C79.0312 83.4274 77.8466 83.329 76.6756 83.1362C76.4064 83.0891 76.1669 82.937 76.0099 82.7133C75.8528 82.4896 75.7911 82.2128 75.8382 81.9436C75.8853 81.6744 76.0374 81.4349 76.2611 81.2779C76.4847 81.1208 76.7616 81.0591 77.0308 81.1062C78.8656 81.4106 80.7379 81.4106 82.5727 81.1062C82.9077 80.1622 81.5577 76.1327 79.5277 72.296C79.4026 72.0577 79.3772 71.7796 79.4572 71.5226C79.5371 71.2657 79.7158 71.051 79.954 70.9257C80.1923 70.8006 80.4704 70.7753 80.7274 70.8552C80.9843 70.9351 81.199 71.1139 81.3243 71.352C82.3393 73.2602 85.4756 79.6446 84.42 81.9994C84.3055 82.2524 84.1342 82.4755 83.9194 82.6515C83.7047 82.8276 83.4522 82.9517 83.1817 83.0144C82.2142 83.2722 81.219 83.412 80.2179 83.4305Z" fill="black"/>
<path d="M62.8107 79.0356C64.6942 79.0356 66.2211 77.5087 66.2211 75.6252C66.2211 73.7417 64.6942 72.2148 62.8107 72.2148C60.9272 72.2148 59.4003 73.7417 59.4003 75.6252C59.4003 77.5087 60.9272 79.0356 62.8107 79.0356Z" fill="black"/>
<path d="M68.4439 66.7845H52.0821C51.5437 66.7845 51.0274 66.5707 50.6467 66.19C50.266 65.8093 50.0521 65.2929 50.0521 64.7545C50.0521 64.2162 50.266 63.6998 50.6467 63.3191C51.0274 62.9384 51.5437 62.7245 52.0821 62.7245H68.4439C68.9823 62.7245 69.4986 62.9384 69.8793 63.3191C70.26 63.6998 70.4739 64.2162 70.4739 64.7545C70.4739 65.2929 70.26 65.8093 69.8793 66.19C69.4986 66.5707 68.9823 66.7845 68.4439 66.7845Z" fill="black"/>
<path d="M94.9049 79.0356C96.7884 79.0356 98.3153 77.5087 98.3153 75.6252C98.3153 73.7417 96.7884 72.2148 94.9049 72.2148C93.0214 72.2148 91.4945 73.7417 91.4945 75.6252C91.4945 77.5087 93.0214 79.0356 94.9049 79.0356Z" fill="black"/>
<path d="M105.644 66.7845H89.2717C88.7333 66.7845 88.217 66.5707 87.8363 66.19C87.4556 65.8093 87.2417 65.2929 87.2417 64.7545C87.2417 64.2162 87.4556 63.6998 87.8363 63.3191C88.217 62.9384 88.7333 62.7245 89.2717 62.7245H105.644C106.182 62.7245 106.698 62.9384 107.079 63.3191C107.46 63.6998 107.674 64.2162 107.674 64.7545C107.674 65.2929 107.46 65.8093 107.079 66.19C106.698 66.5707 106.182 66.7845 105.644 66.7845Z" fill="black"/>
<path d="M148 175.5L139 172L128 197.5L129 201.5L136 204.5L139.5 203L148 181V175.5Z" fill="black" stroke="black"/>
<path d="M154.005 132.577C153.5 132.793 152.949 133.504 150.712 136.788C149.227 138.959 147.934 140.991 147.827 141.302C147.701 141.668 147.807 142.667 148.153 144.22L148.668 146.588L144.622 158.34L140.576 170.092L138.104 169.241C135.706 168.415 135.59 168.395 135.018 168.69C134.631 168.864 134.333 169.191 134.214 169.539C133.905 170.436 134.405 171.243 135.54 171.634C136.034 171.804 136.443 171.985 136.424 172.04C136.405 172.095 136.051 172.588 135.642 173.122C134.91 174.058 134.771 174.461 130.793 186.134L126.707 198.179L126.849 199.252C127.042 200.833 127.828 202.415 128.938 203.472C129.757 204.246 130.19 204.477 131.958 205.168C135.136 206.405 136.813 206.471 138.898 205.469C141.144 204.358 141.846 203.269 143.68 197.942C145.168 193.622 145.241 192.993 144.403 192.335C144.099 192.087 143.703 191.93 143.433 191.94C142.398 191.973 142.305 192.125 140.524 196.999L138.845 201.58L138.098 202.142C136.951 203.037 135.873 203.076 133.713 202.332C131.223 201.475 130.416 200.726 130.182 199.028C130.073 198.274 130.269 197.645 133.994 186.827C138.4 174.031 138.075 174.738 139.906 174.058C140.766 173.761 140.864 173.774 142.969 174.438C144.855 175.026 145.227 175.195 145.724 175.714C147.161 177.191 147.118 177.791 145.233 183.325L143.701 187.773L141.938 193.302C142.304 194.083 141.876 199.559 142.749 199.225L144.845 194.168L146.715 188.832L148.442 183.816C150.093 179.02 150.157 178.776 150.069 177.783C150.001 177.207 149.963 176.723 149.976 176.686C149.988 176.65 150.44 176.764 150.971 176.947C151.703 177.199 152.083 177.227 152.47 177.054C153.319 176.67 153.604 175.724 153.141 174.869C152.846 174.357 152.657 174.252 150.442 173.489L148.081 172.676L152.114 160.961L156.155 149.227L158.057 147.568C159.106 146.66 160.009 145.763 160.072 145.58C160.173 145.287 160.59 139.616 160.738 136.452C160.83 134.579 160.66 134.418 157.273 133.252C154.784 132.395 154.595 132.351 154.005 132.577ZM157.27 140.458L157.05 144.13L156.309 144.796C155.895 145.165 155.073 145.886 154.499 146.425L153.412 147.382L149.184 159.481L144.932 171.592L144.31 171.377L143.687 171.163L147.861 158.923L152.01 146.694L151.506 144.412L150.99 142.105L152.91 139.264C153.985 137.689 154.929 136.315 155.01 136.199C155.115 136.072 155.561 136.144 156.33 136.408L157.502 136.812L157.27 140.458Z" fill="black"/>
<path d="M141.995 200.257L130.347 196.56C128.738 196.05 127.021 196.94 126.51 198.548L126.17 199.622C125.659 201.23 126.549 202.948 128.157 203.458L139.805 207.155C141.413 207.666 143.131 206.776 143.641 205.168L143.982 204.094C144.493 202.485 143.603 200.768 141.995 200.257Z" fill="#D98F6C"/>
<path d="M143.383 199.837C144.095 200.333 144.63 201.043 144.909 201.865C145.187 202.687 145.195 203.576 144.932 204.403L144.597 205.482C144.268 206.506 143.547 207.357 142.591 207.849C141.636 208.341 140.524 208.435 139.5 208.108L127.85 204.412C126.827 204.083 125.976 203.362 125.484 202.406C124.991 201.451 124.898 200.339 125.224 199.315L125.559 198.235C125.888 197.212 126.609 196.361 127.565 195.868C128.52 195.376 129.632 195.283 130.656 195.609L142.305 199.305C142.688 199.43 143.051 199.609 143.383 199.837ZM127.903 202.231C128.07 202.348 128.256 202.436 128.452 202.491L140.095 206.196C140.351 206.279 140.62 206.31 140.888 206.288C141.155 206.266 141.416 206.191 141.655 206.068C141.893 205.945 142.105 205.775 142.277 205.569C142.45 205.363 142.58 205.125 142.66 204.869L142.994 203.79C143.076 203.535 143.107 203.267 143.086 203C143.064 202.734 142.989 202.474 142.867 202.236C142.744 201.999 142.576 201.787 142.372 201.615C142.167 201.442 141.931 201.312 141.676 201.231L130.027 197.535C129.77 197.454 129.499 197.425 129.231 197.45C128.962 197.475 128.701 197.553 128.463 197.679C128.225 197.802 128.014 197.97 127.841 198.174C127.668 198.378 127.537 198.615 127.456 198.87L127.116 199.958C126.988 200.371 126.995 200.815 127.137 201.224C127.278 201.633 127.547 201.986 127.903 202.231Z" fill="black"/>
<path d="M144.095 193.64L132.447 189.943C130.839 189.432 129.121 190.322 128.611 191.93L128.27 193.004C127.759 194.612 128.649 196.33 130.258 196.84L141.905 200.538C143.514 201.048 145.231 200.158 145.742 198.55L146.083 197.476C146.593 195.868 145.703 194.15 144.095 193.64Z" fill="#D98F6C"/>
<path d="M145.489 193.22C146.201 193.716 146.735 194.426 147.014 195.248C147.293 196.07 147.301 196.959 147.037 197.786L146.689 198.868C146.361 199.89 145.641 200.741 144.687 201.235C143.734 201.728 142.623 201.823 141.599 201.5L129.95 197.804C128.927 197.475 128.076 196.753 127.583 195.798C127.091 194.842 126.998 193.73 127.324 192.706L127.636 191.623C127.965 190.6 128.686 189.749 129.642 189.257C130.598 188.764 131.709 188.671 132.734 188.997L144.377 192.702C144.773 192.814 145.148 192.989 145.489 193.22ZM130 195.608C130.17 195.726 130.355 195.819 130.552 195.883L142.201 199.579C142.456 199.66 142.725 199.691 142.992 199.668C143.259 199.645 143.519 199.569 143.756 199.445C143.994 199.321 144.205 199.152 144.377 198.946C144.548 198.74 144.678 198.502 144.757 198.246L145.1 197.173C145.183 196.917 145.214 196.648 145.192 196.38C145.17 196.113 145.095 195.852 144.972 195.614C144.848 195.375 144.679 195.163 144.473 194.991C144.267 194.818 144.029 194.688 143.773 194.608L132.132 190.918C131.877 190.835 131.607 190.804 131.34 190.826C131.072 190.848 130.811 190.922 130.573 191.046C130.334 191.169 130.123 191.339 129.95 191.545C129.778 191.75 129.648 191.988 129.568 192.245L129.225 193.318C129.092 193.733 129.095 194.179 129.235 194.591C129.374 195.004 129.643 195.36 130 195.608Z" fill="black"/>
<path d="M146.202 187.035L134.554 183.338C132.946 182.827 131.228 183.717 130.718 185.325L130.377 186.399C129.866 188.007 130.756 189.725 132.365 190.235L144.013 193.933C145.621 194.443 147.338 193.553 147.849 191.945L148.19 190.871C148.7 189.263 147.81 187.545 146.202 187.035Z" fill="#D98F6C"/>
<path d="M147.588 186.611C148.3 187.107 148.835 187.818 149.114 188.639C149.392 189.461 149.401 190.351 149.137 191.177L148.794 192.251C148.465 193.274 147.744 194.125 146.788 194.618C145.833 195.11 144.721 195.203 143.696 194.877L132.062 191.178C131.038 190.849 130.187 190.128 129.695 189.172C129.202 188.217 129.109 187.105 129.435 186.081L129.778 185.007C130.107 183.984 130.829 183.133 131.784 182.64C132.74 182.148 133.852 182.055 134.876 182.381L146.517 186.071C146.898 186.199 147.259 186.381 147.588 186.611ZM132.092 188.994C132.263 189.116 132.455 189.208 132.657 189.266L144.292 192.964C144.549 193.049 144.82 193.08 145.089 193.055C145.358 193.03 145.619 192.95 145.855 192.82C146.093 192.698 146.305 192.53 146.478 192.325C146.651 192.121 146.781 191.884 146.863 191.629L147.205 190.556C147.288 190.3 147.32 190.031 147.298 189.763C147.276 189.496 147.201 189.235 147.077 188.997C146.954 188.758 146.784 188.546 146.579 188.374C146.373 188.201 146.135 188.071 145.879 187.991L134.229 184.295C133.972 184.214 133.702 184.185 133.433 184.21C133.165 184.235 132.904 184.313 132.666 184.44C132.188 184.696 131.827 185.128 131.662 185.644L131.319 186.718C131.186 187.131 131.189 187.575 131.327 187.986C131.465 188.397 131.731 188.753 132.086 189.002L132.092 188.994Z" fill="black"/>
<path d="M148.302 180.417L136.654 176.72C135.046 176.209 133.329 177.099 132.818 178.708L132.477 179.781C131.967 181.39 132.857 183.107 134.465 183.618L146.113 187.315C147.721 187.825 149.439 186.935 149.949 185.327L150.29 184.253C150.8 182.645 149.911 180.928 148.302 180.417Z" fill="#D98F6C"/>
<path d="M149.694 179.994C150.231 180.374 150.669 180.876 150.972 181.46C151.226 181.935 151.382 182.457 151.431 182.994C151.481 183.531 151.423 184.072 151.261 184.586L150.927 185.665C150.598 186.689 149.877 187.54 148.921 188.032C147.965 188.525 146.854 188.618 145.829 188.291L134.18 184.595C133.157 184.266 132.306 183.545 131.813 182.589C131.321 181.634 131.228 180.522 131.554 179.498L131.897 178.424C132.225 177.402 132.944 176.551 133.898 176.058C134.852 175.564 135.962 175.469 136.986 175.792L148.561 179.436C148.966 179.56 149.349 179.748 149.694 179.994ZM134.206 182.383C134.375 182.5 134.561 182.592 134.757 182.657L146.398 186.347C146.652 186.43 146.92 186.461 147.187 186.439C147.454 186.417 147.713 186.343 147.951 186.22C148.189 186.098 148.4 185.929 148.573 185.725C148.745 185.52 148.876 185.284 148.956 185.029L149.305 183.947C149.386 183.692 149.417 183.423 149.394 183.156C149.371 182.889 149.295 182.629 149.171 182.392C149.047 182.154 148.878 181.943 148.672 181.771C148.466 181.6 148.228 181.47 147.972 181.391L136.329 177.687C136.074 177.604 135.804 177.572 135.537 177.594C135.269 177.616 135.008 177.691 134.77 177.814C134.531 177.938 134.32 178.107 134.147 178.313C133.974 178.519 133.844 178.757 133.764 179.013L133.43 180.093C133.297 180.507 133.3 180.953 133.44 181.366C133.579 181.778 133.848 182.135 134.206 182.383Z" fill="black"/>
<path d="M129.088 176.283L129.079 176.28C127.118 175.657 125.024 176.742 124.401 178.703L118.69 196.698C118.067 198.658 119.152 200.753 121.113 201.375L121.123 201.378C123.084 202 125.178 200.915 125.8 198.955L131.512 180.96C132.134 178.999 131.049 176.905 129.088 176.283Z" fill="#D98F6C"/>
<path d="M130.658 175.946C131.485 176.527 132.106 177.356 132.429 178.314C132.753 179.271 132.762 180.307 132.457 181.27L126.746 199.265C126.365 200.464 125.523 201.462 124.406 202.04C123.289 202.619 121.988 202.73 120.789 202.349C119.59 201.968 118.592 201.126 118.013 200.009C117.435 198.892 117.324 197.59 117.705 196.392L123.416 178.397C123.8 177.2 124.643 176.204 125.76 175.627C126.877 175.051 128.176 174.94 129.374 175.32C129.833 175.46 130.266 175.671 130.658 175.946ZM120.668 200.052C120.894 200.21 121.142 200.333 121.403 200.418C122.089 200.633 122.832 200.569 123.47 200.238C124.109 199.907 124.59 199.336 124.809 198.652L130.52 180.657C130.629 180.317 130.67 179.959 130.64 179.604C130.61 179.248 130.511 178.902 130.346 178.586C130.182 178.269 129.957 177.988 129.683 177.759C129.41 177.53 129.094 177.358 128.753 177.251C128.414 177.144 128.056 177.104 127.701 177.134C127.346 177.164 127 177.264 126.684 177.428C126.368 177.593 126.087 177.817 125.858 178.09C125.628 178.363 125.455 178.678 125.348 179.018L119.637 197.013C119.463 197.563 119.469 198.155 119.654 198.702C119.84 199.248 120.195 199.722 120.668 200.052Z" fill="black"/>
<path d="M77.6633 3.58862C88.4149 3.58862 98.7262 7.2539 106.329 13.7781C113.931 20.3023 118.202 29.1511 118.202 38.3777V40.2243H37.114V38.3777C37.114 33.8084 38.1629 29.2839 40.2008 25.0625C42.2388 20.8411 45.2258 17.0056 48.9912 13.775C52.7567 10.5445 57.2269 7.98209 62.1465 6.23429C67.0661 4.48648 72.3388 3.58748 77.6633 3.58862V3.58862Z" fill="#2E85B6"/>
<path d="M118.202 41.0954H37.1139C36.8447 41.0954 36.5865 41.0036 36.3962 40.8403C36.2058 40.6769 36.0989 40.4554 36.0989 40.2244V38.3778C36.2694 29.0155 40.7229 20.0862 48.4982 13.5172C56.2735 6.94816 66.747 3.2663 77.6581 3.2663C88.5691 3.2663 99.0426 6.94816 106.818 13.5172C114.593 20.0862 119.047 29.0155 119.217 38.3778V40.2244C119.217 40.3388 119.191 40.452 119.14 40.5577C119.089 40.6634 119.014 40.7594 118.92 40.8403C118.826 40.9212 118.714 40.9853 118.591 41.0291C118.468 41.0729 118.336 41.0954 118.202 41.0954V41.0954ZM38.1289 39.3533H117.187V38.3778C117.021 29.4751 112.783 20.9854 105.388 14.7401C97.9931 8.49479 88.0335 4.99458 77.6581 4.99458C67.2826 4.99458 57.3231 8.49479 49.928 14.7401C42.5329 20.9854 38.2951 29.4751 38.1289 38.3778V39.3533Z" fill="black"/>
<path d="M119.217 40.2243H36.0988C31.7992 40.2243 28.3137 43.2135 28.3137 46.9008C28.3137 50.5881 31.7992 53.5773 36.0988 53.5773H119.217C123.517 53.5773 127.002 50.5881 127.002 46.9008C127.002 43.2135 123.517 40.2243 119.217 40.2243Z" fill="#2E85B6"/>
<path d="M119.227 54.4484H36.0989C34.9188 54.4828 33.7426 54.313 32.6406 53.9492C31.5385 53.5854 30.533 53.035 29.684 52.3308C28.835 51.6265 28.1599 50.7828 27.6988 49.85C27.2376 48.9171 27 47.9142 27 46.9009C27 45.8876 27.2376 44.8846 27.6988 43.9518C28.1599 43.0189 28.835 42.1752 29.684 41.471C30.533 40.7667 31.5385 40.2163 32.6406 39.8525C33.7426 39.4887 34.9188 39.3189 36.0989 39.3534H119.227C121.508 39.4199 123.67 40.2442 125.256 41.6523C126.842 43.0605 127.729 44.9424 127.729 46.9009C127.729 48.8593 126.842 50.7412 125.256 52.1494C123.67 53.5576 121.508 54.3819 119.227 54.4484ZM36.0989 41.0954C35.1884 41.0652 34.2802 41.1929 33.4287 41.471C32.5772 41.7491 31.7998 42.1719 31.1432 42.714C30.4866 43.256 29.9642 43.9063 29.6074 44.6257C29.2506 45.3451 29.0667 46.119 29.0667 46.9009C29.0667 47.6828 29.2506 48.4566 29.6074 49.176C29.9642 49.8955 30.4866 50.5457 31.1432 51.0878C31.7998 51.6298 32.5772 52.0526 33.4287 52.3307C34.2802 52.6088 35.1884 52.7366 36.0989 52.7063H119.227C120.976 52.6482 122.631 52.0111 123.844 50.9287C125.058 49.8463 125.735 48.4028 125.735 46.9009C125.735 45.399 125.058 43.9554 123.844 42.873C122.631 41.7906 120.976 41.1536 119.227 41.0954H36.0989Z" fill="black"/>
<path d="M72.4054 0.871096H82.9107C83.7827 0.870351 84.6456 1.02392 85.4455 1.32221C86.2453 1.62051 86.9648 2.05712 87.5592 2.60478C88.1536 3.15244 88.61 3.79939 88.8999 4.50521C89.1898 5.21103 89.307 5.96058 89.2442 6.70703L86.382 40.2244H68.9341L66.082 6.6809C66.0221 5.93699 66.1412 5.19047 66.4319 4.48777C66.7227 3.78507 67.1788 3.14123 67.7719 2.59629C68.365 2.05135 69.0824 1.61697 69.8796 1.32018C70.6767 1.02338 71.5365 0.870519 72.4054 0.871096Z" fill="#2E85B6"/>
<path d="M86.382 41.0954H68.9342C68.6785 41.0961 68.4319 41.014 68.2437 40.8654C68.0555 40.7168 67.9396 40.5128 67.9192 40.2941L65.0568 6.77665C64.9814 5.91054 65.1152 5.04038 65.4499 4.22072C65.7846 3.40106 66.313 2.64957 67.0019 2.01334C67.6909 1.37712 68.5256 0.869888 69.4537 0.523436C70.3818 0.176985 71.3832 -0.00121341 72.3953 6.21849e-06H82.9005C83.9126 -0.00121341 84.9141 0.176985 85.8422 0.523436C86.7703 0.869888 87.6049 1.37712 88.2939 2.01334C88.9829 2.64957 89.5113 3.40106 89.846 4.22072C90.1807 5.04038 90.3145 5.91054 90.239 6.77665L87.3767 40.2941C87.3566 40.5098 87.2435 40.7114 87.0597 40.8596C86.8758 41.0077 86.6342 41.0918 86.382 41.0954V41.0954ZM69.8781 39.3534H85.4279L88.2293 6.68084C88.2839 6.05351 88.1867 5.42328 87.944 4.8297C87.7012 4.23612 87.3181 3.69201 86.8187 3.23152C86.3193 2.77104 85.7143 2.40412 85.0418 2.1538C84.3693 1.90348 83.6438 1.77517 82.9107 1.77691H72.4055C71.6724 1.77517 70.9469 1.90348 70.2743 2.1538C69.6018 2.40412 68.9969 2.77104 68.4974 3.23152C67.998 3.69201 67.6149 4.23612 67.3722 4.8297C67.1294 5.42328 67.0323 6.05351 67.0868 6.68084L69.8781 39.3534Z" fill="black"/>
<path d="M7.67697 187.82L19.2394 183.864C20.8358 183.318 21.6872 181.581 21.1409 179.984L20.7761 178.918C20.2299 177.322 18.4929 176.47 16.8964 177.017L5.33399 180.973C3.73756 181.519 2.88623 183.256 3.4325 184.853L3.79726 185.919C4.34353 187.515 6.08054 188.367 7.67697 187.82Z" fill="#D98F6C"/>
<path d="M6.81102 188.984C5.94368 189.009 5.09111 188.756 4.37831 188.261C3.66551 187.766 3.12998 187.056 2.85025 186.235L2.47711 185.168C2.1328 184.15 2.20638 183.037 2.68172 182.073C3.15707 181.109 3.99537 180.372 5.01279 180.025L16.5755 176.067C17.5938 175.723 18.7071 175.797 19.6713 176.272C20.6354 176.747 21.3717 177.586 21.7186 178.603L22.0918 179.669C22.4361 180.688 22.3625 181.801 21.8872 182.765C21.4118 183.729 20.5735 184.466 19.5561 184.813L7.9934 188.771C7.61155 188.898 7.21334 188.97 6.81102 188.984ZM17.8305 177.852C17.6266 177.857 17.4251 177.897 17.2345 177.969L5.67154 181.917C5.41689 182.002 5.18169 182.137 4.97958 182.314C4.77747 182.491 4.61246 182.706 4.49411 182.947C4.37577 183.188 4.30644 183.45 4.29014 183.719C4.27384 183.987 4.31089 184.255 4.39915 184.509L4.77229 185.575C4.85764 185.829 4.99227 186.063 5.16841 186.264C5.34454 186.466 5.55872 186.63 5.79865 186.748C6.03857 186.867 6.29951 186.936 6.56646 186.953C6.8334 186.971 7.1011 186.935 7.35415 186.848L18.9168 182.89C19.1717 182.802 19.4064 182.664 19.6074 182.485C19.8084 182.305 19.9716 182.087 20.0876 181.844C20.2062 181.604 20.2763 181.343 20.2937 181.076C20.3111 180.809 20.2755 180.541 20.189 180.288L19.8156 179.211C19.6728 178.803 19.4032 178.45 19.0461 178.206C18.689 177.961 18.2631 177.837 17.8305 177.852Z" fill="black"/>
<path d="M9.9249 194.389L21.4873 190.433C23.0838 189.887 23.9351 188.15 23.3888 186.553L23.0241 185.487C22.4778 183.891 20.7408 183.039 19.1443 183.586L7.58192 187.542C5.98548 188.088 5.13416 189.825 5.68043 191.422L6.04519 192.488C6.59146 194.084 8.32846 194.936 9.9249 194.389Z" fill="#D98F6C"/>
<path d="M9.05437 195.556C8.18703 195.581 7.33446 195.328 6.62166 194.833C5.90886 194.338 5.37332 193.628 5.09359 192.806L4.73032 191.73C4.38562 190.713 4.45784 189.6 4.93116 188.637C5.40449 187.673 6.24036 186.936 7.25586 186.587L18.8186 182.629C19.8369 182.284 20.9502 182.358 21.9143 182.833C22.8785 183.309 23.6148 184.147 23.9617 185.164L24.3549 186.22C24.6992 187.238 24.6256 188.352 24.1503 189.316C23.6749 190.28 22.8366 191.016 21.8192 191.363L10.2562 195.311C9.87127 195.456 9.4655 195.539 9.05437 195.556ZM20.084 184.423C19.8777 184.429 19.6734 184.465 19.4776 184.53L7.91487 188.488C7.66116 188.575 7.42706 188.71 7.22607 188.888C7.02508 189.065 6.86118 189.28 6.74383 189.521C6.62648 189.762 6.55801 190.024 6.54236 190.292C6.52671 190.559 6.56418 190.827 6.65263 191.08L7.01564 192.147C7.10095 192.402 7.23595 192.637 7.41281 192.839C7.58966 193.041 7.80487 193.206 8.04595 193.324C8.28703 193.443 8.54919 193.512 8.81726 193.528C9.08533 193.545 9.35397 193.508 9.60762 193.419L21.1602 189.461C21.4148 189.376 21.65 189.241 21.8521 189.064C22.0543 188.887 22.2193 188.672 22.3376 188.431C22.4559 188.19 22.5253 187.928 22.5416 187.66C22.5579 187.392 22.5208 187.123 22.4326 186.869L22.0696 185.803C21.9303 185.39 21.6621 185.033 21.3046 184.785C20.9471 184.537 20.5191 184.41 20.084 184.423Z" fill="black"/>
<path d="M12.16 200.952L23.7224 196.996C25.3189 196.449 26.1702 194.712 25.6239 193.116L25.2592 192.05C24.7129 190.454 22.9759 189.602 21.3795 190.148L9.81703 194.105C8.22059 194.651 7.36927 196.388 7.91554 197.985L8.2803 199.051C8.82657 200.647 10.5636 201.498 12.16 200.952Z" fill="#D98F6C"/>
<path d="M11.2976 202.117C10.4302 202.142 9.57765 201.889 8.86485 201.394C8.15205 200.899 7.61651 200.189 7.33678 199.368L6.97379 198.301C6.62948 197.283 6.70306 196.169 7.1784 195.205C7.65375 194.241 8.49205 193.505 9.50947 193.158L21.0623 189.21C22.0806 188.866 23.1939 188.94 24.1581 189.415C25.1222 189.89 25.8585 190.729 26.2054 191.746L26.5684 192.813C26.9127 193.831 26.8392 194.944 26.3638 195.908C25.8885 196.873 25.0502 197.609 24.0328 197.956L12.4802 201.914C12.0977 202.037 11.6994 202.106 11.2976 202.117ZM22.3373 190.984C22.1267 190.988 21.9182 191.028 21.721 191.102L10.1682 195.049C9.91177 195.134 9.67551 195.271 9.4741 195.451C9.2727 195.631 9.11046 195.85 8.99749 196.095C8.87884 196.335 8.8088 196.596 8.7914 196.863C8.774 197.13 8.80958 197.398 8.89609 197.652L9.25909 198.718C9.3444 198.973 9.4794 199.208 9.65626 199.41C9.83312 199.612 10.0483 199.777 10.2894 199.896C10.5305 200.014 10.7927 200.083 11.0607 200.1C11.3288 200.116 11.5974 200.079 11.8511 199.991L23.4138 196.033C23.6686 195.945 23.9034 195.807 24.1044 195.627C24.3054 195.448 24.4686 195.23 24.5845 194.987C24.8169 194.496 24.8496 193.935 24.6755 193.421L24.3125 192.354C24.1738 191.943 23.9072 191.587 23.5517 191.339C23.1962 191.091 22.7705 190.963 22.3371 190.974L22.3373 190.984Z" fill="black"/>
<path d="M14.4079 207.521L25.9704 203.565C27.5668 203.018 28.4181 201.281 27.8719 199.685L27.5071 198.619C26.9608 197.023 25.2238 196.171 23.6274 196.717L12.065 200.674C10.4685 201.22 9.61719 202.957 10.1635 204.554L10.5282 205.62C11.0745 207.216 12.8115 208.067 14.4079 207.521Z" fill="#D98F6C"/>
<path d="M13.541 208.689C12.8836 208.703 12.2323 208.56 11.6415 208.271C11.1548 208.039 10.7191 207.713 10.36 207.311C10.0008 206.909 9.72526 206.44 9.54947 205.93L9.17633 204.863C8.83202 203.845 8.90559 202.732 9.38094 201.768C9.85628 200.803 10.6946 200.067 11.712 199.72L23.2747 195.762C24.293 195.418 25.4063 195.491 26.3705 195.967C27.3346 196.442 28.0709 197.28 28.4179 198.298L28.7809 199.365C29.1256 200.382 29.0533 201.494 28.58 202.458C28.1067 203.421 27.2708 204.159 26.2553 204.508L14.7839 208.463C14.3845 208.605 13.9647 208.681 13.541 208.689ZM24.5706 197.556C24.3643 197.563 24.1601 197.599 23.9642 197.663L12.4116 201.621C12.1581 201.706 11.924 201.841 11.7226 202.017C11.5213 202.193 11.3568 202.407 11.2385 202.647C11.1203 202.887 11.0506 203.148 11.0335 203.415C11.0164 203.682 11.0523 203.95 11.139 204.203L11.5022 205.28C11.5886 205.533 11.7243 205.768 11.9016 205.969C12.0789 206.169 12.2942 206.333 12.5351 206.451C12.7761 206.568 13.0379 206.637 13.3054 206.652C13.573 206.668 13.841 206.63 14.0939 206.542L25.6569 202.594C25.9116 202.509 26.1468 202.374 26.3489 202.197C26.551 202.02 26.716 201.805 26.8343 201.564C26.9527 201.323 27.022 201.06 27.0383 200.792C27.0546 200.524 27.0176 200.256 26.9293 200.002L26.5562 198.936C26.4169 198.523 26.1487 198.166 25.7912 197.918C25.4336 197.669 25.0057 197.543 24.5706 197.556Z" fill="black"/>
<path d="M32.3123 199.416L32.3219 199.412C34.2684 198.746 35.3064 196.628 34.6403 194.682L28.5282 176.82C27.8621 174.873 25.7443 173.835 23.7978 174.501L23.7882 174.505C21.8417 175.171 20.8037 177.288 21.4697 179.235L27.5819 197.097C28.2479 199.044 30.3658 200.082 32.3123 199.416Z" fill="#D98F6C"/>
<path d="M31.2506 200.62C30.2403 200.645 29.2484 200.348 28.4189 199.77C27.5893 199.193 26.9655 198.366 26.6381 197.41L20.525 179.548C20.1182 178.358 20.2009 177.054 20.7549 175.925C21.309 174.796 22.289 173.933 23.4794 173.526C24.6697 173.119 25.973 173.202 27.1023 173.756C28.2317 174.31 29.0948 175.29 29.5016 176.48L35.6147 194.342C36.0178 195.533 35.9327 196.835 35.3779 197.962C34.8232 199.09 33.8441 199.952 32.6551 200.36C32.2036 200.52 31.7295 200.608 31.2506 200.62ZM24.9422 175.3C24.6672 175.308 24.3948 175.356 24.1337 175.443C23.4543 175.678 22.8956 176.172 22.5796 176.818C22.2635 177.463 22.2159 178.208 22.4471 178.888L28.5601 196.751C28.6742 197.089 28.8541 197.401 29.0894 197.669C29.3248 197.937 29.6109 198.156 29.9313 198.312C30.2516 198.469 30.5999 198.561 30.956 198.583C31.3121 198.604 31.6688 198.555 32.0057 198.437C32.3429 198.322 32.6541 198.142 32.9214 197.906C33.1887 197.67 33.4069 197.384 33.5636 197.064C33.7203 196.744 33.8123 196.397 33.8344 196.041C33.8565 195.685 33.8082 195.329 33.6924 194.992L27.5793 177.13C27.3919 176.583 27.0351 176.111 26.5607 175.782C26.0864 175.453 25.5193 175.284 24.9422 175.3Z" fill="black"/>
<path d="M135.5 55.7754L135.501 55.776C135.817 56.1648 135.924 56.2305 136.171 56.311C136.592 56.4483 137.319 56.5477 138.951 56.6762C139.956 56.7553 140.879 56.863 141.563 56.9721C141.899 57.0256 142.212 57.0847 142.458 57.1487C142.57 57.1779 142.733 57.2244 142.893 57.2957C142.964 57.3272 143.123 57.402 143.288 57.5377C143.392 57.6229 143.907 58.0645 143.846 58.8399C143.827 59.0758 143.754 59.257 143.741 59.2912C143.74 59.2927 143.74 59.2938 143.739 59.2947C143.714 59.359 143.688 59.4122 143.672 59.4446C143.638 59.5118 143.601 59.5772 143.57 59.6301C143.506 59.7401 143.422 59.8755 143.327 60.0248C143.134 60.3274 142.861 60.7383 142.532 61.2251C141.872 62.2005 140.965 63.5081 139.959 64.92C138.999 66.2809 138.113 67.6279 137.466 68.6966C137.142 69.2335 136.888 69.6826 136.717 70.0189C136.661 70.1298 136.618 70.2201 136.587 70.2911C136.617 70.3862 136.666 70.5124 136.737 70.6636C136.898 71.0056 137.131 71.3841 137.379 71.6987C137.909 72.2922 138.112 72.4342 138.207 72.4801C138.208 72.4804 138.208 72.4809 138.21 72.4815C138.23 72.4924 138.315 72.5385 138.792 72.4851L138.803 72.4839L138.815 72.4827C139.092 72.456 139.423 72.3869 139.719 72.2975C139.864 72.2535 139.984 72.2098 140.07 72.1726C140.083 72.1674 140.093 72.1626 140.103 72.1583C140.113 72.1471 140.124 72.1344 140.137 72.1202C140.235 72.0088 140.372 71.8444 140.548 71.6262C140.898 71.1922 141.368 70.5875 141.923 69.8601C143.03 68.4077 144.45 66.4971 145.872 64.5538C147.295 62.6109 148.714 60.6421 149.821 59.074C150.374 58.2893 150.846 57.6102 151.198 57.0871C151.375 56.8252 151.518 56.6082 151.625 56.4398C151.678 56.3557 151.72 56.2882 151.751 56.2363C151.775 56.1952 151.788 56.1723 151.792 56.1639C152.048 55.6237 151.987 54.7411 151.191 53.8426C151 53.6323 150.864 53.5308 150.494 53.4274C150.004 53.2903 149.221 53.19 147.725 53.0722C146.732 52.994 145.816 52.8988 145.137 52.8029C144.804 52.7559 144.493 52.7039 144.249 52.6463C144.138 52.6201 143.974 52.5776 143.812 52.5101C143.741 52.4804 143.577 52.4083 143.406 52.2732C143.295 52.185 142.765 51.7422 142.827 50.9538C142.842 50.7568 142.894 50.6092 142.909 50.5664C142.932 50.5028 142.954 50.4526 142.967 50.4239C142.994 50.3659 143.021 50.3184 143.035 50.2924C143.067 50.2367 143.101 50.1816 143.129 50.1374C143.189 50.0446 143.267 49.9274 143.357 49.796C143.538 49.5299 143.795 49.1631 144.104 48.726C144.725 47.8498 145.574 46.6677 146.497 45.392L146.499 45.3896C148.47 42.6781 149.436 41.1451 149.811 40.1047C149.982 39.6299 149.994 39.3482 149.967 39.1567C149.941 38.9617 149.856 38.7233 149.617 38.3582C149.355 37.9731 148.809 37.6372 148.114 37.5396C147.423 37.4426 146.865 37.6177 146.564 37.882C146.563 37.8829 146.562 37.884 146.561 37.8854C146.545 37.9023 146.493 37.9594 146.391 38.0804C146.271 38.2225 146.115 38.4143 145.925 38.6536C145.544 39.1314 145.046 39.7743 144.464 40.538C143.3 42.0625 141.815 44.0474 140.286 46.1125C137.274 50.2734 135.796 52.4553 135.225 53.8379C134.96 54.4786 134.969 54.7726 134.996 54.9199C135.027 55.084 135.126 55.3151 135.5 55.7754ZM144.9 49.7167C144.9 49.7167 144.901 49.717 144.903 49.7175C144.901 49.717 144.9 49.7167 144.9 49.7167ZM141.739 60.0624C141.739 60.0623 141.738 60.0621 141.736 60.0615C141.738 60.0621 141.739 60.0624 141.739 60.0624ZM136.526 70.4447C136.526 70.4446 136.527 70.4409 136.529 70.4338C136.526 70.4413 136.525 70.4448 136.526 70.4447ZM136.556 70.1711C136.555 70.1701 136.555 70.1696 136.555 70.1696L136.556 70.1711ZM140.043 72.223C140.036 72.2292 140.033 72.2328 140.033 72.2331C140.033 72.2333 140.036 72.2302 140.043 72.223Z" stroke="black" stroke-width="3"/>
<path d="M19.2622 106.276C19.7578 104.82 20.2105 103.459 20.5357 102.436C20.6979 101.926 20.8323 101.488 20.925 101.159C20.9706 100.998 21.0115 100.844 21.0408 100.714C21.0549 100.651 21.0717 100.569 21.0838 100.484C21.0839 100.484 21.084 100.483 21.0842 100.482C21.0885 100.456 21.131 100.195 21.0686 99.9014C20.9128 99.1682 20.3296 98.8846 20.1917 98.8229C19.994 98.7344 19.8179 98.705 19.7397 98.6936C19.564 98.6679 19.3938 98.6684 19.2805 98.6713C19.0313 98.6777 18.7245 98.7073 18.4017 98.7482C17.7448 98.8314 16.8765 98.98 15.951 99.1765C14.0994 99.5461 13.2448 99.5968 12.7587 99.4908C12.4866 99.4315 12.2572 99.3246 11.8151 98.6077L19.2622 106.276ZM19.2622 106.276C18.7816 107.724 18.3494 109.18 18.0433 110.36C17.8898 110.952 17.7716 111.461 17.6948 111.858C17.6563 112.056 17.6306 112.215 17.6156 112.334C17.6038 112.428 17.6019 112.474 17.6013 112.484C17.6262 112.846 17.845 113.336 18.2884 113.77C18.7373 114.21 19.2494 114.428 19.6426 114.441L19.6426 114.441L19.6545 114.441C20.0293 114.456 20.1779 114.402 20.2855 114.337C20.4262 114.253 20.6841 114.032 21.0607 113.394C21.8411 112.071 22.7726 109.6 24.2985 105L24.2985 105L24.3016 104.991C26.0319 99.8836 26.8788 97.279 27.1943 95.7555C27.3485 95.0111 27.3428 94.6661 27.3144 94.4853C27.2919 94.3418 27.2455 94.2152 27.0469 93.8971L27.0469 93.8971L27.0427 93.8902C26.5997 93.1719 26.3689 93.0642 26.1004 93.0049C25.6212 92.8991 24.7785 92.9473 22.9491 93.3121C22.0152 93.5105 21.1469 93.6715 20.4943 93.7668C20.174 93.8136 19.8691 93.85 19.6228 93.8624C19.5113 93.868 19.3407 93.873 19.164 93.8516C19.0859 93.8422 18.9055 93.817 18.7018 93.7305C18.5546 93.668 17.9569 93.3865 17.7984 92.6408C17.7493 92.4098 17.7677 92.216 17.7712 92.1784C17.7714 92.1769 17.7715 92.1756 17.7716 92.1746C17.7778 92.1053 17.7874 92.0468 17.7938 92.0112C17.807 91.9373 17.8238 91.8645 17.8381 91.8061C17.8679 91.6844 17.9095 91.5333 17.9572 91.3669C18.0541 91.0297 18.1942 90.5682 18.3638 90.0213C18.7039 88.9249 19.1747 87.4466 19.6834 85.8512L19.686 85.8432L19.6886 85.8352C20.2076 84.2688 20.6432 82.7369 20.9318 81.5378C21.0766 80.9362 21.18 80.4368 21.2392 80.0679C21.2641 79.9133 21.279 79.7953 21.2867 79.7108C21.2825 79.7027 21.2779 79.6938 21.2728 79.6843C21.2224 79.59 21.1451 79.4672 21.041 79.3262C20.8355 79.0477 20.5754 78.7651 20.3273 78.5531C19.8325 78.1713 19.7128 78.1419 19.5004 78.1218C19.0932 78.0833 18.4162 78.1562 16.782 78.4311L16.782 78.4311L16.7693 78.4332L13.2696 78.991L10.8141 79.3823L11.613 77.0277L13.5327 71.3702C13.5332 71.3688 13.5337 71.3674 13.5342 71.366C14.5988 68.1655 15.0354 66.4287 15.0362 65.3538C15.0366 64.8768 14.9471 64.6303 14.8511 64.4688C14.7453 64.291 14.5485 64.0778 14.1172 63.7928L14.0973 63.7796L14.0777 63.7658C13.3769 63.2698 12.414 63.3146 11.8125 63.7452C11.7485 63.8764 11.6617 64.0694 11.5524 64.3272C11.3293 64.8537 11.0379 65.5912 10.6989 66.492C10.0221 68.2904 9.17145 70.6973 8.32307 73.2802L8.32311 73.2802L8.31944 73.2911C6.55558 78.5255 5.73763 81.2191 5.58639 82.7981C5.51594 83.5336 5.61539 83.8306 5.69047 83.9739C5.7745 84.1344 5.94626 84.333 6.46251 84.6834L6.47692 84.6931L6.49109 84.7033C6.91939 85.0087 7.05256 85.0417 7.28407 85.0522C7.68802 85.0705 8.34337 84.9753 9.8187 84.6617C10.7252 84.469 11.5829 84.3225 12.2384 84.2474C12.5571 84.2108 12.8765 84.1853 13.1458 84.1896C13.2678 84.1916 13.4664 84.2001 13.6758 84.2508C13.7763 84.2752 13.9704 84.3301 14.1774 84.4603C14.3874 84.5925 14.7526 84.8976 14.8694 85.4473C14.9138 85.6558 14.9026 85.8283 14.8999 85.8708L14.8997 85.8735C14.8953 85.9426 14.8872 86.0008 14.8817 86.0372C14.8702 86.1115 14.8552 86.1829 14.8428 86.238C14.817 86.353 14.7811 86.4913 14.7407 86.6392C14.6586 86.9398 14.5396 87.3448 14.3948 87.82C14.1042 88.7735 13.698 90.046 13.2452 91.4071L13.2452 91.4072L13.2422 91.416C12.1986 94.4888 11.7088 96.1044 11.5586 97.1192C11.4885 97.5927 11.5081 97.8469 11.5421 98.0067C11.5749 98.1609 11.641 98.325 11.8149 98.6075L19.2622 106.276ZM13.1142 87.1899C13.1143 87.1898 13.1112 87.1896 13.1046 87.1894C13.1108 87.1899 13.1141 87.19 13.1142 87.1899ZM11.8762 63.6215C11.8757 63.6225 11.875 63.6236 11.8743 63.6248C11.8836 63.6103 11.8843 63.6076 11.8762 63.6215ZM19.4391 90.8672C19.4389 90.8673 19.4404 90.8673 19.4437 90.8672C19.4408 90.8672 19.4392 90.8672 19.4391 90.8672ZM21.2931 79.6002C21.293 79.6004 21.293 79.6033 21.2932 79.6087C21.2932 79.6027 21.2931 79.6 21.2931 79.6002ZM19.3893 101.67C19.3893 101.67 19.3879 101.67 19.3848 101.67C19.3877 101.67 19.3892 101.67 19.3893 101.67Z" stroke="black" stroke-width="3"/>
<path d="M159 135.5L154.5 134L149.5 142L150.5 146.5L142 171.5L146 173L155 148L158.5 144.5L159 135.5Z" fill="#D7D7D7"/>
</svg>
