<svg width="369" height="242" viewBox="0 0 369 242" fill="none" xmlns="http://www.w3.org/2000/svg">
<path d="M154.2 33.6537L118 67.2147L124.7 73.5189L131.5 79.7305L161.2 52.1957L191 24.5681L233.5 63.9698L276 103.372L282.5 97.3454L289 91.3192L239.7 45.6133L190.5 -9.68575e-06L154.2 33.6537Z" fill="#9E1D1D"/>
<path d="M68 133.317V222.504H34H0V231.311V240.119H43.5H87V162.984V85.8494L93.5 91.7828L100 97.7162V169.845V241.973H109H118V178.93C118 144.257 118.3 115.887 118.8 115.887C119.2 115.887 125.5 121.45 132.8 128.218L146 140.456V190.333V240.119H191H236V214.902V189.684L250.5 176.149L265 162.52V202.293V241.973H274.5H284V193.486V145.091L289.6 139.714C292.7 136.84 295.4 134.429 295.6 134.429C295.8 134.429 296 158.163 296 187.274V240.119H332.5H369V231.311V222.504H341.5H314V157.421V92.2464L266 136.747L218 181.248V201.829V222.504H191.5H165V178.188V133.966L116.5 89.0015L68 44.0372V133.317Z" fill="#9E1D1D"/>
<path d="M169 75.095V82.5118H177H185V75.095V67.6782H177H169V75.095Z" fill="#9E1D1D"/>
<path d="M196 75.095V82.5118H204.5H213V75.095V67.6782H204.5H196V75.095Z" fill="#9E1D1D"/>
<path d="M169 99.1069V106.431L177 106.802L185 107.08V99.385V91.7828H177H169V99.1069Z" fill="#9E1D1D"/>
<path d="M196 99.0143C196 103.001 196.2 106.524 196.4 106.709C196.6 106.895 200.5 106.987 204.9 106.802L213 106.431V99.107V91.7829H204.5H196V99.0143Z" fill="#9E1D1D"/>
</svg>
