<svg width="382" height="299" viewBox="0 0 382 299" fill="none" xmlns="http://www.w3.org/2000/svg">
<g filter="url(#filter0_d_642_2)">
<path d="M223.109 4.73402C221.346 5.56759 219.07 7.30419 218.042 8.55454C216.867 10.0133 215.545 10.9163 214.517 10.9163C211.727 10.9163 203.061 13.6949 197.994 16.1956C188.448 20.9191 178.461 30.3663 174.349 38.702C173.394 40.5775 172.513 42.1057 172.219 42.1752C171.999 42.1752 164.582 35.7845 155.77 27.935C146.885 20.0856 138.513 13.1392 137.044 12.514C133.667 10.9163 125.809 10.9163 122.651 12.4445C121.403 13.0697 112.518 20.6413 102.824 29.2548C85.5674 44.6064 85.2737 44.8148 85.0534 42.6614C84.7597 39.2577 83.5113 36.8264 81.3083 35.4371C79.6193 34.3257 77.6366 34.1868 64.1982 34.1868H48.924L46.5741 36.4791L44.1508 38.702L43.7836 60.4442L43.4165 82.117L24.9846 98.6495C9.71039 112.264 6.259 115.738 4.93719 118.516C2.29358 124.421 3.24822 130.047 7.65424 134.701C11.0322 138.313 15.2179 140.12 19.9177 140.12C25.3518 140.12 29.0235 138.175 36.4403 131.367L43.0493 125.324V142.69C43.0493 153.596 43.343 160.889 43.8571 162.279C45.2523 166.099 46.7256 190.41 49.7364 187.492L53.4974 190.898L54.0644 162.418L54.1378 138.939V115.46L91.2218 82.4643C111.636 64.3342 128.746 49.191 129.26 48.8437C129.995 48.3575 134.254 51.7612 145.342 61.5557L160.396 74.9622L160.837 78.8522C161.131 81.0751 161.571 87.5352 161.865 93.3702C162.306 102.401 162.599 104.207 163.921 105.874C165.757 108.305 171.118 110.945 174.202 110.945C176.405 110.945 176.478 111.084 176.919 114.348C178.314 125.602 188.522 141.717 198.729 148.803L202.4 151.373V156.374V161.376L196.673 164.015L190.945 166.655L188.154 164.849C186.539 163.876 184.409 163.043 183.308 163.043C182.206 163.043 176.772 164.571 171.118 166.516C165.537 168.391 160.69 169.989 160.396 169.989C160.029 169.989 159.809 161.445 159.809 150.956C159.809 123.726 161.792 125.324 128.6 125.671C108.772 125.879 106.349 126.018 104.587 127.13C100.328 129.839 100.328 130.117 100.328 164.71V196.385L97.8309 199.442C93.6451 204.652 90.3406 212.362 88.9454 220.142L88.5048 222.782H71.3213H54.0644V206.875C54.0644 191.87 54.1378 174.157 52.6691 181.451C50.8333 179.297 45.7122 152.97 43.2155 154.846L43.4165 189.995V207.639C43.4165 223.963 43.4899 225.352 44.8851 227.575C45.6929 228.895 47.3085 230.562 48.41 231.395C50.3927 232.785 51.4942 232.854 69.3386 233.063L88.211 233.271L87.183 257.514C86.3018 276.686 86.3018 282.313 87.0361 284.535C88.0642 288.009 92.3233 292.038 95.8481 293.01C97.6106 293.496 142.258 293.635 234.491 293.496L370.417 293.288L373.281 291.135C377.834 287.731 379.523 283.91 379.229 277.589C378.935 271.337 377.687 269.323 373.868 269.323C369.976 269.323 368.361 271.685 368.361 277.103C368.361 284.119 368.948 283.91 349.929 283.91H333.847V237.369C333.847 204.443 334.067 190.828 334.655 190.828C336.123 190.828 346.184 194.927 349.341 196.802C353.821 199.442 359.035 204.791 361.678 209.584C364.762 215.071 365.937 220.837 366.598 233.827C367.039 243.76 367.553 281.34 369.168 282.868C370.123 283.771 373.281 269.323 373.868 269.323C376.071 269.323 378.568 279.395 379.229 277.589C380.037 275.297 376.879 221.74 375.704 216.53C372.767 203.957 363.588 192.357 351.765 186.522C348.974 185.132 332.525 179.228 315.121 173.462C281.415 162.209 281.048 162.14 276.642 165.127L274.439 166.516L268.931 163.946L263.35 161.376V156.583V151.79L269.886 145.816C279.726 136.716 285.968 126.435 288.391 115.39L289.346 111.084L292.504 110.736C294.266 110.597 296.763 109.694 298.158 108.791C302.711 105.874 303.298 104.207 304.033 91.4947C305.061 72.4615 304.987 71.0722 302.711 68.2937C301.683 66.9738 300.214 65.7235 299.48 65.5151C298.378 65.1678 298.011 63.848 297.277 58.2214C296.322 50.5108 293.458 42.1057 289.713 36.2013C284.573 28.0045 273.044 18.2101 264.452 14.7368C260.266 13.0002 252.923 10.9163 251.16 10.9163C250.353 10.9163 248.517 9.80491 247.122 8.41563C243.009 4.31725 240.072 3.27527 232.729 3.27527C227.588 3.27527 225.606 3.55313 223.109 4.73402ZM238.383 14.3895C239.705 15.6399 239.852 16.6818 239.852 26.0595C239.852 35.2982 239.705 36.5486 238.456 37.5905C236.547 39.1882 232.435 39.7439 229.277 38.702C225.679 37.5905 224.945 35.0203 225.312 24.1839C225.532 16.1956 225.606 15.5704 227.295 14.3201C229.718 12.4445 236.327 12.4445 238.383 14.3895ZM144.608 31.8945C151.144 37.66 159.221 44.8843 162.526 47.8712L168.621 53.2894L168.034 59.0549C167.593 63.6396 167.299 64.751 166.271 64.9594C165.463 65.0983 159.515 60.3748 149.528 51.4139C141.01 43.8423 133.152 37.2432 132.124 36.6875C130.803 36.0623 129.628 35.9234 128.453 36.3402C127.572 36.6875 103.632 57.5962 75.3601 82.8117C47.0882 108.027 23.0753 129.005 21.9738 129.422C19.5505 130.395 16.1726 129.492 15.1445 127.616C14.1164 125.879 14.2633 122.615 15.3648 121.364C15.8788 120.739 39.2307 99.8304 67.2824 74.8233C95.3341 49.8857 120.375 27.5877 122.872 25.3648C129.995 18.9741 130.142 19.0436 144.608 31.8945ZM214.884 29.4632C214.884 38.9103 215.912 41.8278 220.245 45.44C223.843 48.4269 227.441 49.33 234.564 49.0521C239.705 48.7743 240.88 48.4964 243.67 46.6903C245.433 45.5094 247.636 43.1477 248.664 41.4805C250.206 38.7714 250.5 37.2432 250.72 29.8105C250.94 25.1565 251.234 21.3359 251.528 21.3359C251.821 21.3359 254.098 21.9611 256.595 22.7947C266.288 25.8511 276.422 34.0479 281.195 42.6614C284.94 49.4689 286.188 53.9841 286.776 63.1533C287.363 72.1142 288.098 73.6424 292.063 74.4065C293.311 74.6149 294.193 75.2401 294.193 75.8652C294.193 76.7683 287.363 76.9072 232.875 76.9072C178.388 76.9072 171.558 76.7683 171.558 75.8652C171.558 75.2401 172.513 74.6149 173.835 74.337C177.139 73.7119 177.947 71.8363 178.461 63.6396C179.195 50.5803 183.455 41.2027 192.413 32.7975C197.554 27.935 204.089 24.1145 210.038 22.3084C215.105 20.8497 214.884 20.5024 214.884 29.4632ZM74.6258 49.33V54.4008L64.7122 63.2923L54.7987 72.1837V58.2214V44.2591H64.7122H74.6258V49.33ZM175.964 94.69C175.964 100.456 175.891 100.594 174.349 100.386C172.807 100.178 172.66 99.7609 172.44 94.4122C172.219 88.7161 172.219 88.7161 174.129 88.7161C175.964 88.7161 175.964 88.7856 175.964 94.69ZM278.404 100.872C278.331 114.14 277.597 117.544 273.044 125.879C269.813 131.784 259.018 142.342 253.363 145.19C248.15 147.761 239.044 149.845 232.729 149.845C215.472 149.845 200.712 140.814 191.753 124.768C187.934 117.891 186.979 113.029 186.979 99.9693V88.7161L232.729 88.855L278.404 89.0634V100.872ZM292.724 94.6206C292.724 100.456 292.724 100.525 290.888 100.525C289.052 100.525 289.052 100.456 289.052 94.6206C289.052 88.7856 289.052 88.7161 290.888 88.7161C292.724 88.7161 292.724 88.7856 292.724 94.6206ZM149.381 154.846L149.161 173.81L132.638 179.436C123.533 182.493 115.014 185.549 113.766 186.244L111.343 187.425V161.653V135.952H130.435H149.528L149.381 154.846ZM231.774 159.778C238.603 159.847 246.461 158.805 251.087 157.138C251.968 156.791 252.189 157.555 252.482 161.237C252.849 166.724 254.024 168.183 260.854 171.517C263.424 172.768 265.553 174.018 265.553 174.226C265.553 175.06 258.504 179.019 253.878 180.756C240.806 185.827 224.945 185.827 211.947 180.895C207.394 179.089 199.463 174.852 199.463 174.157C199.463 173.949 201.96 172.629 204.971 171.17C207.981 169.781 210.992 167.836 211.58 166.933C212.241 165.96 212.975 163.321 213.195 161.098L213.562 157.069L218.85 158.389C222.228 159.292 226.707 159.778 231.774 159.778ZM180.37 185.619C182.941 197.566 185.364 203.054 189.917 207.291C191.606 208.889 200.785 214.793 210.184 220.42L227.368 230.631V257.306V283.91H185.144H142.919V235.355V186.799L146.077 185.688C152.759 183.326 177.8 174.991 177.947 175.129C178.02 175.199 179.049 179.922 180.37 185.619ZM304.106 180.548C311.009 182.84 317.985 185.202 319.748 185.757L322.832 186.799V235.355V283.91H280.607H238.383L238.53 257.097L238.75 230.284L254.906 220.698C272.089 210.487 278.037 205.902 280.828 200.414C281.709 198.608 283.471 192.843 284.646 187.564C285.821 182.284 286.996 177.283 287.216 176.449C287.584 175.06 287.804 174.991 289.64 175.616C290.741 176.032 297.277 178.255 304.106 180.548ZM207.614 190.134C217.161 193.607 222.448 194.51 232.508 194.579C239.485 194.579 243.23 194.163 248.297 192.982C255.787 191.245 266.435 186.661 271.722 182.771L275.32 180.2L274.806 182.909C272.53 194.51 270.18 199.442 265.407 202.429C264.085 203.262 256.154 207.986 247.856 212.918L232.729 221.948L215.912 211.876C206.66 206.388 198.362 201.179 197.48 200.414C194.91 198.122 193.001 193.815 191.532 186.938L190.137 180.617L196.012 184.299C199.169 186.313 204.457 188.953 207.614 190.134ZM131.904 237.369V283.91H115.749C95.481 283.91 96.3622 284.397 97.0231 273.977C97.2434 270.087 97.9043 256.541 98.4918 243.968C99.6667 219.517 100.254 215.627 103.852 209.306C106.569 204.513 113.839 197.636 118.686 195.344C122.872 193.329 129.407 190.967 131.023 190.898C131.684 190.828 131.904 200.553 131.904 237.369Z" fill="#FF0000"/>
</g>
<defs>
<filter id="filter0_d_642_2" x="-0.545014" y="0.496704" width="382.449" height="298.141" filterUnits="userSpaceOnUse" color-interpolation-filters="sRGB">
<feFlood flood-opacity="0" result="BackgroundImageFix"/>
<feColorMatrix in="SourceAlpha" type="matrix" values="0 0 0 0 0 0 0 0 0 0 0 0 0 0 0 0 0 0 127 0" result="hardAlpha"/>
<feOffset dy="2.54501"/>
<feGaussianBlur stdDeviation="1.27251"/>
<feComposite in2="hardAlpha" operator="out"/>
<feColorMatrix type="matrix" values="0 0 0 0 0 0 0 0 0 0 0 0 0 0 0 0 0 0 0.25 0"/>
<feBlend mode="normal" in2="BackgroundImageFix" result="effect1_dropShadow_642_2"/>
<feBlend mode="normal" in="SourceGraphic" in2="effect1_dropShadow_642_2" result="shape"/>
</filter>
</defs>
</svg>
