<svg width="159" height="239" viewBox="0 0 159 239" fill="none" xmlns="http://www.w3.org/2000/svg">
<path d="M102.416 22.7401C102.416 22.7401 103.98 16.3761 102.792 11.7274L91.5154 12.5495C91.5154 12.5495 91.5154 23.0345 94.7025 24.557C97.8896 26.0795 103.249 22.3138 103.249 22.3138" fill="#2A9763"/>
<path d="M96.4381 25.44C95.7585 25.4544 95.0847 25.312 94.469 25.0239C91.1296 23.41 90.9977 13.6559 90.9977 12.5495C90.9948 12.4183 91.0429 12.2911 91.1319 12.1945C91.2208 12.098 91.3437 12.0397 91.4747 12.0319L102.762 11.2097C102.884 11.1972 103.007 11.2308 103.107 11.3039C103.206 11.3771 103.275 11.4846 103.299 11.6056C104.223 15.219 103.543 19.7256 103.147 21.8063C103.264 21.7856 103.385 21.805 103.49 21.8615C103.595 21.918 103.677 22.0082 103.724 22.1175C103.771 22.2268 103.78 22.3488 103.749 22.4636C103.718 22.5785 103.649 22.6795 103.553 22.7503C103.36 22.8822 99.6353 25.44 96.4381 25.44ZM92.0431 13.0063C92.1142 16.1325 92.713 22.9837 94.9257 24.0495C96.9557 25.0645 100.275 23.4506 101.929 22.4965C102.102 21.715 103.259 16.4065 102.386 12.2552L92.0431 13.0063Z" fill="#231F20"/>
<path d="M71.063 85.3859C67.003 90.9887 52.3363 121.439 51.3517 122.86C49.9916 124.829 45.6779 125.418 43.9016 126.747C41.7904 128.331 40.3288 131.477 39.2935 133.852C38.8588 134.684 38.6423 135.613 38.6642 136.552C38.6777 137.029 38.8497 137.487 39.153 137.855C39.4564 138.222 39.8737 138.478 40.339 138.582C40.7696 138.574 41.1943 138.48 41.5882 138.306C41.9821 138.131 42.3373 137.88 42.6329 137.567L46.8248 134.075C47.241 135.03 46.7233 136.105 46.3173 137.039C45.9113 137.973 45.6677 139.252 46.4391 139.932C46.7319 140.168 47.0822 140.322 47.4541 140.379C49.8394 140.866 52.2855 139.516 53.8283 137.648C55.3711 135.781 57.4011 134.887 58.2537 132.573C59.2687 129.914 63.7956 125.529 65.105 123.002C66.0185 121.246 62.7299 120.048 63.958 118.465L72.078 108.041L82.4107 94.7138" fill="#FFC9B0"/>
<path d="M48.4184 140.896C48.0776 140.896 47.7376 140.862 47.4034 140.795C46.9371 140.723 46.4989 140.526 46.1347 140.226C45.3328 139.506 45.2313 138.196 45.8809 136.735L45.952 136.552C46.2001 136.055 46.3777 135.525 46.4798 134.979L42.9679 137.851C42.6238 138.219 42.2069 138.511 41.7438 138.708C41.2807 138.906 40.7815 139.004 40.2781 138.998C39.7027 138.883 39.1816 138.58 38.7961 138.138C38.4105 137.695 38.1822 137.138 38.1466 136.552C38.108 135.526 38.339 134.508 38.8165 133.598C39.6691 131.66 41.2525 128.046 43.587 126.301C44.577 125.676 45.6452 125.184 46.764 124.839C48.459 124.22 50.2048 123.57 50.9255 122.535C51.2097 122.119 53.0164 118.475 55.1073 114.334C60.1823 104.184 67.8049 88.9587 70.6469 85.051C70.6828 84.9846 70.7325 84.9266 70.7926 84.8811C70.8528 84.8355 70.922 84.8034 70.9957 84.7869C71.0693 84.7703 71.1456 84.7698 71.2195 84.7853C71.2934 84.8007 71.363 84.8319 71.4238 84.8766C71.4846 84.9212 71.5352 84.9785 71.572 85.0443C71.6088 85.1102 71.6311 85.1832 71.6373 85.2584C71.6435 85.3336 71.6335 85.4093 71.608 85.4803C71.5825 85.5513 71.542 85.6161 71.4893 85.6701C68.7082 89.4662 60.7811 105.331 56.0411 114.801C53.463 119.957 52.1029 122.677 51.7882 123.134C50.8849 124.443 48.9665 125.164 47.1192 125.824C46.0998 126.139 45.1244 126.583 44.2163 127.143C42.095 128.726 40.5826 132.218 39.7706 134.015C39.3684 134.762 39.1689 135.602 39.1921 136.451C39.2044 136.799 39.3286 137.134 39.5461 137.406C39.7636 137.679 40.0629 137.874 40.3999 137.963C41.126 137.912 41.805 137.585 42.298 137.049L46.4899 133.568C46.5514 133.514 46.625 133.475 46.7046 133.456C46.7841 133.437 46.8672 133.437 46.9467 133.456C47.026 133.475 47.0996 133.512 47.1615 133.565C47.2233 133.618 47.2715 133.685 47.3019 133.761C47.4567 134.294 47.4988 134.854 47.4254 135.404C47.352 135.955 47.1648 136.484 46.8756 136.958L46.8046 137.141C46.632 137.526 46.1347 138.856 46.8046 139.435C47.0313 139.611 47.3012 139.723 47.5861 139.759C48.7026 139.887 49.833 139.718 50.8631 139.269C51.8932 138.82 52.7865 138.107 53.4528 137.202C54.0252 136.53 54.6571 135.912 55.3407 135.354C56.407 134.569 57.2502 133.52 57.7869 132.309C58.3756 130.746 60.0503 128.706 61.6642 126.737C62.7957 125.475 63.8145 124.117 64.7092 122.677C64.9731 122.17 64.7092 121.743 64.09 120.941C63.4709 120.14 62.7299 119.196 63.6028 118.069L82.0251 94.3179C82.067 94.2625 82.1194 94.2159 82.1793 94.1808C82.2393 94.1457 82.3056 94.1227 82.3745 94.1133C82.4433 94.1039 82.5133 94.1081 82.5805 94.1258C82.6477 94.1435 82.7107 94.1743 82.766 94.2164C82.8742 94.3041 82.9441 94.4303 82.9611 94.5685C82.9782 94.7066 82.941 94.846 82.8574 94.9574L64.3641 118.749C64.0393 119.165 64.1814 119.48 64.8513 120.343C65.5212 121.205 66.1708 122.038 65.5618 123.205C64.6475 124.709 63.6013 126.129 62.4356 127.448C60.9736 129.032 59.7279 130.804 58.7308 132.715C58.1318 134.084 57.1875 135.273 55.9903 136.166C55.3552 136.681 54.7613 137.244 54.2141 137.851C53.5247 138.747 52.6499 139.482 51.6495 140.008C50.6491 140.534 49.5469 140.837 48.4184 140.896Z" fill="#231F20"/>
<path d="M64.6077 56.8441C64.6077 56.8441 67.3584 82.3105 64.9731 88.1873C62.3138 94.7645 50.9458 119.388 50.9458 119.388L63.5623 127.245C63.5623 127.245 75.6306 108.416 76.879 100.672C78.1275 92.9274 64.6077 56.8441 64.6077 56.8441Z" fill="#939393"/>
<path d="M120.077 108.173L119.174 170.088L145.107 200.994L139.474 213.773C139.474 213.773 99.1583 190.54 92.307 180.979C85.4558 171.417 84.4306 148.367 84.4306 148.367L61.8672 171.011L53.1991 214.717L35.9441 213.773C35.9441 213.773 38.1365 183.151 38.1365 169.763C38.1365 156.375 72.2405 110.324 72.2405 110.324L120.077 108.173Z" fill="#231F20"/>
<path d="M53.1991 215.225L35.9441 214.281C35.8111 214.27 35.6875 214.208 35.599 214.108C35.5536 214.059 35.5185 214.002 35.4959 213.939C35.4732 213.876 35.4634 213.809 35.4671 213.743C35.4671 213.438 37.6595 182.988 37.6595 169.763C37.6595 156.355 70.4643 111.908 71.865 110.02C71.9086 109.96 71.9649 109.911 72.0298 109.876C72.0948 109.841 72.1668 109.821 72.2405 109.817L120.037 107.665C120.106 107.66 120.175 107.67 120.24 107.695C120.305 107.719 120.364 107.758 120.412 107.807C120.462 107.856 120.501 107.915 120.527 107.98C120.553 108.044 120.566 108.113 120.565 108.183L119.661 169.895L145.473 200.649C145.537 200.719 145.58 200.807 145.594 200.901C145.609 200.995 145.595 201.091 145.554 201.177L139.931 213.976C139.905 214.042 139.864 214.102 139.811 214.149C139.758 214.197 139.695 214.231 139.626 214.25C139.562 214.278 139.493 214.292 139.423 214.292C139.354 214.292 139.285 214.278 139.22 214.25C137.566 213.296 98.7421 190.905 91.8909 181.314C85.8009 172.838 84.2885 154.386 83.984 149.564L62.3341 171.255L53.6965 214.819C53.6749 214.934 53.6131 215.038 53.5221 215.113C53.431 215.187 53.3166 215.227 53.1991 215.225ZM36.5227 213.296L52.7627 214.189L61.3496 170.91C61.3664 170.811 61.4124 170.719 61.4815 170.646L84.0653 148.001C84.1363 147.932 84.2257 147.885 84.3229 147.865C84.4201 147.845 84.5209 147.854 84.6134 147.89C84.7037 147.925 84.7816 147.986 84.8375 148.066C84.8934 148.145 84.9249 148.239 84.928 148.336C84.928 148.559 86.0242 171.336 92.713 180.674C99.0263 189.474 134.633 210.363 139.241 213.042L144.519 201.045L118.788 170.392C118.71 170.298 118.667 170.18 118.667 170.057L119.57 108.69L72.5552 110.812C70.1496 114.08 38.6948 157.106 38.6948 169.753C38.6948 182.075 36.817 209.226 36.5328 213.296H36.5227Z" fill="#231F20"/>
<path d="M118.89 42.9386C105.238 36.0569 70.1191 34.1792 64.9731 44.654C60.9131 52.977 73.2656 96.8351 73.2656 96.8351L116.708 105.808C116.708 105.808 125.7 46.3693 118.89 42.9386Z" fill="#939393"/>
<path d="M67.8557 118.424L72.0375 75.4084L121.275 78.6666L119.986 114.303L67.8557 118.424Z" fill="#231F20"/>
<path d="M67.8556 118.932C67.7891 118.932 67.7231 118.919 67.6619 118.893C67.6007 118.867 67.5457 118.828 67.5004 118.779C67.4478 118.727 67.4077 118.663 67.3831 118.593C67.3586 118.522 67.35 118.447 67.3583 118.373L71.5299 75.3577C71.535 75.2923 71.553 75.2286 71.5829 75.1702C71.6127 75.1118 71.6538 75.0598 71.7038 75.0174C71.7538 74.9749 71.8118 74.9428 71.8742 74.9228C71.9367 74.9028 72.0025 74.8954 72.0679 74.901L121.306 78.1591C121.437 78.167 121.559 78.2253 121.648 78.3218C121.737 78.4183 121.785 78.5455 121.783 78.6768L120.494 114.324C120.487 114.447 120.436 114.564 120.35 114.654C120.265 114.743 120.15 114.799 120.027 114.811L67.8962 118.932H67.8556ZM72.484 75.9363L68.424 117.866L119.499 113.806L120.757 79.1031L72.484 75.9363Z" fill="#231F20"/>
<path d="M87.0594 36.0874L87.9932 45.2224C87.9932 45.2224 90.1552 50.1045 95.8189 47.6584C97.4451 46.9549 98.8442 45.8139 99.8603 44.3623C100.876 42.9108 101.47 41.2057 101.574 39.4369L99.7673 23.004C99.7673 23.004 94.9866 21.4206 94.6415 11.6868C94.6415 11.6868 88.9575 11.6868 79.9849 12.1029C79.9849 12.1029 78.7466 27.2366 80.2488 31.6924C81.751 36.1483 87.0594 36.0874 87.0594 36.0874Z" fill="#FFC9B0"/>
<path d="M92.8348 48.9068C91.7201 48.8782 90.6346 48.5441 89.6967 47.9409C88.7589 47.3378 88.0046 46.4887 87.5162 45.4862C87.5116 45.4322 87.5116 45.3779 87.5162 45.3238L86.623 36.5948C85.2122 36.4933 81.1116 35.8437 79.7921 31.9157C78.2797 27.4091 79.447 12.7423 79.4977 12.113C79.51 11.9855 79.5682 11.8667 79.6616 11.7789C79.755 11.6911 79.8771 11.6403 80.0052 11.636C88.8865 11.2503 94.6212 11.2198 94.6821 11.2198C94.8186 11.2197 94.9499 11.2726 95.0483 11.3672C95.1467 11.4618 95.2047 11.5909 95.2099 11.7273C95.5347 20.9841 99.9297 22.5472 99.9804 22.5574C100.076 22.591 100.159 22.6507 100.222 22.7297C100.285 22.8087 100.324 22.9037 100.336 23.004L102.102 39.3962C101.995 41.2776 101.369 43.0926 100.294 44.6404C99.2194 46.1882 97.7372 47.4084 96.0118 48.1658C95.0138 48.6252 93.933 48.8773 92.8348 48.9068V48.9068ZM88.5109 45.1208C88.7951 45.6994 90.8048 49.2925 95.6159 47.2219C97.1538 46.5626 98.4775 45.4877 99.4384 44.118C100.399 42.7482 100.96 41.1377 101.056 39.4673L99.2801 23.41C98.1636 22.8619 94.5705 20.4766 94.1442 12.245C92.5912 12.245 87.5873 12.3363 80.4721 12.6408C80.2793 15.1986 79.4571 27.6831 80.7462 31.5604C82.0352 35.4377 86.8362 35.5595 87.0493 35.5494C87.1814 35.5507 87.3086 35.5997 87.4075 35.6874C87.5063 35.775 87.5701 35.8954 87.5873 36.0264L88.5109 45.1208Z" fill="#231F20"/>
<path d="M98.0114 23.3491C98.0728 22.5044 98.4077 21.7028 98.9655 21.0654C100.346 19.4921 103.239 18.3959 104.548 20.5985C106.639 24.1205 102.883 28.6576 99.0771 27.7035" fill="#FFC9B0"/>
<path d="M100.123 28.353C99.7285 28.3524 99.3362 28.3012 98.9552 28.2008C98.8883 28.1853 98.8251 28.1567 98.7694 28.1165C98.7136 28.0764 98.6665 28.0255 98.6306 27.967C98.5947 27.9084 98.5708 27.8432 98.5603 27.7754C98.5498 27.7075 98.553 27.6382 98.5696 27.5715C98.5862 27.5042 98.6159 27.4408 98.6571 27.3849C98.6982 27.3291 98.75 27.2819 98.8093 27.2461C98.8687 27.2103 98.9346 27.1865 99.0032 27.1762C99.0717 27.1658 99.1417 27.1691 99.209 27.1858C100.053 27.3612 100.93 27.2833 101.73 26.9619C102.53 26.6405 103.217 26.0898 103.705 25.3791C104.223 24.7576 104.538 23.9931 104.608 23.1877C104.679 22.3823 104.502 21.5746 104.101 20.8725C103.955 20.592 103.741 20.3524 103.478 20.1752C103.216 19.998 102.914 19.8888 102.599 19.8575C101.982 19.8648 101.373 20.0046 100.815 20.2672C100.256 20.5299 99.7606 20.9093 99.3613 21.38C98.8773 21.9325 98.5853 22.6269 98.529 23.3592C98.5251 23.4282 98.5075 23.4956 98.4772 23.5577C98.4469 23.6197 98.4045 23.6751 98.3525 23.7205C98.3005 23.7659 98.2399 23.8004 98.1743 23.822C98.1088 23.8437 98.0395 23.852 97.9707 23.8464C97.8324 23.836 97.7038 23.7716 97.6127 23.6672C97.5215 23.5627 97.4751 23.4266 97.4835 23.2882C97.5572 22.3279 97.938 21.4169 98.5696 20.6898C99.0757 20.0906 99.7092 19.612 100.424 19.2888C101.139 18.9657 101.916 18.8063 102.701 18.8222C103.174 18.8674 103.628 19.0293 104.023 19.2932C104.418 19.5571 104.741 19.9149 104.964 20.3345C105.465 21.2166 105.691 22.2286 105.611 23.24C105.531 24.2513 105.15 25.2156 104.517 26.0084C104.015 26.7117 103.357 27.2892 102.595 27.696C101.832 28.1027 100.986 28.3276 100.123 28.353V28.353Z" fill="#231F20"/>
<path d="M87.5061 40.4823C89.4636 39.951 91.2127 38.8357 92.5202 37.285C93.0642 36.7063 93.4448 35.9936 93.6231 35.2197C93.8014 34.4457 93.7711 33.6383 93.5352 32.8799C92.7489 33.8577 91.7581 34.6515 90.6324 35.2056C89.5067 35.7596 88.2733 36.0606 87.0189 36.0873L87.5061 40.4823Z" fill="#231F20"/>
<path d="M87.5061 40.9898C87.3991 40.9915 87.2949 40.9556 87.2117 40.8883C87.1546 40.8469 87.107 40.7938 87.072 40.7325C87.037 40.6713 87.0154 40.6033 87.0087 40.5331L86.5621 36.1381C86.5549 36.0665 86.563 35.9941 86.5859 35.9258C86.6088 35.8576 86.646 35.7949 86.695 35.7421C86.7439 35.6893 86.8035 35.6476 86.8699 35.6196C86.9363 35.5916 87.0078 35.5781 87.0798 35.5799H87.2625C88.4069 35.514 89.5247 35.209 90.5439 34.6846C91.5632 34.1601 92.4612 33.4278 93.1799 32.5349C93.2327 32.4631 93.3041 32.4072 93.3864 32.3732C93.4687 32.3392 93.5588 32.3284 93.6468 32.342C93.7371 32.3555 93.8223 32.3927 93.8936 32.4497C93.9649 32.5068 94.0198 32.5817 94.0528 32.6668C94.3191 33.5141 94.3521 34.4175 94.1485 35.2819C93.9449 36.1464 93.5121 36.94 92.8957 37.5794C91.5183 39.2141 89.6726 40.3867 87.6076 40.9391L87.5061 40.9898ZM87.6177 36.5847L87.9527 39.8327C89.5692 39.2378 91.0106 38.2466 92.1446 36.9501C92.5211 36.5549 92.814 36.0879 93.0058 35.5769C93.1976 35.0659 93.2845 34.5215 93.2611 33.9762C91.7595 35.5026 89.7534 36.4299 87.6177 36.5847V36.5847Z" fill="#231F20"/>
<path d="M85.4862 28.5357C85.0056 28.5635 84.5307 28.4196 84.1464 28.1297C83.1923 27.338 84.4407 24.2118 85.6486 21.7454C85.7078 21.6242 85.8127 21.5316 85.9403 21.4878C86.0678 21.444 86.2075 21.4527 86.3287 21.5119C86.4498 21.5712 86.5424 21.6761 86.5862 21.8036C86.63 21.9311 86.6213 22.0708 86.5621 22.192C85.4253 24.5163 84.6133 26.9422 84.8264 27.3888C85.2121 27.7034 86.4403 27.3888 87.1305 27.1655C87.1917 27.1391 87.2575 27.1252 87.3242 27.1248C87.3908 27.1243 87.4568 27.1372 87.5184 27.1628C87.5799 27.1884 87.6357 27.226 87.6824 27.2736C87.7291 27.3211 87.7658 27.3775 87.7902 27.4395C87.8407 27.5634 87.8403 27.7022 87.789 27.8258C87.7376 27.9493 87.6396 28.0476 87.5162 28.0993C86.8695 28.3599 86.1829 28.5075 85.4862 28.5357V28.5357Z" fill="#231F20"/>
<path d="M81.6089 21.6845C81.9228 21.6845 82.1773 21.0256 82.1773 20.2128C82.1773 19.3999 81.9228 18.741 81.6089 18.741C81.295 18.741 81.0405 19.3999 81.0405 20.2128C81.0405 21.0256 81.295 21.6845 81.6089 21.6845Z" fill="#231F20"/>
<path d="M90.5409 21.6845C90.8549 21.6845 91.1093 21.0256 91.1093 20.2128C91.1093 19.3999 90.8549 18.741 90.5409 18.741C90.227 18.741 89.9725 19.3999 89.9725 20.2128C89.9725 21.0256 90.227 21.6845 90.5409 21.6845Z" fill="#231F20"/>
<path d="M87.4249 32.0274C86.2367 32.0325 85.0667 31.7356 84.0247 31.1646C83.968 31.1293 83.9189 31.0832 83.8801 31.0289C83.8413 30.9745 83.8135 30.9131 83.7984 30.8481C83.7833 30.7831 83.7812 30.7157 83.7922 30.6498C83.8031 30.584 83.8269 30.5209 83.8623 30.4643C83.8976 30.4076 83.9437 30.3585 83.998 30.3197C84.0523 30.2809 84.1138 30.2531 84.1788 30.238C84.2438 30.223 84.3112 30.2208 84.3771 30.2318C84.4429 30.2427 84.506 30.2666 84.5626 30.3019C85.6088 30.8703 86.8014 31.1122 87.9864 30.9964C89.1714 30.8806 90.2945 30.4125 91.2109 29.6523C91.2637 29.611 91.3243 29.5807 91.389 29.5634C91.4538 29.5461 91.5214 29.5421 91.5878 29.5516C91.6541 29.561 91.7179 29.5839 91.7752 29.6186C91.8326 29.6533 91.8823 29.6993 91.9214 29.7538C92.0032 29.8602 92.0396 29.9947 92.0224 30.1279C92.0053 30.2611 91.9361 30.382 91.83 30.4643C90.58 31.4672 89.0276 32.0181 87.4249 32.0274Z" fill="#231F20"/>
<path d="M126.787 101.849L104.457 127.884C104.457 127.884 106.111 135.557 104.578 136.288C103.046 137.019 95.1389 139.597 93.9209 137.567C93.1806 136.145 92.897 134.528 93.1089 132.939L91.0789 132.786C91.0789 132.786 90.2973 129.518 91.8807 127.579C93.4641 125.641 114.921 96.9163 114.921 96.9163" fill="#FFC9B0"/>
<path d="M96.1843 138.866C94.9257 138.866 93.9107 138.592 93.4743 137.851C92.7408 136.498 92.413 134.961 92.5303 133.426L91.0078 133.324C90.8972 133.314 90.7925 133.27 90.7086 133.197C90.6248 133.124 90.5661 133.027 90.5409 132.918C90.5409 132.776 89.7086 129.376 91.4544 127.255C93.0175 125.346 114.261 96.9061 114.475 96.6118C114.563 96.5134 114.684 96.4515 114.816 96.4383C114.947 96.4251 115.078 96.4616 115.184 96.5406C115.29 96.6196 115.362 96.7353 115.387 96.865C115.411 96.9947 115.387 97.1288 115.317 97.2411C114.434 98.4185 93.8397 125.986 92.2563 127.925C91.1499 129.274 91.3529 131.447 91.4849 132.309L93.1393 132.421C93.2118 132.426 93.2826 132.445 93.3472 132.478C93.4118 132.511 93.4689 132.558 93.5149 132.614C93.5593 132.671 93.5921 132.736 93.6112 132.806C93.6304 132.875 93.6356 132.948 93.6265 133.02C93.4274 134.49 93.6861 135.985 94.3675 137.303C95.2505 138.775 102.305 136.785 104.355 135.821C104.954 135.537 104.761 131.761 103.939 128.006C103.923 127.928 103.925 127.847 103.945 127.77C103.964 127.693 104 127.621 104.051 127.559L126.381 101.524C126.425 101.472 126.48 101.43 126.541 101.399C126.602 101.368 126.669 101.349 126.737 101.344C126.805 101.339 126.874 101.347 126.939 101.369C127.004 101.39 127.064 101.424 127.116 101.469C127.168 101.513 127.211 101.568 127.242 101.629C127.273 101.69 127.292 101.757 127.297 101.825C127.302 101.893 127.294 101.962 127.272 102.027C127.251 102.092 127.217 102.152 127.172 102.204L105.005 128.036C105.543 130.594 106.456 135.984 104.792 136.765C104.111 137.08 99.3714 138.866 96.1843 138.866Z" fill="#231F20"/>
<path d="M118.89 42.9386C118.89 42.9386 142.996 76.6671 143.25 82.9499C143.504 89.2328 111.247 122.098 111.247 122.098L98.3868 112.101C98.3868 112.101 121.245 83.8837 120.818 81.1026C120.392 78.3215 105.847 58.6813 105.847 58.6813C105.847 58.6813 106.994 45.811 118.89 42.9386Z" fill="#939393"/>
<path d="M76.879 78.8087C76.879 78.8087 73.5498 54.6212 77.5591 37.9955L83.1619 37.4474C83.1619 37.4474 80.6041 54.5096 83.03 80.6661L76.879 78.8087Z" fill="#231F20"/>
<path d="M83.0503 81.1736C83.0034 81.1832 82.955 81.1832 82.9081 81.1736L76.7268 79.3162C76.6354 79.2888 76.5536 79.2361 76.4908 79.1643C76.4279 79.0925 76.3866 79.0044 76.3715 78.9102C76.3715 78.6666 73.083 54.469 77.0922 37.9042C77.119 37.8032 77.1762 37.713 77.2561 37.6458C77.3361 37.5786 77.4348 37.5377 77.5388 37.5286L83.1314 36.9805C83.2079 36.972 83.2852 36.9813 83.3574 37.0078C83.4296 37.0342 83.4947 37.077 83.5476 37.1328C83.5988 37.1903 83.6371 37.2581 83.6599 37.3316C83.6826 37.4051 83.6893 37.4827 83.6796 37.5591C83.6796 37.7316 81.1624 54.8141 83.5578 80.6458C83.5659 80.728 83.5535 80.811 83.5216 80.8872C83.4897 80.9634 83.4394 81.0304 83.3751 81.0823C83.2815 81.1513 83.166 81.1838 83.0503 81.1736V81.1736ZM77.3358 78.4128L82.4819 79.9658C80.4519 57.2399 82.1773 41.3247 82.5935 38.0158L77.9955 38.4624C74.4024 53.7889 76.9704 75.5201 77.3358 78.4128V78.4128Z" fill="#231F20"/>
<path d="M105.472 38.6553C101.646 53.3501 99.7254 68.4758 99.7571 83.6604L105.908 83.092C105.908 83.092 105.472 61.1578 112.069 40.6142L105.472 38.6553Z" fill="#231F20"/>
<path d="M99.7571 84.1679C99.6953 84.1692 99.6339 84.1582 99.5764 84.1355C99.5189 84.1129 99.4665 84.079 99.4222 84.036C99.3676 83.9898 99.3239 83.9323 99.2941 83.8674C99.2643 83.8025 99.2491 83.7318 99.2496 83.6604C99.2354 68.4301 101.156 53.2597 104.964 38.5132C105.006 38.3857 105.092 38.2776 105.208 38.2087C105.332 38.1637 105.469 38.1637 105.593 38.2087L112.181 40.1677C112.246 40.1874 112.306 40.22 112.359 40.2636C112.411 40.3072 112.454 40.3608 112.485 40.4214C112.512 40.4822 112.526 40.5478 112.526 40.6142C112.526 40.6807 112.512 40.7464 112.485 40.8071C105.999 61.0361 106.344 82.8992 106.395 83.1225C106.396 83.2498 106.35 83.373 106.266 83.4685C106.181 83.564 106.065 83.6251 105.938 83.6401L99.7875 84.2085L99.7571 84.1679ZM105.847 39.2846C102.2 53.6099 100.332 68.33 100.285 83.1123L105.421 82.6353C105.421 79.3568 105.593 59.5542 111.44 40.9594L105.847 39.2846Z" fill="#231F20"/>
<path d="M104 16.5385C104 16.8328 81.7916 17.046 75.5798 17.0967C75.3789 17.0868 75.1826 17.0321 75.0055 16.9366C74.8284 16.8411 74.6749 16.7072 74.5562 16.5447C74.4375 16.3822 74.3566 16.1953 74.3195 15.9975C74.2823 15.7997 74.2899 15.5961 74.3415 15.4017V15.4017C74.4029 15.1193 74.5573 14.8658 74.78 14.6817C75.0027 14.4976 75.2809 14.3937 75.5697 14.3867H78.97C78.97 14.3867 78.0666 3.04911 89.6884 1.52661C101.31 0.0041136 103.949 10.0628 104 16.5385Z" fill="#2A9763"/>
<path d="M75.5291 17.6245C75.2677 17.622 75.01 17.5616 74.7748 17.4475C74.5396 17.3334 74.3327 17.1685 74.169 16.9648C73.982 16.7332 73.8509 16.4616 73.7857 16.1712C73.7206 15.8808 73.7233 15.5792 73.7934 15.29C73.8704 14.8839 74.0851 14.5168 74.4013 14.2505C74.7175 13.9843 75.1158 13.8352 75.5291 13.8284H78.3914C78.3914 11.4533 79.1222 2.3386 89.5564 0.968349C93.6773 0.430399 97.0369 1.2627 99.5643 3.4551C103.908 7.2106 104.467 13.8487 104.497 16.5384C104.497 16.6787 104.443 16.8134 104.345 16.914C104.122 17.1474 103.888 17.3809 75.5189 17.6245H75.5291ZM75.5291 14.8738C75.3548 14.8846 75.1891 14.9534 75.0585 15.0693C74.9279 15.1852 74.8398 15.3415 74.8084 15.5133C74.7787 15.6506 74.7797 15.7927 74.8113 15.9296C74.8428 16.0664 74.9043 16.1946 74.9911 16.305C75.0536 16.389 75.1347 16.4575 75.228 16.505C75.3213 16.5525 75.4243 16.5779 75.5291 16.579V16.579C90.9063 16.4471 101.32 16.2644 103.452 16.102C103.36 13.331 102.69 7.5354 98.8943 4.2468C96.6004 2.26755 93.5148 1.5063 89.7593 2.0138C78.777 3.44495 79.4571 13.869 79.4977 14.3054C79.5018 14.3778 79.4913 14.4502 79.4667 14.5183C79.4422 14.5865 79.4041 14.6489 79.3548 14.702C79.3055 14.7551 79.246 14.7977 79.1799 14.8272C79.1138 14.8567 79.0423 14.8726 78.9699 14.8738H75.5291Z" fill="#231F20"/>
<path d="M83.3548 14.346C83.3548 14.346 82.9589 7.69779 85.3848 3.45509C86.9986 0.582638 91.4748 -0.0974115 92.5608 1.12059C93.2409 1.88184 90.2872 3.26224 89.4245 6.69294C89.0305 9.22517 88.827 11.7834 88.8155 14.346" fill="#2A9763"/>
<path d="M83.3547 14.8739C83.2208 14.874 83.0922 14.8222 82.9957 14.7295C82.8991 14.6368 82.8423 14.5102 82.8371 14.3765C82.8371 14.1025 82.4615 7.52526 84.8671 3.21151C85.4308 2.33488 86.1857 1.5973 87.0752 1.05412C87.9647 0.510928 88.9656 0.176237 90.003 0.0751555C90.5066 -0.0330232 91.0283 -0.0243146 91.528 0.100613C92.0277 0.225541 92.4921 0.463363 92.8856 0.795805C93.5047 1.47585 92.8856 2.20666 92.1649 2.97806C91.0862 4.0529 90.2971 5.38325 89.871 6.84521C89.4859 9.33743 89.2857 11.8547 89.2722 14.3765C89.2751 14.4461 89.2634 14.5156 89.2378 14.5805C89.2122 14.6453 89.1733 14.704 89.1235 14.7528C89.0737 14.8017 89.0143 14.8395 88.949 14.8638C88.8836 14.8881 88.8139 14.8985 88.7443 14.8942C88.6061 14.8915 88.4745 14.8347 88.3777 14.736C88.2809 14.6373 88.2267 14.5046 88.2267 14.3664C88.2348 11.759 88.4452 9.15614 88.856 6.5813C89.3231 4.95999 90.1924 3.48308 91.3833 2.28786C91.6336 2.0259 91.8579 1.74037 92.0532 1.43526C91.4688 1.0926 90.7774 0.980401 90.1146 1.12061C89.2418 1.19879 88.3982 1.47422 87.6474 1.92611C86.8966 2.37799 86.2582 2.99452 85.7806 3.72916C83.4765 7.78916 83.8317 14.275 83.8317 14.3359C83.8401 14.4743 83.7937 14.6104 83.7026 14.7149C83.6114 14.8194 83.4828 14.8837 83.3446 14.8942L83.3547 14.8739Z" fill="#231F20"/>
<path d="M103.066 14.8536H78.9294C78.7948 14.8536 78.6657 14.8001 78.5705 14.7049C78.4754 14.6097 78.4219 14.4807 78.4219 14.3461C78.4219 14.2115 78.4754 14.0824 78.5705 13.9872C78.6657 13.892 78.7948 13.8386 78.9294 13.8386H103.066C103.201 13.8386 103.33 13.892 103.425 13.9872C103.52 14.0824 103.574 14.2115 103.574 14.3461C103.574 14.4807 103.52 14.6097 103.425 14.7049C103.33 14.8001 103.201 14.8536 103.066 14.8536Z" fill="#231F20"/>
<path d="M72.0273 75.9363C71.9094 75.9339 71.7958 75.8914 71.7054 75.8157C71.6149 75.74 71.553 75.6357 71.5299 75.5201C71.398 74.7792 68.3327 57.2501 69.845 48.3181C69.8698 48.1858 69.9451 48.0684 70.055 47.9907C70.1649 47.913 70.3008 47.8812 70.4337 47.902C70.566 47.9267 70.6834 48.0021 70.7611 48.112C70.8388 48.2219 70.8707 48.3577 70.8499 48.4907C69.3578 57.2501 72.5043 75.1547 72.5348 75.3374C72.5464 75.4034 72.5449 75.4711 72.5302 75.5365C72.5156 75.6019 72.4881 75.6638 72.4494 75.7185C72.4107 75.7732 72.3615 75.8198 72.3048 75.8554C72.248 75.891 72.1848 75.9151 72.1186 75.9261L72.0273 75.9363Z" fill="#231F20"/>
<path d="M120.849 81.6101C120.764 81.6119 120.679 81.5913 120.604 81.5503C120.53 81.5094 120.467 81.4495 120.423 81.3767L110.181 65.4818C110.109 65.3686 110.084 65.2314 110.113 65.1001C110.141 64.9688 110.221 64.8542 110.333 64.7814C110.389 64.7427 110.451 64.7158 110.517 64.7025C110.583 64.6892 110.651 64.6897 110.717 64.704C110.783 64.7183 110.845 64.7461 110.899 64.7856C110.954 64.8252 111 64.8756 111.034 64.9337L121.275 80.8286C121.348 80.9417 121.372 81.0789 121.344 81.2102C121.315 81.3415 121.236 81.4561 121.123 81.5289C121.041 81.5802 120.946 81.6082 120.849 81.6101V81.6101Z" fill="#231F20"/>
<path d="M90.7541 111.126C90.3075 111.126 89.8508 111.126 89.4042 111.065C85.7488 110.739 82.3656 108.998 79.9763 106.212C77.587 103.426 76.3809 99.8175 76.6151 96.1551L77.3967 83.1834C77.3982 83.1127 77.4154 83.0433 77.447 82.9801C77.4786 82.9169 77.5238 82.8616 77.5794 82.818C77.633 82.7746 77.6948 82.7424 77.761 82.7232C77.8272 82.7041 77.8966 82.6983 77.9651 82.7063L104.964 85.9442C105.092 85.9571 105.211 86.0193 105.294 86.1178C105.377 86.2163 105.419 86.3433 105.411 86.472L104.852 97.708C104.668 101.325 103.103 104.733 100.48 107.229C97.8564 109.726 94.3754 111.121 90.7541 111.126V111.126ZM78.3711 83.7822L77.6403 96.2363C77.5456 97.9551 77.7905 99.6757 78.3608 101.3C78.9311 102.924 79.8158 104.42 80.9642 105.702C82.1127 106.985 83.5024 108.028 85.0542 108.773C86.6059 109.518 88.2893 109.951 90.0081 110.045C91.7269 110.14 93.4475 109.895 95.0716 109.325C96.6958 108.755 98.1918 107.87 99.474 106.721C100.756 105.573 101.8 104.183 102.545 102.631C103.29 101.08 103.722 99.3964 103.817 97.6776L104.355 86.9186L78.3711 83.7822Z" fill="white"/>
<path d="M57.6346 199.015L34.929 195.341L33.9851 228.298C33.9851 228.298 20.1405 232.794 20.2623 235.291C20.4348 238.966 52.0013 237.453 52.0013 237.453L57.6346 199.015Z" fill="#939393"/>
<path d="M38.4917 238.336H36.2181C19.9071 238.164 19.8056 236.215 19.7751 235.383C19.7751 234.713 20.6379 232.195 33.4979 227.973L34.4419 195.381C34.4437 195.307 34.462 195.234 34.4953 195.167C34.5286 195.1 34.5763 195.042 34.6347 194.996C34.693 194.95 34.7599 194.917 34.8314 194.897C34.9029 194.878 34.9776 194.874 35.0509 194.884L57.7158 198.558C57.7832 198.568 57.8479 198.591 57.9063 198.626C57.9647 198.661 58.0156 198.708 58.0562 198.762C58.0967 198.817 58.1261 198.879 58.1426 198.945C58.1591 199.011 58.1624 199.08 58.1523 199.147L52.5495 237.585C52.5327 237.706 52.4736 237.818 52.3826 237.9C52.2915 237.981 52.1744 238.028 52.0521 238.032C51.9811 237.981 45.5155 238.336 38.4917 238.336ZM35.4467 196.001L34.5129 228.359C34.5106 228.467 34.4752 228.571 34.4117 228.658C34.3482 228.745 34.2596 228.811 34.1577 228.846C27.682 230.947 20.7394 234.023 20.8003 235.322C20.8003 235.504 21.3078 237.118 36.208 237.281C42.978 237.342 49.7988 237.078 51.5548 236.996L57.0256 199.492L35.4467 196.001Z" fill="#231F20"/>
<path d="M131.831 182.867L116.89 201.857L140.895 220.574C140.895 220.574 136.429 231.292 137.657 232.754C138.885 234.215 158.323 214.748 158.323 214.748L131.831 182.867Z" fill="#939393"/>
<path d="M137.85 233.322C137.638 233.315 137.437 233.224 137.292 233.068C136.033 231.607 138.845 224.238 140.286 220.746L116.596 202.273C116.541 202.231 116.495 202.177 116.462 202.116C116.429 202.055 116.409 201.987 116.403 201.918C116.385 201.781 116.422 201.643 116.505 201.532L131.415 182.511C131.463 182.449 131.525 182.399 131.595 182.364C131.665 182.329 131.742 182.31 131.821 182.308C131.976 182.319 132.121 182.388 132.227 182.501L158.759 214.382C158.848 214.479 158.897 214.606 158.897 214.737C158.897 214.869 158.848 214.996 158.759 215.093C154.415 219.376 140.276 233.322 137.85 233.322ZM117.621 201.796L141.22 220.198C141.308 220.27 141.37 220.367 141.4 220.476C141.429 220.586 141.423 220.701 141.382 220.807C139.149 226.166 137.657 231.231 137.992 232.277C139.779 231.769 149.157 223.142 157.622 214.717L131.841 183.729L117.621 201.796Z" fill="#231F20"/>
<path d="M54.4474 206.658H54.3662L35.944 203.938C35.8119 203.915 35.6936 203.843 35.6141 203.735C35.5346 203.627 35.5 203.492 35.5177 203.359C35.5264 203.294 35.5481 203.231 35.5815 203.173C35.6149 203.116 35.6594 203.066 35.7123 203.027C35.7653 202.987 35.8256 202.958 35.8898 202.942C35.954 202.926 36.0207 202.923 36.0861 202.933L54.5388 205.643C54.6734 205.653 54.7987 205.715 54.8872 205.817C54.9758 205.919 55.0202 206.052 55.0108 206.186C55.0014 206.321 54.9388 206.446 54.837 206.535C54.7352 206.623 54.6023 206.668 54.4677 206.658H54.4474Z" fill="#D1D3D4"/>
<path d="M53.7371 210.657H53.6762L36.3298 208.343C36.1952 208.324 36.0736 208.253 35.9918 208.144C35.9099 208.036 35.8745 207.899 35.8934 207.764C35.9122 207.63 35.9838 207.508 36.0923 207.426C36.2008 207.345 36.3373 207.309 36.4719 207.328L53.8081 209.642C53.9427 209.652 54.0681 209.714 54.1566 209.816C54.2451 209.918 54.2895 210.051 54.2801 210.185C54.2707 210.32 54.2082 210.445 54.1063 210.534C54.0045 210.622 53.8717 210.667 53.7371 210.657V210.657Z" fill="#D1D3D4"/>
<path d="M126.046 205.298C125.932 205.293 125.822 205.254 125.731 205.186C125.626 205.103 125.559 204.981 125.544 204.848C125.529 204.715 125.567 204.581 125.65 204.476L136.226 191.047C136.262 190.984 136.312 190.93 136.371 190.888C136.43 190.846 136.498 190.817 136.569 190.803C136.64 190.789 136.714 190.791 136.784 190.808C136.855 190.825 136.921 190.857 136.978 190.901C137.035 190.946 137.082 191.003 137.116 191.067C137.149 191.132 137.169 191.202 137.172 191.275C137.176 191.347 137.164 191.42 137.138 191.488C137.111 191.555 137.07 191.616 137.018 191.667L126.452 205.105C126.402 205.165 126.34 205.213 126.27 205.246C126.2 205.279 126.123 205.297 126.046 205.298V205.298Z" fill="#D1D3D4"/>
<path d="M129.486 206.658C129.367 206.658 129.252 206.615 129.162 206.536C129.059 206.448 128.996 206.323 128.985 206.188C128.973 206.054 129.015 205.92 129.101 205.816L138.794 194.275C138.885 194.189 139.004 194.14 139.128 194.137C139.253 194.133 139.374 194.175 139.47 194.256C139.565 194.336 139.627 194.448 139.645 194.572C139.663 194.695 139.634 194.821 139.565 194.925L129.872 206.475C129.824 206.531 129.765 206.575 129.698 206.607C129.632 206.638 129.56 206.656 129.486 206.658V206.658Z" fill="#D1D3D4"/>
<path d="M5.25744 123.472C6.39439 124.134 7.64435 124.618 8.15255 124.506C8.58816 124.409 10.5655 121.99 12.4302 119.063C15.9253 113.871 15.9979 113.855 18.3286 114.404C19.619 114.728 20.6916 115.099 20.7398 115.317C20.772 115.462 19.1495 118.107 17.0831 121.155C13.9109 125.743 12.6914 128.831 14.0708 128.525C14.2886 128.477 15.9595 126.05 17.8081 123.051C20.3104 119.221 21.6501 117.705 22.5857 117.802C23.626 118.029 23.2545 119.101 20.4292 123.536C16.7725 129.374 16.4814 130.809 18.9327 132.246C20.9244 133.328 22.2795 133.256 24.7321 131.951C26.6523 130.992 27.4183 131.355 37.6183 137.853C47.0201 143.843 48.8022 144.666 50.835 144.216C52.5048 143.846 53.5377 143.007 54.4661 141.354C56.4441 137.564 55.5174 135.789 49.5265 131.786C44.8661 128.63 44.2695 128 45.0363 126.992C46.4003 125.243 45.651 123.581 42.8288 121.845C41.9999 121 41.4999 121 40.9999 120C40.6293 119.016 38.4838 118.621 37.9999 118.5C37.3143 118.5 36.8876 119.112 37.4999 120.5C38.5875 123.001 37.5934 123.311 35.4322 122.495C33.1257 121.711 33.0216 120.211 35.0079 116.115C36.9862 111.639 37.027 110.792 34.8421 108.839C33.133 107.314 29.4998 108.5 27.9998 110.5C26.4998 113.5 27.0949 116.406 30.8357 110.339C31.6425 109.855 32.6559 109.628 33.5751 110.339C35.0103 111.315 34.9295 111.638 33.048 115.864C31.9176 118.323 31.1097 120.863 31.2385 121.444C31.3672 122.025 36.2855 125.657 42.1555 129.459C50.3477 134.803 52.9439 136.893 53.2658 138.345C53.7003 140.305 52.2798 142.144 49.9566 142.659C49.2306 142.82 43.6103 139.8 37.4903 135.901C26.4355 128.983 26.2581 128.87 24.1846 130.168C22.1675 131.377 18.9412 131.254 18.6515 129.947C18.6032 129.729 20.9282 125.786 23.7373 121.279L28.9923 113.03L23.211 109.285C18.0667 106.008 14.0024 104.167 12.5504 104.488C12.3326 104.537 9.95152 107.883 7.33618 111.89C2.14591 119.744 1.8466 121.486 5.25744 123.472Z" fill="black"/>
<path d="M32.5 109L30 110L18 130L20.9999 132L25.9999 130.5L50.4999 143.5L54 141L54 137L32 121L35.5 111L32.5 109Z" fill="black"/>
</svg>
