<svg width="160" height="239" viewBox="0 0 160 239" fill="none" xmlns="http://www.w3.org/2000/svg">
<path d="M102.641 22.7401C102.641 22.7401 104.204 16.3761 103.017 11.7274L91.7402 12.5495C91.7402 12.5495 91.7402 23.0345 94.9273 24.557C98.1144 26.0795 103.474 22.3138 103.474 22.3138" fill="#2A9763"/>
<path d="M96.6629 25.44C95.9833 25.4544 95.3095 25.312 94.6938 25.0239C91.3545 23.41 91.2225 13.6559 91.2225 12.5495C91.2197 12.4183 91.2678 12.2911 91.3567 12.1945C91.4457 12.098 91.5686 12.0397 91.6996 12.0319L102.986 11.2097C103.109 11.1972 103.232 11.2308 103.332 11.3039C103.431 11.3771 103.5 11.4846 103.524 11.6056C104.448 15.219 103.768 19.7256 103.372 21.8063C103.489 21.7856 103.61 21.805 103.715 21.8615C103.819 21.918 103.902 22.0082 103.949 22.1175C103.996 22.2268 104.005 22.3488 103.974 22.4636C103.943 22.5785 103.874 22.6795 103.778 22.7503C103.585 22.8822 99.8602 25.44 96.6629 25.44ZM92.268 13.0063C92.339 16.1325 92.9379 22.9837 95.1506 24.0495C97.1806 25.0645 100.5 23.4506 102.154 22.4965C102.327 21.715 103.484 16.4065 102.611 12.2552L92.268 13.0063Z" fill="#231F20"/>
<path d="M71.2879 85.3859C67.2279 90.9887 52.5611 121.439 51.5766 122.86C50.2165 124.829 45.9027 125.418 44.1265 126.747C42.0153 128.331 40.5537 131.477 39.5184 133.852C39.0837 134.684 38.8672 135.613 38.8891 136.552C38.9025 137.029 39.0745 137.487 39.3779 137.855C39.6812 138.222 40.0986 138.478 40.5638 138.582C40.9945 138.574 41.4192 138.48 41.8131 138.306C42.207 138.131 42.5621 137.88 42.8577 137.567L47.0497 134.075C47.4658 135.03 46.9482 136.105 46.5422 137.039C46.1362 137.973 45.8926 139.252 46.664 139.932C46.9567 140.168 47.307 140.322 47.679 140.379C50.0642 140.866 52.5104 139.516 54.0532 137.648C55.596 135.781 57.626 134.887 58.4786 132.573C59.4936 129.914 64.0205 125.529 65.3298 123.002C66.2433 121.246 62.9547 120.048 64.1829 118.465L72.3029 108.041L82.6356 94.7138" fill="#FFC9B0"/>
<path d="M48.6433 140.896C48.3024 140.896 47.9625 140.862 47.6283 140.795C47.162 140.723 46.7238 140.526 46.3595 140.226C45.5577 139.506 45.4562 138.196 46.1058 136.735L46.1768 136.552C46.4249 136.055 46.6025 135.525 46.7046 134.979L43.1927 137.851C42.8487 138.219 42.4318 138.511 41.9687 138.708C41.5056 138.906 41.0064 139.004 40.503 138.998C39.9276 138.883 39.4065 138.58 39.0209 138.138C38.6354 137.695 38.407 137.138 38.3715 136.552C38.3329 135.526 38.5638 134.508 39.0414 133.598C39.894 131.66 41.4774 128.046 43.8119 126.301C44.8018 125.676 45.8701 125.184 46.9888 124.839C48.6839 124.22 50.4297 123.57 51.1503 122.535C51.4345 122.119 53.2412 118.475 55.3321 114.334C60.4071 104.184 68.0298 88.9587 70.8718 85.051C70.9076 84.9846 70.9573 84.9266 71.0175 84.8811C71.0776 84.8355 71.1469 84.8034 71.2205 84.7869C71.2941 84.7703 71.3705 84.7698 71.4443 84.7853C71.5182 84.8007 71.5879 84.8319 71.6487 84.8766C71.7095 84.9212 71.76 84.9785 71.7968 85.0443C71.8337 85.1102 71.8559 85.1832 71.8621 85.2584C71.8683 85.3336 71.8584 85.4093 71.8328 85.4803C71.8073 85.5513 71.7669 85.6161 71.7142 85.6701C68.9331 89.4662 61.006 105.331 56.2659 114.801C53.6878 119.957 52.3277 122.677 52.0131 123.134C51.1097 124.443 49.1914 125.164 47.3441 125.824C46.3247 126.139 45.3493 126.583 44.4412 127.143C42.3198 128.726 40.8075 132.218 39.9955 134.015C39.5933 134.762 39.3938 135.602 39.4169 136.451C39.4293 136.799 39.5534 137.134 39.7709 137.406C39.9884 137.679 40.2878 137.874 40.6248 137.963C41.3508 137.912 42.0299 137.585 42.5228 137.049L46.7148 133.568C46.7762 133.514 46.8499 133.475 46.9294 133.456C47.009 133.437 47.092 133.437 47.1715 133.456C47.2508 133.475 47.3245 133.512 47.3863 133.565C47.4482 133.618 47.4963 133.685 47.5268 133.761C47.6816 134.294 47.7237 134.854 47.6503 135.404C47.5769 135.955 47.3896 136.484 47.1005 136.958L47.0294 137.141C46.8569 137.526 46.3595 138.856 47.0294 139.435C47.2561 139.611 47.5261 139.723 47.811 139.759C48.9274 139.887 50.0579 139.718 51.088 139.269C52.1181 138.82 53.0114 138.107 53.6777 137.202C54.25 136.53 54.8819 135.912 55.5656 135.354C56.6319 134.569 57.475 133.52 58.0117 132.309C58.6004 130.746 60.2752 128.706 61.889 126.737C63.0205 125.475 64.0394 124.117 64.934 122.677C65.1979 122.17 64.934 121.743 64.3149 120.941C63.6957 120.14 62.9548 119.196 63.8277 118.069L82.2499 94.3179C82.2918 94.2625 82.3442 94.2159 82.4042 94.1808C82.4642 94.1457 82.5305 94.1227 82.5993 94.1133C82.6681 94.1039 82.7382 94.1081 82.8054 94.1258C82.8725 94.1435 82.9356 94.1743 82.9909 94.2164C83.099 94.3041 83.1689 94.4303 83.186 94.5685C83.203 94.7066 83.1658 94.846 83.0822 94.9574L64.5889 118.749C64.2641 119.165 64.4062 119.48 65.0761 120.343C65.746 121.205 66.3956 122.038 65.7866 123.205C64.8723 124.709 63.8262 126.129 62.6604 127.448C61.1985 129.032 59.9527 130.804 58.9557 132.715C58.3567 134.084 57.4123 135.273 56.2152 136.166C55.58 136.681 54.9862 137.244 54.4389 137.851C53.7496 138.747 52.8747 139.482 51.8743 140.008C50.874 140.534 49.7717 140.837 48.6433 140.896Z" fill="#231F20"/>
<path d="M64.8326 56.8441C64.8326 56.8441 67.5832 82.3105 65.198 88.1873C62.5387 94.7645 51.1707 119.388 51.1707 119.388L63.7871 127.245C63.7871 127.245 75.8554 108.416 77.1039 100.672C78.3523 92.9274 64.8326 56.8441 64.8326 56.8441Z" fill="#939393"/>
<path d="M120.302 108.173L119.399 170.088L145.332 200.994L139.699 213.773C139.699 213.773 99.3831 190.54 92.5319 180.979C85.6806 171.417 84.6555 148.367 84.6555 148.367L62.092 171.011L53.4239 214.717L36.1689 213.773C36.1689 213.773 38.3613 183.151 38.3613 169.763C38.3613 156.375 72.4654 110.324 72.4654 110.324L120.302 108.173Z" fill="#CA0C0C"/>
<path d="M53.424 215.225L36.169 214.281C36.036 214.27 35.9124 214.208 35.8239 214.108C35.7785 214.059 35.7434 214.002 35.7207 213.939C35.6981 213.876 35.6883 213.809 35.6919 213.743C35.6919 213.438 37.8843 182.988 37.8843 169.763C37.8843 156.355 70.6891 111.908 72.0898 110.02C72.1334 109.96 72.1897 109.911 72.2547 109.876C72.3197 109.841 72.3916 109.821 72.4654 109.817L120.262 107.665C120.331 107.66 120.4 107.67 120.465 107.695C120.53 107.719 120.589 107.758 120.637 107.807C120.687 107.856 120.725 107.915 120.752 107.98C120.778 108.044 120.791 108.113 120.789 108.183L119.886 169.895L145.698 200.649C145.762 200.719 145.804 200.807 145.819 200.901C145.833 200.995 145.819 201.091 145.779 201.177L140.156 213.976C140.13 214.042 140.089 214.102 140.036 214.149C139.983 214.197 139.92 214.231 139.851 214.25C139.787 214.278 139.718 214.292 139.648 214.292C139.578 214.292 139.509 214.278 139.445 214.25C137.791 213.296 98.967 190.905 92.1157 181.314C86.0257 172.838 84.5134 154.386 84.2089 149.564L62.559 171.255L53.9213 214.819C53.8997 214.934 53.838 215.038 53.7469 215.113C53.6559 215.187 53.5415 215.227 53.424 215.225ZM36.7475 213.296L52.9875 214.189L61.5744 170.91C61.5913 170.811 61.6372 170.719 61.7064 170.646L84.2901 148.001C84.3612 147.932 84.4506 147.885 84.5478 147.865C84.6449 147.845 84.7458 147.854 84.8382 147.89C84.9285 147.925 85.0064 147.986 85.0624 148.066C85.1183 148.145 85.1497 148.239 85.1529 148.336C85.1529 148.559 86.249 171.336 92.9379 180.674C99.2512 189.474 134.857 210.363 139.465 213.042L144.744 201.045L119.013 170.392C118.935 170.298 118.892 170.18 118.891 170.057L119.795 108.69L72.78 110.812C70.3745 114.08 38.9196 157.106 38.9196 169.753C38.9196 182.075 37.0419 209.226 36.7577 213.296H36.7475Z" fill="#231F20"/>
<path d="M119.115 42.9386C105.463 36.0569 70.344 34.1792 65.1979 44.654C61.1379 52.977 73.4904 96.8351 73.4904 96.8351L116.932 105.808C116.932 105.808 125.925 46.3693 119.115 42.9386Z" fill="#939393"/>
<path d="M68.0806 118.424L72.2624 75.4084L121.5 78.6666L120.211 114.303L68.0806 118.424Z" fill="#CA0C0C"/>
<path d="M68.0805 118.932C68.0139 118.932 67.9479 118.919 67.8867 118.893C67.8256 118.867 67.7705 118.828 67.7252 118.779C67.6726 118.727 67.6326 118.663 67.608 118.593C67.5834 118.522 67.5749 118.447 67.5831 118.373L71.7548 75.3577C71.7599 75.2923 71.7779 75.2286 71.8077 75.1702C71.8376 75.1118 71.8787 75.0598 71.9287 75.0174C71.9787 74.9749 72.0366 74.9428 72.0991 74.9228C72.1616 74.9028 72.2274 74.8954 72.2927 74.901L121.53 78.1591C121.661 78.167 121.784 78.2253 121.873 78.3218C121.962 78.4183 122.01 78.5455 122.007 78.6768L120.718 114.324C120.712 114.447 120.661 114.564 120.575 114.654C120.49 114.743 120.375 114.799 120.251 114.811L68.1211 118.932H68.0805ZM72.7089 75.9363L68.6489 117.866L119.724 113.806L120.982 79.1031L72.7089 75.9363Z" fill="#CA0C0C"/>
<path d="M87.2843 36.0874L88.2181 45.2224C88.2181 45.2224 90.38 50.1045 96.0437 47.6584C97.67 46.9549 99.0691 45.8139 100.085 44.3623C101.101 42.9108 101.695 41.2057 101.799 39.4369L99.9921 23.004C99.9921 23.004 95.2114 21.4206 94.8663 11.6868C94.8663 11.6868 89.1824 11.6868 80.2098 12.1029C80.2098 12.1029 78.9714 27.2366 80.4736 31.6924C81.9758 36.1483 87.2843 36.0874 87.2843 36.0874Z" fill="#FFC9B0"/>
<path d="M93.0597 48.9068C91.9449 48.8782 90.8595 48.5441 89.9216 47.9409C88.9837 47.3378 88.2295 46.4887 87.7411 45.4862C87.7364 45.4322 87.7364 45.3779 87.7411 45.3238L86.8479 36.5948C85.437 36.4933 81.3364 35.8437 80.0169 31.9157C78.5046 27.4091 79.6718 12.7423 79.7226 12.113C79.7348 11.9855 79.7931 11.8667 79.8865 11.7789C79.9798 11.6911 80.102 11.6403 80.2301 11.636C89.1113 11.2503 94.8461 11.2198 94.907 11.2198C95.0435 11.2197 95.1748 11.2726 95.2732 11.3672C95.3716 11.4618 95.4295 11.5909 95.4348 11.7273C95.7596 20.9841 100.155 22.5472 100.205 22.5574C100.3 22.591 100.384 22.6507 100.447 22.7297C100.51 22.8087 100.549 22.9037 100.561 23.004L102.327 39.3962C102.22 41.2776 101.594 43.0926 100.519 44.6404C99.4443 46.1882 97.9621 47.4084 96.2366 48.1658C95.2387 48.6252 94.1579 48.8773 93.0597 48.9068V48.9068ZM88.7358 45.1208C89.02 45.6994 91.0297 49.2925 95.8408 47.2219C97.3786 46.5626 98.7023 45.4877 99.6633 44.118C100.624 42.7482 101.185 41.1377 101.281 39.4673L99.5049 23.41C98.3884 22.8619 94.7953 20.4766 94.369 12.245C92.8161 12.245 87.8121 12.3363 80.697 12.6408C80.5041 15.1986 79.682 27.6831 80.971 31.5604C82.2601 35.4377 87.061 35.5595 87.2742 35.5494C87.4063 35.5507 87.5335 35.5997 87.6323 35.6874C87.7312 35.775 87.795 35.8954 87.8121 36.0264L88.7358 45.1208Z" fill="#231F20"/>
<path d="M98.2362 23.3491C98.2977 22.5044 98.6326 21.7028 99.1903 21.0654C100.571 19.4921 103.463 18.3959 104.773 20.5985C106.864 24.1205 103.108 28.6576 99.302 27.7035" fill="#FFC9B0"/>
<path d="M100.347 28.353C99.9534 28.3524 99.5611 28.3012 99.1801 28.2008C99.1132 28.1853 99.05 28.1567 98.9942 28.1165C98.9385 28.0764 98.8913 28.0255 98.8554 27.967C98.8195 27.9084 98.7956 27.8432 98.7852 27.7754C98.7747 27.7075 98.7778 27.6382 98.7944 27.5715C98.8111 27.5042 98.8408 27.4408 98.8819 27.3849C98.9231 27.3291 98.9748 27.2819 99.0342 27.2461C99.0936 27.2103 99.1594 27.1865 99.228 27.1762C99.2966 27.1658 99.3665 27.1691 99.4338 27.1858C100.278 27.3612 101.155 27.2833 101.955 26.9619C102.755 26.6405 103.442 26.0898 103.93 25.3791C104.447 24.7576 104.763 23.9931 104.833 23.1877C104.904 22.3823 104.727 21.5746 104.326 20.8725C104.18 20.592 103.966 20.3524 103.703 20.1752C103.441 19.998 103.139 19.8888 102.824 19.8575C102.207 19.8648 101.598 20.0046 101.04 20.2672C100.481 20.5299 99.9855 20.9093 99.5861 21.38C99.1022 21.9325 98.8102 22.6269 98.7538 23.3592C98.75 23.4282 98.7324 23.4956 98.7021 23.5577C98.6718 23.6197 98.6294 23.6751 98.5773 23.7205C98.5253 23.7659 98.4647 23.8004 98.3992 23.822C98.3336 23.8437 98.2644 23.852 98.1955 23.8464C98.0573 23.836 97.9287 23.7716 97.8375 23.6672C97.7464 23.5627 97.7 23.4266 97.7084 23.2882C97.7821 22.3279 98.1629 21.4169 98.7944 20.6898C99.3005 20.0906 99.9341 19.612 100.649 19.2888C101.363 18.9657 102.141 18.8063 102.925 18.8222C103.398 18.8674 103.853 19.0293 104.248 19.2932C104.643 19.5571 104.966 19.9149 105.189 20.3345C105.69 21.2166 105.915 22.2286 105.836 23.24C105.756 24.2513 105.375 25.2156 104.742 26.0084C104.24 26.7117 103.582 27.2892 102.82 27.696C102.057 28.1027 101.211 28.3276 100.347 28.353V28.353Z" fill="#231F20"/>
<path d="M87.731 40.4823C89.6885 39.951 91.4375 38.8357 92.7451 37.285C93.289 36.7063 93.6696 35.9936 93.8479 35.2197C94.0263 34.4457 93.9959 33.6383 93.7601 32.8799C92.9738 33.8577 91.983 34.6515 90.8573 35.2056C89.7315 35.7596 88.4982 36.0606 87.2438 36.0873L87.731 40.4823Z" fill="#231F20"/>
<path d="M87.7309 40.9898C87.6239 40.9915 87.5198 40.9556 87.4366 40.8883C87.3795 40.8469 87.3319 40.7938 87.2969 40.7325C87.2619 40.6713 87.2403 40.6033 87.2336 40.5331L86.787 36.1381C86.7798 36.0665 86.7879 35.9941 86.8108 35.9258C86.8337 35.8576 86.8708 35.7949 86.9198 35.7421C86.9688 35.6893 87.0284 35.6476 87.0948 35.6196C87.1611 35.5916 87.2327 35.5781 87.3046 35.5799H87.4873C88.6317 35.514 89.7496 35.209 90.7688 34.6846C91.788 34.1601 92.686 33.4278 93.4048 32.5349C93.4576 32.4631 93.529 32.4072 93.6113 32.3732C93.6936 32.3392 93.7837 32.3284 93.8717 32.342C93.962 32.3555 94.0471 32.3927 94.1184 32.4497C94.1897 32.5068 94.2447 32.5817 94.2777 32.6668C94.5439 33.5141 94.577 34.4175 94.3734 35.2819C94.1698 36.1464 93.737 36.94 93.1206 37.5794C91.7432 39.2141 89.8974 40.3867 87.8324 40.9391L87.7309 40.9898ZM87.8426 36.5847L88.1775 39.8327C89.794 39.2378 91.2354 38.2466 92.3695 36.9501C92.7459 36.5549 93.0388 36.0879 93.2307 35.5769C93.4225 35.0659 93.5093 34.5215 93.486 33.9762C91.9843 35.5026 89.9782 36.4299 87.8426 36.5847V36.5847Z" fill="#231F20"/>
<path d="M85.711 28.5357C85.2304 28.5635 84.7556 28.4196 84.3712 28.1297C83.4171 27.338 84.6656 24.2118 85.8734 21.7454C85.9327 21.6242 86.0376 21.5316 86.1651 21.4878C86.2926 21.444 86.4324 21.4527 86.5535 21.5119C86.6746 21.5712 86.7673 21.6761 86.8111 21.8036C86.8549 21.9311 86.8462 22.0708 86.7869 22.192C85.6501 24.5163 84.8381 26.9422 85.0513 27.3888C85.437 27.7034 86.6651 27.3888 87.3553 27.1655C87.4165 27.1391 87.4824 27.1252 87.549 27.1248C87.6157 27.1243 87.6817 27.1372 87.7432 27.1628C87.8048 27.1884 87.8606 27.226 87.9073 27.2736C87.954 27.3211 87.9906 27.3775 88.0151 27.4395C88.0656 27.5634 88.0651 27.7022 88.0138 27.8258C87.9625 27.9493 87.8645 28.0476 87.741 28.0993C87.0943 28.3599 86.4077 28.5075 85.711 28.5357V28.5357Z" fill="#231F20"/>
<path d="M81.8338 21.6845C82.1477 21.6845 82.4022 21.0256 82.4022 20.2128C82.4022 19.3999 82.1477 18.741 81.8338 18.741C81.5199 18.741 81.2654 19.3999 81.2654 20.2128C81.2654 21.0256 81.5199 21.6845 81.8338 21.6845Z" fill="#231F20"/>
<path d="M90.7658 21.6845C91.0797 21.6845 91.3342 21.0256 91.3342 20.2128C91.3342 19.3999 91.0797 18.741 90.7658 18.741C90.4519 18.741 90.1974 19.3999 90.1974 20.2128C90.1974 21.0256 90.4519 21.6845 90.7658 21.6845Z" fill="#231F20"/>
<path d="M87.6498 32.0274C86.4616 32.0325 85.2916 31.7356 84.2495 31.1646C84.1929 31.1293 84.1437 31.0832 84.1049 31.0289C84.0661 30.9745 84.0384 30.9131 84.0233 30.8481C84.0082 30.7831 84.0061 30.7157 84.017 30.6498C84.028 30.584 84.0518 30.5209 84.0871 30.4643C84.1224 30.4076 84.1686 30.3585 84.2229 30.3197C84.2772 30.2809 84.3386 30.2531 84.4037 30.238C84.4687 30.223 84.5361 30.2208 84.6019 30.2318C84.6678 30.2427 84.7308 30.2666 84.7875 30.3019C85.8337 30.8703 87.0262 31.1122 88.2112 30.9964C89.3962 30.8806 90.5193 30.4125 91.4357 29.6523C91.4885 29.611 91.5491 29.5807 91.6139 29.5634C91.6786 29.5461 91.7462 29.5421 91.8126 29.5516C91.879 29.561 91.9427 29.5839 92.0001 29.6186C92.0574 29.6533 92.1071 29.6993 92.1462 29.7538C92.2281 29.8602 92.2644 29.9947 92.2473 30.1279C92.2302 30.2611 92.161 30.382 92.0549 30.4643C90.8048 31.4672 89.2524 32.0181 87.6498 32.0274Z" fill="#231F20"/>
<path d="M127.011 101.849L104.681 127.884C104.681 127.884 106.336 135.557 104.803 136.288C103.271 137.019 95.3637 139.597 94.1457 137.567C93.4054 136.145 93.1219 134.528 93.3337 132.939L91.3037 132.786C91.3037 132.786 90.5222 129.518 92.1056 127.579C93.689 125.641 115.146 96.9163 115.146 96.9163" fill="#FFC9B0"/>
<path d="M96.4092 138.866C95.1506 138.866 94.1356 138.592 93.6991 137.851C92.9656 136.498 92.6379 134.961 92.7552 133.426L91.2327 133.324C91.122 133.314 91.0173 133.27 90.9335 133.197C90.8497 133.124 90.791 133.027 90.7658 132.918C90.7658 132.776 89.9335 129.376 91.6793 127.255C93.2424 125.346 114.486 96.9061 114.699 96.6118C114.787 96.5134 114.909 96.4515 115.04 96.4383C115.172 96.4251 115.303 96.4616 115.409 96.5406C115.515 96.6196 115.587 96.7353 115.612 96.865C115.636 96.9947 115.611 97.1288 115.542 97.2411C114.659 98.4185 94.0645 125.986 92.4811 127.925C91.3748 129.274 91.5778 131.447 91.7097 132.309L93.3642 132.421C93.4367 132.426 93.5074 132.445 93.5721 132.478C93.6367 132.511 93.6938 132.558 93.7397 132.614C93.7842 132.671 93.8169 132.736 93.8361 132.806C93.8553 132.875 93.8604 132.948 93.8514 133.02C93.6523 134.49 93.911 135.985 94.5923 137.303C95.4754 138.775 102.53 136.785 104.58 135.821C105.179 135.537 104.986 131.761 104.164 128.006C104.148 127.928 104.15 127.847 104.169 127.77C104.189 127.693 104.225 127.621 104.275 127.559L126.605 101.524C126.65 101.472 126.705 101.43 126.766 101.399C126.827 101.368 126.893 101.349 126.962 101.344C127.03 101.339 127.099 101.347 127.164 101.369C127.229 101.39 127.289 101.424 127.341 101.469C127.393 101.513 127.436 101.568 127.467 101.629C127.498 101.69 127.516 101.757 127.522 101.825C127.527 101.893 127.518 101.962 127.497 102.027C127.476 102.092 127.442 102.152 127.397 102.204L105.23 128.036C105.767 130.594 106.681 135.984 105.016 136.765C104.336 137.08 99.5963 138.866 96.4092 138.866Z" fill="#231F20"/>
<path d="M119.115 42.9386C119.115 42.9386 143.221 76.6671 143.475 82.9499C143.728 89.2328 111.472 122.098 111.472 122.098L98.6117 112.101C98.6117 112.101 121.469 83.8837 121.043 81.1026C120.617 78.3215 106.072 58.6813 106.072 58.6813C106.072 58.6813 107.219 45.811 119.115 42.9386Z" fill="#939393"/>
<path d="M77.1039 78.8087C77.1039 78.8087 73.7747 54.6212 77.7839 37.9955L83.3867 37.4474C83.3867 37.4474 80.829 54.5096 83.2548 80.6661L77.1039 78.8087Z" fill="#CA0C0C"/>
<path d="M83.2751 81.1736C83.2282 81.1832 83.1799 81.1832 83.133 81.1736L76.9516 79.3162C76.8603 79.2888 76.7785 79.2361 76.7156 79.1643C76.6528 79.0925 76.6115 79.0044 76.5964 78.9102C76.5964 78.6666 73.3078 54.469 77.3171 37.9042C77.3438 37.8032 77.4011 37.713 77.481 37.6458C77.5609 37.5786 77.6596 37.5377 77.7637 37.5286L83.3563 36.9805C83.4327 36.972 83.5101 36.9813 83.5823 37.0078C83.6545 37.0342 83.7196 37.077 83.7725 37.1328C83.8237 37.1903 83.862 37.2581 83.8847 37.3316C83.9075 37.4051 83.9142 37.4827 83.9044 37.5591C83.9044 37.7316 81.3872 54.8141 83.7826 80.6458C83.7908 80.728 83.7784 80.811 83.7465 80.8872C83.7146 80.9634 83.6642 81.0304 83.5999 81.0823C83.5064 81.1513 83.3909 81.1838 83.2751 81.1736ZM77.5607 78.4128L82.7067 79.9658C80.6767 57.2399 82.4022 41.3247 82.8183 38.0158L78.2204 38.4624C74.6273 53.7889 77.1953 75.5201 77.5607 78.4128Z" fill="black"/>
<path d="M105.696 38.6553C101.871 53.3501 99.9503 68.4758 99.982 83.6604L106.133 83.092C106.133 83.092 105.696 61.1578 112.294 40.6142L105.696 38.6553Z" fill="#CA0C0C"/>
<path d="M99.9819 84.1679C99.9202 84.1692 99.8587 84.1582 99.8012 84.1355C99.7437 84.1129 99.6913 84.079 99.647 84.036C99.5925 83.9898 99.5487 83.9323 99.5189 83.8674C99.4891 83.8025 99.4739 83.7318 99.4744 83.6604C99.4603 68.4301 101.38 53.2597 105.189 38.5132C105.231 38.3857 105.317 38.2776 105.432 38.2087C105.557 38.1637 105.694 38.1637 105.818 38.2087L112.406 40.1677C112.471 40.1874 112.531 40.22 112.584 40.2636C112.636 40.3072 112.679 40.3608 112.71 40.4214C112.737 40.4822 112.751 40.5478 112.751 40.6142C112.751 40.6807 112.737 40.7464 112.71 40.8071C106.224 61.0361 106.569 82.8992 106.62 83.1225C106.621 83.2498 106.575 83.373 106.491 83.4685C106.406 83.564 106.29 83.6251 106.163 83.6401L100.012 84.2085L99.9819 84.1679ZM106.072 39.2846C102.425 53.6099 100.556 68.33 100.51 83.1123L105.646 82.6353C105.646 79.3568 105.818 59.5542 111.665 40.9594L106.072 39.2846Z" fill="black"/>
<path d="M104.225 16.5385C104.225 16.8328 82.0165 17.046 75.8047 17.0967C75.6037 17.0868 75.4075 17.0321 75.2304 16.9366C75.0533 16.8411 74.8997 16.7072 74.781 16.5447C74.6623 16.3822 74.5814 16.1953 74.5443 15.9975C74.5072 15.7997 74.5147 15.5961 74.5664 15.4017V15.4017C74.6277 15.1193 74.7822 14.8658 75.0049 14.6817C75.2276 14.4976 75.5057 14.3937 75.7946 14.3867H79.1948C79.1948 14.3867 78.2915 3.04911 89.9132 1.52661C101.535 0.0041136 104.174 10.0628 104.225 16.5385Z" fill="#2A9763"/>
<path d="M75.7539 17.6245C75.4925 17.622 75.2349 17.5616 74.9997 17.4475C74.7645 17.3334 74.5576 17.1685 74.3938 16.9648C74.2069 16.7332 74.0757 16.4616 74.0106 16.1712C73.9455 15.8808 73.9481 15.5792 74.0183 15.29C74.0953 14.8839 74.31 14.5168 74.6261 14.2505C74.9423 13.9843 75.3406 13.8352 75.7539 13.8284H78.6162C78.6162 11.4533 79.347 2.3386 89.7812 0.968349C93.9021 0.430399 97.2618 1.2627 99.7891 3.4551C104.133 7.2106 104.692 13.8487 104.722 16.5384C104.722 16.6787 104.668 16.8134 104.57 16.914C104.346 17.1474 104.113 17.3809 75.7438 17.6245H75.7539ZM75.7539 14.8738C75.5796 14.8846 75.414 14.9534 75.2833 15.0693C75.1527 15.1852 75.0647 15.3415 75.0333 15.5133C75.0036 15.6506 75.0045 15.7927 75.0361 15.9296C75.0677 16.0664 75.1291 16.1946 75.216 16.305C75.2785 16.389 75.3596 16.4575 75.4529 16.505C75.5462 16.5525 75.6492 16.5779 75.7539 16.579V16.579C91.1312 16.4471 101.545 16.2644 103.677 16.102C103.585 13.331 102.915 7.5354 99.1192 4.2468C96.8253 2.26755 93.7397 1.5063 89.9842 2.0138C79.0019 3.44495 79.682 13.869 79.7226 14.3054C79.7267 14.3778 79.7161 14.4502 79.6916 14.5183C79.667 14.5865 79.629 14.6489 79.5797 14.702C79.5304 14.7551 79.4709 14.7977 79.4048 14.8272C79.3386 14.8567 79.2672 14.8726 79.1948 14.8738H75.7539Z" fill="#231F20"/>
<path d="M83.5796 14.346C83.5796 14.346 83.1838 7.69779 85.6096 3.45509C87.2235 0.582638 91.6996 -0.0974115 92.7857 1.12059C93.4657 1.88184 90.5121 3.26224 89.6493 6.69294C89.2554 9.22517 89.0518 11.7834 89.0403 14.346" fill="#2A9763"/>
<path d="M83.5795 14.8739C83.4457 14.874 83.317 14.8222 83.2205 14.7295C83.124 14.6368 83.0672 14.5102 83.0619 14.3765C83.0619 14.1025 82.6864 7.52526 85.0919 3.21151C85.6556 2.33488 86.4105 1.5973 87.3 1.05412C88.1895 0.510928 89.1905 0.176237 90.2278 0.0751555C90.7314 -0.0330232 91.2531 -0.0243146 91.7528 0.100613C92.2525 0.225541 92.717 0.463363 93.1104 0.795805C93.7296 1.47585 93.1104 2.20666 92.3898 2.97806C91.3111 4.0529 90.5219 5.38325 90.0959 6.84521C89.7107 9.33743 89.5106 11.8547 89.497 14.3765C89.5 14.4461 89.4883 14.5156 89.4627 14.5805C89.4371 14.6453 89.3981 14.704 89.3484 14.7528C89.2986 14.8017 89.2391 14.8395 89.1738 14.8638C89.1085 14.8881 89.0388 14.8985 88.9692 14.8942C88.831 14.8915 88.6993 14.8347 88.6025 14.736C88.5057 14.6373 88.4515 14.5046 88.4516 14.3664C88.4597 11.759 88.6701 9.15614 89.0809 6.5813C89.5479 4.95999 90.4173 3.48308 91.6082 2.28786C91.8584 2.0259 92.0828 1.74037 92.2781 1.43526C91.6936 1.0926 91.0023 0.980401 90.3394 1.12061C89.4666 1.19879 88.623 1.47422 87.8722 1.92611C87.1214 2.37799 86.4831 2.99452 86.0054 3.72916C83.7014 7.78916 84.0566 14.275 84.0566 14.3359C84.065 14.4743 84.0186 14.6104 83.9274 14.7149C83.8363 14.8194 83.7077 14.8837 83.5694 14.8942L83.5795 14.8739Z" fill="#231F20"/>
<path d="M103.291 14.8536H79.1542C79.0196 14.8536 78.8906 14.8001 78.7954 14.7049C78.7002 14.6097 78.6467 14.4807 78.6467 14.3461C78.6467 14.2115 78.7002 14.0824 78.7954 13.9872C78.8906 13.892 79.0196 13.8386 79.1542 13.8386H103.291C103.426 13.8386 103.555 13.892 103.65 13.9872C103.745 14.0824 103.798 14.2115 103.798 14.3461C103.798 14.4807 103.745 14.6097 103.65 14.7049C103.555 14.8001 103.426 14.8536 103.291 14.8536Z" fill="#231F20"/>
<path d="M72.2521 75.9363C72.1342 75.9339 72.0207 75.8914 71.9302 75.8157C71.8398 75.74 71.7779 75.6357 71.7548 75.5201C71.6228 74.7792 68.5575 57.2501 70.0699 48.3181C70.0946 48.1858 70.17 48.0684 70.2799 47.9907C70.3898 47.913 70.5256 47.8812 70.6586 47.902C70.7909 47.9267 70.9083 48.0021 70.986 48.112C71.0637 48.2219 71.0955 48.3577 71.0747 48.4907C69.5827 57.2501 72.7292 75.1547 72.7596 75.3374C72.7713 75.4034 72.7697 75.4711 72.7551 75.5365C72.7404 75.6019 72.7129 75.6638 72.6742 75.7185C72.6356 75.7732 72.5864 75.8198 72.5296 75.8554C72.4729 75.891 72.4096 75.9151 72.3435 75.9261L72.2521 75.9363Z" fill="#231F20"/>
<path d="M121.074 81.6101C120.988 81.6119 120.904 81.5913 120.829 81.5503C120.755 81.5094 120.692 81.4495 120.647 81.3767L110.406 65.4818C110.334 65.3686 110.309 65.2314 110.337 65.1001C110.366 64.9688 110.445 64.8542 110.558 64.7814C110.613 64.7427 110.676 64.7158 110.742 64.7025C110.808 64.6892 110.876 64.6897 110.942 64.704C111.008 64.7183 111.07 64.7461 111.124 64.7856C111.179 64.8252 111.225 64.8756 111.259 64.9337L121.5 80.8286C121.572 80.9417 121.597 81.0789 121.569 81.2102C121.54 81.3415 121.461 81.4561 121.348 81.5289C121.265 81.5802 121.171 81.6082 121.074 81.6101V81.6101Z" fill="#231F20"/>
<path d="M90.9789 111.126C90.5323 111.126 90.0756 111.126 89.629 111.065C85.9736 110.739 82.5904 108.998 80.2011 106.212C77.8119 103.426 76.6057 99.8175 76.84 96.1551L77.6215 83.1834C77.623 83.1127 77.6402 83.0433 77.6718 82.9801C77.7034 82.9169 77.7486 82.8616 77.8042 82.818C77.8578 82.7746 77.9196 82.7424 77.9858 82.7232C78.0521 82.7041 78.1215 82.6983 78.1899 82.7063L105.189 85.9442C105.317 85.9571 105.436 86.0193 105.519 86.1178C105.602 86.2163 105.644 86.3433 105.636 86.472L105.077 97.708C104.893 101.325 103.328 104.733 100.704 107.229C98.0813 109.726 94.6002 111.121 90.9789 111.126ZM78.5959 83.7822L77.8651 96.2363C77.7705 97.9551 78.0153 99.6757 78.5856 101.3C79.156 102.924 80.0406 104.42 81.1891 105.702C82.3375 106.985 83.7273 108.028 85.279 108.773C86.8308 109.518 88.5141 109.951 90.2329 110.045C91.9517 110.14 93.6723 109.895 95.2965 109.325C96.9207 108.755 98.4166 107.87 99.6989 106.721C100.981 105.573 102.025 104.183 102.77 102.631C103.515 101.08 103.947 99.3964 104.042 97.6776L104.58 86.9186L78.5959 83.7822Z" fill="black"/>
<path d="M57.8594 199.015L35.1539 195.341L34.2099 228.298C34.2099 228.298 20.3653 232.794 20.4871 235.291C20.6597 238.966 52.2262 237.453 52.2262 237.453L57.8594 199.015Z" fill="#939393"/>
<path d="M38.7166 238.336H36.443C20.1319 238.164 20.0304 236.215 20 235.383C20 234.713 20.8627 232.195 33.7228 227.973L34.6667 195.381C34.6686 195.307 34.6868 195.234 34.7202 195.167C34.7535 195.1 34.8011 195.042 34.8596 194.996C34.9178 194.95 34.9847 194.917 35.0562 194.897C35.1278 194.878 35.2024 194.874 35.2757 194.884L57.9407 198.558C58.008 198.568 58.0728 198.591 58.1312 198.626C58.1896 198.661 58.2405 198.708 58.281 198.762C58.3216 198.817 58.3509 198.879 58.3674 198.945C58.3839 199.011 58.3872 199.08 58.3771 199.147L52.7743 237.585C52.7576 237.706 52.6985 237.818 52.6074 237.9C52.5164 237.981 52.3993 238.028 52.277 238.032C52.2059 237.981 45.7404 238.336 38.7166 238.336ZM35.6716 196.001L34.7378 228.359C34.7354 228.467 34.7001 228.571 34.6366 228.658C34.5731 228.745 34.4844 228.811 34.3825 228.846C27.9068 230.947 20.9642 234.023 21.0251 235.322C21.0251 235.504 21.5326 237.118 36.4328 237.281C43.2029 237.342 50.0237 237.078 51.7796 236.996L57.2505 199.492L35.6716 196.001Z" fill="#231F20"/>
<path d="M132.056 182.867L117.115 201.857L141.12 220.574C141.12 220.574 136.654 231.292 137.882 232.754C139.11 234.215 158.548 214.748 158.548 214.748L132.056 182.867Z" fill="#939393"/>
<path d="M138.075 233.322C137.863 233.315 137.662 233.224 137.517 233.068C136.258 231.607 139.07 224.238 140.511 220.746L116.821 202.273C116.766 202.231 116.72 202.177 116.687 202.116C116.654 202.055 116.633 201.987 116.628 201.918C116.61 201.781 116.647 201.643 116.73 201.532L131.64 182.511C131.688 182.449 131.75 182.399 131.82 182.364C131.89 182.329 131.967 182.31 132.046 182.308C132.201 182.319 132.345 182.388 132.452 182.501L158.984 214.382C159.072 214.479 159.121 214.606 159.121 214.737C159.121 214.869 159.072 214.996 158.984 215.093C154.64 219.376 140.501 233.322 138.075 233.322ZM117.846 201.796L141.445 220.198C141.532 220.27 141.595 220.367 141.624 220.476C141.654 220.586 141.648 220.701 141.607 220.807C139.374 226.166 137.882 231.231 138.217 232.277C140.003 231.769 149.382 223.142 157.847 214.717L132.066 183.729L117.846 201.796Z" fill="#231F20"/>
<path d="M54.6723 206.658H54.5911L36.1689 203.938C36.0367 203.915 35.9185 203.843 35.839 203.735C35.7594 203.627 35.7249 203.492 35.7426 203.359C35.7512 203.294 35.7729 203.231 35.8063 203.173C35.8398 203.116 35.8843 203.066 35.9372 203.027C35.9901 202.987 36.0505 202.958 36.1146 202.942C36.1788 202.926 36.2456 202.923 36.311 202.933L54.7637 205.643C54.8983 205.653 55.0236 205.715 55.1121 205.817C55.2006 205.919 55.2451 206.052 55.2356 206.186C55.2262 206.321 55.1637 206.446 55.0619 206.535C54.96 206.623 54.8272 206.668 54.6926 206.658H54.6723Z" fill="#D1D3D4"/>
<path d="M53.9619 210.657H53.901L36.5547 208.343C36.4201 208.324 36.2985 208.253 36.2166 208.144C36.1348 208.036 36.0994 207.899 36.1182 207.764C36.1371 207.63 36.2086 207.508 36.3171 207.426C36.4256 207.345 36.5622 207.309 36.6968 207.328L54.033 209.642C54.1676 209.652 54.2929 209.714 54.3814 209.816C54.4699 209.918 54.5144 210.051 54.505 210.185C54.4955 210.32 54.433 210.445 54.3312 210.534C54.2294 210.622 54.0965 210.667 53.9619 210.657V210.657Z" fill="#D1D3D4"/>
<path d="M126.27 205.298C126.157 205.293 126.047 205.254 125.956 205.186C125.851 205.103 125.784 204.981 125.769 204.848C125.754 204.715 125.792 204.581 125.875 204.476L136.451 191.047C136.487 190.984 136.537 190.93 136.596 190.888C136.655 190.846 136.722 190.817 136.794 190.803C136.865 190.789 136.938 190.791 137.009 190.808C137.08 190.825 137.146 190.857 137.203 190.901C137.26 190.946 137.307 191.003 137.341 191.067C137.374 191.132 137.393 191.202 137.397 191.275C137.401 191.347 137.389 191.42 137.362 191.488C137.336 191.555 137.295 191.616 137.243 191.667L126.676 205.105C126.627 205.165 126.565 205.213 126.495 205.246C126.424 205.279 126.348 205.297 126.27 205.298V205.298Z" fill="#D1D3D4"/>
<path d="M129.711 206.658C129.592 206.658 129.477 206.615 129.387 206.536C129.284 206.448 129.221 206.323 129.209 206.188C129.198 206.054 129.24 205.92 129.326 205.816L139.019 194.275C139.109 194.189 139.228 194.14 139.353 194.137C139.478 194.133 139.599 194.175 139.695 194.256C139.79 194.336 139.852 194.448 139.87 194.572C139.888 194.695 139.859 194.821 139.79 194.925L130.097 206.475C130.049 206.531 129.989 206.575 129.923 206.607C129.857 206.638 129.785 206.656 129.711 206.658V206.658Z" fill="#D1D3D4"/>
<path d="M5.25744 123.472C6.39439 124.134 7.64435 124.618 8.15255 124.506C8.58816 124.409 10.5655 121.99 12.4302 119.063C15.9253 113.871 15.9979 113.855 18.3286 114.404C19.619 114.728 20.6916 115.099 20.7398 115.317C20.772 115.462 19.1495 118.107 17.0831 121.155C13.9109 125.743 12.6914 128.831 14.0708 128.525C14.2886 128.477 15.9595 126.05 17.8081 123.051C20.3104 119.221 21.6501 117.705 22.5857 117.802C23.626 118.029 23.2545 119.101 20.4292 123.536C16.7725 129.374 16.4814 130.809 18.9327 132.246C20.9244 133.328 22.2795 133.256 24.7321 131.951C26.6523 130.992 27.4183 131.355 37.6183 137.853C47.0201 143.843 48.8022 144.666 50.835 144.216C52.5048 143.846 53.5377 143.007 54.4661 141.354C56.4441 137.564 55.5174 135.789 49.5265 131.786C44.8661 128.63 44.2695 128 45.0363 126.992C46.4003 125.243 45.651 123.581 42.8288 121.845C41.9999 121 41.4999 121 40.9999 120C40.6293 119.016 38.4838 118.621 37.9999 118.5C37.3143 118.5 36.8876 119.112 37.4999 120.5C38.5875 123.001 37.5934 123.311 35.4322 122.495C33.1257 121.711 33.0216 120.211 35.0079 116.115C36.9862 111.639 37.027 110.792 34.8421 108.839C33.133 107.314 29.4998 108.5 27.9998 110.5C26.4998 113.5 27.0949 116.406 30.8357 110.339C31.6425 109.855 32.6559 109.628 33.5751 110.339C35.0103 111.315 34.9295 111.638 33.048 115.864C31.9176 118.323 31.1097 120.863 31.2385 121.444C31.3672 122.025 36.2855 125.657 42.1555 129.459C50.3477 134.803 52.9439 136.893 53.2658 138.345C53.7003 140.305 52.2798 142.144 49.9566 142.659C49.2306 142.82 43.6103 139.8 37.4903 135.901C26.4355 128.983 26.2581 128.87 24.1846 130.168C22.1675 131.377 18.9412 131.254 18.6515 129.947C18.6032 129.729 20.9282 125.786 23.7373 121.279L28.9923 113.03L23.211 109.285C18.0667 106.008 14.0024 104.167 12.5504 104.488C12.3326 104.537 9.95152 107.883 7.33618 111.89C2.14591 119.744 1.8466 121.486 5.25744 123.472Z" fill="black"/>
<path d="M32.5 109L30 110L18 130L20.9999 132L25.9999 130.5L50.4999 143.5L54 141L54 137L32 121L35.5 111L32.5 109Z" fill="black"/>
</svg>
