<svg width="101" height="214" viewBox="0 0 101 214" fill="none" xmlns="http://www.w3.org/2000/svg">
<path d="M65.348 38.1793C65.348 38.1793 82.8771 75.3689 85.2217 80.7383C87.5664 86.1076 77.1728 98.5312 73.1432 95.5065C69.1137 92.4818 65.348 38.1793 65.348 38.1793Z" fill="#231F20"/>
<path d="M25.0525 196.235C25.0525 196.235 24.3623 200.732 25.3976 202.467C26.8124 204.905 27.6525 207.634 27.8539 210.445C27.0239 211.371 26.011 212.116 24.8789 212.631C23.7469 213.146 22.5204 213.422 21.2767 213.439C17.1254 213.439 12.974 210.323 12.5071 208.831C12.0402 207.339 15.8566 191.414 15.8566 191.414L25.0525 196.235Z" fill="black"/>
<path d="M21.2463 213.937C16.7905 213.937 12.5173 210.668 11.9997 208.963C11.5226 207.41 14.6894 193.962 15.3289 191.282C15.3487 191.207 15.3844 191.138 15.4334 191.078C15.4825 191.019 15.5437 190.971 15.6131 190.937C15.6824 190.902 15.7588 190.884 15.8364 190.884C15.9139 190.884 15.9904 190.902 16.0597 190.937L25.286 195.778C25.3806 195.827 25.4572 195.904 25.5047 195.999C25.5522 196.094 25.568 196.202 25.5499 196.306C25.3672 197.504 25.0627 200.904 25.8341 202.193C27.2732 204.674 28.124 207.452 28.3209 210.313C28.3306 210.38 28.3256 210.448 28.3063 210.513C28.2871 210.578 28.2539 210.638 28.2092 210.689C27.3433 211.691 26.2752 212.498 25.0752 213.058C23.8752 213.617 22.5703 213.917 21.2463 213.937V213.937ZM16.1713 192.155C14.4052 199.605 12.7102 207.755 12.9639 208.669C13.3496 209.897 17.298 212.922 21.2463 212.922C22.3877 212.909 23.5149 212.667 24.5611 212.21C25.6072 211.753 26.5509 211.091 27.3363 210.262C27.1384 207.609 26.3439 205.035 25.012 202.731C24.0579 201.138 24.3928 197.656 24.5552 196.53L16.1713 192.155Z" fill="#231F20"/>
<path d="M60.3339 95.2832L40.3282 100.825L35.6998 43.0311C35.6998 43.0311 52.2139 39.1132 56.2739 40.9402C60.3339 42.7672 60.3339 95.2832 60.3339 95.2832Z" fill="#231F20"/>
<path d="M40.3282 101.333C40.2241 101.327 40.1229 101.296 40.0339 101.241C39.9734 101.198 39.9231 101.142 39.8863 101.077C39.8495 101.012 39.8271 100.94 39.8207 100.866L35.1923 43.0716C35.1798 42.9515 35.2123 42.831 35.2835 42.7335C35.3548 42.6359 35.4598 42.5684 35.578 42.5439C36.2581 42.3815 52.3357 38.5955 56.4566 40.5139C60.5775 42.4322 60.8109 86.4934 60.8211 95.3239C60.8222 95.4354 60.7858 95.5441 60.7177 95.6325C60.6496 95.7208 60.5537 95.7837 60.4455 95.811L40.4602 101.353L40.3282 101.333ZM36.2682 43.4777L40.8154 100.226L59.8365 94.9585C59.8365 69.7763 58.4561 42.5641 56.0607 41.4679C52.5793 39.8236 38.826 42.8382 36.2378 43.4269L36.2682 43.4777Z" fill="#231F20"/>
<path d="M53.6552 186.867V200.397L60.1106 202.244L59.9583 199.473L62.8815 202.396C62.8815 202.396 80.2278 205.512 80.1365 203.208C80.0451 200.904 78.2892 199.625 76.0765 198.478C73.7318 197.24 67.5505 193.748 67.5505 193.748L66.6268 183.832" fill="#231F20"/>
<path d="M76.9088 204.548C72.1695 204.33 67.4515 203.777 62.7902 202.894C62.6856 202.878 62.5892 202.828 62.5161 202.751L60.4861 200.772L60.5673 202.214C60.5726 202.295 60.5578 202.376 60.5242 202.451C60.4905 202.525 60.4391 202.59 60.3745 202.64C60.312 202.692 60.2375 202.728 60.1577 202.744C60.0779 202.76 59.9954 202.755 59.9177 202.731L53.4623 200.884C53.3569 200.853 53.2643 200.789 53.1984 200.701C53.1325 200.613 53.0969 200.506 53.0969 200.397V186.867C53.0969 186.732 53.1504 186.603 53.2456 186.508C53.3407 186.413 53.4698 186.359 53.6044 186.359C53.739 186.359 53.8681 186.413 53.9633 186.508C54.0585 186.603 54.1119 186.732 54.1119 186.867V200.011L59.5117 201.564L59.4001 199.534C59.3953 199.432 59.4213 199.331 59.4748 199.244C59.5283 199.157 59.6067 199.088 59.6999 199.047C59.793 199.005 59.8966 198.993 59.997 199.011C60.0974 199.029 60.1901 199.077 60.2628 199.148L63.0744 201.96C70.5042 203.279 78.8982 204.132 79.5884 203.208C79.4971 201.29 78.0152 200.112 75.8126 198.955C73.6101 197.798 67.3272 194.256 67.2663 194.215C67.1941 194.176 67.1329 194.119 67.0885 194.05C67.0442 193.981 67.018 193.901 67.0126 193.819L66.0889 183.903C66.0819 183.837 66.0883 183.77 66.1076 183.706C66.127 183.643 66.1589 183.583 66.2015 183.532C66.244 183.481 66.2964 183.439 66.3556 183.409C66.4147 183.378 66.4793 183.36 66.5457 183.355C66.6793 183.346 66.8113 183.388 66.915 183.473C67.0186 183.558 67.0862 183.679 67.1039 183.812L67.9971 193.464C69.1441 194.114 74.2292 196.976 76.2897 198.052C78.3501 199.128 80.4918 200.62 80.5933 203.218C80.6013 203.364 80.5741 203.509 80.5141 203.641C80.454 203.774 80.3628 203.89 80.2482 203.98C79.8016 204.355 78.543 204.548 76.9088 204.548Z" fill="black"/>
<path d="M22.6469 100.744L10.5989 195.322C10.5989 195.322 11.1064 199.077 19.2568 199.544C27.4073 200.011 26.5851 198.093 26.5851 198.093L45.9716 130.889L51.1989 190.703L68.799 191.789L65.2972 93.4156L22.6469 100.744Z" fill="#231F20"/>
<path d="M21.6725 200.123C20.9417 200.123 20.1399 200.123 19.267 200.041C10.8019 199.564 10.132 195.565 10.132 195.393V195.22L22.1394 100.642C22.1545 100.535 22.2027 100.436 22.2774 100.357C22.352 100.279 22.4493 100.226 22.5556 100.206L65.2566 92.8777C65.326 92.8642 65.3975 92.8664 65.4659 92.8839C65.5344 92.9015 65.5981 92.934 65.6525 92.9792C65.7097 93.0243 65.7565 93.0812 65.7898 93.146C65.8231 93.2108 65.842 93.282 65.8453 93.3547L69.3369 191.729C69.3438 191.799 69.3335 191.87 69.307 191.935C69.2805 192 69.2385 192.058 69.1847 192.104C69.1361 192.154 69.0774 192.192 69.0126 192.217C68.9477 192.241 68.8783 192.251 68.8091 192.246L51.1989 191.16C51.079 191.153 50.9657 191.103 50.8799 191.019C50.7941 190.935 50.7416 190.823 50.732 190.703L45.7382 133.589L27.1434 198.113C27.1753 198.382 27.1066 198.653 26.9505 198.874C26.3618 199.706 24.6262 200.123 21.6725 200.123ZM11.147 195.301C11.2586 195.717 12.2838 198.641 19.3279 199.037C24.4029 199.321 25.7224 198.661 26.0472 198.367C26.1284 198.296 26.1487 198.245 26.1487 198.235C26.1285 198.19 26.118 198.142 26.118 198.093C26.118 198.044 26.1285 197.995 26.1487 197.95L45.5352 130.747C45.5696 130.634 45.6417 130.536 45.7396 130.47C45.8375 130.403 45.9552 130.372 46.0731 130.382C46.1911 130.391 46.302 130.442 46.3857 130.526C46.4694 130.61 46.5206 130.721 46.5299 130.839L51.7165 190.226L68.3219 191.241L64.8608 94.0043L23.1037 101.17L11.147 195.301Z" fill="#231F20"/>
<path d="M37.3665 37.6401C38.0532 37.2077 38.6132 36.8589 39.0119 36.6118C39.0568 37.098 39.1209 37.7951 39.2006 38.675C39.3661 40.5011 39.599 43.1144 39.8689 46.263C40.4088 52.5605 41.0965 60.9979 41.6882 69.5595C42.2799 78.1227 42.775 86.8038 42.9303 93.591C43.008 96.986 43.0004 99.8973 42.8787 102.08C42.8178 103.172 42.7288 104.07 42.6106 104.749C42.5515 105.089 42.4866 105.365 42.4178 105.578C42.3469 105.798 42.2813 105.922 42.2359 105.981C41.53 106.899 40.1668 107.94 38.3741 108.909C36.5932 109.872 34.4323 110.741 32.1748 111.335C29.9158 111.93 27.5782 112.246 25.4401 112.117C23.3002 111.988 21.3937 111.416 19.954 110.269C19.6454 110.024 19.3279 109.607 19.0153 108.997C18.7051 108.392 18.4145 107.625 18.1453 106.713C17.6068 104.886 17.1675 102.52 16.8197 99.7815C16.1243 94.3081 15.8015 87.412 15.759 80.5233C15.7166 73.6364 15.9544 66.7711 16.3771 61.3633C16.5885 58.6585 16.8456 56.3257 17.1355 54.5402C17.2805 53.647 17.4325 52.8984 17.5889 52.3123C17.7345 51.7666 17.8747 51.3988 17.9963 51.1872C21.791 48.001 27.1914 44.2658 31.6652 41.3143C33.9118 39.8323 35.92 38.5509 37.3665 37.6401Z" fill="#CA0C0C" stroke="black"/>
<path d="M51.014 38.7249L50.9825 38.3694C51.0041 38.3637 51.0266 38.3579 51.0498 38.3518C51.3509 38.2735 51.7868 38.165 52.3228 38.0449C53.3959 37.8045 54.8653 37.5189 56.4553 37.3362C58.048 37.1533 59.745 37.0757 61.2783 37.2433C62.7453 37.4036 64.008 37.7828 64.8939 38.4568L64.8953 38.4638L65.0043 39.0047C65.0996 39.4786 65.2392 40.1741 65.4162 41.0599C65.7702 42.8315 66.2739 45.3644 66.8726 48.4097C68.0699 54.5005 69.6469 62.6398 71.1658 70.8354C72.6849 79.0322 74.145 87.2807 75.1092 93.5915C75.5914 96.7482 75.9483 99.412 76.1269 101.339C76.2164 102.305 76.2598 103.073 76.2539 103.62C76.2509 103.896 76.2355 104.099 76.2121 104.238C76.2032 104.291 76.1943 104.327 76.1874 104.349C76.0004 104.519 75.6645 104.739 75.1768 104.995C74.6657 105.263 74.0225 105.552 73.2844 105.846C71.8087 106.434 69.978 107.034 68.1167 107.521C66.2534 108.009 64.3756 108.379 62.8028 108.514C62.0159 108.582 61.3188 108.59 60.7449 108.529C60.1683 108.468 59.7628 108.342 59.5136 108.18C59.5137 108.18 59.5137 108.18 59.5137 108.18C59.5148 108.178 59.4744 108.138 59.4052 108C59.3287 107.848 59.2422 107.629 59.1479 107.338C58.9599 106.759 58.7575 105.946 58.5441 104.924C58.118 102.883 57.6577 100.059 57.1817 96.71C56.23 90.0142 55.2199 81.2549 54.2957 72.5477C53.3717 63.8418 52.5343 55.193 51.9277 48.7204C51.6245 45.4841 51.379 42.7921 51.2093 40.9093C51.1245 39.9678 51.0586 39.2287 51.014 38.7249Z" fill="#CA0C0C" stroke="black"/>
<path d="M49.0674 33.0942L51.5034 41.2142C51.5034 41.2142 51.5643 45.2742 45.7484 45.6092C39.9324 45.9441 38.0039 42.4931 38.0039 42.4931L33.9439 27.1869C33.9439 27.1869 35.4563 21.2695 31.579 12.916C31.579 12.916 39.5264 11.901 48.9253 10.1248C48.9253 10.1248 52.8026 21.777 53.4421 26.1719C54.0815 30.5669 49.0674 33.0942 49.0674 33.0942Z" fill="white"/>
<path d="M44.8957 46.1369C39.5061 46.1369 37.6182 42.8889 37.537 42.7367C37.5312 42.6997 37.5312 42.662 37.537 42.625L33.5379 27.3087C33.5176 27.2253 33.5176 27.1383 33.5379 27.0549C33.5379 27.0549 34.9487 21.1984 31.2034 13.1291C31.1687 13.0573 31.1519 12.9782 31.1543 12.8985C31.1566 12.8188 31.1781 12.7408 31.2169 12.6712C31.2557 12.6015 31.3107 12.5422 31.3773 12.4982C31.4438 12.4543 31.5199 12.427 31.5992 12.4186C31.6804 12.4186 39.638 11.4036 48.9151 9.62737C49.0359 9.60134 49.1621 9.62122 49.2691 9.68314C49.376 9.74506 49.4561 9.84458 49.4937 9.96232C49.6459 10.4394 53.3811 21.7059 54.0307 26.0907C54.6194 30.1507 50.9857 32.6273 49.717 33.3378L52.0312 41.0619C52.036 41.1092 52.036 41.1568 52.0312 41.204C52.0312 41.204 52.0312 45.7208 45.7991 46.1065L44.8957 46.1369ZM38.4505 42.2901C38.7144 42.7164 40.6226 45.4163 45.7179 45.1016C50.6203 44.787 50.9654 41.7724 50.9959 41.2751L48.5802 33.2363C48.5464 33.1214 48.5544 32.9982 48.6027 32.8886C48.651 32.779 48.7365 32.6901 48.8441 32.6374C48.8441 32.6374 53.5638 30.2116 52.9853 26.2429C52.4067 22.2743 49.3211 12.8246 48.6208 10.7033C41.059 12.1344 34.4108 13.0581 32.3808 13.3321C35.6694 20.8431 34.7153 26.2531 34.5224 27.1767L38.4505 42.2901Z" fill="#231F20"/>
<path d="M31.173 26.5677C31.173 26.5677 25.2048 20.1428 25.9458 15.5652C26.6867 10.9875 35.2026 13.5352 35.2026 13.5352C35.2026 13.5352 36.8773 24.6088 35.2026 27.6335C33.5278 30.6582 31.173 26.5677 31.173 26.5677Z" fill="#231F20"/>
<path d="M33.7713 29.2981C32.2691 29.2981 31.0105 27.2681 30.7263 26.8722C30.1579 26.2531 24.6363 20.1022 25.4077 15.5042C25.4766 15.0227 25.6505 14.5621 25.9171 14.1552C26.1837 13.7482 26.5365 13.4049 26.9505 13.1494C29.7012 11.4442 35.0705 13.0378 35.304 13.1494C35.3966 13.1746 35.4797 13.2266 35.5429 13.2988C35.6061 13.371 35.6466 13.4603 35.6592 13.5554C35.7303 14.0122 37.3441 24.8422 35.6592 27.9786C35.5044 28.356 35.2478 28.683 34.9181 28.9232C34.5883 29.1633 34.1984 29.3072 33.7916 29.3387L33.7713 29.2981ZM30.4421 13.3727C29.4313 13.3208 28.4252 13.5417 27.5291 14.0122C27.2345 14.1865 26.9841 14.4265 26.7975 14.7135C26.6108 15.0004 26.493 15.3266 26.4532 15.6666C25.7528 19.9296 31.5282 26.1617 31.5282 26.2328C31.5542 26.259 31.5749 26.29 31.5891 26.3241C32.0255 27.0854 32.9999 28.2932 33.751 28.2932C34.0961 28.2932 34.4311 27.9989 34.766 27.4508C36.0348 25.167 35.2329 17.3008 34.766 13.9919C33.3554 13.6096 31.9033 13.4017 30.4421 13.3727V13.3727Z" fill="#231F20"/>
<path d="M36.4104 25.9587C35.9957 25.2733 35.3684 24.7423 34.624 24.4464C33.9241 24.1946 33.1855 24.0675 32.4417 24.0708C32.0328 24.0334 31.6207 24.0853 31.2339 24.2231C30.9744 24.3477 30.743 24.5238 30.5538 24.7407C30.0557 25.2075 29.7422 25.838 29.6708 26.517C29.6754 27.0635 29.8148 27.6004 30.0768 28.0801C30.3149 28.6236 30.6256 29.1323 31.0004 29.5924C31.3842 30.0453 31.8541 30.4176 32.3829 30.6876C32.9116 30.9576 33.4887 31.12 34.0807 31.1653C34.6727 31.2106 35.2677 31.138 35.8314 30.9516C36.3951 30.7652 36.9162 30.4689 37.3645 30.0796" fill="white"/>
<path d="M34.4108 31.6833H34.0454C32.717 31.5745 31.4847 30.9474 30.6147 29.9375C30.2039 29.4414 29.8624 28.8916 29.5997 28.3034C29.2981 27.7491 29.141 27.1277 29.143 26.4967C29.2149 25.6963 29.5757 24.9495 30.158 24.3956C30.3931 24.1309 30.6798 23.9167 31.0004 23.7663C31.4543 23.599 31.9393 23.5331 32.4214 23.5735C33.227 23.5738 34.0268 23.7111 34.7864 23.9795C35.6315 24.3205 36.3436 24.9258 36.8164 25.705C36.8864 25.8207 36.9075 25.9596 36.8751 26.0909C36.8428 26.2222 36.7596 26.3353 36.6438 26.4053C36.5281 26.4753 36.3892 26.4965 36.2579 26.4641C36.1266 26.4318 36.0135 26.3485 35.9435 26.2328C35.5888 25.6411 35.0507 25.1813 34.4108 24.9234C33.7587 24.6949 33.0718 24.5816 32.3808 24.5885C32.0384 24.5503 31.6918 24.5885 31.3658 24.7001C31.1677 24.7992 30.9916 24.9373 30.8482 25.1061C30.437 25.4827 30.1742 25.9939 30.1072 26.5474C30.1226 27.012 30.2441 27.4668 30.4625 27.8771C30.6872 28.3777 30.9736 28.8482 31.3151 29.2778C32.0111 30.0825 32.9952 30.5818 34.0556 30.6683C34.5826 30.7002 35.1107 30.6269 35.609 30.4526C36.1074 30.2784 36.5661 30.0067 36.9585 29.6533C37.055 29.5597 37.1843 29.5073 37.3188 29.5073C37.4533 29.5073 37.5825 29.5597 37.6791 29.6533C37.7264 29.6996 37.7639 29.7549 37.7896 29.8159C37.8152 29.8769 37.8284 29.9424 37.8284 30.0086C37.8284 30.0748 37.8152 30.1403 37.7896 30.2013C37.7639 30.2623 37.7264 30.3175 37.6791 30.3638C36.7858 31.1855 35.6242 31.6544 34.4108 31.6833V31.6833Z" fill="#231F20"/>
<path d="M47.5652 19.6251C47.5652 19.6251 51.8282 22.8325 51.412 23.7866C50.9959 24.7407 48.976 24.9234 48.976 24.9234" fill="white"/>
<path d="M48.9761 25.4512C48.8482 25.4516 48.7249 25.4038 48.6308 25.3172C48.5368 25.2307 48.4788 25.1118 48.4686 24.9843C48.4573 24.8513 48.4989 24.7191 48.5844 24.6165C48.6699 24.5139 48.7924 24.4491 48.9253 24.4362C49.6257 24.3753 50.7523 24.0708 50.9553 23.6141C50.9553 23.1979 49.2095 21.513 47.2709 20.0514C47.2176 20.0115 47.1726 19.9614 47.1387 19.904C47.1047 19.8467 47.0824 19.7832 47.073 19.7172C47.0635 19.6512 47.0672 19.5841 47.0837 19.5195C47.1003 19.4549 47.1294 19.3943 47.1694 19.3409C47.2094 19.2876 47.2595 19.2427 47.3168 19.2087C47.3742 19.1748 47.4376 19.1525 47.5036 19.143C47.5696 19.1336 47.6368 19.1373 47.7013 19.1538C47.7659 19.1704 47.8266 19.1995 47.8799 19.2394C49.9708 20.8127 52.3662 22.9137 51.9399 24.0099C51.5136 25.1061 49.311 25.4208 49.0776 25.4411L48.9761 25.4512Z" fill="#231F20"/>
<path d="M44.9506 19.6579C45.2949 19.4472 45.3319 18.881 45.0334 18.3934C44.7349 17.9057 44.2139 17.6812 43.8696 17.8919C43.5254 18.1026 43.4883 18.6687 43.7868 19.1564C44.0853 19.6441 44.6064 19.8686 44.9506 19.6579Z" fill="#231F20"/>
<path d="M49.5839 18.0734C49.9282 17.8627 49.9652 17.2966 49.6667 16.8089C49.3682 16.3212 48.8472 16.0967 48.5029 16.3074C48.1587 16.5181 48.1216 17.0842 48.4201 17.5719C48.7186 18.0596 49.2397 18.2841 49.5839 18.0734Z" fill="#231F20"/>
<path d="M50.6001 26.6489L46.875 27.5523C46.875 27.5523 47.1084 30.3131 49.2298 30.445C51.3511 30.577 50.6001 26.6489 50.6001 26.6489Z" fill="white"/>
<path d="M49.3313 30.9627H49.1689C47.1389 30.8307 46.4385 28.7094 46.3472 27.603C46.3369 27.4833 46.3702 27.3639 46.4411 27.2668C46.512 27.1698 46.6157 27.1017 46.7329 27.0752L50.4478 26.1617C50.584 26.1333 50.7258 26.1588 50.8436 26.2328C50.9026 26.2695 50.953 26.3183 50.9915 26.3761C51.03 26.4339 51.0557 26.4992 51.0669 26.5677C51.0669 26.8418 51.5541 29.2981 50.5696 30.4146C50.4143 30.5891 50.2235 30.7284 50.0099 30.8229C49.7963 30.9175 49.5649 30.9651 49.3313 30.9627ZM47.4535 27.9177C47.5956 28.5977 48.0321 29.8462 49.2602 29.9477C49.366 29.968 49.4753 29.9599 49.5769 29.9243C49.6785 29.8886 49.7689 29.8266 49.8388 29.7447C50.226 28.9877 50.3441 28.1214 50.1737 27.2884L47.4535 27.9177Z" fill="#231F20"/>
<path d="M49.0674 33.0942C49.0674 33.0942 44.8247 34.2614 42.5308 33.6524C42.5308 33.6524 45.5047 38.0474 50.4579 37.9966L49.0674 33.0942Z" fill="#231F20"/>
<path d="M50.3768 38.5041C45.3018 38.5041 42.2568 34.1193 42.1147 33.9366C42.0584 33.8512 42.0292 33.7508 42.031 33.6484C42.0327 33.5461 42.0654 33.4467 42.1247 33.3633C42.184 33.2799 42.2671 33.2163 42.3631 33.181C42.4591 33.1456 42.5636 33.1402 42.6628 33.1652C44.7943 33.7336 48.8949 32.6171 48.9355 32.607C48.9988 32.5885 49.0652 32.5827 49.1307 32.5901C49.1963 32.5975 49.2597 32.6178 49.3174 32.6499C49.375 32.682 49.4256 32.7253 49.4664 32.7772C49.5071 32.829 49.5371 32.8885 49.5547 32.9521L50.9452 37.8951C50.9658 37.9699 50.9683 38.0485 50.9524 38.1244C50.9365 38.2003 50.9027 38.2714 50.8539 38.3316C50.81 38.3957 50.7508 38.4478 50.6817 38.4833C50.6125 38.5187 50.5357 38.5364 50.458 38.5346L50.3768 38.5041ZM43.7489 34.3223C45.305 36.0746 47.4506 37.1943 49.778 37.4688L48.763 33.7032C47.1232 34.1139 45.4393 34.3218 43.7489 34.3223V34.3223Z" fill="#231F20"/>
<path d="M46.1239 134.006C45.9924 133.983 45.8751 133.91 45.7972 133.802C45.7193 133.693 45.6872 133.559 45.7077 133.427C45.7077 133.214 49.1587 111.99 48.9354 108.164C48.9313 108.097 48.9405 108.031 48.9624 107.969C48.9842 107.906 49.0184 107.848 49.0629 107.799C49.1073 107.75 49.1611 107.71 49.2212 107.682C49.2812 107.654 49.3463 107.638 49.4125 107.636C49.5454 107.63 49.6753 107.677 49.774 107.766C49.8727 107.856 49.9324 107.98 49.9403 108.113C50.1737 112.041 46.8953 132.706 46.7126 133.589C46.6878 133.722 46.6125 133.839 46.5026 133.917C46.3927 133.994 46.2569 134.026 46.1239 134.006V134.006Z" fill="white"/>
<path d="M27.9148 118.253C27.8362 118.252 27.7588 118.233 27.6884 118.198C27.6181 118.163 27.5567 118.112 27.5089 118.05C27.4281 117.942 27.3934 117.807 27.4125 117.673C27.4315 117.54 27.5027 117.42 27.6104 117.339C29.1004 116.14 30.6973 115.08 32.3808 114.172C32.4408 114.145 32.5055 114.131 32.5712 114.129C32.6369 114.127 32.7023 114.138 32.7637 114.162C32.825 114.185 32.8811 114.221 32.9286 114.266C32.9761 114.312 33.0142 114.366 33.0406 114.426C33.0955 114.549 33.0997 114.688 33.0521 114.813C33.0045 114.939 32.9092 115.041 32.7869 115.096C31.1819 115.981 29.654 117 28.2194 118.141C28.1332 118.211 28.026 118.251 27.9148 118.253Z" fill="white"/>
<path d="M64.9623 116.7C64.87 116.697 64.7797 116.672 64.6984 116.629L58.4765 112.893C58.3632 112.824 58.2819 112.712 58.2501 112.583C58.2183 112.454 58.2385 112.317 58.3063 112.203C58.3742 112.088 58.4843 112.005 58.613 111.971C58.7416 111.937 58.8785 111.955 58.9941 112.021L65.2161 115.756C65.3113 115.812 65.3855 115.898 65.4272 116.001C65.469 116.104 65.476 116.217 65.4472 116.324C65.4185 116.431 65.3555 116.526 65.268 116.593C65.1804 116.661 65.0731 116.699 64.9623 116.7V116.7Z" fill="white"/>
<path d="M54.0917 6.69403L49.0167 7.76994C47.634 4.9409 45.2644 2.71525 42.3543 1.5124C39.4443 0.309546 36.1948 0.212556 33.2181 1.23971C30.2415 2.26686 27.7434 4.34721 26.1944 7.08875C24.6455 9.83029 24.1527 13.0437 24.809 16.1234L41.5362 12.581L54.7312 9.78979C55.1457 9.7023 55.5085 9.45371 55.7398 9.09871C55.9711 8.74371 56.0519 8.31137 55.9644 7.89681C55.8769 7.48225 55.6283 7.11942 55.2733 6.88815C54.9183 6.65687 54.486 6.5761 54.0714 6.66359L54.0917 6.69403Z" fill="white"/>
<path d="M24.8089 16.6309C24.7085 16.6303 24.6102 16.6022 24.5247 16.5497C24.4692 16.5126 24.4217 16.4647 24.3851 16.4089C24.3485 16.3531 24.3235 16.2905 24.3115 16.2249C23.639 13.0583 24.1347 9.75532 25.7072 6.92573C27.2798 4.09614 29.8229 1.93101 32.8672 0.830085C35.9114 -0.270841 39.2512 -0.233225 42.2699 0.935989C45.2885 2.1052 47.7823 4.32706 49.2907 7.19135L53.98 6.17635C54.526 6.06139 55.0952 6.16722 55.5634 6.4707C55.7958 6.62089 55.9963 6.8155 56.1533 7.04338C56.3103 7.27126 56.4207 7.5279 56.4782 7.79858C56.5358 8.06926 56.5393 8.34863 56.4885 8.62066C56.4378 8.89269 56.3338 9.15202 56.1825 9.38375C56.0351 9.6188 55.8411 9.82113 55.6124 9.97825C55.3837 10.1354 55.1252 10.2439 54.8529 10.2973L41.6579 13.0885H41.4853L24.9104 16.5801L24.8089 16.6309ZM37.4456 1.0506C35.6365 1.04789 33.8488 1.44095 32.2076 2.20224C30.5665 2.96352 29.1118 4.07459 27.9455 5.45754C26.7792 6.84048 25.9295 8.46183 25.456 10.2079C24.9826 11.9539 24.8968 13.7824 25.2047 15.5651L41.4447 12.1344H41.6274L54.6499 9.3736C54.7907 9.34589 54.9245 9.29028 55.0435 9.21008C55.1625 9.12987 55.2642 9.02667 55.3427 8.90656C55.4212 8.78645 55.4749 8.65184 55.5006 8.51068C55.5263 8.36951 55.5235 8.22462 55.4923 8.08455C55.4336 7.802 55.2659 7.55399 55.0254 7.39435C54.7815 7.23903 54.4867 7.18445 54.2033 7.2421V7.2421L49.1283 8.318C49.018 8.34071 48.9033 8.32611 48.8023 8.2765C48.7012 8.22689 48.6195 8.14508 48.57 8.04395C47.5577 5.9527 45.978 4.18813 44.011 2.95159C42.044 1.71504 39.769 1.05633 37.4456 1.0506V1.0506Z" fill="#231F20"/>
<path d="M49.0167 7.76995C48.5498 7.62785 30.7467 11.4138 30.7467 11.4138Z" fill="white"/>
<path d="M30.7568 11.9213C30.6403 11.9195 30.5279 11.8784 30.4376 11.8047C30.3473 11.731 30.2846 11.6291 30.2595 11.5153C30.2446 11.4506 30.2428 11.3836 30.2543 11.3182C30.2657 11.2528 30.2901 11.1904 30.326 11.1345C30.362 11.0787 30.4087 11.0307 30.4636 10.9932C30.5184 10.9558 30.5801 10.9297 30.6452 10.9165C48.5802 7.1102 48.9964 7.24216 49.1588 7.28276C49.2865 7.32271 49.3938 7.41056 49.4581 7.52789C49.5224 7.64521 49.5388 7.78289 49.5039 7.91205C49.4675 8.02609 49.3934 8.12436 49.2938 8.19076C49.1942 8.25715 49.075 8.28772 48.9558 8.27745C48.0626 8.27745 37.6791 10.4597 30.8583 11.901L30.7568 11.9213Z" fill="#231F20"/>
<path d="M39.2219 7.25228C38.3908 4.62199 36.5714 2.41687 34.1469 1.10138Z" fill="white"/>
<path d="M39.2219 7.7598C39.1126 7.76387 39.0051 7.73104 38.9167 7.6666C38.8284 7.60216 38.7642 7.50986 38.7347 7.40455C37.9546 4.90408 36.238 2.802 33.9439 1.53785C33.8855 1.50698 33.8338 1.46477 33.7919 1.4137C33.75 1.36263 33.7186 1.30372 33.6997 1.24041C33.6808 1.1771 33.6747 1.11066 33.6818 1.04497C33.6889 0.979274 33.709 0.915645 33.7409 0.857801C33.7707 0.798372 33.8123 0.745673 33.8633 0.702944C33.9142 0.660215 33.9733 0.628361 34.037 0.609344C34.1008 0.590328 34.1677 0.584552 34.2337 0.59237C34.2997 0.600188 34.3634 0.621435 34.4209 0.654804C36.9587 2.03385 38.8566 4.35063 39.7091 7.1102C39.7294 7.17349 39.7367 7.2402 39.7308 7.30639C39.7248 7.37258 39.7057 7.4369 39.6745 7.49557C39.6432 7.55423 39.6006 7.60604 39.549 7.64794C39.4974 7.68983 39.438 7.72097 39.3741 7.7395C39.3254 7.75698 39.2735 7.7639 39.2219 7.7598V7.7598Z" fill="#231F20"/>
<path d="M42.0639 6.66361C41.1602 4.31668 39.6967 2.22608 37.8009 0.573608Z" fill="white"/>
<path d="M42.0639 7.17108C41.9618 7.17266 41.8619 7.14216 41.7781 7.08389C41.6943 7.02561 41.631 6.9425 41.597 6.84628C40.718 4.56915 39.3006 2.53879 37.4659 0.928836C37.4062 0.888759 37.3557 0.836456 37.3178 0.775396C37.2798 0.714335 37.2553 0.645909 37.2458 0.574648C37.2363 0.503388 37.242 0.430918 37.2626 0.362042C37.2832 0.293165 37.3182 0.229453 37.3653 0.175125C37.4124 0.120796 37.4705 0.0770924 37.5357 0.0469061C37.601 0.0167198 37.6719 0.000737833 37.7438 2.49483e-05C37.8157 -0.000687937 37.8869 0.0138845 37.9527 0.0427709C38.0186 0.0716573 38.0775 0.114202 38.1257 0.167586C40.0867 1.88364 41.6019 4.05011 42.5409 6.48088C42.5654 6.54349 42.5771 6.61032 42.5756 6.67752C42.574 6.74471 42.5591 6.81091 42.5317 6.87229C42.5043 6.93367 42.465 6.98899 42.416 7.03506C42.3671 7.08112 42.3095 7.11701 42.2466 7.14064L42.0639 7.17108Z" fill="#231F20"/>
<path d="M17.1862 93.8927C17.0516 93.9007 16.9193 93.855 16.8184 93.7656C16.7175 93.6761 16.6563 93.5502 16.6483 93.4156C16.6402 93.281 16.6859 93.1487 16.7754 93.0478C16.8648 92.947 16.9907 92.8857 17.1253 92.8777C17.2877 92.8777 33.2029 91.071 37.9836 88.4624C38.0418 88.4289 38.1063 88.4075 38.1731 88.3995C38.2399 88.3916 38.3076 88.3973 38.3721 88.4163C38.4366 88.4352 38.4966 88.4671 38.5484 88.5099C38.6003 88.5528 38.6429 88.6057 38.6738 88.6654C38.736 88.7843 38.7496 88.9228 38.7117 89.0515C38.6739 89.1803 38.5875 89.2893 38.4708 89.3556C33.5176 92.0555 17.9069 93.8115 17.237 93.8825L17.1862 93.8927Z" fill="#231F20"/>
<path d="M59.258 88.5233C59.1407 88.5225 59.0276 88.4803 58.9384 88.4041C58.8493 88.328 58.7899 88.2228 58.7708 88.1072C58.7574 88.0419 58.7571 87.9745 58.7698 87.9091C58.7824 87.8436 58.8079 87.7813 58.8446 87.7257C58.8814 87.6701 58.9287 87.6223 58.984 87.585C59.0392 87.5477 59.1013 87.5216 59.1666 87.5083L72.5951 84.8287C72.7297 84.8031 72.8689 84.8321 72.9822 84.9092C73.0954 84.9863 73.1734 85.1052 73.199 85.2398C73.2246 85.3744 73.1956 85.5136 73.1185 85.6269C73.0414 85.7402 72.9225 85.8181 72.7879 85.8437L59.3189 88.5132L59.258 88.5233Z" fill="#231F20"/>
<path d="M17.582 51C17.582 51 -9.61995 90.9504 3.6461 102.034C15.8261 112.184 42.7033 95.3149 42.7033 95.3149L41.0488 81.044C41.0488 81.044 17.3892 92.2801 17.0441 86.9209C16.5366 79.0343 20.2921 76.0705 20.2921 76.0705L17.582 51Z" fill="#231F20"/>
<path d="M40.0339 65.7264L42.3786 114.446C42.3786 114.446 81.5779 126.434 93.9913 107.971L97.4423 57.373C97.4423 57.373 62.4857 71.0958 40.0339 65.7264Z" fill="white"/>
<path d="M67.916 118.74C66.4747 118.74 64.9928 118.689 63.4602 118.598C56.2454 118.109 49.1015 116.868 42.1452 114.893C42.0457 114.863 41.958 114.804 41.8943 114.722C41.8306 114.64 41.7941 114.54 41.7899 114.436L39.4453 65.7163C39.4405 65.6374 39.4545 65.5585 39.4863 65.4861C39.5181 65.4137 39.5666 65.35 39.628 65.3001C39.6873 65.2495 39.7579 65.2139 39.8338 65.1962C39.9098 65.1786 39.9888 65.1794 40.0644 65.1986C62.1407 70.4665 96.8232 56.9568 97.1683 56.8249C97.2478 56.792 97.3345 56.7803 97.4199 56.791C97.5053 56.8017 97.5865 56.8343 97.6555 56.8858C97.7255 56.9365 97.7817 57.0039 97.8189 57.082C97.8561 57.16 97.8732 57.2461 97.8687 57.3324L94.4583 107.93C94.4576 108.021 94.4293 108.11 94.3771 108.184C89.769 115.137 80.634 118.74 67.916 118.74ZM42.8252 114.02C46.6822 115.126 81.923 124.647 93.4534 107.758L96.874 58.0936C90.4645 60.4531 83.9237 62.439 77.2845 64.0415C66.901 66.5283 52.1835 68.9338 40.5719 66.376L42.8252 114.02Z" fill="#231F20"/>
<path d="M36.7554 85.7626C36.5717 84.6903 36.6518 83.5895 36.9889 82.5552C37.3293 81.8491 37.7934 81.2097 38.3592 80.6673C39.3106 79.6666 40.3279 78.7307 41.4042 77.8658C41.8473 77.4195 42.381 77.0734 42.9694 76.851C43.5577 76.6286 44.187 76.5351 44.8146 76.5768C44.4192 78.3753 43.3657 79.9611 41.8609 81.0225C42.3616 80.4523 43.0122 80.0339 43.7387 79.8147C44.236 79.6624 44.9059 79.6929 45.1191 80.1598C45.1617 80.3157 45.173 80.4786 45.1521 80.6389C45.1311 80.7992 45.0785 80.9538 44.9973 81.0935C44.4232 82.3412 43.5391 83.421 42.4293 84.2299L43.627 83.4991C43.9273 83.2775 44.2746 83.1281 44.642 83.0627C44.8242 83.0325 45.0113 83.0615 45.1757 83.1456C45.3401 83.2296 45.4733 83.3642 45.5555 83.5296C45.6302 83.7975 45.6012 84.0838 45.4743 84.3314C45.1683 85.0606 44.6525 85.6824 43.9924 86.1178C44.4252 85.7662 44.9375 85.5258 45.4845 85.4175C45.7612 85.3718 46.0452 85.4265 46.2853 85.5716C46.5253 85.7168 46.7057 85.9429 46.7938 86.2092C46.8289 86.5122 46.7648 86.8185 46.6111 87.0821C45.7281 88.7873 43.5661 88.9801 42.5511 90.4113C41.7899 91.4872 42.1451 92.6341 40.582 93.2837C36.7758 94.8874 36.9889 87.9956 36.7554 85.7626Z" fill="white"/>
<path d="M39.5772 94.0348C39.1558 94.0409 38.7422 93.9207 38.3896 93.6897C36.654 92.6036 36.451 89.1526 36.3596 86.8689C36.3596 86.4629 36.3596 86.0975 36.2886 85.8539C36.0956 84.6944 36.1932 83.5052 36.5728 82.3927C36.9306 81.6291 37.43 80.9402 38.0445 80.3627C39.0234 79.3381 40.0713 78.3818 41.1809 77.5004C42.1959 76.6986 43.5459 75.8155 45.0176 76.12C45.1478 76.1501 45.2609 76.2304 45.3322 76.3433C45.3707 76.3989 45.397 76.462 45.4092 76.5285C45.4215 76.595 45.4195 76.6634 45.4033 76.729C45.216 77.6277 44.8725 78.4866 44.3883 79.2665V79.2665C44.6531 79.2446 44.9184 79.3025 45.1499 79.4327C45.3815 79.563 45.5687 79.7596 45.6875 79.9973C45.7656 80.2178 45.7952 80.4526 45.7742 80.6856C45.7531 80.9186 45.682 81.1443 45.5657 81.3473C45.3644 81.7807 45.1303 82.198 44.8654 82.5957C45.129 82.5864 45.3895 82.6558 45.6136 82.795C45.8377 82.9341 46.0154 83.1368 46.1239 83.3773C46.2436 83.774 46.2111 84.201 46.0326 84.575L45.8499 84.9505C46.2004 84.958 46.5391 85.0787 46.8154 85.2945C47.0916 85.5104 47.2906 85.8099 47.3825 86.1482C47.4476 86.5657 47.365 86.9928 47.1491 87.3561C46.5903 88.2723 45.7702 89.0005 44.7943 89.447C44.1435 89.733 43.5594 90.1512 43.0789 90.6751C42.8755 90.988 42.7214 91.3303 42.6222 91.6901C42.5222 92.1452 42.3115 92.5685 42.0087 92.9226C41.706 93.2767 41.3205 93.5506 40.8865 93.7201C40.4755 93.9115 40.0303 94.0185 39.5772 94.0348ZM44.2259 77.0437C43.3071 77.2051 42.4542 77.628 41.7696 78.2617C40.6927 79.1113 39.6753 80.0337 38.7246 81.0225C38.2014 81.5167 37.7716 82.1012 37.4558 82.748C37.1525 83.709 37.083 84.7286 37.2529 85.7219V85.7219C37.2529 86.0163 37.2529 86.3918 37.3239 86.8181C37.4254 88.635 37.6182 92.0149 38.9174 92.8371C39.1532 92.9632 39.4164 93.0292 39.6838 93.0292C39.9511 93.0292 40.2144 92.9632 40.4501 92.8371C40.7499 92.7213 41.0143 92.5294 41.2173 92.2802C41.4202 92.031 41.5546 91.7331 41.6072 91.4161C41.7379 90.9608 41.94 90.5291 42.206 90.1372C42.756 89.4619 43.4495 88.9175 44.236 88.5436C45.0363 88.1894 45.7143 87.6068 46.1848 86.8689C46.2876 86.709 46.3374 86.5207 46.3269 86.3309C46.3269 86.067 45.8803 85.9148 45.5758 85.9351C45.1577 86.0251 44.7655 86.2091 44.4289 86.473L44.2969 86.5644C44.1851 86.6378 44.0487 86.6641 43.9175 86.6375C43.7864 86.6109 43.671 86.5335 43.5966 86.4223C43.5247 86.3108 43.4983 86.1761 43.5229 86.0458C43.5474 85.9155 43.621 85.7995 43.7285 85.7219L43.8504 85.6407C44.3714 85.2642 44.7787 84.7515 45.0277 84.1588C45.1394 83.9051 45.1394 83.7833 45.1089 83.7325C45.0671 83.6748 45.0092 83.6305 44.9424 83.6053C44.8757 83.58 44.803 83.5749 44.7334 83.5904C44.4483 83.6544 44.179 83.7752 43.9417 83.9457L42.744 84.6866C42.6326 84.7464 42.5028 84.7624 42.3802 84.7315C42.2576 84.7007 42.1509 84.6251 42.0811 84.5197C42.0112 84.4143 41.9832 84.2866 42.0026 84.1617C42.022 84.0367 42.0873 83.9235 42.1858 83.8442C43.223 83.0842 44.0478 82.0707 44.5812 80.9007C44.703 80.6469 44.7435 80.4744 44.7029 80.3932C44.6623 80.312 44.2766 80.2206 43.9417 80.3221C43.672 80.4022 43.4129 80.5147 43.1703 80.6571C42.8589 80.9568 42.519 81.2254 42.1553 81.4589C42.0551 81.5333 41.9306 81.5673 41.8065 81.5541C41.6824 81.5409 41.5678 81.4816 41.4854 81.3879C41.404 81.2953 41.3592 81.1762 41.3592 81.0529C41.3592 80.9296 41.404 80.8106 41.4854 80.718C41.7799 80.3824 42.1218 80.0918 42.5004 79.8552C43.29 79.0678 43.8814 78.1042 44.2259 77.0437V77.0437Z" fill="#231F20"/>
<path d="M99.5027 78.9214C99.3606 76.8914 98.7212 74.5671 96.9145 73.5318C96.3588 73.2188 95.7341 73.0484 95.0964 73.036C94.4587 73.0236 93.8279 73.1695 93.2605 73.4607C93.1552 73.4991 93.0602 73.5612 92.9828 73.6422C92.9053 73.7231 92.8476 73.8208 92.8139 73.9276C92.7428 74.2423 93.0473 74.5163 93.3315 74.6889C93.923 75.0543 94.5664 75.328 95.2397 75.5009C94.6939 75.4509 94.1459 75.5714 93.6714 75.846C93.197 76.1205 92.8193 76.5354 92.5906 77.0335C93.2597 77.8089 94.1929 78.3081 95.2093 78.4342C94.8701 78.3474 94.5129 78.3628 94.1824 78.4783C93.8519 78.5939 93.563 78.8046 93.3518 79.0838C92.6921 80.0176 93.2199 80.2714 93.9507 80.8296C93.6305 80.7682 93.2993 80.7999 92.9966 80.921C92.8464 80.9884 92.7192 81.0984 92.6308 81.2373C92.5425 81.3762 92.4967 81.5379 92.4992 81.7025C92.5601 82.3014 93.3112 82.4841 93.8289 82.7886C94.2487 83.0374 94.5683 83.4252 94.7322 83.8848C94.7921 84.1428 94.8771 84.3944 94.986 84.6359C96.001 86.4223 98.305 84.9302 98.8531 83.6818C99.4385 82.1675 99.661 80.5372 99.5027 78.9214V78.9214Z" fill="white"/>
<path d="M96.3259 85.9655C95.9603 85.9627 95.6024 85.8613 95.2897 85.6719C94.9771 85.4825 94.7214 85.2123 94.5496 84.8896C94.4443 84.6947 94.3658 84.4864 94.3161 84.2705L94.2552 84.0472C94.1328 83.7014 93.8919 83.4102 93.5752 83.225L93.2199 83.0525C92.7327 82.819 92.0629 82.4942 91.9918 81.7431C91.9811 81.4766 92.0497 81.2129 92.1888 80.9853C92.3279 80.7576 92.5313 80.5763 92.7734 80.4642C92.4892 80.0684 92.3978 79.5507 92.9459 78.7895C93.0636 78.6161 93.2074 78.4621 93.3722 78.3327C92.9289 78.0623 92.5343 77.7191 92.2049 77.3177C92.1406 77.2456 92.0987 77.1564 92.0843 77.0608C92.0699 76.9653 92.0836 76.8676 92.1238 76.7798C92.4026 76.152 92.8855 75.6369 93.494 75.3182L93.0576 75.0746C92.2659 74.5874 92.2557 74.0596 92.3166 73.7652C92.3693 73.5866 92.4602 73.4215 92.5828 73.2813C92.7055 73.1411 92.857 73.0292 93.0271 72.9532C93.672 72.6278 94.387 72.4659 95.1091 72.4818C95.8313 72.4977 96.5384 72.691 97.1683 73.0446C99.2592 74.2423 99.8682 76.861 100.01 78.8402C100.171 80.5392 99.9351 82.2523 99.3201 83.8442C99.0448 84.3924 98.6388 84.8644 98.1378 85.2184C97.6368 85.5725 97.0563 85.7977 96.4477 85.8742L96.3259 85.9655ZM93.5955 81.3067C93.4635 81.3051 93.3325 81.3292 93.2098 81.3777C93.0981 81.4386 92.9967 81.5604 93.0068 81.6518C93.017 81.7431 93.291 81.9563 93.6665 82.139L94.0827 82.342C94.6079 82.6517 95.0069 83.137 95.2093 83.7122C95.2093 83.8137 95.2703 83.9051 95.2906 84.0066C95.3235 84.1354 95.3677 84.261 95.4225 84.3821C95.513 84.5695 95.6589 84.7245 95.8405 84.8262C96.022 84.9278 96.2305 84.9713 96.4375 84.9505C96.868 84.8828 97.2764 84.7142 97.6292 84.4584C97.9821 84.2026 98.2693 83.8669 98.4675 83.4788C99.0103 82.0388 99.2185 80.4943 99.0765 78.962C98.9445 77.2264 98.437 74.9528 96.7318 73.9682C96.2494 73.6993 95.7083 73.5531 95.1561 73.5425C94.6038 73.5319 94.0575 73.6572 93.5651 73.9073C93.4912 73.9354 93.4251 73.9806 93.3722 74.0393C93.4628 74.1156 93.5577 74.1868 93.6564 74.2524C94.2101 74.5948 94.8124 74.8515 95.4428 75.0137C95.5662 75.045 95.6728 75.1225 95.7408 75.2301C95.8088 75.3378 95.8329 75.4674 95.8082 75.5922C95.7858 75.7178 95.717 75.8303 95.6155 75.9074C95.5139 75.9845 95.387 76.0206 95.2601 76.0084C94.8674 75.9608 94.4692 76.024 94.1104 76.1908C93.7517 76.3576 93.4468 76.6214 93.2301 76.9523C93.7819 77.4976 94.4929 77.8531 95.2601 77.9673C95.394 77.9851 95.5156 78.0545 95.5991 78.1607C95.6825 78.2669 95.7211 78.4015 95.7067 78.5357C95.6866 78.6685 95.6166 78.7886 95.511 78.8716C95.4054 78.9546 95.2721 78.9942 95.1383 78.9823V78.9823C94.4379 78.891 94.0523 78.9823 93.7681 79.4086C93.4839 79.8349 93.4534 79.8654 94.0726 80.3221L94.2654 80.4744C94.3546 80.5424 94.4182 80.6386 94.4458 80.7473C94.4734 80.856 94.4635 80.9709 94.4177 81.0732C94.374 81.1761 94.2977 81.2618 94.2004 81.3168C94.1031 81.3719 93.9904 81.3933 93.8797 81.3777L93.5955 81.3067Z" fill="#231F20"/>
<path d="M21.4391 61.433C21.3289 61.4347 21.2213 61.3997 21.1331 61.3336C21.0449 61.2674 20.9812 61.1739 20.9519 61.0676C20.917 60.9384 20.9334 60.8007 20.9977 60.6834C21.0621 60.5661 21.1693 60.4782 21.297 60.4383L37.7502 55.7388C37.8848 55.7025 38.0283 55.7211 38.1492 55.7906C38.2701 55.86 38.3584 55.9747 38.3947 56.1093C38.4311 56.2439 38.4125 56.3874 38.343 56.5083C38.2735 56.6292 38.1588 56.7175 38.0242 56.7538L21.5812 61.4533C21.533 61.456 21.4847 61.4491 21.4391 61.433Z" fill="#231F20"/>
<path d="M21.5052 64.7123C21.395 64.714 21.2873 64.679 21.1991 64.6129C21.1109 64.5468 21.0472 64.4532 21.018 64.3469C20.983 64.2178 20.9994 64.0801 21.0638 63.9628C21.1281 63.8454 21.2354 63.7576 21.3631 63.7176L37.8162 59.0182C37.9508 58.9818 38.0944 59.0004 38.2152 59.0699C38.3361 59.1394 38.4244 59.254 38.4608 59.3886C38.4971 59.5232 38.4785 59.6668 38.409 59.7876C38.3395 59.9085 38.2249 59.9968 38.0903 60.0332L21.6473 64.7326C21.599 64.7353 21.5507 64.7284 21.5052 64.7123Z" fill="#231F20"/>
<path d="M54.6702 52.704C54.5356 52.704 54.4065 52.6505 54.3114 52.5553C54.2162 52.4602 54.1627 52.3311 54.1627 52.1965C54.1627 52.0619 54.2162 51.9328 54.3114 51.8376C54.4065 51.7425 54.5356 51.689 54.6702 51.689L66.4239 50.3492C66.5585 50.3344 66.6935 50.3737 66.7991 50.4584C66.9048 50.5431 66.9724 50.6663 66.9872 50.8009C67.002 50.9355 66.9628 51.0704 66.8781 51.1761C66.7934 51.2817 66.6702 51.3494 66.5356 51.3642L54.7819 52.704H54.6702Z" fill="#231F20"/>
<path d="M55.5075 56.3579C55.3729 56.3579 55.2438 56.3044 55.1486 56.2092C55.0535 56.114 55 55.985 55 55.8504C55 55.7158 55.0535 55.5867 55.1486 55.4915C55.2438 55.3963 55.3729 55.3429 55.5075 55.3429L67.2612 54.0031C67.3958 53.9883 67.5308 54.0275 67.6364 54.1122C67.742 54.1969 67.8097 54.3201 67.8245 54.4547C67.8393 54.5893 67.8001 54.7243 67.7154 54.8299C67.6307 54.9356 67.5074 55.0033 67.3729 55.0181L55.6192 56.3579H55.5075Z" fill="#231F20"/>
</svg>
