<svg width="210" height="210" viewBox="0 0 210 210" fill="none" xmlns="http://www.w3.org/2000/svg">
<path d="M43.1548 94.494L53.5769 100.734L46.428 109.553L36.4264 103.973L43.1548 94.494Z" fill="#FFC9B0"/>
<path d="M46.428 110.656C46.2336 110.65 46.0431 110.599 45.8712 110.508L35.8809 104.973C35.7402 104.894 35.6178 104.787 35.5218 104.658C35.4258 104.528 35.3584 104.38 35.324 104.223C35.2887 104.067 35.2866 103.905 35.318 103.749C35.3493 103.592 35.4133 103.444 35.5058 103.314L42.2228 93.8348C42.3883 93.601 42.636 93.4384 42.9163 93.3794C43.1965 93.3204 43.4887 93.3693 43.7344 93.5165L54.1566 99.7562C54.2956 99.8395 54.4151 99.9515 54.5073 100.085C54.5994 100.218 54.662 100.37 54.6908 100.529C54.7198 100.691 54.7135 100.857 54.6723 101.015C54.6311 101.174 54.556 101.323 54.4521 101.45L47.3146 110.269C47.2043 110.395 47.0677 110.495 46.9144 110.561C46.7612 110.628 46.5951 110.66 46.428 110.656ZM38.0858 103.552L46.1439 108.098L51.8267 101.04L43.4844 96.0056L38.0858 103.552Z" fill="black"/>
<path d="M119.474 136.489L124.27 144.65C124.27 144.65 127.225 149.196 127.396 152.071C127.566 154.947 126.702 159.664 119.872 161.721C113.234 163.732 108.347 139.479 108.347 139.479L119.474 136.489Z" fill="#FFC9B0"/>
<path d="M119.099 162.937C118.33 162.929 117.579 162.708 116.928 162.3C111.245 158.891 107.631 141.615 107.233 139.66C107.177 139.378 107.231 139.084 107.382 138.84C107.534 138.595 107.774 138.417 108.052 138.342L119.178 135.353C119.419 135.289 119.673 135.305 119.903 135.4C120.133 135.494 120.326 135.661 120.451 135.876L125.248 144.025C125.35 144.184 128.35 148.81 128.521 151.981C128.691 155.151 127.839 160.482 120.201 162.789C119.843 162.893 119.472 162.943 119.099 162.937ZM109.688 140.206C110.927 145.889 114.234 158.016 118.087 160.3C118.297 160.444 118.536 160.542 118.787 160.585C119.038 160.628 119.296 160.616 119.542 160.55C125.384 158.777 126.418 154.947 126.259 152.037C126.134 149.935 124.1 146.355 123.315 145.218L118.928 137.762L109.688 140.206Z" fill="black"/>
<path d="M87.6506 143.866L87.9461 128.966L61.3736 126.192C61.3736 125.738 61.3736 125.294 61.3736 124.885L51.5538 125.169L51.0423 125.113V125.181L45.9506 129.852C46.4848 148.037 46.1779 165.335 45.5642 169.154C44.3481 172.393 35.9035 183.702 28.6523 192.385L40.8589 202.614C49.3262 192.487 59.7028 179.076 61.0894 172.711C61.8055 169.438 61.9418 159.38 61.8509 148.844L73.2164 149.378C73.2164 149.378 83.5249 166.653 86.514 170.836C84.8206 175.45 80.5699 185.668 76.8079 194.317L91.4012 200.659C95.345 191.567 102.062 175.803 102.767 171.87C103.449 168.472 107.813 164.449 87.6506 143.866Z" fill="#939393"/>
<path d="M40.8248 203.716C40.5593 203.717 40.3019 203.624 40.0974 203.455L27.8909 193.226C27.7758 193.13 27.6807 193.013 27.6109 192.881C27.5412 192.749 27.4983 192.604 27.4845 192.455C27.4708 192.306 27.4866 192.156 27.531 192.014C27.5753 191.871 27.6474 191.738 27.7431 191.623C35.5058 182.315 43.2343 171.756 44.4277 168.824C45.0187 164.824 45.2914 147.48 44.78 129.852C44.7771 129.69 44.8091 129.528 44.8738 129.379C44.9385 129.23 45.0344 129.097 45.1551 128.988L50.0877 124.442C50.1537 124.385 50.2262 124.335 50.3036 124.294C50.4202 124.184 50.5576 124.098 50.7079 124.041C50.8582 123.984 51.0183 123.958 51.1788 123.965H51.622L61.3622 123.692C61.6637 123.692 61.9527 123.812 62.1659 124.025C62.379 124.238 62.4988 124.527 62.4988 124.828V125.147L88.0825 127.818C88.3617 127.848 88.6197 127.982 88.8065 128.192C88.9933 128.401 89.0957 128.673 89.094 128.954L88.8099 143.377C106.938 161.971 105.29 167.426 104.199 171.04C104.096 171.393 103.994 171.722 103.926 172.052C103.199 175.893 97.2771 189.953 92.4468 201.068C92.3269 201.343 92.1031 201.56 91.8242 201.67C91.5453 201.781 91.2339 201.777 90.9579 201.659L76.3647 195.328C76.227 195.269 76.1025 195.183 75.9982 195.076C75.8939 194.968 75.812 194.841 75.757 194.701C75.7021 194.562 75.6753 194.413 75.6782 194.263C75.681 194.113 75.7135 193.965 75.7737 193.828C79.1151 186.134 83.3544 176.007 85.2411 170.972C82.2065 166.551 74.2621 153.299 72.5459 150.446L62.9761 150.003C63.0557 162.391 62.7829 170.086 62.1805 172.893C61.044 178.178 54.1338 188.396 41.7227 203.273C41.6168 203.41 41.4808 203.522 41.3252 203.599C41.1695 203.676 40.9984 203.716 40.8248 203.716ZM30.2095 192.237L40.6884 200.977C52.0539 187.236 58.8732 177.11 59.9415 172.438C60.3507 170.563 60.8167 164.96 60.6803 148.855C60.6793 148.7 60.7101 148.546 60.7707 148.404C60.8313 148.261 60.9204 148.132 61.0326 148.025C61.1425 147.919 61.2725 147.836 61.4151 147.782C61.5576 147.727 61.7097 147.702 61.8623 147.707L73.2278 148.241C73.4162 148.248 73.6 148.301 73.7627 148.396C73.9254 148.492 74.0618 148.626 74.1598 148.787C74.2621 148.969 84.4796 166.085 87.4005 170.177C87.5098 170.327 87.5804 170.502 87.6062 170.687C87.632 170.871 87.6121 171.059 87.5483 171.234C85.8435 175.871 81.6837 185.838 78.2741 193.726L90.7761 199.159C97.1749 184.383 101.13 174.382 101.653 171.654C101.74 171.236 101.85 170.822 101.982 170.415C102.869 167.483 104.346 162.573 86.8095 144.661C86.7028 144.554 86.6187 144.426 86.5621 144.285C86.5055 144.145 86.4776 143.994 86.4799 143.843L86.7868 129.977L61.2599 127.306C60.9807 127.275 60.7227 127.142 60.5359 126.932C60.3491 126.722 60.2467 126.45 60.2484 126.17V125.988L51.5652 126.238H51.4402L47.0303 130.284C47.5418 148.548 47.2349 165.437 46.6212 169.279C46.6264 169.354 46.6264 169.43 46.6212 169.506C45.3369 172.893 37.2674 183.713 30.2095 192.237Z" fill="black"/>
<path d="M121.508 138.944C121.508 138.944 115.951 94.494 104.142 89.8569C91.3558 84.8219 76.8649 79.878 76.8649 79.878C75.3987 79.4461 36.1878 63.8867 27.7887 78.5368C23.9699 85.197 24.5723 90.8343 25.7543 94.4485C28.6752 103.279 37.6653 107.405 38.6882 107.848L46.394 94.3917C44.9165 93.7098 38.5177 89.8455 41.3705 86.9132C44.2232 83.9809 57.7026 89.3113 57.7026 89.3113L48.758 118.862L92.1628 131.557L99.1753 110.337L106.677 144.65L121.508 138.944Z" fill="#939393"/>
<path d="M106.654 145.786C106.467 145.785 106.284 145.739 106.119 145.65C105.975 145.572 105.85 145.463 105.752 145.331C105.654 145.2 105.585 145.049 105.551 144.888L98.9251 114.645L93.2424 131.83C93.1486 132.108 92.9506 132.339 92.69 132.475C92.4293 132.61 92.1263 132.64 91.8445 132.557L48.4738 119.862C48.3288 119.819 48.1938 119.748 48.0767 119.652C47.9596 119.556 47.8628 119.438 47.7918 119.305C47.6541 119.038 47.6217 118.73 47.7009 118.441L56.3387 89.9364C50.4059 87.6633 43.5753 86.254 42.2228 87.6633C42.0721 87.7908 41.9573 87.9552 41.8895 88.1406C41.8218 88.3259 41.8034 88.5257 41.8363 88.7203C42.1546 90.4592 45.5983 92.7096 46.9053 93.2665C47.0478 93.3325 47.1751 93.4273 47.2791 93.5449C47.3832 93.6625 47.4617 93.8005 47.5097 93.95C47.5578 94.0995 47.5743 94.2573 47.5583 94.4135C47.5423 94.5698 47.4941 94.721 47.4168 94.8576L39.6996 108.383C39.5607 108.624 39.3382 108.805 39.0743 108.893C38.8104 108.981 38.5233 108.969 38.2676 108.86C37.1992 108.394 27.7886 104.064 24.7085 94.7667C23.4583 90.9934 22.8105 85.0151 26.8339 78.0026C34.0396 65.4324 60.9985 72.9336 76.4329 78.5368C76.8534 78.6845 77.1148 78.7868 77.2171 78.8096C77.3194 78.8323 91.8899 83.8331 104.562 88.8112C116.849 93.6529 122.406 136.989 122.645 138.819C122.677 139.073 122.622 139.329 122.49 139.548C122.358 139.766 122.156 139.934 121.918 140.024L107.063 145.707C106.933 145.761 106.794 145.789 106.654 145.786ZM99.1752 109.201C99.4242 109.212 99.6626 109.305 99.8536 109.465C100.045 109.626 100.178 109.844 100.232 110.087L107.449 143.115L120.235 138.206C118.542 125.419 112.643 94.4257 103.699 90.9138C91.0716 85.9471 76.6488 81.0031 76.5011 80.9577L75.6259 80.6508C50.5082 71.5584 33.4372 70.9788 28.7774 79.1051C25.1632 85.3902 25.7315 90.6979 26.8339 94.0279C29.1866 101.131 35.7103 105.03 38.1994 106.314L44.8709 94.744C43.1775 93.7438 40.0747 91.6071 39.6087 89.0612C39.5011 88.5096 39.5355 87.9397 39.7084 87.4049C39.8814 86.8702 40.1873 86.3881 40.5975 86.0039C41.1544 85.4243 44.6663 82.8102 58.1572 88.152C58.4201 88.2566 58.6345 88.4555 58.7585 88.7099C58.8825 88.9642 58.9072 89.2557 58.8277 89.5272L50.2127 117.941L91.458 130.011L98.0386 109.974C98.1177 109.738 98.2716 109.536 98.4768 109.396C98.6821 109.256 98.9273 109.188 99.1752 109.201Z" fill="black"/>
<path d="M80.7557 78.8211L88.9101 80.9269L87.7136 85.5598C87.6017 86.0234 87.3984 86.46 87.1155 86.8439C86.8325 87.2277 86.4758 87.5512 86.0661 87.7954C85.6564 88.0395 85.2021 88.1993 84.7298 88.2654C84.2575 88.3315 83.7768 88.3026 83.3158 88.1804L82.1053 87.8678C81.186 87.6304 80.3986 87.0375 79.9164 86.2195C79.4342 85.4016 79.2967 84.4255 79.5341 83.5062L80.7448 78.8183L80.7557 78.8211Z" fill="#FFC9B0"/>
<path d="M84.2522 89.4249C83.8687 89.4231 83.4869 89.3735 83.1157 89.2772L81.8882 88.9589C80.6852 88.653 79.6518 87.8841 79.0132 86.8197C78.3746 85.7553 78.1824 84.4816 78.4785 83.2762L79.6833 78.5823C79.7589 78.2911 79.9469 78.0418 80.2061 77.889C80.3347 77.8122 80.4773 77.7617 80.6255 77.7402C80.7737 77.7188 80.9248 77.7268 81.0699 77.7639L89.2303 79.8666C89.5209 79.9439 89.7689 80.1333 89.9202 80.3932C90.0714 80.6531 90.1135 80.9623 90.0373 81.2532L88.8325 85.9471C88.568 86.9537 87.9795 87.8452 87.1578 88.4841C86.3361 89.1229 85.3271 89.4735 84.2863 89.4818L84.2522 89.4249ZM83.6385 87.0723C83.9576 87.1561 84.2904 87.1742 84.6167 87.1253C84.943 87.0765 85.256 86.9618 85.5365 86.7881C85.8162 86.6289 86.0609 86.415 86.2562 86.1593C86.4514 85.9035 86.5932 85.611 86.6731 85.2993L87.605 81.7078L81.6495 80.1621L80.7175 83.7649C80.5573 84.389 80.6514 85.0513 80.979 85.6061C81.1389 85.8874 81.3544 86.1332 81.6123 86.3285C81.8702 86.5239 82.1652 86.6648 82.4792 86.7427L83.6385 87.0723Z" fill="black"/>
<path d="M117.73 65.0019C118.703 61.2338 116.758 57.473 113.385 56.6019C110.012 55.7308 106.488 58.0793 105.515 61.8474C104.542 65.6155 106.488 69.3763 109.861 70.2474C113.234 71.1185 116.757 68.77 117.73 65.0019Z" fill="#FFC9B0"/>
<path d="M111.268 71.5585C110.693 71.5595 110.12 71.4869 109.563 71.3425C108.586 71.0861 107.675 70.6239 106.891 69.9869C106.107 69.3499 105.468 68.5527 105.017 67.6487C104.087 65.7565 103.866 63.5939 104.394 61.5527C104.921 59.5115 106.162 57.7268 107.893 56.5219C108.723 55.9516 109.665 55.5644 110.657 55.3861C111.648 55.2078 112.666 55.2424 113.643 55.4877C117.621 56.5106 119.94 60.909 118.815 65.2733C118.42 67.0035 117.468 68.556 116.104 69.6917C114.74 70.8273 113.041 71.4833 111.268 71.5585ZM111.939 57.5448C110.948 57.5533 109.982 57.8581 109.165 58.42C107.896 59.3082 106.985 60.6207 106.597 62.1211C106.21 63.6215 106.371 65.211 107.051 66.6031C107.353 67.2218 107.784 67.7684 108.316 68.2057C108.847 68.6431 109.466 68.9609 110.132 69.1376C112.893 69.8536 115.814 67.8647 116.621 64.7051C117.44 61.5455 115.848 58.3972 113.087 57.6926C112.712 57.5924 112.326 57.5427 111.939 57.5448Z" fill="black"/>
<path d="M70.8639 29.2562C68.7044 35.9845 65.1811 47.8728 65.6698 54.658C66.5791 66.3531 73.6257 79.0029 84.0933 81.7192C88.2266 82.8613 92.6024 82.781 96.691 81.488C100.78 80.195 104.406 77.7449 107.131 74.4339C109.771 71.2871 111.656 67.5784 112.643 63.5913C112.643 63.5913 114.087 60.9772 116.337 49.9527C118.588 38.9282 119.633 33.0295 99.5731 24.2781C84.0819 17.4588 73.0347 22.5392 70.8639 29.2562Z" fill="#FFC9B0"/>
<path d="M90.0829 83.6286C87.9737 83.6205 85.8739 83.3494 83.8318 82.8216C75.16 80.5486 65.7607 70.2173 64.5105 54.7489C64.1127 49.6231 65.8289 41.1103 69.7614 28.9152C70.3632 27.2821 71.3015 25.7938 72.5154 24.5466C73.7294 23.2994 75.1918 22.3212 76.808 21.6754C80.4222 20.0387 88.2416 18.0725 100.005 23.2211C121.031 32.4044 119.679 39.1328 117.428 50.1345C115.428 59.9884 114.019 63.2958 113.689 64.0004C112.648 68.0971 110.707 71.91 108.006 75.1613C105.826 77.8049 103.089 79.9346 99.9909 81.3983C96.8927 82.862 93.5095 83.6235 90.0829 83.6286ZM85.6617 22.255C82.9565 22.2078 80.2721 22.7346 77.7854 23.8007C76.4598 24.3157 75.2576 25.104 74.2569 26.1145C73.2563 27.1249 72.4797 28.3348 71.9777 29.6653C70.557 34.0637 66.2949 47.4523 66.8177 54.6694C67.6474 65.3074 74.0916 78.0482 84.4001 80.7077C88.3278 81.7853 92.4832 81.7053 96.3665 80.4774C100.25 79.2495 103.696 76.9259 106.29 73.7861C108.811 70.7666 110.614 67.2149 111.564 63.398C111.59 63.3062 111.628 63.2183 111.677 63.1367C111.677 63.1367 113.098 60.3748 115.246 49.7708C117.519 38.8373 118.485 33.8592 99.1411 25.3919C94.9061 23.4153 90.3107 22.3283 85.6389 22.1982L85.6617 22.255Z" fill="black"/>
<path d="M99.5957 66.7167C97.118 65.0687 89.7418 62.1705 85.3093 63.1366C79.4788 64.364 80.854 69.1716 77.1602 66.7167C74.5916 65.0119 73.8188 64.5459 72.8413 61.5909C71.5457 57.738 73.3641 53.4986 74.2165 49.6798C74.5969 48.3399 74.7317 46.9421 74.6143 45.5542C74.429 44.4486 73.9264 43.4207 73.1678 42.5955C72.4091 41.7702 71.427 41.1832 70.3409 40.9057C62.6806 39.0872 62.8511 50.1458 62.2146 54.8057L65.5106 55.6467L64.7264 58.3062C65.0759 63.7448 67.1311 68.9347 70.5999 73.138C74.0686 77.3413 78.7743 80.344 84.0477 81.7191C88.1875 82.8707 92.5727 82.7952 96.6704 81.502C100.768 80.2087 104.402 77.7532 107.131 74.4338C106.074 74.3548 105.022 74.2106 103.983 74.002C101.039 73.3541 103.199 71.2288 101.414 68.4897C100.937 67.779 100.318 67.1752 99.5957 66.7167Z" fill="#725858"/>
<path d="M90.0828 83.6286C87.9737 83.6205 85.8738 83.3494 83.8318 82.8216C78.304 81.4148 73.3654 78.2896 69.7277 73.8961C66.0899 69.5026 63.9408 64.0677 63.5899 58.3745C63.562 58.2395 63.562 58.1003 63.5899 57.9653L64.0445 56.431L61.8851 55.8741C61.6164 55.8043 61.3825 55.6387 61.2276 55.4084C61.0726 55.178 61.0074 54.899 61.044 54.6239C61.1236 54.0101 61.1918 53.2714 61.2713 52.4758C61.6577 48.4183 62.1919 42.872 65.4084 40.5648C66.1552 40.0616 67.0044 39.7303 67.8946 39.5947C68.7849 39.4591 69.6941 39.5226 70.5569 39.7805C71.8643 40.1119 73.0467 40.8174 73.9591 41.8106C74.8716 42.8038 75.4746 44.0416 75.6941 45.3724C75.8365 46.9007 75.694 48.4422 75.2736 49.9185C75.0918 50.771 74.8531 51.6575 74.603 52.544C73.8075 55.4876 72.9778 58.5449 73.8757 61.2272C74.7735 63.9095 75.2168 64.0913 77.6376 65.6938L77.7399 65.762C78.7969 66.4553 78.7969 66.4553 79.6038 65.4552C80.9043 63.6573 82.8521 62.4348 85.0365 62.0455C89.776 61.0454 97.4136 63.9436 100.175 65.7734C101.027 66.3209 101.758 67.0364 102.323 67.876C103.027 68.9889 103.38 70.2879 103.335 71.6039C103.335 72.7404 103.335 72.7404 104.187 72.9109C105.178 73.1056 106.18 73.2384 107.188 73.3087C107.395 73.3265 107.594 73.4009 107.762 73.5238C107.93 73.6467 108.061 73.8135 108.141 74.0058C108.221 74.1981 108.246 74.4087 108.214 74.6144C108.182 74.8202 108.095 75.0133 107.961 75.1726C105.784 77.8083 103.054 79.9323 99.9645 81.3937C96.8746 82.8552 93.5008 83.6182 90.0828 83.6286ZM65.8743 58.4313C66.239 63.607 68.2252 68.5362 71.5509 72.5188C74.8765 76.5013 79.3724 79.3348 84.4001 80.6167C87.9759 81.6061 91.7491 81.6364 95.3404 80.7047C98.9316 79.773 102.214 77.912 104.858 75.309L103.824 75.1158C101.289 74.5475 101.232 72.8427 101.198 71.7062C101.236 70.8073 101.007 69.9174 100.539 69.1489C100.144 68.5696 99.633 68.0782 99.0388 67.7055C96.5384 66.0348 89.5373 63.4776 85.6276 64.2959C84.7988 64.442 84.0072 64.7514 83.299 65.206C82.5908 65.6606 81.9799 66.2514 81.5019 66.944C80.6154 68.0806 79.3993 69.5581 76.6034 67.7055L76.5011 67.6373C73.9779 65.9666 72.9323 65.2733 71.8412 61.9546C70.7501 58.6359 71.6821 55.0785 72.5345 51.9643C72.7732 51.1006 73.0005 50.2595 73.1824 49.4298C73.5369 48.2288 73.6679 46.973 73.5688 45.7247C73.4144 44.8444 73.0113 44.0267 72.4071 43.3681C71.8029 42.7096 71.0229 42.2377 70.1591 42.0082C69.6121 41.8312 69.0326 41.7781 68.4625 41.8528C67.8924 41.9275 67.3461 42.1281 66.8632 42.4401C64.4878 44.1335 63.999 49.2594 63.6694 52.669C63.6694 53.1009 63.5899 53.51 63.5558 53.9078L65.8289 54.5102C65.9761 54.5476 66.1143 54.6142 66.2353 54.706C66.3563 54.7977 66.4577 54.9128 66.5335 55.0444C66.6095 55.1776 66.6578 55.3248 66.6753 55.4772C66.6929 55.6295 66.6795 55.7839 66.6358 55.9309L65.8743 58.4313Z" fill="black"/>
<path d="M87.6716 53.4128C87.9871 52.1912 87.2525 50.9452 86.031 50.6297C84.8094 50.3143 83.5633 51.0488 83.2478 52.2704C82.9324 53.492 83.6669 54.738 84.8885 55.0535C86.1101 55.369 87.3562 54.6344 87.6716 53.4128Z" fill="black"/>
<path d="M104.142 60.2384C105.404 60.2384 106.426 59.2156 106.426 57.9539C106.426 56.6923 105.404 55.6695 104.142 55.6695C102.88 55.6695 101.858 56.6923 101.858 57.9539C101.858 59.2156 102.88 60.2384 104.142 60.2384Z" fill="black"/>
<path d="M94.8336 62.1933H94.629C92.7168 61.9484 90.8424 61.4674 89.0485 60.7612C88.7687 60.652 88.5435 60.4365 88.4222 60.1618C88.3008 59.8871 88.2931 59.5755 88.4007 59.2951C88.4547 59.1552 88.5359 59.0273 88.6395 58.919C88.7432 58.8106 88.8673 58.7238 89.0046 58.6635C89.1419 58.6033 89.2898 58.5709 89.4398 58.5681C89.5897 58.5653 89.7387 58.5922 89.8782 58.6472C91.3471 59.2178 92.8704 59.6367 94.4244 59.8974C94.237 58.1164 93.773 56.3756 93.0492 54.7375C92.9346 54.4587 92.9356 54.1458 93.0517 53.8676C93.1679 53.5895 93.3898 53.3689 93.6686 53.2543C93.9474 53.1398 94.2603 53.1407 94.5385 53.2568C94.8167 53.373 95.0373 53.5949 95.1518 53.8737C96.0383 56.0445 97.3681 59.9202 96.2884 61.4659C96.1202 61.6931 95.9008 61.8773 95.648 62.0037C95.3952 62.1301 95.1162 62.1951 94.8336 62.1933Z" fill="black"/>
<path d="M88.3212 49.0207C88.3212 49.0207 87.6506 47.7818 84.9797 47.0545C84.4004 46.8259 83.7658 46.7763 83.158 46.912C82.5502 47.0478 81.9971 47.3626 81.5701 47.8159C81.2175 48.2974 80.6897 48.6208 80.1007 48.7165C79.5117 48.8122 78.9087 48.6724 78.4218 48.3274C78.1778 48.1534 77.9705 47.9328 77.812 47.6784C77.6535 47.424 77.5469 47.1408 77.4983 46.845C77.4497 46.5492 77.4601 46.2468 77.5289 45.955C77.5977 45.6633 77.7234 45.388 77.899 45.1451C78.8628 43.9366 80.1729 43.0517 81.6538 42.6089C83.1346 42.166 84.7155 42.1864 86.1845 42.6674C91.2762 44.0312 92.515 47.134 92.64 47.4863L88.3552 49.0207H88.3212Z" fill="black"/>
<path d="M110.768 55.6809C110.188 55.6819 109.629 55.4612 109.207 55.064C108.784 54.6668 108.53 54.1231 108.495 53.5442C108.427 53.351 108.04 52.9191 107.017 52.6008C105.664 52.2326 104.226 52.3328 102.937 52.885C102.407 53.1224 101.805 53.1476 101.257 52.9554C100.708 52.7633 100.254 52.3683 99.988 51.8517C99.7217 51.3351 99.6634 50.7362 99.8251 50.178C99.9867 49.6197 100.356 49.1446 100.857 48.8502C103.193 47.7289 105.864 47.5182 108.347 48.2592C112.098 49.3958 113.052 52.0553 113.03 53.4419C113.021 54.0369 112.779 54.6046 112.356 55.0232C111.933 55.4419 111.363 55.678 110.768 55.6809Z" fill="black"/>
<path d="M70.7615 48.3388C70.7615 48.3388 65.9766 42.7924 61.4873 47.2022C56.9979 51.612 57.748 61.2386 68.0679 61.1477L70.7615 48.3388Z" fill="#FFC9B0"/>
<path d="M67.8974 62.2614C63.2489 62.2614 59.771 60.3066 58.3617 56.8856C57.6774 55.1001 57.5279 53.154 57.9316 51.285C58.3352 49.416 59.2746 47.705 60.6348 46.3611C61.2533 45.709 62.0019 45.1941 62.832 44.8495C63.6621 44.5049 64.5553 44.3384 65.4538 44.3608C68.8634 44.4972 71.4661 47.4636 71.5684 47.5886C71.6825 47.7213 71.7645 47.8785 71.8078 48.0481C71.8512 48.2176 71.8548 48.3949 71.8184 48.5661L69.1135 61.3636C69.058 61.6221 68.9142 61.8531 68.7067 62.017C68.4993 62.1809 68.2412 62.2673 67.9769 62.2614H67.8974ZM65.2265 46.6226C64.6643 46.6398 64.1112 46.7693 63.5998 47.0035C63.0884 47.2378 62.629 47.572 62.2487 47.9864C61.215 49.0156 60.4977 50.3192 60.1814 51.7432C59.8652 53.1671 59.9634 54.6519 60.4643 56.0218C61.4531 58.3972 63.7944 59.7838 67.1131 59.9656L69.4999 48.6911C68.3943 47.5602 66.9419 46.8319 65.3742 46.6226H65.2265Z" fill="black"/>
<path d="M84.7978 68.0578L93.0605 70.0809C93.0605 70.0809 90.5714 76.6274 87.0595 76.1728C83.5476 75.7181 84.7978 68.0578 84.7978 68.0578Z" fill="white"/>
<path d="M87.4233 77.3321C87.2568 77.3434 87.0897 77.3434 86.9232 77.3321C86.4708 77.2779 86.0349 77.1295 85.6434 76.8966C85.2519 76.6636 84.9135 76.3513 84.6501 75.9796C82.8202 73.536 83.5817 68.4784 83.6726 67.9101C83.6976 67.7565 83.7539 67.6096 83.838 67.4786C83.922 67.3476 84.0321 67.2353 84.1614 67.1486C84.4278 66.9788 84.7507 66.9216 85.0592 66.9895L93.3219 69.0126C93.4793 69.051 93.6266 69.1225 93.754 69.2225C93.8814 69.3225 93.986 69.4485 94.0607 69.5922C94.1356 69.7347 94.1794 69.8914 94.1892 70.0521C94.199 70.2127 94.1746 70.3737 94.1175 70.5242C93.8448 71.2175 91.4012 77.3321 87.4233 77.3321ZM85.7753 69.4672C85.6275 71.2629 85.7184 73.5815 86.4686 74.593C86.5525 74.7167 86.6618 74.8212 86.7892 74.8996C86.9165 74.978 87.059 75.0284 87.2073 75.0476C88.9121 75.2636 90.617 72.6722 91.4694 70.8651L85.7753 69.4672Z" fill="black"/>
<path d="M120.393 41.7598L69.523 28.0722L71.1767 21.9261C72.6922 16.2937 76.3831 11.4941 81.4374 8.58302C86.4917 5.67196 92.4955 4.88796 98.1278 6.40347L106.524 8.66259C112.156 10.1781 116.956 13.869 119.867 18.9233C122.778 23.9776 123.562 29.9813 122.046 35.6137L120.393 41.7598Z" fill="#FFBC0E"/>
<path d="M120.406 42.8834C120.308 42.8945 120.209 42.8945 120.11 42.8834L69.2385 29.2448C68.9501 29.165 68.7047 28.9746 68.5558 28.715C68.4068 28.4554 68.3663 28.1475 68.443 27.8582L70.091 21.7095C71.674 15.7746 75.5496 10.7116 80.8652 7.63389C86.1809 4.55619 92.5013 3.71586 98.4365 5.29771L106.836 7.5708C112.753 9.17093 117.794 13.0524 120.853 18.3639C123.913 23.6755 124.741 29.9836 123.156 35.905L121.508 42.0423C121.47 42.1874 121.402 42.3234 121.311 42.4424C121.219 42.5614 121.105 42.6611 120.974 42.7356C120.801 42.8338 120.605 42.8847 120.406 42.8834ZM70.932 27.2558L119.633 40.3602L120.997 35.3139C122.429 29.9728 121.683 24.2818 118.924 19.4897C116.164 14.6976 111.617 11.1959 106.279 9.75298L97.8796 7.47988C92.5307 6.05008 86.8329 6.80342 82.0394 9.57422C77.2459 12.345 73.7493 16.9064 72.3186 22.255L70.932 27.2558Z" fill="black"/>
<path d="M65.7168 37.2399L119.1 51.6038C121.724 52.31 124.425 50.7548 125.131 48.1302C125.837 45.5056 124.282 42.8055 121.657 42.0993L68.2742 27.7354C65.6496 27.0292 62.9495 28.5844 62.2433 31.209C61.5371 33.8335 63.0922 36.5337 65.7168 37.2399Z" fill="#FFBC0E"/>
<path d="M120.395 52.9077C119.861 52.9037 119.33 52.8311 118.815 52.6917L65.3971 38.3258C64.6192 38.1275 63.8884 37.7765 63.2473 37.2933C62.6062 36.8101 62.0676 36.2043 61.6627 35.5111C61.2578 34.8179 60.9947 34.0512 60.8887 33.2554C60.7827 32.4596 60.836 31.6507 61.0454 30.8757C61.2547 30.1007 61.6161 29.3751 62.1084 28.7409C62.6006 28.1068 63.2141 27.5768 63.913 27.1819C64.6119 26.7869 65.3823 26.5347 66.1795 26.4401C66.9767 26.3455 67.7847 26.4103 68.5567 26.6307L121.974 40.9966C123.396 41.3757 124.63 42.2589 125.448 43.4814C126.266 44.704 126.611 46.1824 126.419 47.6407C126.227 49.0991 125.511 50.4377 124.405 51.4069C123.298 52.376 121.877 52.9095 120.406 52.9077H120.395ZM66.0108 36.1322L119.429 50.4982C119.912 50.6387 120.419 50.6813 120.919 50.6237C121.419 50.566 121.902 50.4091 122.341 50.1622C122.78 49.9154 123.165 49.5835 123.474 49.186C123.782 48.7884 124.009 48.3333 124.14 47.8472C124.27 47.3611 124.303 46.8538 124.235 46.3549C124.168 45.8561 124.001 45.3758 123.745 44.9421C123.49 44.5085 123.15 44.1301 122.747 43.8293C122.343 43.5285 121.883 43.3112 121.395 43.1902L67.9884 28.8242C67.5086 28.6895 67.0065 28.6533 66.5123 28.7178C66.0182 28.7822 65.5421 28.946 65.1129 29.1993C64.4647 29.5725 63.9415 30.1294 63.6095 30.7997C63.2775 31.47 63.1516 32.2236 63.2477 32.9655C63.3438 33.7073 63.6575 34.404 64.1493 34.9676C64.6411 35.5312 65.2889 35.9365 66.0108 36.1322Z" fill="black"/>
<path d="M102.687 36.9897L87.2451 32.8347L93.3876 10.0065C93.9358 7.96893 95.271 6.23262 97.0995 5.17953C98.9279 4.12643 101.1 3.84281 103.137 4.39106C105.175 4.93931 106.911 6.27451 107.964 8.10295C109.017 9.93138 109.301 12.1033 108.753 14.1408L102.61 36.9691L102.687 36.9897Z" fill="#FFBC0E"/>
<path d="M102.687 38.1212C102.589 38.1369 102.49 38.1369 102.392 38.1212L86.9573 33.9728C86.8122 33.934 86.6762 33.8668 86.5572 33.7751C86.4382 33.6834 86.3386 33.569 86.264 33.4386C86.1186 33.1753 86.078 32.8668 86.1504 32.5748L92.3559 9.70748C92.663 8.54759 93.1967 7.45997 93.9261 6.50729C94.6555 5.55461 95.5663 4.75572 96.6059 4.15668C97.6455 3.55763 98.7934 3.17028 99.9834 3.01694C101.173 2.8636 102.382 2.94731 103.54 3.26325L103.244 4.3998L103.54 3.26325C104.699 3.57036 105.787 4.10401 106.74 4.83343C107.692 5.56285 108.491 6.47362 109.09 7.51323C109.689 8.55285 110.077 9.70074 110.23 10.8908C110.383 12.0808 110.3 13.2894 109.984 14.4469L103.846 37.2688C103.781 37.5228 103.63 37.7464 103.419 37.9018C103.208 38.0572 102.949 38.1347 102.687 38.1212ZM88.6508 32.0293L101.892 35.6435L107.733 13.9241C107.972 13.0546 108.036 12.1465 107.921 11.2522C107.806 10.358 107.515 9.49538 107.065 8.71429C106.615 7.9332 106.014 7.24914 105.298 6.70171C104.581 6.15427 103.764 5.75431 102.892 5.52498C102.023 5.28627 101.116 5.22205 100.222 5.33604C99.3283 5.45003 98.4661 5.73997 97.6852 6.1891C96.9042 6.63823 96.22 7.23765 95.672 7.95274C95.124 8.66783 94.7232 9.48441 94.4926 10.3553L88.6508 32.0293Z" fill="black"/>
<path d="M79.7175 103.973C79.7175 103.973 88.8099 101.222 94.7768 83.9354L101.051 85.9698C101.051 85.9698 90.0942 106.86 97.3567 117.191L87.6506 143.866C87.6506 143.866 45.7575 129.397 45.9166 129.852C46.0757 130.307 51.8153 103.598 51.8153 103.598C51.8153 103.598 58.7141 98.0627 62.2147 93.3687C65.7153 88.6748 70.0341 78.2413 70.0341 78.2413L76.8534 79.912C76.8534 79.912 71.3184 94.8462 79.7175 103.973Z" fill="#CA0C0C"/>
<path d="M87.6507 145.002C87.527 145.006 87.4035 144.987 87.287 144.945C71.7731 139.581 48.3034 131.568 45.928 131C45.6787 131.012 45.4324 130.942 45.227 130.8C45.0216 130.658 44.8685 130.453 44.7915 130.216C44.7412 130.064 44.7234 129.904 44.739 129.746C44.7547 129.587 44.8035 129.434 44.8824 129.295C45.3938 127.602 48.5875 113.008 50.6674 103.359C50.7217 103.104 50.8622 102.875 51.0652 102.711C51.1334 102.711 57.8845 97.2103 61.2941 92.6641C64.7038 88.1179 68.9204 77.889 68.9658 77.7639C69.0714 77.5153 69.2621 77.3124 69.5037 77.1916C69.7453 77.0708 70.022 77.04 70.2842 77.1048L77.1035 78.7755C77.2593 78.8135 77.4053 78.8841 77.5319 78.9827C77.6585 79.0812 77.7628 79.2054 77.8379 79.3471C77.9131 79.4888 77.9574 79.6448 77.9679 79.8049C77.9785 79.9649 77.955 80.1254 77.8991 80.2757C77.8423 80.4121 72.9097 94.062 79.9676 102.609C82.0816 101.586 88.8895 97.3353 93.6062 83.5603C93.7044 83.2783 93.9097 83.0462 94.1777 82.9144C94.4457 82.7825 94.7548 82.7614 95.0382 82.8557L101.312 84.8787C101.471 84.9302 101.616 85.0159 101.738 85.1298C101.86 85.2438 101.955 85.3831 102.017 85.5379C102.086 85.6875 102.122 85.8504 102.122 86.0153C102.122 86.1801 102.086 86.343 102.017 86.4926C101.903 86.6972 91.4695 106.894 98.2433 116.543C98.347 116.692 98.4134 116.864 98.4372 117.044C98.4609 117.223 98.4412 117.406 98.3797 117.577L88.6736 144.252C88.5969 144.465 88.4587 144.649 88.2765 144.783C88.0943 144.917 87.8764 144.993 87.6507 145.002ZM47.3032 129.09C49.6559 129.716 54.8954 131.5 67.261 135.717C75.6828 138.581 84.0706 141.479 86.9688 142.536L96.0611 117.452C90.0261 107.917 97.1977 91.3684 99.4708 86.7654L95.5042 85.4811C89.4237 102.177 80.4563 105.075 80.0699 105.189C79.8695 105.245 79.6575 105.245 79.4571 105.189C79.2567 105.133 79.0755 105.023 78.9334 104.871C71.5003 96.7784 74.319 84.6855 75.5237 80.8213L70.7843 79.6847C69.6478 82.3442 66.2381 90.1523 63.2149 94.1643C60.0553 98.4264 54.3498 103.257 52.986 104.393C52.6564 105.894 51.4516 111.508 50.2128 117.134C48.5875 123.76 47.8147 127.249 47.3032 129.045V129.09Z" fill="black"/>
<path d="M94.5608 126.022C94.3607 126.02 94.1646 125.965 93.9925 125.863L75.9555 115.259L50.2127 114.065C50.0585 114.066 49.9059 114.034 49.7642 113.974C49.6225 113.913 49.4946 113.824 49.3882 113.713C49.2819 113.601 49.1994 113.469 49.1458 113.324C49.0921 113.18 49.0684 113.026 49.0761 112.872C49.0907 112.581 49.2169 112.306 49.4285 112.105C49.64 111.904 49.9208 111.792 50.2127 111.792L76.2396 113.02C76.4237 113.023 76.6038 113.074 76.7624 113.168L95.0381 123.908C95.258 124.032 95.4301 124.227 95.5272 124.46C95.6244 124.693 95.641 124.952 95.5746 125.196C95.5081 125.44 95.3623 125.654 95.1601 125.806C94.958 125.958 94.7111 126.038 94.4585 126.033L94.5608 126.022Z" fill="black"/>
<path d="M91.3216 135.035C91.1187 135.038 90.9186 134.987 90.742 134.887L72.7164 124.294L48.3147 123.635C48.0132 123.627 47.7272 123.501 47.5193 123.282C47.3115 123.064 47.199 122.772 47.2065 122.47C47.2141 122.169 47.341 121.883 47.5595 121.675C47.778 121.467 48.0701 121.354 48.3715 121.362L73.0346 122.021C73.227 122.027 73.4147 122.082 73.5801 122.18L91.8672 132.921C92.0093 132.989 92.1358 133.085 92.2385 133.205C92.3412 133.324 92.418 133.464 92.464 133.614C92.5099 133.765 92.524 133.924 92.5054 134.08C92.4868 134.237 92.4359 134.387 92.3559 134.523C92.2449 134.693 92.0904 134.83 91.9085 134.92C91.7266 135.01 91.524 135.049 91.3216 135.035Z" fill="black"/>
<path d="M68.6135 138.001C68.4891 138 68.3659 137.977 68.2498 137.933C67.9656 137.837 67.7309 137.633 67.5968 137.364C67.4627 137.096 67.44 136.786 67.5338 136.501L78.6378 103.609C78.6856 103.467 78.7608 103.336 78.8592 103.224C78.9576 103.111 79.0772 103.019 79.2112 102.952C79.3453 102.886 79.4911 102.846 79.6404 102.836C79.7896 102.826 79.9394 102.845 80.0812 102.893C80.223 102.941 80.354 103.016 80.4667 103.114C80.5795 103.213 80.6717 103.332 80.7382 103.466C80.8047 103.6 80.8441 103.746 80.8543 103.896C80.8644 104.045 80.845 104.195 80.7973 104.336L69.6932 137.228C69.6169 137.454 69.4717 137.65 69.2779 137.789C69.0842 137.927 68.8517 138.002 68.6135 138.001Z" fill="black"/>
<path d="M140.83 155.304L155.806 166.073C158.184 167.783 159.786 170.369 160.259 173.26C160.731 176.152 160.036 179.113 158.325 181.492L156.633 183.845C154.922 186.223 152.337 187.825 149.445 188.298C146.554 188.77 143.593 188.074 141.214 186.364L126.238 175.595L140.836 155.294L140.83 155.304Z" fill="white"/>
<path d="M147.66 189.6C145.116 189.607 142.635 188.811 140.568 187.327L125.554 176.576C125.433 176.488 125.331 176.377 125.252 176.249C125.174 176.122 125.122 175.98 125.099 175.832C125.076 175.684 125.082 175.533 125.117 175.388C125.152 175.242 125.216 175.105 125.304 174.984L139.886 154.708C140.062 154.465 140.326 154.301 140.622 154.252C140.918 154.203 141.222 154.273 141.466 154.447L156.48 165.244C157.785 166.179 158.892 167.362 159.738 168.726C160.584 170.09 161.152 171.608 161.409 173.192C161.667 174.776 161.609 176.396 161.239 177.957C160.869 179.519 160.194 180.992 159.253 182.292L157.571 184.531C156.441 186.103 154.952 187.382 153.228 188.264C151.505 189.145 149.596 189.604 147.66 189.6ZM127.805 175.337L141.898 185.463C144.034 186.99 146.687 187.608 149.278 187.182C151.868 186.756 154.184 185.32 155.718 183.19L157.412 180.838C158.938 178.702 159.556 176.048 159.13 173.458C158.704 170.867 157.269 168.551 155.139 167.017L141.057 156.891L127.805 175.337Z" fill="black"/>
<path d="M140.54 168.233L67.3293 115.587L65.1927 118.559L138.403 171.204L140.54 168.233Z" fill="black"/>
<path d="M138.386 172.336C138.145 172.337 137.911 172.261 137.716 172.12L64.5106 119.475C64.2674 119.3 64.1034 119.035 64.0544 118.739C64.0055 118.443 64.0755 118.14 64.2492 117.895L66.3859 114.918C66.5624 114.674 66.828 114.511 67.1247 114.463C67.2732 114.439 67.4251 114.445 67.5714 114.48C67.7177 114.515 67.8556 114.579 67.9771 114.668L141.228 167.313C141.35 167.4 141.453 167.51 141.532 167.637C141.612 167.764 141.665 167.906 141.689 168.054C141.714 168.202 141.708 168.353 141.674 168.499C141.64 168.645 141.577 168.782 141.489 168.904L139.352 171.87C139.176 172.113 138.91 172.277 138.614 172.325L138.386 172.336ZM66.7837 118.293L138.148 169.62L138.954 168.483L67.5906 117.157L66.7837 118.293Z" fill="black"/>
<path d="M150.854 179.121L130.078 167.108L133.942 161.721L151.945 177.632C152.106 177.789 152.205 177.999 152.224 178.223C152.243 178.447 152.18 178.67 152.047 178.851C151.914 179.033 151.72 179.16 151.501 179.209C151.282 179.259 151.052 179.228 150.854 179.121Z" fill="white"/>
<path d="M151.343 180.383C150.972 180.382 150.608 180.284 150.286 180.099L129.51 168.085C129.372 168.006 129.253 167.898 129.16 167.77C129.067 167.641 129.001 167.495 128.968 167.34C128.935 167.184 128.934 167.024 128.967 166.868C129 166.713 129.065 166.566 129.157 166.437L133.022 161.062C133.114 160.933 133.233 160.825 133.37 160.744C133.507 160.664 133.659 160.613 133.817 160.596C133.974 160.578 134.133 160.593 134.284 160.64C134.434 160.687 134.573 160.765 134.692 160.868L152.695 176.78C153.006 177.059 153.225 177.425 153.324 177.831C153.423 178.236 153.399 178.662 153.253 179.053C153.107 179.444 152.847 179.782 152.506 180.023C152.165 180.265 151.76 180.398 151.343 180.406V180.383ZM151.422 178.11L150.854 179.099L151.434 178.11H151.422ZM131.726 166.744L149.672 177.121L134.135 163.403L131.726 166.744Z" fill="black"/>
<path d="M57.8275 114.27L65.1014 119.498L68.1928 115.213L60.9189 109.985" fill="white"/>
<path d="M65.0787 120.635C64.8411 120.638 64.6091 120.562 64.4195 120.419L57.1229 115.202C56.9952 115.117 56.8858 115.008 56.8015 114.88C56.7171 114.752 56.6594 114.609 56.632 114.458C56.6045 114.307 56.6077 114.153 56.6416 114.003C56.6754 113.854 56.739 113.713 56.8287 113.589C56.9184 113.464 57.0322 113.36 57.1634 113.281C57.2946 113.202 57.4404 113.15 57.5921 113.129C57.7438 113.107 57.8982 113.117 58.0461 113.157C58.194 113.197 58.3323 113.266 58.4527 113.361L64.7946 117.907L66.5563 115.463L60.203 110.917C59.9573 110.741 59.7917 110.474 59.7427 110.176C59.6937 109.877 59.7652 109.572 59.9415 109.326C60.1179 109.08 60.3846 108.915 60.683 108.866C60.9814 108.817 61.2871 108.888 61.5327 109.065L68.8066 114.304C69.0498 114.48 69.2138 114.744 69.2628 115.04C69.3117 115.336 69.2417 115.639 69.068 115.884L65.9766 120.18C65.8001 120.423 65.5345 120.587 65.2379 120.635H65.0787Z" fill="black"/>
<path d="M47.4736 115.554L44.9391 113.736C44.7648 113.611 44.6168 113.454 44.5036 113.272C44.3903 113.091 44.3141 112.888 44.2793 112.677C44.2444 112.466 44.2516 112.25 44.3005 112.041C44.3494 111.833 44.4389 111.636 44.564 111.463L54.0429 98.29C54.1672 98.1157 54.3247 97.9677 54.5063 97.8545C54.688 97.7412 54.8903 97.665 55.1015 97.6301C55.3127 97.5953 55.5287 97.6025 55.7371 97.6514C55.9455 97.7003 56.1422 97.7898 56.3159 97.9149L58.8505 99.7448C60.9454 101.252 62.3558 103.53 62.7715 106.077C63.1871 108.624 62.5739 111.232 61.0667 113.327C59.5596 115.421 57.2819 116.832 54.7349 117.248C52.1878 117.663 49.5799 117.05 47.485 115.543L47.4736 115.554ZM48.1442 112.042L49.3603 112.917C50.0521 113.415 50.8351 113.772 51.6647 113.967C52.4944 114.162 53.3543 114.192 54.1954 114.055C55.0366 113.917 55.8424 113.616 56.567 113.167C57.2917 112.719 57.9208 112.132 58.4186 111.44C58.9163 110.748 59.273 109.965 59.4681 109.135C59.6632 108.306 59.693 107.446 59.5558 106.605C59.4186 105.764 59.1171 104.958 58.6685 104.233C58.2198 103.508 57.6328 102.879 56.9411 102.382L55.725 101.518L48.1442 112.042Z" fill="white"/>
<path d="M53.1223 118.521C50.853 118.521 48.6415 117.805 46.8031 116.475L44.2686 114.656C43.6681 114.231 43.2598 113.585 43.132 112.861C43.0169 112.137 43.1926 111.398 43.6207 110.803L53.0882 97.6308C53.5184 97.0399 54.1645 96.6427 54.886 96.5256C55.6076 96.4086 56.3461 96.5811 56.9411 97.0057L59.4756 98.8242C61.221 100.075 62.5565 101.816 63.3133 103.826C64.0702 105.835 64.2146 108.024 63.7281 110.116C63.2416 112.208 62.1462 114.108 60.5802 115.578C59.0142 117.048 57.0478 118.02 54.9294 118.373C54.3324 118.474 53.7278 118.523 53.1223 118.521ZM55.3954 98.756C55.3177 98.7569 55.2414 98.7758 55.1723 98.8113C55.1033 98.8468 55.0435 98.8979 54.9976 98.9606L45.5188 112.133C45.4818 112.185 45.4558 112.244 45.4421 112.307C45.4284 112.369 45.4274 112.434 45.4392 112.497C45.4624 112.623 45.5312 112.736 45.6324 112.815L48.1669 114.634C49.0834 115.293 50.1206 115.765 51.2194 116.023C52.3183 116.281 53.4572 116.32 54.5711 116.138C55.6851 115.956 56.7523 115.556 57.7117 114.962C58.6712 114.367 59.5043 113.589 60.1632 112.673C60.8222 111.757 61.2942 110.719 61.5523 109.621C61.8104 108.522 61.8495 107.383 61.6674 106.269C61.4854 105.155 61.0857 104.088 60.4912 103.128C59.8967 102.169 59.1191 101.336 58.2027 100.677L55.6682 98.8469C55.579 98.783 55.4709 98.751 55.3613 98.756H55.3954ZM53.1223 115.281C51.5293 115.281 49.9776 114.776 48.6898 113.838L47.4736 112.974C47.2304 112.798 47.0669 112.532 47.019 112.235C46.9934 112.088 46.9973 111.936 47.0304 111.79C47.0636 111.644 47.1254 111.505 47.2122 111.383L54.793 100.847C54.9695 100.604 55.2351 100.441 55.5318 100.393C55.8266 100.344 56.1288 100.413 56.3728 100.586L57.5889 101.461C58.821 102.338 59.7644 103.562 60.2992 104.977C60.8341 106.391 60.9362 107.933 60.5927 109.406C60.2491 110.879 59.4754 112.216 58.3699 113.248C57.2643 114.28 55.8768 114.96 54.3839 115.202C53.9699 115.262 53.5519 115.288 53.1337 115.281H53.1223ZM49.7126 111.792L50.0082 111.997C51.1609 112.822 52.5934 113.157 53.9926 112.929C55.3918 112.701 56.6438 111.929 57.4753 110.781C58.2991 109.626 58.6325 108.193 58.4025 106.794C58.1725 105.395 57.3978 104.143 56.2478 103.314L55.9637 103.098L49.7126 111.792Z" fill="black"/>
<path d="M56.1059 100.49L50.1416 96.8239C49.3502 96.3374 48.3142 96.5846 47.8277 97.376L47.673 97.6277C47.1865 98.4191 47.4337 99.4551 48.2251 99.9416L54.1894 103.608C54.9808 104.095 56.0168 103.847 56.5033 103.056L56.6581 102.804C57.1446 102.013 56.8974 100.977 56.1059 100.49Z" fill="#FFC9B0"/>
<path d="M55.0771 104.973C54.5551 104.973 54.0434 104.827 53.5996 104.552L47.6441 100.893C47.0084 100.501 46.5545 99.8721 46.3819 99.1454C46.2092 98.4187 46.3321 97.6532 46.7235 97.0171L46.8712 96.7671C47.2634 96.1314 47.8919 95.6775 48.6185 95.5048C49.3452 95.3322 50.1107 95.4551 50.7468 95.8464L56.7024 99.5061C57.0196 99.6994 57.2954 99.9535 57.5141 100.254C57.7327 100.554 57.8899 100.895 57.9765 101.256C58.0631 101.617 58.0775 101.992 58.0187 102.359C57.96 102.725 57.8294 103.077 57.6343 103.393L57.4866 103.632C57.2318 104.042 56.877 104.38 56.4554 104.614C56.0339 104.849 55.5595 104.972 55.0771 104.973ZM54.7929 102.62C54.8541 102.658 54.9221 102.683 54.9929 102.694C55.0637 102.705 55.136 102.702 55.2057 102.685C55.2754 102.668 55.341 102.637 55.3989 102.595C55.4568 102.553 55.5058 102.5 55.5431 102.438L55.6908 102.2C55.7317 102.139 55.759 102.069 55.7708 101.997C55.7826 101.924 55.7785 101.85 55.759 101.779C55.7441 101.709 55.7152 101.643 55.6742 101.585C55.6332 101.526 55.5809 101.476 55.5203 101.438L49.5648 97.7786C49.4395 97.7026 49.2893 97.6791 49.1467 97.7131C49.0042 97.7472 48.8808 97.836 48.8033 97.9604L48.6556 98.2105C48.6169 98.2704 48.5909 98.3376 48.5792 98.408C48.5675 98.4784 48.5703 98.5504 48.5874 98.6196C48.6238 98.7612 48.7133 98.8833 48.8374 98.9606L54.7929 102.62Z" fill="black"/>
<path d="M56.4356 111.359L60.4152 105.599C60.9433 104.834 60.7517 103.787 59.9874 103.258L59.7443 103.09C58.98 102.562 57.9323 102.754 57.4042 103.518L53.4247 109.278C52.8966 110.043 53.0881 111.09 53.8524 111.618L54.0956 111.786C54.8599 112.314 55.9076 112.123 56.4356 111.359Z" fill="#FFC9B0"/>
<path d="M55.0431 113.202C54.4705 113.202 53.9115 113.027 53.4405 112.701L53.2019 112.531C52.587 112.106 52.1661 111.454 52.0318 110.719C51.8975 109.983 52.0609 109.225 52.4858 108.61L56.4637 102.859C56.8888 102.244 57.5407 101.823 58.276 101.689C59.0113 101.555 59.7699 101.718 60.3848 102.143L60.6235 102.302C61.2384 102.727 61.6593 103.379 61.7936 104.114C61.9278 104.85 61.7645 105.608 61.3396 106.223L57.3616 111.974C57.1504 112.274 56.882 112.528 56.5718 112.723C56.2616 112.918 55.9159 113.05 55.5545 113.111C55.3862 113.152 55.2154 113.183 55.0431 113.202ZM58.7823 103.916C58.6942 103.917 58.6075 103.938 58.5288 103.977C58.45 104.017 58.3812 104.073 58.3277 104.143L54.3611 109.894C54.2791 110.018 54.2466 110.168 54.2702 110.315C54.2972 110.457 54.3787 110.584 54.4975 110.667L54.7362 110.826C54.8555 110.909 55.0023 110.941 55.1453 110.917C55.2858 110.885 55.4106 110.805 55.4977 110.69L59.4756 104.939C59.5175 104.88 59.5463 104.814 59.5601 104.743C59.5738 104.672 59.5721 104.6 59.5552 104.53C59.5459 104.456 59.5207 104.386 59.4815 104.323C59.4422 104.26 59.3898 104.207 59.3279 104.166L59.1005 104.007C59.0064 103.944 58.8953 103.913 58.7823 103.916Z" fill="black"/>
<path d="M54.1799 103.604L48.2156 99.9371C47.4242 99.4506 46.3882 99.6978 45.9017 100.489L45.747 100.741C45.2605 101.532 45.5076 102.568 46.2991 103.055L52.2634 106.721C53.0548 107.208 54.0908 106.961 54.5773 106.169L54.732 105.917C55.2185 105.126 54.9713 104.09 54.1799 103.604Z" fill="#FFC9B0"/>
<path d="M53.1563 108.098C52.6375 108.101 52.1287 107.955 51.6902 107.678L45.7574 104.018C45.4406 103.826 45.165 103.573 44.9465 103.274C44.7279 102.974 44.5708 102.635 44.4842 102.275C44.3975 101.914 44.3831 101.54 44.4417 101.174C44.5002 100.809 44.6307 100.458 44.8254 100.143L44.9732 99.9039C45.3657 99.2656 45.9954 98.8091 46.724 98.6343C47.4527 98.4596 48.2209 98.581 48.8602 98.9719L54.8157 102.632C55.4521 103.026 55.9063 103.656 56.0788 104.385C56.2514 105.114 56.1282 105.881 55.7363 106.519L55.5886 106.757C55.3956 107.075 55.1415 107.351 54.841 107.569C54.5406 107.788 54.1997 107.944 53.8383 108.03C53.6141 108.078 53.3855 108.1 53.1563 108.098ZM47.36 100.825C47.2664 100.824 47.1744 100.848 47.0928 100.894C47.0112 100.94 46.9427 101.006 46.894 101.086L46.7462 101.336C46.7048 101.395 46.6772 101.462 46.6654 101.533C46.6536 101.604 46.6579 101.676 46.678 101.745C46.693 101.815 46.7218 101.881 46.7628 101.94C46.8038 101.998 46.8561 102.048 46.9167 102.086L52.8722 105.746C52.9978 105.823 53.1491 105.848 53.2927 105.814C53.4343 105.778 53.5564 105.688 53.6337 105.564L53.7815 105.325C53.859 105.2 53.8835 105.048 53.8496 104.905C53.8102 104.765 53.7214 104.643 53.5996 104.564L47.6441 100.904C47.5571 100.855 47.4597 100.828 47.36 100.825Z" fill="black"/>
<path d="M52.269 106.732L46.3047 103.066C45.5133 102.579 44.4773 102.827 43.9908 103.618L43.8361 103.87C43.3496 104.661 43.5967 105.697 44.3882 106.184L50.3525 109.85C51.1439 110.337 52.1799 110.089 52.6664 109.298L52.8211 109.046C53.3076 108.255 53.0604 107.219 52.269 106.732Z" fill="#FFC9B0"/>
<path d="M51.247 111.224C50.7253 111.221 50.2142 111.076 49.7694 110.803L43.8139 107.144C43.4977 106.949 43.2229 106.695 43.0053 106.394C42.7878 106.093 42.6317 105.753 42.5462 105.391C42.4607 105.03 42.4473 104.656 42.5069 104.289C42.5664 103.923 42.6978 103.572 42.8933 103.257L43.0411 103.018C43.2333 102.701 43.4863 102.426 43.7856 102.207C44.0849 101.989 44.4245 101.831 44.7848 101.745C45.1451 101.658 45.5189 101.644 45.8849 101.702C46.2508 101.761 46.6015 101.891 46.9167 102.086L52.8722 105.746C53.5105 106.138 53.9671 106.768 54.1418 107.497C54.3165 108.225 54.1951 108.993 53.8042 109.633L53.6564 109.871C53.2638 110.51 52.6347 110.968 51.9062 111.144C51.6897 111.193 51.4688 111.22 51.247 111.224ZM50.9628 108.86C51.024 108.897 51.092 108.922 51.1628 108.933C51.2336 108.944 51.3059 108.941 51.3756 108.924C51.4452 108.908 51.5109 108.877 51.5688 108.835C51.6266 108.793 51.6756 108.739 51.7129 108.678L51.8721 108.439C51.9424 108.313 51.9628 108.164 51.9291 108.023C51.8955 107.882 51.8102 107.759 51.6902 107.678L45.7574 104.018C45.6307 103.948 45.4823 103.927 45.3413 103.961C45.2004 103.995 45.0772 104.08 44.9959 104.2L44.8482 104.45C44.8108 104.511 44.7859 104.579 44.7748 104.65C44.7638 104.721 44.7668 104.793 44.7837 104.863C44.8005 104.933 44.831 104.998 44.8733 105.056C44.9155 105.114 44.9688 105.163 45.03 105.2L50.9628 108.86Z" fill="black"/>
<path d="M50.6513 108.864L44.7003 105.224C43.9106 104.741 42.8789 104.989 42.3958 105.779L42.2422 106.03C41.7591 106.82 42.0076 107.851 42.7972 108.335L48.7482 111.975C49.5379 112.458 50.5696 112.21 51.0527 111.42L51.2063 111.169C51.6894 110.379 51.4409 109.347 50.6513 108.864Z" fill="#FFC9B0"/>
<path d="M49.3261 114.338C48.8077 114.338 48.2998 114.192 47.86 113.918L41.9045 110.258C41.2662 109.865 40.8096 109.236 40.6349 108.507C40.4602 107.778 40.5816 107.01 40.9725 106.371L41.1202 106.132C41.3135 105.815 41.5676 105.539 41.8679 105.32C42.1682 105.102 42.5087 104.945 42.87 104.858C43.2312 104.771 43.606 104.757 43.9728 104.816C44.3395 104.875 44.6911 105.005 45.0072 105.2L50.9627 108.86C51.5979 109.254 52.0514 109.883 52.2243 110.61C52.3136 110.971 52.3294 111.346 52.2708 111.713C52.2123 112.08 52.0805 112.432 51.8833 112.747L51.7356 112.986C51.4847 113.4 51.131 113.742 50.7088 113.979C50.2866 114.216 49.8103 114.34 49.3261 114.338ZM49.042 111.985C49.1687 112.056 49.3171 112.076 49.4581 112.042C49.599 112.009 49.7222 111.924 49.8035 111.804L49.9512 111.554C49.9893 111.493 50.0149 111.426 50.0266 111.356C50.0384 111.286 50.0359 111.214 50.0194 111.144C50.0031 111.073 49.9726 111.007 49.9296 110.948C49.8866 110.889 49.8321 110.84 49.7694 110.803L43.8139 107.144C43.7536 107.106 43.6864 107.08 43.6162 107.068C43.5459 107.057 43.474 107.059 43.4047 107.076C43.3338 107.092 43.2671 107.122 43.2084 107.165C43.1498 107.208 43.1006 107.263 43.0637 107.326L42.916 107.564C42.8395 107.686 42.8146 107.834 42.8465 107.974C42.8785 108.115 42.9647 108.237 43.0865 108.314L49.042 111.985Z" fill="black"/>
<path d="M123.69 208.126C123.69 208.126 131.942 193.419 133.317 192.851C135.977 192.253 138.672 191.82 141.386 191.555C141.386 191.555 146.115 178.144 149.001 178.144C151.888 178.144 162.106 185.588 162.106 185.588C162.106 185.588 165.459 181.122 167.129 182.054C168.8 182.986 172.619 190.623 172.619 190.623C172.619 190.623 176.733 188.35 178.711 189.873C180.688 191.396 190.281 208.126 190.281 208.126H123.69Z" fill="#725858"/>
<path d="M190.281 209.263H123.691C123.492 209.262 123.298 209.21 123.126 209.111C122.954 209.012 122.811 208.87 122.711 208.699C122.611 208.528 122.558 208.334 122.556 208.135C122.554 207.937 122.605 207.742 122.702 207.569C128.305 197.579 131.794 192.271 132.931 191.805C135.451 191.174 138.015 190.737 140.602 190.498C142.523 185.168 145.967 177.007 149.047 177.007C151.797 177.007 159.06 181.986 161.935 184.031C163.367 182.326 165.8 179.985 167.732 181.054C169.312 181.94 171.891 186.645 173.176 189.123C174.733 188.464 177.586 187.577 179.438 188.964C181.495 190.521 189.667 204.728 191.315 207.569C191.415 207.742 191.467 207.938 191.467 208.137C191.467 208.337 191.415 208.533 191.315 208.706C191.21 208.884 191.058 209.03 190.875 209.128C190.693 209.226 190.488 209.273 190.281 209.263ZM125.634 206.99H188.315C183.893 199.352 179.063 191.567 178.029 190.782C176.995 189.998 174.244 191.032 173.153 191.623C173.019 191.696 172.871 191.74 172.719 191.754C172.567 191.768 172.414 191.751 172.268 191.704C172.123 191.657 171.989 191.582 171.873 191.482C171.758 191.382 171.663 191.26 171.596 191.123C169.834 187.589 167.402 183.497 166.584 183.043C166.072 183.043 164.311 184.588 163.015 186.27C162.836 186.51 162.57 186.669 162.274 186.714C161.978 186.759 161.677 186.685 161.435 186.509C157.321 183.509 150.74 179.281 149.001 179.281C147.865 179.519 144.751 185.441 142.466 191.93C142.394 192.133 142.266 192.311 142.097 192.444C141.928 192.576 141.725 192.658 141.512 192.68C138.929 192.925 136.363 193.323 133.829 193.874C132.874 194.76 129.112 200.886 125.634 206.99Z" fill="black"/>
<path d="M137.125 203.853C137.015 203.87 136.904 203.87 136.795 203.853C136.651 203.81 136.518 203.739 136.402 203.644C136.286 203.549 136.19 203.433 136.119 203.301C136.048 203.169 136.004 203.024 135.989 202.875C135.975 202.726 135.99 202.575 136.034 202.432C136.954 199.431 140.205 191.487 140.341 191.157C140.398 191.019 140.481 190.894 140.586 190.788C140.692 190.682 140.817 190.598 140.954 190.54C141.092 190.483 141.24 190.453 141.389 190.453C141.538 190.452 141.686 190.481 141.824 190.538C141.962 190.595 142.088 190.678 142.194 190.783C142.3 190.888 142.384 191.014 142.441 191.151C142.499 191.289 142.528 191.437 142.529 191.586C142.529 191.735 142.5 191.883 142.444 192.021C142.444 192.101 139.102 200.193 138.216 203.091C138.137 203.317 137.989 203.512 137.793 203.648C137.597 203.785 137.363 203.856 137.125 203.853Z" fill="black"/>
<path d="M125.191 147.969C125.191 147.969 128.316 153.151 127.35 154.583C126.384 156.015 120.531 157.993 119.588 156.856C118.258 155.118 122.145 153.094 122.145 153.094C122.145 153.094 119.36 152.14 119.553 149.503" fill="#FFC9B0"/>
<path d="M120.77 158.391C120.377 158.428 119.981 158.373 119.614 158.229C119.246 158.084 118.918 157.856 118.656 157.561C118.436 157.283 118.282 156.958 118.205 156.612C118.128 156.265 118.131 155.906 118.212 155.561C118.529 154.582 119.156 153.732 119.997 153.14C119.449 152.696 119.018 152.126 118.739 151.479C118.46 150.831 118.341 150.126 118.394 149.423C118.417 149.122 118.558 148.842 118.787 148.645C119.017 148.448 119.315 148.35 119.616 148.372C119.918 148.395 120.198 148.536 120.395 148.765C120.592 148.994 120.69 149.292 120.667 149.594C120.542 151.31 122.429 152.015 122.509 152.037C122.718 152.111 122.9 152.244 123.035 152.42C123.169 152.596 123.249 152.808 123.265 153.029C123.28 153.25 123.231 153.471 123.123 153.664C123.015 153.857 122.853 154.015 122.656 154.117C121.702 154.617 120.554 155.538 120.44 156.061C121.577 156.356 125.782 154.924 126.407 153.958C126.589 153.379 125.555 150.787 124.213 148.571C124.109 148.317 124.1 148.035 124.187 147.775C124.275 147.515 124.454 147.295 124.69 147.157C124.927 147.018 125.206 146.97 125.476 147.021C125.745 147.072 125.987 147.219 126.157 147.434C127.464 149.594 129.487 153.492 128.294 155.265C127.282 156.766 123.236 158.311 120.952 158.379L120.77 158.391Z" fill="black"/>
<path d="M99.1753 111.474C99.0435 111.474 98.9127 111.451 98.7889 111.406C98.5056 111.303 98.2746 111.092 98.1468 110.82C98.0189 110.547 98.0046 110.234 98.1069 109.951L101.801 99.7221C101.843 99.5726 101.916 99.4334 102.015 99.3132C102.113 99.193 102.235 99.0943 102.374 99.0231C102.512 98.952 102.663 98.9099 102.818 98.8996C102.973 98.8893 103.129 98.9109 103.275 98.9631C103.422 99.0152 103.556 99.0969 103.669 99.203C103.783 99.3091 103.874 99.4373 103.936 99.5799C103.998 99.7224 104.03 99.8761 104.03 100.032C104.031 100.187 103.999 100.341 103.937 100.484L100.244 110.713C100.166 110.934 100.022 111.127 99.8304 111.263C99.6391 111.399 99.4102 111.473 99.1753 111.474Z" fill="black"/>
<path d="M57.7366 90.391C57.6236 90.4082 57.5087 90.4082 57.3957 90.391C57.2529 90.3458 57.1205 90.2729 57.006 90.1763C56.8916 90.0798 56.7973 89.9616 56.7286 89.8285C56.66 89.6955 56.6183 89.5501 56.606 89.4009C56.5937 89.2517 56.611 89.1015 56.6569 88.959L59.3506 80.4349C59.3848 80.2811 59.4506 80.1361 59.5439 80.0091C59.6372 79.8821 59.7558 79.7759 59.8923 79.6973C60.0288 79.6186 60.1802 79.5692 60.3368 79.5521C60.4935 79.535 60.6519 79.5507 60.8022 79.5982C60.9524 79.6456 61.0911 79.7238 61.2095 79.8277C61.328 79.9316 61.4235 80.059 61.49 80.2018C61.5566 80.3446 61.5927 80.4997 61.5962 80.6572C61.5996 80.8147 61.5703 80.9712 61.51 81.1168L58.8164 89.6523C58.7344 89.8716 58.5867 90.0603 58.3935 90.1926C58.2002 90.3248 57.9708 90.3941 57.7366 90.391Z" fill="black"/>
<path d="M80.5925 150.514H73.2049C72.9035 150.514 72.6144 150.395 72.4012 150.182C72.1881 149.968 72.0684 149.679 72.0684 149.378C72.0684 149.076 72.1881 148.787 72.4012 148.574C72.6144 148.361 72.9035 148.241 73.2049 148.241H80.5925C80.8939 148.241 81.183 148.361 81.3961 148.574C81.6093 148.787 81.729 149.076 81.729 149.378C81.729 149.679 81.6093 149.968 81.3961 150.182C81.183 150.395 80.8939 150.514 80.5925 150.514Z" fill="black"/>
<path d="M51.5766 191.294L37.4948 179.246L18.2985 208.126H51.5766L44.2572 202.58L51.5766 191.294Z" fill="#CA0C0C"/>
<path d="M51.5764 209.263H18.2983C18.0927 209.264 17.8906 209.209 17.7137 209.104C17.5367 208.999 17.3915 208.848 17.2936 208.668C17.1956 208.487 17.1485 208.283 17.1573 208.077C17.1661 207.872 17.2305 207.673 17.3436 207.501L36.5513 178.621C36.6409 178.488 36.7576 178.376 36.8938 178.291C37.03 178.207 37.1825 178.152 37.3413 178.13C37.5002 178.109 37.6618 178.121 37.8155 178.167C37.9693 178.212 38.1117 178.29 38.2334 178.394L52.3152 190.43C52.5235 190.609 52.6602 190.857 52.6998 191.128C52.7395 191.4 52.6796 191.677 52.5311 191.907L45.7573 202.318L52.2243 207.228C52.4105 207.373 52.5472 207.571 52.6154 207.797C52.6837 208.023 52.6801 208.264 52.6052 208.487C52.5303 208.711 52.3877 208.905 52.1973 209.044C52.0069 209.183 51.778 209.26 51.5423 209.263H51.5764ZM20.4123 206.989H48.2009L43.5751 203.489C43.3458 203.316 43.1902 203.063 43.1396 202.781C43.089 202.499 43.1471 202.207 43.3024 201.966L50.1216 191.51L37.7787 180.951L20.4123 206.989Z" fill="black"/>
<path d="M98.3682 190.396L80.8313 185.316L71.2047 208.126H103.642L93.4242 202.659L98.3682 190.396Z" fill="#CA0C0C"/>
<path d="M103.642 209.263H71.2047C71.0171 209.262 70.8325 209.216 70.6673 209.127C70.5021 209.038 70.3614 208.91 70.2579 208.753C70.1543 208.597 70.0911 208.417 70.0739 208.23C70.0567 208.044 70.0859 207.856 70.1591 207.683L79.7857 184.884C79.8922 184.625 80.0902 184.415 80.3417 184.294C80.5933 184.172 80.8809 184.147 81.1495 184.224L98.6865 189.305C98.84 189.349 98.9825 189.425 99.1047 189.527C99.227 189.63 99.3262 189.758 99.3959 189.901C99.4656 190.045 99.5042 190.202 99.5093 190.361C99.5143 190.521 99.4857 190.68 99.4252 190.828L94.879 202.193L104.199 207.171C104.421 207.291 104.597 207.482 104.699 207.713C104.801 207.944 104.823 208.202 104.762 208.447C104.7 208.692 104.559 208.91 104.361 209.066C104.162 209.221 103.917 209.307 103.665 209.308L103.642 209.263ZM72.955 206.989H99.0956L92.8787 203.659C92.6323 203.528 92.4428 203.311 92.3463 203.049C92.2499 202.787 92.2533 202.498 92.3559 202.239L96.8339 191.146L81.4791 186.691L72.955 206.989Z" fill="black"/>
<path d="M208.863 209.263H1.13655C0.835117 209.263 0.54603 209.143 0.332886 208.93C0.119742 208.717 0 208.427 0 208.126C0 207.825 0.119742 207.536 0.332886 207.322C0.54603 207.109 0.835117 206.99 1.13655 206.99H208.863C209.165 206.99 209.454 207.109 209.667 207.322C209.88 207.536 210 207.825 210 208.126C210 208.427 209.88 208.717 209.667 208.93C209.454 209.143 209.165 209.263 208.863 209.263Z" fill="black"/>
</svg>
