<svg width="988" height="344" viewBox="0 0 988 344" fill="none" xmlns="http://www.w3.org/2000/svg">
<g filter="url(#filter0_d_642_2)">
<path d="M193.576 52.8812C192.049 53.6447 190.077 55.2353 189.186 56.3806C188.168 57.7167 187.023 58.5438 186.132 58.5438C183.714 58.5438 176.206 61.0888 171.816 63.3793C163.545 67.7059 154.892 76.3589 151.329 83.994C150.502 85.7119 149.738 87.1116 149.484 87.1752C149.293 87.1752 142.867 81.3217 135.231 74.132C127.533 66.9424 120.28 60.5798 119.007 60.0072C116.08 58.5438 109.272 58.5438 106.536 59.9436C105.455 60.5162 97.7561 67.4514 89.3576 75.3409C74.4056 89.4021 74.1511 89.593 73.9603 87.6206C73.7057 84.503 72.6241 82.2761 70.7154 81.0036C69.252 79.9856 67.5341 79.8583 55.8906 79.8583H42.6566L40.6206 81.958L38.5209 83.994L38.2028 103.909L37.8847 123.76L21.9147 138.903C8.68064 151.373 5.69024 154.554 4.54499 157.099C2.25448 162.508 3.08161 167.661 6.89913 171.924C9.82589 175.233 13.4525 176.887 17.5246 176.887C22.2328 176.887 25.4141 175.105 31.8403 168.87L37.5665 163.335V179.241C37.5665 189.23 37.821 195.911 38.2664 197.183C39.4753 200.683 40.7518 222.95 43.3605 220.278L46.6191 223.397L47.1103 197.311L47.174 175.805V154.3L79.3048 124.078C96.9926 107.472 111.817 93.6014 112.263 93.2833C112.899 92.8379 116.589 95.9555 126.197 104.927L139.24 117.206L139.622 120.769C139.876 122.805 140.258 128.723 140.512 134.067C140.894 142.338 141.149 143.993 142.294 145.52C143.885 147.747 148.529 150.164 151.201 150.164C153.11 150.164 153.174 150.292 153.556 153.282C154.764 163.589 163.608 178.35 172.452 184.84L175.634 187.194V191.775V196.356L170.671 198.774L165.708 201.192L163.29 199.538C161.89 198.647 160.045 197.883 159.091 197.883C158.137 197.883 153.428 199.283 148.529 201.065C143.694 202.782 139.494 204.246 139.24 204.246C138.922 204.246 138.731 196.42 138.731 186.813C138.731 161.871 140.449 163.335 111.69 163.653C94.5112 163.844 92.4116 163.971 90.8846 164.989C87.1943 167.47 87.1943 167.725 87.1943 199.41V228.424L85.0311 231.223C81.4044 235.995 78.5413 243.057 77.3324 250.183L76.9506 252.601H62.0623H47.1103V238.031C47.1103 224.288 47.174 208.063 45.9015 214.744C44.3108 212.772 39.8738 188.658 37.7105 190.376L37.8847 222.57V238.731C37.8847 253.683 37.9483 254.955 39.1572 256.991C39.8571 258.2 41.2568 259.727 42.2112 260.491C43.9291 261.763 44.8835 261.827 60.3444 262.018L76.6961 262.209L75.8054 284.414C75.0419 301.974 75.0419 307.128 75.6781 309.164C76.5689 312.345 80.2592 316.036 83.3132 316.926C84.8402 317.372 123.524 317.499 203.438 317.372L321.208 317.181L323.69 315.208C327.635 312.091 329.098 308.591 328.843 302.802C328.589 297.075 327.507 295.23 324.199 295.23C320.827 295.23 319.427 297.393 319.427 302.356C319.427 308.782 319.936 308.591 303.457 308.591H289.523V265.962C289.523 235.804 289.714 223.333 290.223 223.333C291.495 223.333 300.212 227.087 302.948 228.805C306.829 231.223 311.346 236.122 313.637 240.512C316.309 245.539 317.327 250.82 317.9 262.718C318.282 271.816 318.727 306.237 320.127 307.637C320.954 308.464 323.69 295.23 324.199 295.23C326.108 295.23 328.271 304.456 328.843 302.802C329.543 300.702 326.807 251.647 325.789 246.875C323.244 235.359 315.291 224.733 305.048 219.389C302.63 218.116 288.378 212.708 273.298 207.427C244.094 197.12 243.776 197.056 239.959 199.792L238.05 201.065L233.278 198.71L228.443 196.356V191.966V187.576L234.105 182.104C242.631 173.769 248.039 164.353 250.139 154.236L250.966 150.292L253.702 149.973C255.229 149.846 257.392 149.019 258.601 148.192C262.546 145.52 263.055 143.993 263.691 132.349C264.582 114.916 264.518 113.643 262.546 111.098C261.655 109.889 260.383 108.744 259.746 108.553C258.792 108.235 258.474 107.026 257.838 101.873C257.01 94.8103 254.529 87.1116 251.284 81.7035C246.83 74.1957 236.841 65.2245 229.397 62.0432C225.77 60.4526 219.408 58.5438 217.881 58.5438C217.181 58.5438 215.59 57.5258 214.381 56.2533C210.818 52.4994 208.273 51.545 201.911 51.545C197.457 51.545 195.739 51.7995 193.576 52.8812ZM206.81 61.7251C207.955 62.8704 208.082 63.8247 208.082 72.4142C208.082 80.8763 207.955 82.0216 206.874 82.976C205.219 84.4393 201.656 84.9484 198.92 83.994C195.803 82.976 195.167 80.6218 195.485 70.6963C195.676 63.3793 195.739 62.8067 197.203 61.6615C199.302 59.9436 205.028 59.9436 206.81 61.7251ZM125.56 77.7587C131.223 83.0396 138.222 89.6566 141.085 92.3925L146.366 97.3553L145.857 102.636C145.475 106.835 145.221 107.853 144.33 108.044C143.63 108.172 138.476 103.845 129.823 95.6374C122.443 88.7022 115.635 82.6578 114.744 82.1488C113.599 81.5762 112.581 81.4489 111.563 81.8307C110.799 82.1488 90.0575 101.3 65.5617 124.396C41.0659 147.492 20.2605 166.707 19.3061 167.089C17.2064 167.979 14.2797 167.152 13.3889 165.434C12.4982 163.844 12.6254 160.853 13.5798 159.708C14.0252 159.136 34.258 139.984 58.5629 117.079C82.8678 94.2376 104.564 73.8139 106.727 71.7779C112.899 65.9244 113.026 65.988 125.56 77.7587ZM186.45 75.5318C186.45 84.1848 187.341 86.8571 191.095 90.1656C194.212 92.9015 197.33 93.7286 203.501 93.4741C207.955 93.2196 208.973 92.9651 211.391 91.3109C212.918 90.2292 214.827 88.066 215.718 86.539C217.054 84.0576 217.308 82.6578 217.499 75.8499C217.69 71.587 217.944 68.0876 218.199 68.0876C218.453 68.0876 220.426 68.6602 222.589 69.4238C230.988 72.2233 239.768 79.7311 243.904 87.6206C247.148 93.8559 248.23 97.9915 248.739 106.39C249.248 114.598 249.884 115.998 253.32 116.697C254.402 116.888 255.165 117.461 255.165 118.034C255.165 118.861 249.248 118.988 202.038 118.988C154.828 118.988 148.911 118.861 148.911 118.034C148.911 117.461 149.738 116.888 150.883 116.634C153.746 116.061 154.446 114.343 154.892 106.835C155.528 94.8739 159.218 86.2845 166.981 78.5858C171.434 74.132 177.097 70.6326 182.251 68.9784C186.641 67.6423 186.45 67.3241 186.45 75.5318ZM64.9254 93.7286V98.3733L56.336 106.517L47.7466 114.661V101.873V89.084H56.336H64.9254V93.7286ZM152.728 135.276C152.728 140.557 152.665 140.684 151.329 140.493C149.993 140.302 149.865 139.921 149.674 135.021C149.484 129.804 149.484 129.804 151.138 129.804C152.728 129.804 152.728 129.868 152.728 135.276ZM241.486 140.939C241.422 153.091 240.786 156.209 236.841 163.844C234.042 169.252 224.689 178.923 219.79 181.532C215.272 183.886 207.383 185.795 201.911 185.795C186.959 185.795 174.17 177.523 166.408 162.826C163.099 156.527 162.272 152.073 162.272 140.112V129.804L201.911 129.931L241.486 130.122V140.939ZM253.893 135.212C253.893 140.557 253.893 140.621 252.302 140.621C250.711 140.621 250.711 140.557 250.711 135.212C250.711 129.868 250.711 129.804 252.302 129.804C253.893 129.804 253.893 129.868 253.893 135.212ZM129.696 190.376L129.505 207.745L115.189 212.899C107.3 215.698 99.9194 218.498 98.8378 219.134L96.7381 220.216V196.611V173.069H113.281H129.823L129.696 190.376ZM201.084 194.893C207.001 194.957 213.809 194.002 217.817 192.475C218.581 192.157 218.772 192.857 219.026 196.229C219.344 201.255 220.362 202.592 226.279 205.646C228.506 206.791 230.351 207.936 230.351 208.127C230.351 208.891 224.243 212.517 220.235 214.108C208.91 218.752 195.167 218.752 183.905 214.235C179.96 212.581 173.089 208.7 173.089 208.063C173.089 207.873 175.252 206.664 177.86 205.328C180.469 204.055 183.078 202.273 183.587 201.446C184.159 200.556 184.796 198.138 184.987 196.102L185.305 192.412L189.886 193.62C192.812 194.448 196.694 194.893 201.084 194.893ZM156.546 218.562C158.773 229.505 160.872 234.532 164.817 238.413C166.281 239.876 174.234 245.284 182.378 250.438L197.266 259.791V284.223V308.591H160.682H124.097V264.117V219.643L126.833 218.625C132.623 216.462 154.319 208.827 154.446 208.954C154.51 209.018 155.401 213.344 156.546 218.562ZM263.755 213.917C269.735 216.017 275.78 218.18 277.307 218.689L279.979 219.643V264.117V308.591H243.395H206.81L206.937 284.032L207.128 259.473L221.126 250.692C236.014 241.339 241.168 237.14 243.585 232.114C244.349 230.46 245.876 225.179 246.894 220.343C247.912 215.508 248.93 210.927 249.121 210.163C249.439 208.891 249.63 208.827 251.22 209.4C252.175 209.781 257.838 211.817 263.755 213.917ZM180.151 222.697C188.422 225.878 193.003 226.706 201.72 226.769C207.764 226.769 211.009 226.387 215.399 225.306C221.889 223.715 231.115 219.516 235.696 215.953L238.814 213.599L238.368 216.08C236.396 226.706 234.36 231.223 230.224 233.959C229.079 234.722 222.207 239.049 215.018 243.566L201.911 251.838L187.341 242.612C179.324 237.586 172.134 232.814 171.371 232.114C169.144 230.014 167.49 226.069 166.217 219.77L165.008 213.981L170.098 217.353C172.834 219.198 177.415 221.616 180.151 222.697ZM114.553 265.962V308.591H100.556C82.9951 308.591 83.7586 309.037 84.3312 299.493C84.5221 295.93 85.0947 283.523 85.6037 272.007C86.6217 249.611 87.1307 246.048 90.2483 240.258C92.6025 235.868 98.9014 229.569 103.101 227.469C106.727 225.624 112.39 223.461 113.79 223.397C114.362 223.333 114.553 232.241 114.553 265.962Z" fill="#CA0C0C"/>
</g>
<path d="M374.098 142.656C373.906 145.44 372.418 147.36 369.634 148.416C366.946 149.472 362.05 150 354.946 150C347.842 150 341.89 149.376 337.09 148.128C332.386 146.784 330.034 145.104 330.034 143.088C330.034 140.784 334.306 126.096 342.85 99.024C351.394 71.856 356.29 56.208 357.538 52.08C358.018 50.832 361.858 49.824 369.058 49.056C376.354 48.192 384.13 47.76 392.386 47.76C400.738 47.76 405.346 49.2 406.21 52.08C424.354 112.368 433.426 142.992 433.426 143.952C433.426 144.912 432.85 145.872 431.698 146.832C429.01 148.944 423.682 150 415.714 150C398.722 150 390.034 147.984 389.65 143.952L388.642 134.592H374.818L374.098 142.656ZM385.618 107.232L383.458 81.312H380.29L377.842 107.232H385.618ZM526.778 102.192V146.544C526.778 147.6 524.042 148.464 518.57 149.136C513.098 149.712 507.434 150 501.578 150C495.818 150 492.074 149.76 490.346 149.28C488.714 148.704 487.898 147.792 487.898 146.544V100.752C487.898 96.432 487.706 93.6 487.322 92.256C487.034 90.912 486.746 89.712 486.458 88.656C485.786 86.832 484.586 85.92 482.858 85.92C480.17 85.92 478.826 87.216 478.826 89.808V146.544C478.826 147.6 476.09 148.464 470.618 149.136C465.242 149.712 459.626 150 453.77 150C448.01 150 444.266 149.76 442.538 149.28C440.81 148.704 439.946 147.792 439.946 146.544V75.552C439.946 73.536 442.682 71.52 448.154 69.504C453.722 67.488 459.578 66.48 465.722 66.48C471.866 66.48 475.322 68.256 476.09 71.808L477.386 78.144H478.394C481.178 72.576 485.978 68.688 492.794 66.48C495.578 65.616 498.65 65.184 502.01 65.184C511.706 65.184 518.234 68.112 521.594 73.968C525.05 79.728 526.778 89.136 526.778 102.192ZM593.429 148.704C591.701 150.336 587.765 151.152 581.621 151.152C575.477 151.152 570.389 150.768 566.357 150C562.325 149.136 558.485 147.504 554.837 145.104C547.829 140.4 544.325 130.608 544.325 115.728V93.264H537.125C536.069 93.264 535.157 92.16 534.389 89.952C533.621 87.744 533.237 84.72 533.237 80.88C533.237 77.04 533.813 73.68 534.965 70.8C536.213 67.824 537.797 66.336 539.717 66.336H544.325V48.912C544.325 45.936 547.205 43.536 552.965 41.712C558.821 39.888 564.533 38.976 570.101 38.976C578.837 38.976 583.205 41.136 583.205 45.456V66.336H593.861C596.357 66.336 597.605 69.936 597.605 77.136C597.605 81.84 597.029 85.728 595.877 88.8C594.821 91.776 593.429 93.264 591.701 93.264H583.205V119.616C583.205 122.208 584.309 124.08 586.517 125.232C588.725 126.288 590.645 126.816 592.277 126.816C594.005 126.816 595.061 127.632 595.445 129.264C595.829 130.896 596.021 133.344 596.021 136.608C596.021 143.04 595.157 147.072 593.429 148.704ZM650.658 151.296C643.458 151.296 637.266 150.672 632.082 149.424C626.898 148.176 622.194 145.968 617.97 142.8C609.234 136.464 604.866 124.656 604.866 107.376C604.866 92.016 609.33 81.024 618.258 74.4C626.61 68.256 637.41 65.184 650.658 65.184C656.322 65.184 661.17 65.472 665.202 66.048C669.234 66.528 673.314 67.632 677.442 69.36C681.666 71.088 685.026 73.44 687.522 76.416C690.114 79.392 692.226 83.52 693.858 88.8C695.49 93.984 696.306 100.176 696.306 107.376C696.306 121.968 692.178 132.96 683.922 140.352C675.666 147.648 664.578 151.296 650.658 151.296ZM645.618 123.216C646.29 126.672 646.962 128.736 647.634 129.408C648.402 130.08 649.362 130.416 650.514 130.416C651.762 130.416 652.722 130.08 653.394 129.408C654.162 128.736 654.834 126.672 655.41 123.216C656.082 119.76 656.418 115.44 656.418 110.256C656.418 104.976 656.274 100.944 655.986 98.16C655.794 95.28 655.506 93.072 655.122 91.536C654.834 90 654.402 88.8 653.826 87.936C652.962 86.688 651.906 86.064 650.658 86.064C649.506 86.064 648.546 86.448 647.778 87.216C647.01 87.888 646.29 90 645.618 93.552C644.946 97.008 644.61 101.952 644.61 108.384C644.61 114.816 644.946 119.76 645.618 123.216ZM791.716 102.192V146.544C791.716 147.6 788.98 148.464 783.508 149.136C778.036 149.712 772.372 150 766.516 150C760.756 150 757.012 149.76 755.284 149.28C753.652 148.704 752.836 147.792 752.836 146.544V100.752C752.836 96.432 752.644 93.6 752.26 92.256C751.972 90.912 751.684 89.712 751.396 88.656C750.724 86.832 749.524 85.92 747.796 85.92C745.108 85.92 743.764 87.216 743.764 89.808V146.544C743.764 147.6 741.028 148.464 735.556 149.136C730.18 149.712 724.564 150 718.708 150C712.948 150 709.204 149.76 707.476 149.28C705.748 148.704 704.884 147.792 704.884 146.544V75.552C704.884 73.536 707.62 71.52 713.092 69.504C718.66 67.488 724.516 66.48 730.66 66.48C736.804 66.48 740.26 68.256 741.028 71.808L742.324 78.144H743.332C746.116 72.576 750.916 68.688 757.732 66.48C760.516 65.616 763.588 65.184 766.948 65.184C776.644 65.184 783.172 68.112 786.532 73.968C789.988 79.728 791.716 89.136 791.716 102.192ZM841.374 75.552V146.544C841.374 147.6 838.59 148.464 833.022 149.136C827.55 149.712 821.886 150 816.03 150C810.27 150 806.526 149.76 804.798 149.28C803.166 148.704 802.35 147.792 802.35 146.544V78.144C802.35 76.032 805.038 73.968 810.414 71.952C815.886 69.84 821.838 68.784 828.27 68.784C837.006 68.784 841.374 71.04 841.374 75.552ZM821.79 37.68C828.126 37.68 833.07 38.64 836.622 40.56C840.27 42.384 842.094 45.744 842.094 50.64C842.094 59.28 835.374 63.6 821.934 63.6C808.494 63.6 801.774 59.28 801.774 50.64C801.774 42 808.446 37.68 821.79 37.68ZM896.47 151.296C889.27 151.296 883.078 150.672 877.894 149.424C872.71 148.176 868.006 145.968 863.782 142.8C855.046 136.464 850.678 124.656 850.678 107.376C850.678 92.016 855.142 81.024 864.07 74.4C872.422 68.256 883.222 65.184 896.47 65.184C902.134 65.184 906.982 65.472 911.014 66.048C915.046 66.528 919.126 67.632 923.254 69.36C927.478 71.088 930.838 73.44 933.334 76.416C935.926 79.392 938.038 83.52 939.67 88.8C941.302 93.984 942.118 100.176 942.118 107.376C942.118 121.968 937.99 132.96 929.734 140.352C921.478 147.648 910.39 151.296 896.47 151.296ZM891.43 123.216C892.102 126.672 892.774 128.736 893.446 129.408C894.214 130.08 895.174 130.416 896.326 130.416C897.574 130.416 898.534 130.08 899.206 129.408C899.974 128.736 900.646 126.672 901.222 123.216C901.894 119.76 902.23 115.44 902.23 110.256C902.23 104.976 902.086 100.944 901.798 98.16C901.606 95.28 901.318 93.072 900.934 91.536C900.646 90 900.214 88.8 899.638 87.936C898.774 86.688 897.718 86.064 896.47 86.064C895.318 86.064 894.358 86.448 893.59 87.216C892.822 87.888 892.102 90 891.43 93.552C890.758 97.008 890.422 101.952 890.422 108.384C890.422 114.816 890.758 119.76 891.43 123.216ZM418.12 310.824C418.12 312.072 415.192 313.08 409.336 313.848C403.48 314.616 397.624 315 391.768 315C385.912 315 382.168 314.664 380.536 313.992C378.904 313.32 378.088 312.264 378.088 310.824V218.232C378.088 213.624 391.912 211.32 419.56 211.32C436.264 211.32 447.304 212.472 452.68 214.776C459.208 217.464 463.624 221.112 465.928 225.72C469 231.672 470.536 239.304 470.536 248.616C470.536 261.384 468.328 270.648 463.912 276.408C460.744 280.632 457.576 283.368 454.408 284.616C451.24 285.864 448.6 286.776 446.488 287.352C444.472 287.832 441.928 288.216 438.856 288.504C434.632 288.888 428.872 289.08 421.576 289.08L418.12 288.936V310.824ZM418.264 265.032H421.72C423.544 265.032 424.984 264.792 426.04 264.312C427.096 263.736 428.008 262.296 428.776 259.992C429.64 257.592 430.072 254.28 430.072 250.056C430.072 245.736 429.592 242.472 428.632 240.264C427.768 237.96 426.856 236.616 425.896 236.232C425.032 235.752 423.976 235.512 422.728 235.512H418.264V265.032ZM518.781 240.552V311.544C518.781 312.6 515.997 313.464 510.429 314.136C504.957 314.712 499.293 315 493.437 315C487.677 315 483.933 314.76 482.205 314.28C480.573 313.704 479.757 312.792 479.757 311.544V243.144C479.757 241.032 482.445 238.968 487.821 236.952C493.293 234.84 499.245 233.784 505.677 233.784C514.413 233.784 518.781 236.04 518.781 240.552ZM499.197 202.68C505.533 202.68 510.477 203.64 514.029 205.56C517.677 207.384 519.501 210.744 519.501 215.64C519.501 224.28 512.781 228.6 499.341 228.6C485.901 228.6 479.181 224.28 479.181 215.64C479.181 207 485.853 202.68 499.197 202.68ZM616.356 267.192V311.544C616.356 312.6 613.62 313.464 608.148 314.136C602.676 314.712 597.012 315 591.156 315C585.396 315 581.652 314.76 579.924 314.28C578.292 313.704 577.476 312.792 577.476 311.544V265.752C577.476 261.432 577.284 258.6 576.9 257.256C576.612 255.912 576.324 254.712 576.036 253.656C575.364 251.832 574.164 250.92 572.436 250.92C569.748 250.92 568.404 252.216 568.404 254.808V311.544C568.404 312.6 565.668 313.464 560.196 314.136C554.82 314.712 549.204 315 543.348 315C537.588 315 533.844 314.76 532.116 314.28C530.388 313.704 529.524 312.792 529.524 311.544V240.552C529.524 238.536 532.26 236.52 537.732 234.504C543.3 232.488 549.156 231.48 555.3 231.48C561.444 231.48 564.9 233.256 565.668 236.808L566.964 243.144H567.972C570.756 237.576 575.556 233.688 582.372 231.48C585.156 230.616 588.228 230.184 591.588 230.184C601.284 230.184 607.812 233.112 611.172 238.968C614.628 244.728 616.356 254.136 616.356 267.192ZM603.54 215.784C603.54 217.224 601.044 219.48 596.052 222.552C591.156 225.624 586.836 227.16 583.092 227.16C579.444 227.16 575.028 226.344 569.844 224.712C564.756 222.984 561.444 222.12 559.908 222.12C558.468 222.12 555.636 222.984 551.412 224.712C547.188 226.344 544.212 227.16 542.484 227.16C540.756 227.16 538.932 225.48 537.012 222.12C535.188 218.664 534.276 216.024 534.276 214.2C534.276 212.568 536.868 210.264 542.052 207.288C547.332 204.216 551.7 202.68 555.156 202.68C558.612 202.68 562.836 203.496 567.828 205.128C572.916 206.76 576.564 207.576 578.772 207.576C579.444 207.576 581.796 206.76 585.828 205.128C589.956 203.496 592.932 202.68 594.756 202.68C596.676 202.68 598.596 204.456 600.516 208.008C602.532 211.56 603.54 214.152 603.54 215.784ZM664.287 282.456C664.287 288.696 667.263 291.816 673.215 291.816C676.671 291.816 681.183 290.664 686.751 288.36C692.319 285.96 695.247 284.76 695.535 284.76C697.359 284.76 699.759 287.496 702.735 292.968C705.711 298.44 707.199 302.472 707.199 305.064C707.199 308.808 703.359 311.64 695.679 313.56C687.999 315.48 680.463 316.44 673.071 316.44C665.775 316.44 659.631 315.864 654.639 314.712C649.743 313.56 645.711 312.12 642.543 310.392C639.471 308.568 636.735 306.36 634.335 303.768C632.031 301.176 630.303 298.728 629.151 296.424C627.999 294.024 627.087 291.384 626.415 288.504C625.455 284.28 624.975 279.912 624.975 275.4C624.975 257.928 629.535 245.88 638.655 239.256C643.167 235.896 648.207 233.544 653.775 232.2C659.343 230.856 665.919 230.184 673.503 230.184C697.791 230.184 709.935 238.632 709.935 255.528C709.935 273.48 696.303 282.456 669.039 282.456H664.287ZM663.999 261.432V270.936C666.783 270.936 669.039 269.832 670.767 267.624C672.591 265.416 673.503 262.728 673.503 259.56C673.503 253.8 672.015 250.92 669.039 250.92C665.679 250.92 663.999 254.424 663.999 261.432ZM757.404 269.496V311.544C757.404 312.6 754.668 313.464 749.196 314.136C743.82 314.712 738.204 315 732.348 315C726.588 315 722.844 314.76 721.116 314.28C719.388 313.704 718.524 312.792 718.524 311.544V240.552C718.524 238.728 721.164 236.76 726.444 234.648C731.82 232.536 737.628 231.48 743.868 231.48C750.204 231.48 753.756 233.208 754.524 236.664L755.964 243.288H756.972C758.316 239.64 761.532 236.568 766.62 234.072C771.708 231.48 776.796 230.184 781.884 230.184C786.972 230.184 790.524 231 792.54 232.632C794.652 234.264 795.708 236.376 795.708 238.968C795.708 241.464 795.516 244.68 795.132 248.616C794.748 252.552 793.788 256.824 792.252 261.432C790.812 266.04 788.892 268.344 786.492 268.344C785.532 268.344 782.508 267.624 777.42 266.184C772.332 264.744 768.108 264.024 764.748 264.024C761.484 264.024 759.42 264.504 758.556 265.464C757.788 266.424 757.404 267.768 757.404 269.496ZM840.771 282.456C840.771 288.696 843.747 291.816 849.699 291.816C853.155 291.816 857.667 290.664 863.235 288.36C868.803 285.96 871.731 284.76 872.019 284.76C873.843 284.76 876.243 287.496 879.219 292.968C882.195 298.44 883.683 302.472 883.683 305.064C883.683 308.808 879.843 311.64 872.163 313.56C864.483 315.48 856.947 316.44 849.555 316.44C842.259 316.44 836.115 315.864 831.123 314.712C826.227 313.56 822.195 312.12 819.027 310.392C815.955 308.568 813.219 306.36 810.819 303.768C808.515 301.176 806.787 298.728 805.635 296.424C804.483 294.024 803.571 291.384 802.899 288.504C801.939 284.28 801.459 279.912 801.459 275.4C801.459 257.928 806.019 245.88 815.139 239.256C819.651 235.896 824.691 233.544 830.259 232.2C835.827 230.856 842.403 230.184 849.987 230.184C874.275 230.184 886.419 238.632 886.419 255.528C886.419 273.48 872.787 282.456 845.523 282.456H840.771ZM840.483 261.432V270.936C843.267 270.936 845.523 269.832 847.251 267.624C849.075 265.416 849.987 262.728 849.987 259.56C849.987 253.8 848.499 250.92 845.523 250.92C842.163 250.92 840.483 254.424 840.483 261.432ZM934.177 316.296C918.241 316.296 906.577 314.76 899.185 311.688C895.441 310.056 893.569 308.472 893.569 306.936C893.569 303 894.721 298.392 897.025 293.112C899.329 287.832 901.345 285.192 903.073 285.192C904.033 285.192 907.249 286.248 912.721 288.36C918.289 290.472 922.945 291.528 926.689 291.528C930.529 291.528 933.025 291.288 934.177 290.808C935.425 290.328 936.049 289.416 936.049 288.072C936.049 286.632 935.089 285.528 933.169 284.76C931.249 283.896 928.849 283.32 925.969 283.032C923.089 282.744 919.969 282.168 916.609 281.304C913.345 280.44 910.273 279.336 907.393 277.992C904.513 276.648 902.113 274.44 900.193 271.368C898.273 268.2 897.313 264.84 897.313 261.288C897.313 257.64 897.409 254.952 897.601 253.224C897.793 251.4 898.561 248.904 899.905 245.736C901.345 242.472 903.313 239.832 905.809 237.816C908.401 235.8 912.337 233.976 917.617 232.344C922.993 230.712 928.993 229.896 935.617 229.896C942.241 229.896 947.761 230.136 952.177 230.616C956.689 231 960.193 231.528 962.689 232.2C965.281 232.872 967.393 233.64 969.025 234.504C971.809 235.944 973.201 237.528 973.201 239.256C973.201 243 971.857 247.32 969.169 252.216C966.481 257.112 964.321 259.56 962.689 259.56C961.153 259.56 957.745 258.744 952.465 257.112C947.185 255.384 943.297 254.52 940.801 254.52C936.769 254.52 934.753 255.672 934.753 257.976C934.753 259.416 936.097 260.52 938.785 261.288C941.569 261.96 944.881 262.68 948.721 263.448C952.561 264.216 956.401 265.32 960.241 266.76C964.177 268.104 967.489 270.6 970.177 274.248C972.961 277.896 974.353 282.504 974.353 288.072C974.353 306.888 960.961 316.296 934.177 316.296Z" fill="black"/>
<defs>
<filter id="filter0_d_642_2" x="-0.545014" y="49" width="332.047" height="273.509" filterUnits="userSpaceOnUse" color-interpolation-filters="sRGB">
<feFlood flood-opacity="0" result="BackgroundImageFix"/>
<feColorMatrix in="SourceAlpha" type="matrix" values="0 0 0 0 0 0 0 0 0 0 0 0 0 0 0 0 0 0 127 0" result="hardAlpha"/>
<feOffset dy="2.54501"/>
<feGaussianBlur stdDeviation="1.27251"/>
<feComposite in2="hardAlpha" operator="out"/>
<feColorMatrix type="matrix" values="0 0 0 0 0 0 0 0 0 0 0 0 0 0 0 0 0 0 0.25 0"/>
<feBlend mode="normal" in2="BackgroundImageFix" result="effect1_dropShadow_642_2"/>
<feBlend mode="normal" in="SourceGraphic" in2="effect1_dropShadow_642_2" result="shape"/>
</filter>
</defs>
</svg>
