<svg width="369" height="444" viewBox="0 0 369 444" fill="none" xmlns="http://www.w3.org/2000/svg">
<path d="M154.2 33.6537L118 67.2147L124.7 73.519L131.5 79.7306L161.2 52.1957L191 24.5682L233.5 63.9699L276 103.372L282.5 97.3454L289 91.3193L239.7 45.6133L190.5 5.13494e-05L154.2 33.6537Z" fill="#9E1D1D"/>
<path d="M68 133.317V222.504H34H0V231.311V240.119H43.5H87V162.984V85.8494L93.5 91.7829L100 97.7163V169.845V241.973H109H118V178.93C118 144.257 118.3 115.887 118.8 115.887C119.2 115.887 125.5 121.45 132.8 128.218L146 140.456V190.333V240.119H191H236V214.902V189.685L250.5 176.149L265 162.521V202.293V241.973H274.5H284V193.486V145.091L289.6 139.714C292.7 136.84 295.4 134.429 295.6 134.429C295.8 134.429 296 158.163 296 187.274V240.119H332.5H369V231.311V222.504H341.5H314V157.421V92.2464L266 136.747L218 181.248V201.83V222.504H191.5H165V178.188V133.966L116.5 89.0016L68 44.0373V133.317Z" fill="#9E1D1D"/>
<path d="M169 75.0949V82.5117H177H185V75.0949V67.6781H177H169V75.0949Z" fill="#9E1D1D"/>
<path d="M196 75.0949V82.5117H204.5H213V75.0949V67.6781H204.5H196V75.0949Z" fill="#9E1D1D"/>
<path d="M169 99.107V106.431L177 106.802L185 107.08V99.3852V91.7829H177H169V99.107Z" fill="#9E1D1D"/>
<path d="M196 99.0141C196 103.001 196.2 106.524 196.4 106.709C196.6 106.894 200.5 106.987 204.9 106.802L213 106.431V99.1068V91.7828H204.5H196V99.0141Z" fill="#9E1D1D"/>
<path opacity="0.94" d="M23.0489 300.884C22.9529 302.276 22.2089 303.236 20.8169 303.764C19.4729 304.292 17.0249 304.556 13.4729 304.556C9.92088 304.556 6.94488 304.244 4.54488 303.62C2.19288 302.948 1.01688 302.108 1.01688 301.1C1.01688 299.948 3.15288 292.604 7.42488 279.068C11.6969 265.484 14.1449 257.66 14.7689 255.596C15.0089 254.972 16.9289 254.468 20.5289 254.084C24.1769 253.652 28.0649 253.436 32.1929 253.436C36.3689 253.436 38.6729 254.156 39.1049 255.596C48.1769 285.74 52.7129 301.052 52.7129 301.532C52.7129 302.012 52.4249 302.492 51.8489 302.972C50.5049 304.028 47.8409 304.556 43.8569 304.556C35.3609 304.556 31.0169 303.548 30.8249 301.532L30.3209 296.852H23.4089L23.0489 300.884ZM28.8089 283.172L27.7289 270.212H26.1449L24.9209 283.172H28.8089ZM99.3891 280.652V302.828C99.3891 303.356 98.0211 303.788 95.2851 304.124C92.5491 304.412 89.7171 304.556 86.7891 304.556C83.9091 304.556 82.0371 304.436 81.1731 304.196C80.3571 303.908 79.9491 303.452 79.9491 302.828V279.932C79.9491 277.772 79.8531 276.356 79.6611 275.684C79.5171 275.012 79.3731 274.412 79.2291 273.884C78.8931 272.972 78.2931 272.516 77.4291 272.516C76.0851 272.516 75.4131 273.164 75.4131 274.46V302.828C75.4131 303.356 74.0451 303.788 71.3091 304.124C68.6211 304.412 65.8131 304.556 62.8851 304.556C60.0051 304.556 58.1331 304.436 57.2691 304.196C56.4051 303.908 55.9731 303.452 55.9731 302.828V267.332C55.9731 266.324 57.3411 265.316 60.0771 264.308C62.8611 263.3 65.7891 262.796 68.8611 262.796C71.9331 262.796 73.6611 263.684 74.0451 265.46L74.6931 268.628H75.1971C76.5891 265.844 78.9891 263.9 82.3971 262.796C83.7891 262.364 85.3251 262.148 87.0051 262.148C91.8531 262.148 95.1171 263.612 96.7971 266.54C98.5251 269.42 99.3891 274.124 99.3891 280.652ZM132.714 303.908C131.85 304.724 129.882 305.132 126.81 305.132C123.738 305.132 121.194 304.94 119.178 304.556C117.162 304.124 115.242 303.308 113.418 302.108C109.914 299.756 108.162 294.86 108.162 287.42V276.188H104.562C104.034 276.188 103.578 275.636 103.194 274.532C102.81 273.428 102.618 271.916 102.618 269.996C102.618 268.076 102.906 266.396 103.482 264.956C104.106 263.468 104.898 262.724 105.858 262.724H108.162V254.012C108.162 252.524 109.602 251.324 112.482 250.412C115.41 249.5 118.266 249.044 121.05 249.044C125.418 249.044 127.602 250.124 127.602 252.284V262.724H132.93C134.178 262.724 134.802 264.524 134.802 268.124C134.802 270.476 134.514 272.42 133.938 273.956C133.41 275.444 132.714 276.188 131.85 276.188H127.602V289.364C127.602 290.66 128.154 291.596 129.258 292.172C130.362 292.7 131.322 292.964 132.138 292.964C133.002 292.964 133.53 293.372 133.722 294.188C133.914 295.004 134.01 296.228 134.01 297.86C134.01 301.076 133.578 303.092 132.714 303.908ZM161.329 305.204C157.729 305.204 154.633 304.892 152.041 304.268C149.449 303.644 147.097 302.54 144.985 300.956C140.617 297.788 138.433 291.884 138.433 283.244C138.433 275.564 140.665 270.068 145.129 266.756C149.305 263.684 154.705 262.148 161.329 262.148C164.161 262.148 166.585 262.292 168.601 262.58C170.617 262.82 172.657 263.372 174.721 264.236C176.833 265.1 178.513 266.276 179.761 267.764C181.057 269.252 182.113 271.316 182.929 273.956C183.745 276.548 184.153 279.644 184.153 283.244C184.153 290.54 182.089 296.036 177.961 299.732C173.833 303.38 168.289 305.204 161.329 305.204ZM158.809 291.164C159.145 292.892 159.481 293.924 159.817 294.26C160.201 294.596 160.681 294.764 161.257 294.764C161.881 294.764 162.361 294.596 162.697 294.26C163.081 293.924 163.417 292.892 163.705 291.164C164.041 289.436 164.209 287.276 164.209 284.684C164.209 282.044 164.137 280.028 163.993 278.636C163.897 277.196 163.753 276.092 163.561 275.324C163.417 274.556 163.201 273.956 162.913 273.524C162.481 272.9 161.953 272.588 161.329 272.588C160.753 272.588 160.273 272.78 159.889 273.164C159.505 273.5 159.145 274.556 158.809 276.332C158.473 278.06 158.305 280.532 158.305 283.748C158.305 286.964 158.473 289.436 158.809 291.164ZM231.858 280.652V302.828C231.858 303.356 230.49 303.788 227.754 304.124C225.018 304.412 222.186 304.556 219.258 304.556C216.378 304.556 214.506 304.436 213.642 304.196C212.826 303.908 212.418 303.452 212.418 302.828V279.932C212.418 277.772 212.322 276.356 212.13 275.684C211.986 275.012 211.842 274.412 211.698 273.884C211.362 272.972 210.762 272.516 209.898 272.516C208.554 272.516 207.882 273.164 207.882 274.46V302.828C207.882 303.356 206.514 303.788 203.778 304.124C201.09 304.412 198.282 304.556 195.354 304.556C192.474 304.556 190.602 304.436 189.738 304.196C188.874 303.908 188.442 303.452 188.442 302.828V267.332C188.442 266.324 189.81 265.316 192.546 264.308C195.33 263.3 198.258 262.796 201.33 262.796C204.402 262.796 206.13 263.684 206.514 265.46L207.162 268.628H207.666C209.058 265.844 211.458 263.9 214.866 262.796C216.258 262.364 217.794 262.148 219.474 262.148C224.322 262.148 227.586 263.612 229.266 266.54C230.994 269.42 231.858 274.124 231.858 280.652ZM256.687 267.332V302.828C256.687 303.356 255.295 303.788 252.511 304.124C249.775 304.412 246.943 304.556 244.015 304.556C241.135 304.556 239.263 304.436 238.399 304.196C237.583 303.908 237.175 303.452 237.175 302.828V268.628C237.175 267.572 238.519 266.54 241.207 265.532C243.943 264.476 246.919 263.948 250.135 263.948C254.503 263.948 256.687 265.076 256.687 267.332ZM246.895 248.396C250.063 248.396 252.535 248.876 254.311 249.836C256.135 250.748 257.047 252.428 257.047 254.876C257.047 259.196 253.687 261.356 246.967 261.356C240.247 261.356 236.887 259.196 236.887 254.876C236.887 250.556 240.223 248.396 246.895 248.396ZM284.235 305.204C280.635 305.204 277.539 304.892 274.947 304.268C272.355 303.644 270.003 302.54 267.891 300.956C263.523 297.788 261.339 291.884 261.339 283.244C261.339 275.564 263.571 270.068 268.035 266.756C272.211 263.684 277.611 262.148 284.235 262.148C287.067 262.148 289.491 262.292 291.507 262.58C293.523 262.82 295.563 263.372 297.627 264.236C299.739 265.1 301.419 266.276 302.667 267.764C303.963 269.252 305.019 271.316 305.835 273.956C306.651 276.548 307.059 279.644 307.059 283.244C307.059 290.54 304.995 296.036 300.867 299.732C296.739 303.38 291.195 305.204 284.235 305.204ZM281.715 291.164C282.051 292.892 282.387 293.924 282.723 294.26C283.107 294.596 283.587 294.764 284.163 294.764C284.787 294.764 285.267 294.596 285.603 294.26C285.987 293.924 286.323 292.892 286.611 291.164C286.947 289.436 287.115 287.276 287.115 284.684C287.115 282.044 287.043 280.028 286.899 278.636C286.803 277.196 286.659 276.092 286.467 275.324C286.323 274.556 286.107 273.956 285.819 273.524C285.387 272.9 284.859 272.588 284.235 272.588C283.659 272.588 283.179 272.78 282.795 273.164C282.411 273.5 282.051 274.556 281.715 276.332C281.379 278.06 281.211 280.532 281.211 283.748C281.211 286.964 281.379 289.436 281.715 291.164Z" fill="#980F0F"/>
<path opacity="0.94" d="M89.0601 364.999C89.0601 365.623 87.5961 366.127 84.6681 366.511C81.7401 366.895 78.8121 367.087 75.8841 367.087C72.9561 367.087 71.0841 366.919 70.2681 366.583C69.4521 366.247 69.0441 365.719 69.0441 364.999V318.703C69.0441 316.399 75.9561 315.247 89.7801 315.247C98.1321 315.247 103.652 315.823 106.34 316.975C109.604 318.319 111.812 320.143 112.964 322.447C114.5 325.423 115.268 329.239 115.268 333.895C115.268 340.279 114.164 344.911 111.956 347.791C110.372 349.903 108.788 351.271 107.204 351.895C105.62 352.519 104.3 352.975 103.244 353.263C102.236 353.503 100.964 353.695 99.4281 353.839C97.3161 354.031 94.4361 354.127 90.7881 354.127L89.0601 354.055V364.999ZM89.1321 342.103H90.8601C91.7721 342.103 92.4921 341.983 93.0201 341.743C93.5481 341.455 94.0041 340.735 94.3881 339.583C94.8201 338.383 95.0361 336.727 95.0361 334.615C95.0361 332.455 94.7961 330.823 94.3161 329.719C93.8841 328.567 93.4281 327.895 92.9481 327.703C92.5161 327.463 91.9881 327.343 91.3641 327.343H89.1321V342.103ZM139.39 329.863V365.359C139.39 365.887 137.998 366.319 135.214 366.655C132.478 366.943 129.646 367.087 126.718 367.087C123.838 367.087 121.966 366.967 121.102 366.727C120.286 366.439 119.878 365.983 119.878 365.359V331.159C119.878 330.103 121.222 329.071 123.91 328.063C126.646 327.007 129.622 326.479 132.838 326.479C137.206 326.479 139.39 327.607 139.39 329.863ZM129.598 310.927C132.766 310.927 135.238 311.407 137.014 312.367C138.838 313.279 139.75 314.959 139.75 317.407C139.75 321.727 136.39 323.887 129.67 323.887C122.95 323.887 119.59 321.727 119.59 317.407C119.59 313.087 122.926 310.927 129.598 310.927ZM188.178 343.183V365.359C188.178 365.887 186.81 366.319 184.074 366.655C181.338 366.943 178.506 367.087 175.578 367.087C172.698 367.087 170.826 366.967 169.962 366.727C169.146 366.439 168.738 365.983 168.738 365.359V342.463C168.738 340.303 168.642 338.887 168.45 338.215C168.306 337.543 168.162 336.943 168.018 336.415C167.682 335.503 167.082 335.047 166.218 335.047C164.874 335.047 164.202 335.695 164.202 336.991V365.359C164.202 365.887 162.834 366.319 160.098 366.655C157.41 366.943 154.602 367.087 151.674 367.087C148.794 367.087 146.922 366.967 146.058 366.727C145.194 366.439 144.762 365.983 144.762 365.359V329.863C144.762 328.855 146.13 327.847 148.866 326.839C151.65 325.831 154.578 325.327 157.65 325.327C160.722 325.327 162.45 326.215 162.834 327.991L163.482 331.159H163.986C165.378 328.375 167.778 326.431 171.186 325.327C172.578 324.895 174.114 324.679 175.794 324.679C180.642 324.679 183.906 326.143 185.586 329.071C187.314 331.951 188.178 336.655 188.178 343.183ZM181.77 317.479C181.77 318.199 180.522 319.327 178.026 320.863C175.578 322.399 173.418 323.167 171.546 323.167C169.722 323.167 167.514 322.759 164.922 321.943C162.378 321.079 160.722 320.647 159.954 320.647C159.234 320.647 157.818 321.079 155.706 321.943C153.594 322.759 152.106 323.167 151.242 323.167C150.378 323.167 149.466 322.327 148.506 320.647C147.594 318.919 147.138 317.599 147.138 316.687C147.138 315.871 148.434 314.719 151.026 313.231C153.666 311.695 155.85 310.927 157.578 310.927C159.306 310.927 161.418 311.335 163.914 312.151C166.458 312.967 168.282 313.375 169.386 313.375C169.722 313.375 170.898 312.967 172.914 312.151C174.978 311.335 176.466 310.927 177.378 310.927C178.338 310.927 179.298 311.815 180.258 313.591C181.266 315.367 181.77 316.663 181.77 317.479ZM212.144 350.815C212.144 353.935 213.632 355.495 216.608 355.495C218.336 355.495 220.592 354.919 223.376 353.767C226.16 352.567 227.624 351.967 227.768 351.967C228.68 351.967 229.88 353.335 231.367 356.071C232.856 358.807 233.6 360.823 233.6 362.119C233.6 363.991 231.68 365.407 227.84 366.367C224 367.327 220.232 367.807 216.536 367.807C212.888 367.807 209.816 367.519 207.32 366.943C204.872 366.367 202.856 365.647 201.271 364.783C199.736 363.871 198.368 362.767 197.168 361.471C196.016 360.175 195.152 358.951 194.576 357.799C194 356.599 193.544 355.279 193.208 353.839C192.728 351.727 192.488 349.543 192.488 347.287C192.488 338.551 194.768 332.527 199.328 329.215C201.584 327.535 204.104 326.359 206.888 325.687C209.672 325.015 212.96 324.679 216.752 324.679C228.896 324.679 234.968 328.903 234.968 337.351C234.968 346.327 228.152 350.815 214.52 350.815H212.144ZM212 340.303V345.055C213.392 345.055 214.52 344.503 215.384 343.399C216.296 342.295 216.752 340.951 216.752 339.367C216.752 336.487 216.008 335.047 214.52 335.047C212.84 335.047 212 336.799 212 340.303ZM258.702 344.335V365.359C258.702 365.887 257.334 366.319 254.598 366.655C251.91 366.943 249.102 367.087 246.174 367.087C243.294 367.087 241.422 366.967 240.558 366.727C239.694 366.439 239.262 365.983 239.262 365.359V329.863C239.262 328.951 240.582 327.967 243.222 326.911C245.91 325.855 248.814 325.327 251.934 325.327C255.102 325.327 256.878 326.191 257.262 327.919L257.982 331.231H258.486C259.158 329.407 260.766 327.871 263.31 326.623C265.854 325.327 268.398 324.679 270.942 324.679C273.486 324.679 275.262 325.087 276.27 325.903C277.326 326.719 277.854 327.775 277.854 329.071C277.854 330.319 277.758 331.927 277.566 333.895C277.374 335.863 276.894 337.999 276.126 340.303C275.406 342.607 274.446 343.759 273.246 343.759C272.766 343.759 271.254 343.399 268.71 342.679C266.166 341.959 264.054 341.599 262.374 341.599C260.742 341.599 259.71 341.839 259.278 342.319C258.894 342.799 258.702 343.471 258.702 344.335ZM300.386 350.815C300.386 353.935 301.874 355.495 304.85 355.495C306.578 355.495 308.834 354.919 311.618 353.767C314.402 352.567 315.866 351.967 316.01 351.967C316.922 351.967 318.122 353.335 319.61 356.071C321.098 358.807 321.842 360.823 321.842 362.119C321.842 363.991 319.922 365.407 316.082 366.367C312.242 367.327 308.474 367.807 304.778 367.807C301.13 367.807 298.058 367.519 295.562 366.943C293.114 366.367 291.098 365.647 289.514 364.783C287.978 363.871 286.61 362.767 285.41 361.471C284.258 360.175 283.394 358.951 282.818 357.799C282.242 356.599 281.786 355.279 281.45 353.839C280.97 351.727 280.73 349.543 280.73 347.287C280.73 338.551 283.01 332.527 287.57 329.215C289.826 327.535 292.346 326.359 295.13 325.687C297.914 325.015 301.202 324.679 304.994 324.679C317.138 324.679 323.21 328.903 323.21 337.351C323.21 346.327 316.394 350.815 302.762 350.815H300.386ZM300.242 340.303V345.055C301.634 345.055 302.762 344.503 303.626 343.399C304.538 342.295 304.994 340.951 304.994 339.367C304.994 336.487 304.25 335.047 302.762 335.047C301.082 335.047 300.242 336.799 300.242 340.303ZM347.088 367.735C339.12 367.735 333.288 366.967 329.592 365.431C327.72 364.615 326.784 363.823 326.784 363.055C326.784 361.087 327.36 358.783 328.512 356.143C329.664 353.503 330.672 352.183 331.536 352.183C332.016 352.183 333.624 352.711 336.36 353.767C339.144 354.823 341.472 355.351 343.344 355.351C345.264 355.351 346.512 355.231 347.088 354.991C347.712 354.751 348.024 354.295 348.024 353.623C348.024 352.903 347.544 352.351 346.584 351.967C345.624 351.535 344.424 351.247 342.984 351.103C341.544 350.959 339.984 350.671 338.304 350.239C336.672 349.807 335.136 349.255 333.696 348.583C332.256 347.911 331.056 346.807 330.096 345.271C329.136 343.687 328.656 342.007 328.656 340.231C328.656 338.407 328.704 337.063 328.8 336.199C328.896 335.287 329.28 334.039 329.952 332.455C330.672 330.823 331.656 329.503 332.904 328.495C334.2 327.487 336.168 326.575 338.808 325.759C341.496 324.943 344.496 324.535 347.808 324.535C351.12 324.535 353.88 324.655 356.088 324.895C358.344 325.087 360.096 325.351 361.344 325.687C362.64 326.023 363.696 326.407 364.512 326.839C365.904 327.559 366.6 328.351 366.6 329.215C366.6 331.087 365.928 333.247 364.584 335.695C363.24 338.143 362.16 339.367 361.344 339.367C360.576 339.367 358.872 338.959 356.232 338.143C353.592 337.279 351.648 336.847 350.4 336.847C348.384 336.847 347.376 337.423 347.376 338.575C347.376 339.295 348.048 339.847 349.392 340.231C350.784 340.567 352.44 340.927 354.36 341.311C356.28 341.695 358.2 342.247 360.12 342.967C362.088 343.639 363.744 344.887 365.088 346.711C366.48 348.535 367.176 350.839 367.176 353.623C367.176 363.031 360.48 367.735 347.088 367.735Z" fill="#920000"/>
</svg>
